G04 #@! TF.GenerationSoftware,KiCad,Pcbnew,(5.1.4)-1*
G04 #@! TF.CreationDate,2021-05-11T15:14:03+02:00*
G04 #@! TF.ProjectId,proto,70726f74-6f2e-46b6-9963-61645f706362,rev?*
G04 #@! TF.SameCoordinates,Original*
G04 #@! TF.FileFunction,Paste,Top*
G04 #@! TF.FilePolarity,Positive*
%FSLAX46Y46*%
G04 Gerber Fmt 4.6, Leading zero omitted, Abs format (unit mm)*
G04 Created by KiCad (PCBNEW (5.1.4)-1) date 2021-05-11 15:14:03*
%MOMM*%
%LPD*%
G04 APERTURE LIST*
%ADD10C,0.100000*%
%ADD11C,0.875000*%
%ADD12R,1.060000X0.650000*%
G04 APERTURE END LIST*
D10*
G36*
X139227691Y-119226053D02*
G01*
X139248926Y-119229203D01*
X139269750Y-119234419D01*
X139289962Y-119241651D01*
X139309368Y-119250830D01*
X139327781Y-119261866D01*
X139345024Y-119274654D01*
X139360930Y-119289070D01*
X139375346Y-119304976D01*
X139388134Y-119322219D01*
X139399170Y-119340632D01*
X139408349Y-119360038D01*
X139415581Y-119380250D01*
X139420797Y-119401074D01*
X139423947Y-119422309D01*
X139425000Y-119443750D01*
X139425000Y-119956250D01*
X139423947Y-119977691D01*
X139420797Y-119998926D01*
X139415581Y-120019750D01*
X139408349Y-120039962D01*
X139399170Y-120059368D01*
X139388134Y-120077781D01*
X139375346Y-120095024D01*
X139360930Y-120110930D01*
X139345024Y-120125346D01*
X139327781Y-120138134D01*
X139309368Y-120149170D01*
X139289962Y-120158349D01*
X139269750Y-120165581D01*
X139248926Y-120170797D01*
X139227691Y-120173947D01*
X139206250Y-120175000D01*
X138768750Y-120175000D01*
X138747309Y-120173947D01*
X138726074Y-120170797D01*
X138705250Y-120165581D01*
X138685038Y-120158349D01*
X138665632Y-120149170D01*
X138647219Y-120138134D01*
X138629976Y-120125346D01*
X138614070Y-120110930D01*
X138599654Y-120095024D01*
X138586866Y-120077781D01*
X138575830Y-120059368D01*
X138566651Y-120039962D01*
X138559419Y-120019750D01*
X138554203Y-119998926D01*
X138551053Y-119977691D01*
X138550000Y-119956250D01*
X138550000Y-119443750D01*
X138551053Y-119422309D01*
X138554203Y-119401074D01*
X138559419Y-119380250D01*
X138566651Y-119360038D01*
X138575830Y-119340632D01*
X138586866Y-119322219D01*
X138599654Y-119304976D01*
X138614070Y-119289070D01*
X138629976Y-119274654D01*
X138647219Y-119261866D01*
X138665632Y-119250830D01*
X138685038Y-119241651D01*
X138705250Y-119234419D01*
X138726074Y-119229203D01*
X138747309Y-119226053D01*
X138768750Y-119225000D01*
X139206250Y-119225000D01*
X139227691Y-119226053D01*
X139227691Y-119226053D01*
G37*
D11*
X138987500Y-119700000D03*
D10*
G36*
X137652691Y-119226053D02*
G01*
X137673926Y-119229203D01*
X137694750Y-119234419D01*
X137714962Y-119241651D01*
X137734368Y-119250830D01*
X137752781Y-119261866D01*
X137770024Y-119274654D01*
X137785930Y-119289070D01*
X137800346Y-119304976D01*
X137813134Y-119322219D01*
X137824170Y-119340632D01*
X137833349Y-119360038D01*
X137840581Y-119380250D01*
X137845797Y-119401074D01*
X137848947Y-119422309D01*
X137850000Y-119443750D01*
X137850000Y-119956250D01*
X137848947Y-119977691D01*
X137845797Y-119998926D01*
X137840581Y-120019750D01*
X137833349Y-120039962D01*
X137824170Y-120059368D01*
X137813134Y-120077781D01*
X137800346Y-120095024D01*
X137785930Y-120110930D01*
X137770024Y-120125346D01*
X137752781Y-120138134D01*
X137734368Y-120149170D01*
X137714962Y-120158349D01*
X137694750Y-120165581D01*
X137673926Y-120170797D01*
X137652691Y-120173947D01*
X137631250Y-120175000D01*
X137193750Y-120175000D01*
X137172309Y-120173947D01*
X137151074Y-120170797D01*
X137130250Y-120165581D01*
X137110038Y-120158349D01*
X137090632Y-120149170D01*
X137072219Y-120138134D01*
X137054976Y-120125346D01*
X137039070Y-120110930D01*
X137024654Y-120095024D01*
X137011866Y-120077781D01*
X137000830Y-120059368D01*
X136991651Y-120039962D01*
X136984419Y-120019750D01*
X136979203Y-119998926D01*
X136976053Y-119977691D01*
X136975000Y-119956250D01*
X136975000Y-119443750D01*
X136976053Y-119422309D01*
X136979203Y-119401074D01*
X136984419Y-119380250D01*
X136991651Y-119360038D01*
X137000830Y-119340632D01*
X137011866Y-119322219D01*
X137024654Y-119304976D01*
X137039070Y-119289070D01*
X137054976Y-119274654D01*
X137072219Y-119261866D01*
X137090632Y-119250830D01*
X137110038Y-119241651D01*
X137130250Y-119234419D01*
X137151074Y-119229203D01*
X137172309Y-119226053D01*
X137193750Y-119225000D01*
X137631250Y-119225000D01*
X137652691Y-119226053D01*
X137652691Y-119226053D01*
G37*
D11*
X137412500Y-119700000D03*
D10*
G36*
X143252691Y-115926053D02*
G01*
X143273926Y-115929203D01*
X143294750Y-115934419D01*
X143314962Y-115941651D01*
X143334368Y-115950830D01*
X143352781Y-115961866D01*
X143370024Y-115974654D01*
X143385930Y-115989070D01*
X143400346Y-116004976D01*
X143413134Y-116022219D01*
X143424170Y-116040632D01*
X143433349Y-116060038D01*
X143440581Y-116080250D01*
X143445797Y-116101074D01*
X143448947Y-116122309D01*
X143450000Y-116143750D01*
X143450000Y-116656250D01*
X143448947Y-116677691D01*
X143445797Y-116698926D01*
X143440581Y-116719750D01*
X143433349Y-116739962D01*
X143424170Y-116759368D01*
X143413134Y-116777781D01*
X143400346Y-116795024D01*
X143385930Y-116810930D01*
X143370024Y-116825346D01*
X143352781Y-116838134D01*
X143334368Y-116849170D01*
X143314962Y-116858349D01*
X143294750Y-116865581D01*
X143273926Y-116870797D01*
X143252691Y-116873947D01*
X143231250Y-116875000D01*
X142793750Y-116875000D01*
X142772309Y-116873947D01*
X142751074Y-116870797D01*
X142730250Y-116865581D01*
X142710038Y-116858349D01*
X142690632Y-116849170D01*
X142672219Y-116838134D01*
X142654976Y-116825346D01*
X142639070Y-116810930D01*
X142624654Y-116795024D01*
X142611866Y-116777781D01*
X142600830Y-116759368D01*
X142591651Y-116739962D01*
X142584419Y-116719750D01*
X142579203Y-116698926D01*
X142576053Y-116677691D01*
X142575000Y-116656250D01*
X142575000Y-116143750D01*
X142576053Y-116122309D01*
X142579203Y-116101074D01*
X142584419Y-116080250D01*
X142591651Y-116060038D01*
X142600830Y-116040632D01*
X142611866Y-116022219D01*
X142624654Y-116004976D01*
X142639070Y-115989070D01*
X142654976Y-115974654D01*
X142672219Y-115961866D01*
X142690632Y-115950830D01*
X142710038Y-115941651D01*
X142730250Y-115934419D01*
X142751074Y-115929203D01*
X142772309Y-115926053D01*
X142793750Y-115925000D01*
X143231250Y-115925000D01*
X143252691Y-115926053D01*
X143252691Y-115926053D01*
G37*
D11*
X143012500Y-116400000D03*
D10*
G36*
X141677691Y-115926053D02*
G01*
X141698926Y-115929203D01*
X141719750Y-115934419D01*
X141739962Y-115941651D01*
X141759368Y-115950830D01*
X141777781Y-115961866D01*
X141795024Y-115974654D01*
X141810930Y-115989070D01*
X141825346Y-116004976D01*
X141838134Y-116022219D01*
X141849170Y-116040632D01*
X141858349Y-116060038D01*
X141865581Y-116080250D01*
X141870797Y-116101074D01*
X141873947Y-116122309D01*
X141875000Y-116143750D01*
X141875000Y-116656250D01*
X141873947Y-116677691D01*
X141870797Y-116698926D01*
X141865581Y-116719750D01*
X141858349Y-116739962D01*
X141849170Y-116759368D01*
X141838134Y-116777781D01*
X141825346Y-116795024D01*
X141810930Y-116810930D01*
X141795024Y-116825346D01*
X141777781Y-116838134D01*
X141759368Y-116849170D01*
X141739962Y-116858349D01*
X141719750Y-116865581D01*
X141698926Y-116870797D01*
X141677691Y-116873947D01*
X141656250Y-116875000D01*
X141218750Y-116875000D01*
X141197309Y-116873947D01*
X141176074Y-116870797D01*
X141155250Y-116865581D01*
X141135038Y-116858349D01*
X141115632Y-116849170D01*
X141097219Y-116838134D01*
X141079976Y-116825346D01*
X141064070Y-116810930D01*
X141049654Y-116795024D01*
X141036866Y-116777781D01*
X141025830Y-116759368D01*
X141016651Y-116739962D01*
X141009419Y-116719750D01*
X141004203Y-116698926D01*
X141001053Y-116677691D01*
X141000000Y-116656250D01*
X141000000Y-116143750D01*
X141001053Y-116122309D01*
X141004203Y-116101074D01*
X141009419Y-116080250D01*
X141016651Y-116060038D01*
X141025830Y-116040632D01*
X141036866Y-116022219D01*
X141049654Y-116004976D01*
X141064070Y-115989070D01*
X141079976Y-115974654D01*
X141097219Y-115961866D01*
X141115632Y-115950830D01*
X141135038Y-115941651D01*
X141155250Y-115934419D01*
X141176074Y-115929203D01*
X141197309Y-115926053D01*
X141218750Y-115925000D01*
X141656250Y-115925000D01*
X141677691Y-115926053D01*
X141677691Y-115926053D01*
G37*
D11*
X141437500Y-116400000D03*
D10*
G36*
X134827691Y-119226053D02*
G01*
X134848926Y-119229203D01*
X134869750Y-119234419D01*
X134889962Y-119241651D01*
X134909368Y-119250830D01*
X134927781Y-119261866D01*
X134945024Y-119274654D01*
X134960930Y-119289070D01*
X134975346Y-119304976D01*
X134988134Y-119322219D01*
X134999170Y-119340632D01*
X135008349Y-119360038D01*
X135015581Y-119380250D01*
X135020797Y-119401074D01*
X135023947Y-119422309D01*
X135025000Y-119443750D01*
X135025000Y-119956250D01*
X135023947Y-119977691D01*
X135020797Y-119998926D01*
X135015581Y-120019750D01*
X135008349Y-120039962D01*
X134999170Y-120059368D01*
X134988134Y-120077781D01*
X134975346Y-120095024D01*
X134960930Y-120110930D01*
X134945024Y-120125346D01*
X134927781Y-120138134D01*
X134909368Y-120149170D01*
X134889962Y-120158349D01*
X134869750Y-120165581D01*
X134848926Y-120170797D01*
X134827691Y-120173947D01*
X134806250Y-120175000D01*
X134368750Y-120175000D01*
X134347309Y-120173947D01*
X134326074Y-120170797D01*
X134305250Y-120165581D01*
X134285038Y-120158349D01*
X134265632Y-120149170D01*
X134247219Y-120138134D01*
X134229976Y-120125346D01*
X134214070Y-120110930D01*
X134199654Y-120095024D01*
X134186866Y-120077781D01*
X134175830Y-120059368D01*
X134166651Y-120039962D01*
X134159419Y-120019750D01*
X134154203Y-119998926D01*
X134151053Y-119977691D01*
X134150000Y-119956250D01*
X134150000Y-119443750D01*
X134151053Y-119422309D01*
X134154203Y-119401074D01*
X134159419Y-119380250D01*
X134166651Y-119360038D01*
X134175830Y-119340632D01*
X134186866Y-119322219D01*
X134199654Y-119304976D01*
X134214070Y-119289070D01*
X134229976Y-119274654D01*
X134247219Y-119261866D01*
X134265632Y-119250830D01*
X134285038Y-119241651D01*
X134305250Y-119234419D01*
X134326074Y-119229203D01*
X134347309Y-119226053D01*
X134368750Y-119225000D01*
X134806250Y-119225000D01*
X134827691Y-119226053D01*
X134827691Y-119226053D01*
G37*
D11*
X134587500Y-119700000D03*
D10*
G36*
X133252691Y-119226053D02*
G01*
X133273926Y-119229203D01*
X133294750Y-119234419D01*
X133314962Y-119241651D01*
X133334368Y-119250830D01*
X133352781Y-119261866D01*
X133370024Y-119274654D01*
X133385930Y-119289070D01*
X133400346Y-119304976D01*
X133413134Y-119322219D01*
X133424170Y-119340632D01*
X133433349Y-119360038D01*
X133440581Y-119380250D01*
X133445797Y-119401074D01*
X133448947Y-119422309D01*
X133450000Y-119443750D01*
X133450000Y-119956250D01*
X133448947Y-119977691D01*
X133445797Y-119998926D01*
X133440581Y-120019750D01*
X133433349Y-120039962D01*
X133424170Y-120059368D01*
X133413134Y-120077781D01*
X133400346Y-120095024D01*
X133385930Y-120110930D01*
X133370024Y-120125346D01*
X133352781Y-120138134D01*
X133334368Y-120149170D01*
X133314962Y-120158349D01*
X133294750Y-120165581D01*
X133273926Y-120170797D01*
X133252691Y-120173947D01*
X133231250Y-120175000D01*
X132793750Y-120175000D01*
X132772309Y-120173947D01*
X132751074Y-120170797D01*
X132730250Y-120165581D01*
X132710038Y-120158349D01*
X132690632Y-120149170D01*
X132672219Y-120138134D01*
X132654976Y-120125346D01*
X132639070Y-120110930D01*
X132624654Y-120095024D01*
X132611866Y-120077781D01*
X132600830Y-120059368D01*
X132591651Y-120039962D01*
X132584419Y-120019750D01*
X132579203Y-119998926D01*
X132576053Y-119977691D01*
X132575000Y-119956250D01*
X132575000Y-119443750D01*
X132576053Y-119422309D01*
X132579203Y-119401074D01*
X132584419Y-119380250D01*
X132591651Y-119360038D01*
X132600830Y-119340632D01*
X132611866Y-119322219D01*
X132624654Y-119304976D01*
X132639070Y-119289070D01*
X132654976Y-119274654D01*
X132672219Y-119261866D01*
X132690632Y-119250830D01*
X132710038Y-119241651D01*
X132730250Y-119234419D01*
X132751074Y-119229203D01*
X132772309Y-119226053D01*
X132793750Y-119225000D01*
X133231250Y-119225000D01*
X133252691Y-119226053D01*
X133252691Y-119226053D01*
G37*
D11*
X133012500Y-119700000D03*
D10*
G36*
X132977691Y-92451053D02*
G01*
X132998926Y-92454203D01*
X133019750Y-92459419D01*
X133039962Y-92466651D01*
X133059368Y-92475830D01*
X133077781Y-92486866D01*
X133095024Y-92499654D01*
X133110930Y-92514070D01*
X133125346Y-92529976D01*
X133138134Y-92547219D01*
X133149170Y-92565632D01*
X133158349Y-92585038D01*
X133165581Y-92605250D01*
X133170797Y-92626074D01*
X133173947Y-92647309D01*
X133175000Y-92668750D01*
X133175000Y-93106250D01*
X133173947Y-93127691D01*
X133170797Y-93148926D01*
X133165581Y-93169750D01*
X133158349Y-93189962D01*
X133149170Y-93209368D01*
X133138134Y-93227781D01*
X133125346Y-93245024D01*
X133110930Y-93260930D01*
X133095024Y-93275346D01*
X133077781Y-93288134D01*
X133059368Y-93299170D01*
X133039962Y-93308349D01*
X133019750Y-93315581D01*
X132998926Y-93320797D01*
X132977691Y-93323947D01*
X132956250Y-93325000D01*
X132443750Y-93325000D01*
X132422309Y-93323947D01*
X132401074Y-93320797D01*
X132380250Y-93315581D01*
X132360038Y-93308349D01*
X132340632Y-93299170D01*
X132322219Y-93288134D01*
X132304976Y-93275346D01*
X132289070Y-93260930D01*
X132274654Y-93245024D01*
X132261866Y-93227781D01*
X132250830Y-93209368D01*
X132241651Y-93189962D01*
X132234419Y-93169750D01*
X132229203Y-93148926D01*
X132226053Y-93127691D01*
X132225000Y-93106250D01*
X132225000Y-92668750D01*
X132226053Y-92647309D01*
X132229203Y-92626074D01*
X132234419Y-92605250D01*
X132241651Y-92585038D01*
X132250830Y-92565632D01*
X132261866Y-92547219D01*
X132274654Y-92529976D01*
X132289070Y-92514070D01*
X132304976Y-92499654D01*
X132322219Y-92486866D01*
X132340632Y-92475830D01*
X132360038Y-92466651D01*
X132380250Y-92459419D01*
X132401074Y-92454203D01*
X132422309Y-92451053D01*
X132443750Y-92450000D01*
X132956250Y-92450000D01*
X132977691Y-92451053D01*
X132977691Y-92451053D01*
G37*
D11*
X132700000Y-92887500D03*
D10*
G36*
X132977691Y-90876053D02*
G01*
X132998926Y-90879203D01*
X133019750Y-90884419D01*
X133039962Y-90891651D01*
X133059368Y-90900830D01*
X133077781Y-90911866D01*
X133095024Y-90924654D01*
X133110930Y-90939070D01*
X133125346Y-90954976D01*
X133138134Y-90972219D01*
X133149170Y-90990632D01*
X133158349Y-91010038D01*
X133165581Y-91030250D01*
X133170797Y-91051074D01*
X133173947Y-91072309D01*
X133175000Y-91093750D01*
X133175000Y-91531250D01*
X133173947Y-91552691D01*
X133170797Y-91573926D01*
X133165581Y-91594750D01*
X133158349Y-91614962D01*
X133149170Y-91634368D01*
X133138134Y-91652781D01*
X133125346Y-91670024D01*
X133110930Y-91685930D01*
X133095024Y-91700346D01*
X133077781Y-91713134D01*
X133059368Y-91724170D01*
X133039962Y-91733349D01*
X133019750Y-91740581D01*
X132998926Y-91745797D01*
X132977691Y-91748947D01*
X132956250Y-91750000D01*
X132443750Y-91750000D01*
X132422309Y-91748947D01*
X132401074Y-91745797D01*
X132380250Y-91740581D01*
X132360038Y-91733349D01*
X132340632Y-91724170D01*
X132322219Y-91713134D01*
X132304976Y-91700346D01*
X132289070Y-91685930D01*
X132274654Y-91670024D01*
X132261866Y-91652781D01*
X132250830Y-91634368D01*
X132241651Y-91614962D01*
X132234419Y-91594750D01*
X132229203Y-91573926D01*
X132226053Y-91552691D01*
X132225000Y-91531250D01*
X132225000Y-91093750D01*
X132226053Y-91072309D01*
X132229203Y-91051074D01*
X132234419Y-91030250D01*
X132241651Y-91010038D01*
X132250830Y-90990632D01*
X132261866Y-90972219D01*
X132274654Y-90954976D01*
X132289070Y-90939070D01*
X132304976Y-90924654D01*
X132322219Y-90911866D01*
X132340632Y-90900830D01*
X132360038Y-90891651D01*
X132380250Y-90884419D01*
X132401074Y-90879203D01*
X132422309Y-90876053D01*
X132443750Y-90875000D01*
X132956250Y-90875000D01*
X132977691Y-90876053D01*
X132977691Y-90876053D01*
G37*
D11*
X132700000Y-91312500D03*
D10*
G36*
X170877691Y-85776053D02*
G01*
X170898926Y-85779203D01*
X170919750Y-85784419D01*
X170939962Y-85791651D01*
X170959368Y-85800830D01*
X170977781Y-85811866D01*
X170995024Y-85824654D01*
X171010930Y-85839070D01*
X171025346Y-85854976D01*
X171038134Y-85872219D01*
X171049170Y-85890632D01*
X171058349Y-85910038D01*
X171065581Y-85930250D01*
X171070797Y-85951074D01*
X171073947Y-85972309D01*
X171075000Y-85993750D01*
X171075000Y-86431250D01*
X171073947Y-86452691D01*
X171070797Y-86473926D01*
X171065581Y-86494750D01*
X171058349Y-86514962D01*
X171049170Y-86534368D01*
X171038134Y-86552781D01*
X171025346Y-86570024D01*
X171010930Y-86585930D01*
X170995024Y-86600346D01*
X170977781Y-86613134D01*
X170959368Y-86624170D01*
X170939962Y-86633349D01*
X170919750Y-86640581D01*
X170898926Y-86645797D01*
X170877691Y-86648947D01*
X170856250Y-86650000D01*
X170343750Y-86650000D01*
X170322309Y-86648947D01*
X170301074Y-86645797D01*
X170280250Y-86640581D01*
X170260038Y-86633349D01*
X170240632Y-86624170D01*
X170222219Y-86613134D01*
X170204976Y-86600346D01*
X170189070Y-86585930D01*
X170174654Y-86570024D01*
X170161866Y-86552781D01*
X170150830Y-86534368D01*
X170141651Y-86514962D01*
X170134419Y-86494750D01*
X170129203Y-86473926D01*
X170126053Y-86452691D01*
X170125000Y-86431250D01*
X170125000Y-85993750D01*
X170126053Y-85972309D01*
X170129203Y-85951074D01*
X170134419Y-85930250D01*
X170141651Y-85910038D01*
X170150830Y-85890632D01*
X170161866Y-85872219D01*
X170174654Y-85854976D01*
X170189070Y-85839070D01*
X170204976Y-85824654D01*
X170222219Y-85811866D01*
X170240632Y-85800830D01*
X170260038Y-85791651D01*
X170280250Y-85784419D01*
X170301074Y-85779203D01*
X170322309Y-85776053D01*
X170343750Y-85775000D01*
X170856250Y-85775000D01*
X170877691Y-85776053D01*
X170877691Y-85776053D01*
G37*
D11*
X170600000Y-86212500D03*
D10*
G36*
X170877691Y-87351053D02*
G01*
X170898926Y-87354203D01*
X170919750Y-87359419D01*
X170939962Y-87366651D01*
X170959368Y-87375830D01*
X170977781Y-87386866D01*
X170995024Y-87399654D01*
X171010930Y-87414070D01*
X171025346Y-87429976D01*
X171038134Y-87447219D01*
X171049170Y-87465632D01*
X171058349Y-87485038D01*
X171065581Y-87505250D01*
X171070797Y-87526074D01*
X171073947Y-87547309D01*
X171075000Y-87568750D01*
X171075000Y-88006250D01*
X171073947Y-88027691D01*
X171070797Y-88048926D01*
X171065581Y-88069750D01*
X171058349Y-88089962D01*
X171049170Y-88109368D01*
X171038134Y-88127781D01*
X171025346Y-88145024D01*
X171010930Y-88160930D01*
X170995024Y-88175346D01*
X170977781Y-88188134D01*
X170959368Y-88199170D01*
X170939962Y-88208349D01*
X170919750Y-88215581D01*
X170898926Y-88220797D01*
X170877691Y-88223947D01*
X170856250Y-88225000D01*
X170343750Y-88225000D01*
X170322309Y-88223947D01*
X170301074Y-88220797D01*
X170280250Y-88215581D01*
X170260038Y-88208349D01*
X170240632Y-88199170D01*
X170222219Y-88188134D01*
X170204976Y-88175346D01*
X170189070Y-88160930D01*
X170174654Y-88145024D01*
X170161866Y-88127781D01*
X170150830Y-88109368D01*
X170141651Y-88089962D01*
X170134419Y-88069750D01*
X170129203Y-88048926D01*
X170126053Y-88027691D01*
X170125000Y-88006250D01*
X170125000Y-87568750D01*
X170126053Y-87547309D01*
X170129203Y-87526074D01*
X170134419Y-87505250D01*
X170141651Y-87485038D01*
X170150830Y-87465632D01*
X170161866Y-87447219D01*
X170174654Y-87429976D01*
X170189070Y-87414070D01*
X170204976Y-87399654D01*
X170222219Y-87386866D01*
X170240632Y-87375830D01*
X170260038Y-87366651D01*
X170280250Y-87359419D01*
X170301074Y-87354203D01*
X170322309Y-87351053D01*
X170343750Y-87350000D01*
X170856250Y-87350000D01*
X170877691Y-87351053D01*
X170877691Y-87351053D01*
G37*
D11*
X170600000Y-87787500D03*
D10*
G36*
X144852691Y-115926053D02*
G01*
X144873926Y-115929203D01*
X144894750Y-115934419D01*
X144914962Y-115941651D01*
X144934368Y-115950830D01*
X144952781Y-115961866D01*
X144970024Y-115974654D01*
X144985930Y-115989070D01*
X145000346Y-116004976D01*
X145013134Y-116022219D01*
X145024170Y-116040632D01*
X145033349Y-116060038D01*
X145040581Y-116080250D01*
X145045797Y-116101074D01*
X145048947Y-116122309D01*
X145050000Y-116143750D01*
X145050000Y-116656250D01*
X145048947Y-116677691D01*
X145045797Y-116698926D01*
X145040581Y-116719750D01*
X145033349Y-116739962D01*
X145024170Y-116759368D01*
X145013134Y-116777781D01*
X145000346Y-116795024D01*
X144985930Y-116810930D01*
X144970024Y-116825346D01*
X144952781Y-116838134D01*
X144934368Y-116849170D01*
X144914962Y-116858349D01*
X144894750Y-116865581D01*
X144873926Y-116870797D01*
X144852691Y-116873947D01*
X144831250Y-116875000D01*
X144393750Y-116875000D01*
X144372309Y-116873947D01*
X144351074Y-116870797D01*
X144330250Y-116865581D01*
X144310038Y-116858349D01*
X144290632Y-116849170D01*
X144272219Y-116838134D01*
X144254976Y-116825346D01*
X144239070Y-116810930D01*
X144224654Y-116795024D01*
X144211866Y-116777781D01*
X144200830Y-116759368D01*
X144191651Y-116739962D01*
X144184419Y-116719750D01*
X144179203Y-116698926D01*
X144176053Y-116677691D01*
X144175000Y-116656250D01*
X144175000Y-116143750D01*
X144176053Y-116122309D01*
X144179203Y-116101074D01*
X144184419Y-116080250D01*
X144191651Y-116060038D01*
X144200830Y-116040632D01*
X144211866Y-116022219D01*
X144224654Y-116004976D01*
X144239070Y-115989070D01*
X144254976Y-115974654D01*
X144272219Y-115961866D01*
X144290632Y-115950830D01*
X144310038Y-115941651D01*
X144330250Y-115934419D01*
X144351074Y-115929203D01*
X144372309Y-115926053D01*
X144393750Y-115925000D01*
X144831250Y-115925000D01*
X144852691Y-115926053D01*
X144852691Y-115926053D01*
G37*
D11*
X144612500Y-116400000D03*
D10*
G36*
X146427691Y-115926053D02*
G01*
X146448926Y-115929203D01*
X146469750Y-115934419D01*
X146489962Y-115941651D01*
X146509368Y-115950830D01*
X146527781Y-115961866D01*
X146545024Y-115974654D01*
X146560930Y-115989070D01*
X146575346Y-116004976D01*
X146588134Y-116022219D01*
X146599170Y-116040632D01*
X146608349Y-116060038D01*
X146615581Y-116080250D01*
X146620797Y-116101074D01*
X146623947Y-116122309D01*
X146625000Y-116143750D01*
X146625000Y-116656250D01*
X146623947Y-116677691D01*
X146620797Y-116698926D01*
X146615581Y-116719750D01*
X146608349Y-116739962D01*
X146599170Y-116759368D01*
X146588134Y-116777781D01*
X146575346Y-116795024D01*
X146560930Y-116810930D01*
X146545024Y-116825346D01*
X146527781Y-116838134D01*
X146509368Y-116849170D01*
X146489962Y-116858349D01*
X146469750Y-116865581D01*
X146448926Y-116870797D01*
X146427691Y-116873947D01*
X146406250Y-116875000D01*
X145968750Y-116875000D01*
X145947309Y-116873947D01*
X145926074Y-116870797D01*
X145905250Y-116865581D01*
X145885038Y-116858349D01*
X145865632Y-116849170D01*
X145847219Y-116838134D01*
X145829976Y-116825346D01*
X145814070Y-116810930D01*
X145799654Y-116795024D01*
X145786866Y-116777781D01*
X145775830Y-116759368D01*
X145766651Y-116739962D01*
X145759419Y-116719750D01*
X145754203Y-116698926D01*
X145751053Y-116677691D01*
X145750000Y-116656250D01*
X145750000Y-116143750D01*
X145751053Y-116122309D01*
X145754203Y-116101074D01*
X145759419Y-116080250D01*
X145766651Y-116060038D01*
X145775830Y-116040632D01*
X145786866Y-116022219D01*
X145799654Y-116004976D01*
X145814070Y-115989070D01*
X145829976Y-115974654D01*
X145847219Y-115961866D01*
X145865632Y-115950830D01*
X145885038Y-115941651D01*
X145905250Y-115934419D01*
X145926074Y-115929203D01*
X145947309Y-115926053D01*
X145968750Y-115925000D01*
X146406250Y-115925000D01*
X146427691Y-115926053D01*
X146427691Y-115926053D01*
G37*
D11*
X146187500Y-116400000D03*
D10*
G36*
X134577691Y-90876053D02*
G01*
X134598926Y-90879203D01*
X134619750Y-90884419D01*
X134639962Y-90891651D01*
X134659368Y-90900830D01*
X134677781Y-90911866D01*
X134695024Y-90924654D01*
X134710930Y-90939070D01*
X134725346Y-90954976D01*
X134738134Y-90972219D01*
X134749170Y-90990632D01*
X134758349Y-91010038D01*
X134765581Y-91030250D01*
X134770797Y-91051074D01*
X134773947Y-91072309D01*
X134775000Y-91093750D01*
X134775000Y-91531250D01*
X134773947Y-91552691D01*
X134770797Y-91573926D01*
X134765581Y-91594750D01*
X134758349Y-91614962D01*
X134749170Y-91634368D01*
X134738134Y-91652781D01*
X134725346Y-91670024D01*
X134710930Y-91685930D01*
X134695024Y-91700346D01*
X134677781Y-91713134D01*
X134659368Y-91724170D01*
X134639962Y-91733349D01*
X134619750Y-91740581D01*
X134598926Y-91745797D01*
X134577691Y-91748947D01*
X134556250Y-91750000D01*
X134043750Y-91750000D01*
X134022309Y-91748947D01*
X134001074Y-91745797D01*
X133980250Y-91740581D01*
X133960038Y-91733349D01*
X133940632Y-91724170D01*
X133922219Y-91713134D01*
X133904976Y-91700346D01*
X133889070Y-91685930D01*
X133874654Y-91670024D01*
X133861866Y-91652781D01*
X133850830Y-91634368D01*
X133841651Y-91614962D01*
X133834419Y-91594750D01*
X133829203Y-91573926D01*
X133826053Y-91552691D01*
X133825000Y-91531250D01*
X133825000Y-91093750D01*
X133826053Y-91072309D01*
X133829203Y-91051074D01*
X133834419Y-91030250D01*
X133841651Y-91010038D01*
X133850830Y-90990632D01*
X133861866Y-90972219D01*
X133874654Y-90954976D01*
X133889070Y-90939070D01*
X133904976Y-90924654D01*
X133922219Y-90911866D01*
X133940632Y-90900830D01*
X133960038Y-90891651D01*
X133980250Y-90884419D01*
X134001074Y-90879203D01*
X134022309Y-90876053D01*
X134043750Y-90875000D01*
X134556250Y-90875000D01*
X134577691Y-90876053D01*
X134577691Y-90876053D01*
G37*
D11*
X134300000Y-91312500D03*
D10*
G36*
X134577691Y-92451053D02*
G01*
X134598926Y-92454203D01*
X134619750Y-92459419D01*
X134639962Y-92466651D01*
X134659368Y-92475830D01*
X134677781Y-92486866D01*
X134695024Y-92499654D01*
X134710930Y-92514070D01*
X134725346Y-92529976D01*
X134738134Y-92547219D01*
X134749170Y-92565632D01*
X134758349Y-92585038D01*
X134765581Y-92605250D01*
X134770797Y-92626074D01*
X134773947Y-92647309D01*
X134775000Y-92668750D01*
X134775000Y-93106250D01*
X134773947Y-93127691D01*
X134770797Y-93148926D01*
X134765581Y-93169750D01*
X134758349Y-93189962D01*
X134749170Y-93209368D01*
X134738134Y-93227781D01*
X134725346Y-93245024D01*
X134710930Y-93260930D01*
X134695024Y-93275346D01*
X134677781Y-93288134D01*
X134659368Y-93299170D01*
X134639962Y-93308349D01*
X134619750Y-93315581D01*
X134598926Y-93320797D01*
X134577691Y-93323947D01*
X134556250Y-93325000D01*
X134043750Y-93325000D01*
X134022309Y-93323947D01*
X134001074Y-93320797D01*
X133980250Y-93315581D01*
X133960038Y-93308349D01*
X133940632Y-93299170D01*
X133922219Y-93288134D01*
X133904976Y-93275346D01*
X133889070Y-93260930D01*
X133874654Y-93245024D01*
X133861866Y-93227781D01*
X133850830Y-93209368D01*
X133841651Y-93189962D01*
X133834419Y-93169750D01*
X133829203Y-93148926D01*
X133826053Y-93127691D01*
X133825000Y-93106250D01*
X133825000Y-92668750D01*
X133826053Y-92647309D01*
X133829203Y-92626074D01*
X133834419Y-92605250D01*
X133841651Y-92585038D01*
X133850830Y-92565632D01*
X133861866Y-92547219D01*
X133874654Y-92529976D01*
X133889070Y-92514070D01*
X133904976Y-92499654D01*
X133922219Y-92486866D01*
X133940632Y-92475830D01*
X133960038Y-92466651D01*
X133980250Y-92459419D01*
X134001074Y-92454203D01*
X134022309Y-92451053D01*
X134043750Y-92450000D01*
X134556250Y-92450000D01*
X134577691Y-92451053D01*
X134577691Y-92451053D01*
G37*
D11*
X134300000Y-92887500D03*
D10*
G36*
X169177691Y-85776053D02*
G01*
X169198926Y-85779203D01*
X169219750Y-85784419D01*
X169239962Y-85791651D01*
X169259368Y-85800830D01*
X169277781Y-85811866D01*
X169295024Y-85824654D01*
X169310930Y-85839070D01*
X169325346Y-85854976D01*
X169338134Y-85872219D01*
X169349170Y-85890632D01*
X169358349Y-85910038D01*
X169365581Y-85930250D01*
X169370797Y-85951074D01*
X169373947Y-85972309D01*
X169375000Y-85993750D01*
X169375000Y-86431250D01*
X169373947Y-86452691D01*
X169370797Y-86473926D01*
X169365581Y-86494750D01*
X169358349Y-86514962D01*
X169349170Y-86534368D01*
X169338134Y-86552781D01*
X169325346Y-86570024D01*
X169310930Y-86585930D01*
X169295024Y-86600346D01*
X169277781Y-86613134D01*
X169259368Y-86624170D01*
X169239962Y-86633349D01*
X169219750Y-86640581D01*
X169198926Y-86645797D01*
X169177691Y-86648947D01*
X169156250Y-86650000D01*
X168643750Y-86650000D01*
X168622309Y-86648947D01*
X168601074Y-86645797D01*
X168580250Y-86640581D01*
X168560038Y-86633349D01*
X168540632Y-86624170D01*
X168522219Y-86613134D01*
X168504976Y-86600346D01*
X168489070Y-86585930D01*
X168474654Y-86570024D01*
X168461866Y-86552781D01*
X168450830Y-86534368D01*
X168441651Y-86514962D01*
X168434419Y-86494750D01*
X168429203Y-86473926D01*
X168426053Y-86452691D01*
X168425000Y-86431250D01*
X168425000Y-85993750D01*
X168426053Y-85972309D01*
X168429203Y-85951074D01*
X168434419Y-85930250D01*
X168441651Y-85910038D01*
X168450830Y-85890632D01*
X168461866Y-85872219D01*
X168474654Y-85854976D01*
X168489070Y-85839070D01*
X168504976Y-85824654D01*
X168522219Y-85811866D01*
X168540632Y-85800830D01*
X168560038Y-85791651D01*
X168580250Y-85784419D01*
X168601074Y-85779203D01*
X168622309Y-85776053D01*
X168643750Y-85775000D01*
X169156250Y-85775000D01*
X169177691Y-85776053D01*
X169177691Y-85776053D01*
G37*
D11*
X168900000Y-86212500D03*
D10*
G36*
X169177691Y-87351053D02*
G01*
X169198926Y-87354203D01*
X169219750Y-87359419D01*
X169239962Y-87366651D01*
X169259368Y-87375830D01*
X169277781Y-87386866D01*
X169295024Y-87399654D01*
X169310930Y-87414070D01*
X169325346Y-87429976D01*
X169338134Y-87447219D01*
X169349170Y-87465632D01*
X169358349Y-87485038D01*
X169365581Y-87505250D01*
X169370797Y-87526074D01*
X169373947Y-87547309D01*
X169375000Y-87568750D01*
X169375000Y-88006250D01*
X169373947Y-88027691D01*
X169370797Y-88048926D01*
X169365581Y-88069750D01*
X169358349Y-88089962D01*
X169349170Y-88109368D01*
X169338134Y-88127781D01*
X169325346Y-88145024D01*
X169310930Y-88160930D01*
X169295024Y-88175346D01*
X169277781Y-88188134D01*
X169259368Y-88199170D01*
X169239962Y-88208349D01*
X169219750Y-88215581D01*
X169198926Y-88220797D01*
X169177691Y-88223947D01*
X169156250Y-88225000D01*
X168643750Y-88225000D01*
X168622309Y-88223947D01*
X168601074Y-88220797D01*
X168580250Y-88215581D01*
X168560038Y-88208349D01*
X168540632Y-88199170D01*
X168522219Y-88188134D01*
X168504976Y-88175346D01*
X168489070Y-88160930D01*
X168474654Y-88145024D01*
X168461866Y-88127781D01*
X168450830Y-88109368D01*
X168441651Y-88089962D01*
X168434419Y-88069750D01*
X168429203Y-88048926D01*
X168426053Y-88027691D01*
X168425000Y-88006250D01*
X168425000Y-87568750D01*
X168426053Y-87547309D01*
X168429203Y-87526074D01*
X168434419Y-87505250D01*
X168441651Y-87485038D01*
X168450830Y-87465632D01*
X168461866Y-87447219D01*
X168474654Y-87429976D01*
X168489070Y-87414070D01*
X168504976Y-87399654D01*
X168522219Y-87386866D01*
X168540632Y-87375830D01*
X168560038Y-87366651D01*
X168580250Y-87359419D01*
X168601074Y-87354203D01*
X168622309Y-87351053D01*
X168643750Y-87350000D01*
X169156250Y-87350000D01*
X169177691Y-87351053D01*
X169177691Y-87351053D01*
G37*
D11*
X168900000Y-87787500D03*
D12*
X134800000Y-124450000D03*
X134800000Y-125400000D03*
X134800000Y-126350000D03*
X137000000Y-126350000D03*
X137000000Y-124450000D03*
M02*
