M48
; DRILL file {KiCad (5.1.4)-1} date 17/08/2020 08:14:48
; FORMAT={-:-/ absolute / inch / decimal}
; #@! TF.CreationDate,2020-08-17T08:14:48+02:00
; #@! TF.GenerationSoftware,Kicad,Pcbnew,(5.1.4)-1
; #@! TF.FileFunction,Plated,1,2,PTH
FMAT,2
INCH
T1C0.0157
T2C0.0236
T3C0.0300
T4C0.0394
T5C0.0433
T6C0.0437
T7C0.0961
%
G90
G05
T1
X4.9606Y-2.9921
X4.9606Y-3.189
X4.9606Y-3.3858
X4.9606Y-3.5827
X4.9606Y-3.7795
X4.9606Y-3.9764
X4.9606Y-4.1732
X4.9606Y-4.3701
X4.9606Y-4.5669
X4.9606Y-4.7638
X4.9606Y-4.9606
X5.0394Y-2.9921
X5.0394Y-5.0787
X5.0827Y-3.8583
X5.0827Y-3.9567
X5.0827Y-4.0551
X5.0827Y-4.4646
X5.0827Y-4.5551
X5.0866Y-3.6575
X5.0866Y-3.7559
X5.0866Y-4.6575
X5.2165Y-3.248
X5.2362Y-2.9921
X5.2362Y-4.7638
X5.2362Y-5.0787
X5.248Y-5.0315
X5.2717Y-4.0551
X5.315Y-3.7795
X5.315Y-4.0157
X5.315Y-4.2126
X5.315Y-4.4094
X5.315Y-4.6063
X5.3543Y-3.4646
X5.4331Y-2.9921
X5.4331Y-5.0787
X5.4567Y-3.9567
X5.4843Y-4.7913
X5.5118Y-3.248
X5.5118Y-3.4449
X5.5118Y-3.5827
X5.5118Y-3.7795
X5.5118Y-4.0157
X5.5118Y-4.2126
X5.5118Y-4.4094
X5.5118Y-4.6063
X5.5512Y-5.1575
X5.5709Y-4.3543
X5.6299Y-2.9921
X5.6732Y-4.4606
X5.7874Y-5.1575
X5.8071Y-3.248
X5.8071Y-3.4449
X5.8268Y-2.9921
X5.8268Y-3.5827
X5.8268Y-3.7795
X5.8268Y-4.0157
X5.8268Y-4.2126
X5.8268Y-4.4094
X5.8268Y-4.6063
X5.8268Y-4.7244
X5.9331Y-4.6614
X5.9528Y-3.6575
X5.9843Y-3.6024
X5.9843Y-5.1575
X6.0236Y-2.9921
X6.0236Y-4.0551
X6.0236Y-4.7244
X6.0276Y-3.8583
X6.0315Y-4.9331
X6.1024Y-3.248
X6.1024Y-3.4449
X6.1063Y-3.6535
X6.1063Y-3.8228
X6.1299Y-4.5512
X6.1417Y-4.0551
X6.1614Y-4.4055
X6.1811Y-5.1575
X6.189Y-3.6535
X6.2205Y-2.9921
X6.2874Y-3.7559
X6.3386Y-4.4488
X6.3386Y-4.7244
X6.378Y-5.1575
X6.3976Y-3.248
X6.3976Y-3.4449
X6.4173Y-2.9921
X6.4567Y-4.0157
X6.4606Y-3.2402
X6.4606Y-3.7126
X6.4961Y-4.4488
X6.4961Y-4.7244
X6.5315Y-3.8228
X6.5945Y-3.4449
X6.6142Y-2.9921
X6.6142Y-5.1575
X6.6535Y-3.5827
X6.6535Y-3.8189
X6.6535Y-4.0157
X6.6535Y-4.4488
X6.6535Y-4.7244
X6.6535Y-4.9606
X6.811Y-5.1575
X6.8307Y-2.9921
X6.8622Y-3.4567
X6.8622Y-3.7598
X6.8701Y-3.6575
X6.8898Y-3.248
X6.9291Y-5.0787
X7.0079Y-2.9921
X7.0079Y-2.9921
X7.0079Y-3.189
X7.0079Y-3.3858
X7.0079Y-3.5827
X7.0079Y-3.7795
X7.0079Y-3.9764
X7.0079Y-4.1732
X7.0079Y-4.3701
X7.0079Y-4.5669
X7.0079Y-4.7638
X7.0079Y-4.9606
T2
X5.3701Y-3.3268
X5.7087Y-4.8898
X5.7087Y-4.9646
X5.8228Y-4.7835
X5.8228Y-4.8583
X6.2598Y-3.1417
X6.2598Y-3.5315
X6.3307Y-4.6575
X6.3504Y-3.3268
X6.4331Y-4.8898
X6.8504Y-4.8583
X6.8622Y-4.6535
T3
X5.8315Y-5.0039
X5.8335Y-5.1035
X5.9315Y-5.0039
X5.9335Y-5.1035
X6.0315Y-5.0039
X6.0335Y-5.1035
X6.1315Y-5.0039
X6.1335Y-5.1035
X6.2315Y-5.0039
X6.2335Y-5.1035
X6.3315Y-5.0039
X6.3335Y-5.1035
X6.4315Y-5.0039
X6.4335Y-5.1035
X6.5315Y-5.0039
X6.5335Y-5.1035
T4
X5.2717Y-3.0807
X5.3717Y-3.0807
X5.4717Y-3.0807
X5.5717Y-3.0807
X5.6717Y-3.0807
X5.7717Y-3.0807
X5.0236Y-3.3563
X5.0236Y-3.4563
X5.0236Y-3.5563
X5.0236Y-3.6563
X5.0236Y-3.7563
X5.0236Y-3.8563
X5.0236Y-3.9563
X5.0236Y-4.0563
X5.0236Y-4.1563
X5.0236Y-4.2563
X5.0236Y-4.3563
X5.0236Y-4.4563
X5.0236Y-4.5563
X5.0236Y-4.6563
X5.0236Y-4.7563
X5.0236Y-4.8563
X6.9291Y-3.3563
X6.9291Y-3.4563
X6.9291Y-3.5563
X6.9291Y-3.6563
X6.9291Y-3.7563
X6.9291Y-3.8563
X6.9291Y-3.9563
X6.9291Y-4.0563
X6.9291Y-4.1563
X6.9291Y-4.2563
X6.9291Y-4.3563
X6.9291Y-4.4563
X6.9291Y-4.5563
X6.9291Y-4.6563
X6.9291Y-4.7563
X6.9291Y-4.8563
T5
X6.0433Y-4.6024
X6.1811Y-4.7992
X6.4961Y-4.6024
X6.6339Y-4.7992
X6.5197Y-3.0236
X6.5197Y-3.2008
X6.7756Y-3.0236
X6.7756Y-3.2008
T6
X6.0472Y-4.2205
X6.1472Y-4.2205
X6.2472Y-4.2205
X6.3472Y-4.2205
X6.4472Y-4.2205
T7
X6.0039Y-3.4205
X6.6437Y-4.2205
T0
M30
