G04 #@! TF.GenerationSoftware,KiCad,Pcbnew,(5.1.4)-1*
G04 #@! TF.CreationDate,2020-08-17T08:14:46+02:00*
G04 #@! TF.ProjectId,proto,70726f74-6f2e-46b6-9963-61645f706362,rev?*
G04 #@! TF.SameCoordinates,Original*
G04 #@! TF.FileFunction,Legend,Bot*
G04 #@! TF.FilePolarity,Positive*
%FSLAX46Y46*%
G04 Gerber Fmt 4.6, Leading zero omitted, Abs format (unit mm)*
G04 Created by KiCad (PCBNEW (5.1.4)-1) date 2020-08-17 08:14:46*
%MOMM*%
%LPD*%
G04 APERTURE LIST*
%ADD10C,0.300000*%
%ADD11C,0.120000*%
G04 APERTURE END LIST*
D10*
X159185714Y-101635714D02*
X159257142Y-101707142D01*
X159471428Y-101778571D01*
X159614285Y-101778571D01*
X159828571Y-101707142D01*
X159971428Y-101564285D01*
X160042857Y-101421428D01*
X160114285Y-101135714D01*
X160114285Y-100921428D01*
X160042857Y-100635714D01*
X159971428Y-100492857D01*
X159828571Y-100350000D01*
X159614285Y-100278571D01*
X159471428Y-100278571D01*
X159257142Y-100350000D01*
X159185714Y-100421428D01*
X157900000Y-101778571D02*
X157900000Y-100992857D01*
X157971428Y-100850000D01*
X158114285Y-100778571D01*
X158400000Y-100778571D01*
X158542857Y-100850000D01*
X157900000Y-101707142D02*
X158042857Y-101778571D01*
X158400000Y-101778571D01*
X158542857Y-101707142D01*
X158614285Y-101564285D01*
X158614285Y-101421428D01*
X158542857Y-101278571D01*
X158400000Y-101207142D01*
X158042857Y-101207142D01*
X157900000Y-101135714D01*
X157185714Y-101778571D02*
X157185714Y-100778571D01*
X157185714Y-101064285D02*
X157114285Y-100921428D01*
X157042857Y-100850000D01*
X156900000Y-100778571D01*
X156757142Y-100778571D01*
X156471428Y-100778571D02*
X155900000Y-100778571D01*
X156257142Y-100278571D02*
X156257142Y-101564285D01*
X156185714Y-101707142D01*
X156042857Y-101778571D01*
X155900000Y-101778571D01*
X154828571Y-101707142D02*
X154971428Y-101778571D01*
X155257142Y-101778571D01*
X155400000Y-101707142D01*
X155471428Y-101564285D01*
X155471428Y-100992857D01*
X155400000Y-100850000D01*
X155257142Y-100778571D01*
X154971428Y-100778571D01*
X154828571Y-100850000D01*
X154757142Y-100992857D01*
X154757142Y-101135714D01*
X155471428Y-101278571D01*
X153042857Y-101707142D02*
X152828571Y-101778571D01*
X152471428Y-101778571D01*
X152328571Y-101707142D01*
X152257142Y-101635714D01*
X152185714Y-101492857D01*
X152185714Y-101350000D01*
X152257142Y-101207142D01*
X152328571Y-101135714D01*
X152471428Y-101064285D01*
X152757142Y-100992857D01*
X152900000Y-100921428D01*
X152971428Y-100850000D01*
X153042857Y-100707142D01*
X153042857Y-100564285D01*
X152971428Y-100421428D01*
X152900000Y-100350000D01*
X152757142Y-100278571D01*
X152400000Y-100278571D01*
X152185714Y-100350000D01*
X151542857Y-101778571D02*
X151542857Y-100278571D01*
X151185714Y-100278571D01*
X150971428Y-100350000D01*
X150828571Y-100492857D01*
X150757142Y-100635714D01*
X150685714Y-100921428D01*
X150685714Y-101135714D01*
X150757142Y-101421428D01*
X150828571Y-101564285D01*
X150971428Y-101707142D01*
X151185714Y-101778571D01*
X151542857Y-101778571D01*
D11*
X172600000Y-83600000D02*
X141600000Y-83600000D01*
X141600000Y-83600000D02*
X141600000Y-131600000D01*
X141600000Y-131600000D02*
X172600000Y-131600000D01*
X172600000Y-131600000D02*
X172600000Y-83600000D01*
X157100000Y-73600000D02*
X169100000Y-73600000D01*
X157100000Y-73600000D02*
X145100000Y-73600000D01*
X145100000Y-73600000D02*
X145100000Y-83600000D01*
X169100000Y-73600000D02*
X169100000Y-83600000D01*
M02*
