M48
INCH,TZ
T1C0.0157
T2C0.0236
T3C0.0300
T4C0.0394
T5C0.0433
T6C0.0437
T7C0.0961
%
G90
G05
T1
X49606Y-29921
X49606Y-31890
X49606Y-33858
X49606Y-35827
X49606Y-37795
X49606Y-39764
X49606Y-41732
X49606Y-43701
X49606Y-45669
X49606Y-47638
X49606Y-49606
X50394Y-29921
X50394Y-50787
X50827Y-39567
X50827Y-40551
X50827Y-44646
X50827Y-45591
X50827Y-47598
X50866Y-36575
X50866Y-37598
X51654Y-45118
X52008Y-44882
X52008Y-47598
X52165Y-32480
X52323Y-32992
X52362Y-29921
X52362Y-50787
X52717Y-40551
X52913Y-45551
X52943Y-32677
X53268Y-37795
X53268Y-40157
X53268Y-42126
X53465Y-49724
X53543Y-34646
X53583Y-39567
X54331Y-29921
X54331Y-50787
X54370Y-47795
X54370Y-49016
X55118Y-32480
X55118Y-34449
X55118Y-37795
X55118Y-40157
X55118Y-42126
X55118Y-44094
X55512Y-51575
X55709Y-43543
X56299Y-29921
X56299Y-37559
X56299Y-45354
X56732Y-44606
X56929Y-46378
X56969Y-35118
X56969Y-44882
X57165Y-45118
X57205Y-35344
X57402Y-47244
X57874Y-51575
X58071Y-32480
X58071Y-34449
X58268Y-29921
X58268Y-37795
X58268Y-40157
X58268Y-42126
X58268Y-44094
X59843Y-36024
X59843Y-51575
X60236Y-40551
X60236Y-47244
X60236Y-49606
X60433Y-29882
X61024Y-32480
X61024Y-34449
X61063Y-36614
X61063Y-38228
X61614Y-44055
X61811Y-51575
X62008Y-32992
X62402Y-29882
X62874Y-37559
X63016Y-32717
X63189Y-35000
X63276Y-35282
X63386Y-44488
X63386Y-47244
X63386Y-49606
X63465Y-36575
X63543Y-32520
X63780Y-51575
X64370Y-29882
X64567Y-40157
X64961Y-44488
X64961Y-47244
X65315Y-38228
X65945Y-34449
X66142Y-51575
X66260Y-32480
X66417Y-29882
X66535Y-35827
X66535Y-38189
X66535Y-40157
X66535Y-44488
X66535Y-47244
X66535Y-49606
X68110Y-51575
X68307Y-29921
X68622Y-34567
X68622Y-37598
X68701Y-36575
X68898Y-32480
X69291Y-50787
X70079Y-29921
X70079Y-29921
X70079Y-31890
X70079Y-33858
X70079Y-35827
X70079Y-37795
X70079Y-39764
X70079Y-41732
X70079Y-43701
X70079Y-45669
X70079Y-47638
X70079Y-49606
T2
X52362Y-43819
X52362Y-46457
X53701Y-33268
X60000Y-33268
X61457Y-43346
X61496Y-33268
X62362Y-35709
X63307Y-46575
X68228Y-48622
X68622Y-46535
T3
X58996Y-30394
X59016Y-31390
X59996Y-30394
X60016Y-31390
X60996Y-30394
X61016Y-31390
X61996Y-30394
X62016Y-31390
X62996Y-30394
X63016Y-31390
X63996Y-30394
X64016Y-31390
X64996Y-30394
X65016Y-31390
X65996Y-30394
X66016Y-31390
T4
X69291Y-33563
X69291Y-34563
X69291Y-35563
X69291Y-36563
X69291Y-37563
X69291Y-38563
X69291Y-39563
X69291Y-40563
X69291Y-41563
X69291Y-42563
X69291Y-43563
X69291Y-44563
X69291Y-45563
X69291Y-46563
X69291Y-47563
X69291Y-48563
X50236Y-33563
X50236Y-34563
X50236Y-35563
X50236Y-36563
X50236Y-37563
X50236Y-38563
X50236Y-39563
X50236Y-40563
X50236Y-41563
X50236Y-42563
X50236Y-43563
X50236Y-44563
X50236Y-45563
X50236Y-46563
X50236Y-47563
X50236Y-48563
X52717Y-30807
X53717Y-30807
X54717Y-30807
X55717Y-30807
X56717Y-30807
X57717Y-30807
T5
X60433Y-46024
X61811Y-47992
X64961Y-46024
X66339Y-47992
X56299Y-46811
X56299Y-49370
X58071Y-46811
X58071Y-49370
T6
X60472Y-42205
X61472Y-42205
X62472Y-42205
X63472Y-42205
X64472Y-42205
T7
X60039Y-34205
X66437Y-42205
T0
M30
