G04 #@! TF.GenerationSoftware,KiCad,Pcbnew,(5.1.4)-1*
G04 #@! TF.CreationDate,2021-05-11T15:14:03+02:00*
G04 #@! TF.ProjectId,proto,70726f74-6f2e-46b6-9963-61645f706362,rev?*
G04 #@! TF.SameCoordinates,Original*
G04 #@! TF.FileFunction,Soldermask,Top*
G04 #@! TF.FilePolarity,Negative*
%FSLAX46Y46*%
G04 Gerber Fmt 4.6, Leading zero omitted, Abs format (unit mm)*
G04 Created by KiCad (PCBNEW (5.1.4)-1) date 2021-05-11 15:14:03*
%MOMM*%
%LPD*%
G04 APERTURE LIST*
%ADD10C,0.100000*%
G04 APERTURE END LIST*
D10*
G36*
X171445331Y-127818211D02*
G01*
X171773092Y-127953974D01*
X172068070Y-128151072D01*
X172318928Y-128401930D01*
X172516026Y-128696908D01*
X172651789Y-129024669D01*
X172721000Y-129372616D01*
X172721000Y-129727384D01*
X172651789Y-130075331D01*
X172516026Y-130403092D01*
X172318928Y-130698070D01*
X172068070Y-130948928D01*
X171773092Y-131146026D01*
X171445331Y-131281789D01*
X171097384Y-131351000D01*
X170742616Y-131351000D01*
X170394669Y-131281789D01*
X170066908Y-131146026D01*
X169771930Y-130948928D01*
X169521072Y-130698070D01*
X169323974Y-130403092D01*
X169188211Y-130075331D01*
X169119000Y-129727384D01*
X169119000Y-129372616D01*
X169188211Y-129024669D01*
X169323974Y-128696908D01*
X169521072Y-128401930D01*
X169771930Y-128151072D01*
X170066908Y-127953974D01*
X170394669Y-127818211D01*
X170742616Y-127749000D01*
X171097384Y-127749000D01*
X171445331Y-127818211D01*
X171445331Y-127818211D01*
G37*
G36*
X143505331Y-127818211D02*
G01*
X143833092Y-127953974D01*
X144128070Y-128151072D01*
X144378928Y-128401930D01*
X144576026Y-128696908D01*
X144711789Y-129024669D01*
X144781000Y-129372616D01*
X144781000Y-129727384D01*
X144711789Y-130075331D01*
X144576026Y-130403092D01*
X144378928Y-130698070D01*
X144128070Y-130948928D01*
X143833092Y-131146026D01*
X143505331Y-131281789D01*
X143157384Y-131351000D01*
X142802616Y-131351000D01*
X142454669Y-131281789D01*
X142126908Y-131146026D01*
X141831930Y-130948928D01*
X141581072Y-130698070D01*
X141383974Y-130403092D01*
X141248211Y-130075331D01*
X141179000Y-129727384D01*
X141179000Y-129372616D01*
X141248211Y-129024669D01*
X141383974Y-128696908D01*
X141581072Y-128401930D01*
X141831930Y-128151072D01*
X142126908Y-127953974D01*
X142454669Y-127818211D01*
X142802616Y-127749000D01*
X143157384Y-127749000D01*
X143505331Y-127818211D01*
X143505331Y-127818211D01*
G37*
G36*
X135381000Y-126726000D02*
G01*
X134219000Y-126726000D01*
X134219000Y-124074000D01*
X135381000Y-124074000D01*
X135381000Y-126726000D01*
X135381000Y-126726000D01*
G37*
G36*
X137581000Y-126726000D02*
G01*
X136419000Y-126726000D01*
X136419000Y-125974000D01*
X137581000Y-125974000D01*
X137581000Y-126726000D01*
X137581000Y-126726000D01*
G37*
G36*
X143306564Y-124389389D02*
G01*
X143497833Y-124468615D01*
X143497835Y-124468616D01*
X143669973Y-124583635D01*
X143816365Y-124730027D01*
X143931385Y-124902167D01*
X144010611Y-125093436D01*
X144051000Y-125296484D01*
X144051000Y-125503516D01*
X144010611Y-125706564D01*
X143931385Y-125897833D01*
X143931384Y-125897835D01*
X143816365Y-126069973D01*
X143669973Y-126216365D01*
X143497835Y-126331384D01*
X143497834Y-126331385D01*
X143497833Y-126331385D01*
X143306564Y-126410611D01*
X143103516Y-126451000D01*
X142896484Y-126451000D01*
X142693436Y-126410611D01*
X142502167Y-126331385D01*
X142502166Y-126331385D01*
X142502165Y-126331384D01*
X142330027Y-126216365D01*
X142183635Y-126069973D01*
X142068616Y-125897835D01*
X142068615Y-125897833D01*
X141989389Y-125706564D01*
X141949000Y-125503516D01*
X141949000Y-125296484D01*
X141989389Y-125093436D01*
X142068615Y-124902167D01*
X142183635Y-124730027D01*
X142330027Y-124583635D01*
X142502165Y-124468616D01*
X142502167Y-124468615D01*
X142693436Y-124389389D01*
X142896484Y-124349000D01*
X143103516Y-124349000D01*
X143306564Y-124389389D01*
X143306564Y-124389389D01*
G37*
G36*
X147806564Y-124389389D02*
G01*
X147997833Y-124468615D01*
X147997835Y-124468616D01*
X148169973Y-124583635D01*
X148316365Y-124730027D01*
X148431385Y-124902167D01*
X148510611Y-125093436D01*
X148551000Y-125296484D01*
X148551000Y-125503516D01*
X148510611Y-125706564D01*
X148431385Y-125897833D01*
X148431384Y-125897835D01*
X148316365Y-126069973D01*
X148169973Y-126216365D01*
X147997835Y-126331384D01*
X147997834Y-126331385D01*
X147997833Y-126331385D01*
X147806564Y-126410611D01*
X147603516Y-126451000D01*
X147396484Y-126451000D01*
X147193436Y-126410611D01*
X147002167Y-126331385D01*
X147002166Y-126331385D01*
X147002165Y-126331384D01*
X146830027Y-126216365D01*
X146683635Y-126069973D01*
X146568616Y-125897835D01*
X146568615Y-125897833D01*
X146489389Y-125706564D01*
X146449000Y-125503516D01*
X146449000Y-125296484D01*
X146489389Y-125093436D01*
X146568615Y-124902167D01*
X146683635Y-124730027D01*
X146830027Y-124583635D01*
X147002165Y-124468616D01*
X147002167Y-124468615D01*
X147193436Y-124389389D01*
X147396484Y-124349000D01*
X147603516Y-124349000D01*
X147806564Y-124389389D01*
X147806564Y-124389389D01*
G37*
G36*
X137581000Y-124826000D02*
G01*
X136419000Y-124826000D01*
X136419000Y-124074000D01*
X137581000Y-124074000D01*
X137581000Y-124826000D01*
X137581000Y-124826000D01*
G37*
G36*
X176901000Y-124251000D02*
G01*
X175099000Y-124251000D01*
X175099000Y-122449000D01*
X176901000Y-122449000D01*
X176901000Y-124251000D01*
X176901000Y-124251000D01*
G37*
G36*
X127710443Y-122455519D02*
G01*
X127776627Y-122462037D01*
X127946466Y-122513557D01*
X128102991Y-122597222D01*
X128138729Y-122626552D01*
X128240186Y-122709814D01*
X128323448Y-122811271D01*
X128352778Y-122847009D01*
X128436443Y-123003534D01*
X128487963Y-123173373D01*
X128505359Y-123350000D01*
X128487963Y-123526627D01*
X128436443Y-123696466D01*
X128352778Y-123852991D01*
X128323448Y-123888729D01*
X128240186Y-123990186D01*
X128138729Y-124073448D01*
X128102991Y-124102778D01*
X127946466Y-124186443D01*
X127776627Y-124237963D01*
X127710443Y-124244481D01*
X127644260Y-124251000D01*
X127555740Y-124251000D01*
X127489557Y-124244481D01*
X127423373Y-124237963D01*
X127253534Y-124186443D01*
X127097009Y-124102778D01*
X127061271Y-124073448D01*
X126959814Y-123990186D01*
X126876552Y-123888729D01*
X126847222Y-123852991D01*
X126763557Y-123696466D01*
X126712037Y-123526627D01*
X126694641Y-123350000D01*
X126712037Y-123173373D01*
X126763557Y-123003534D01*
X126847222Y-122847009D01*
X126876552Y-122811271D01*
X126959814Y-122709814D01*
X127061271Y-122626552D01*
X127097009Y-122597222D01*
X127253534Y-122513557D01*
X127423373Y-122462037D01*
X127489557Y-122455519D01*
X127555740Y-122449000D01*
X127644260Y-122449000D01*
X127710443Y-122455519D01*
X127710443Y-122455519D01*
G37*
G36*
X157255520Y-121057664D02*
G01*
X157414942Y-121123699D01*
X157558418Y-121219566D01*
X157680434Y-121341582D01*
X157776301Y-121485058D01*
X157842336Y-121644480D01*
X157876000Y-121813721D01*
X157876000Y-121986279D01*
X157842336Y-122155520D01*
X157776301Y-122314942D01*
X157680434Y-122458418D01*
X157558418Y-122580434D01*
X157414942Y-122676301D01*
X157255520Y-122742336D01*
X157170899Y-122759168D01*
X157086280Y-122776000D01*
X156913720Y-122776000D01*
X156829101Y-122759168D01*
X156744480Y-122742336D01*
X156585058Y-122676301D01*
X156441582Y-122580434D01*
X156319566Y-122458418D01*
X156223699Y-122314942D01*
X156157664Y-122155520D01*
X156124000Y-121986279D01*
X156124000Y-121813721D01*
X156157664Y-121644480D01*
X156223699Y-121485058D01*
X156319566Y-121341582D01*
X156441582Y-121219566D01*
X156585058Y-121123699D01*
X156744480Y-121057664D01*
X156913720Y-121024000D01*
X157086280Y-121024000D01*
X157255520Y-121057664D01*
X157255520Y-121057664D01*
G37*
G36*
X168755520Y-121057664D02*
G01*
X168914942Y-121123699D01*
X169058418Y-121219566D01*
X169180434Y-121341582D01*
X169276301Y-121485058D01*
X169342336Y-121644480D01*
X169376000Y-121813721D01*
X169376000Y-121986279D01*
X169342336Y-122155520D01*
X169276301Y-122314942D01*
X169180434Y-122458418D01*
X169058418Y-122580434D01*
X168914942Y-122676301D01*
X168755520Y-122742336D01*
X168670899Y-122759168D01*
X168586280Y-122776000D01*
X168413720Y-122776000D01*
X168329101Y-122759168D01*
X168244480Y-122742336D01*
X168085058Y-122676301D01*
X167941582Y-122580434D01*
X167819566Y-122458418D01*
X167723699Y-122314942D01*
X167657664Y-122155520D01*
X167624000Y-121986279D01*
X167624000Y-121813721D01*
X167657664Y-121644480D01*
X167723699Y-121485058D01*
X167819566Y-121341582D01*
X167941582Y-121219566D01*
X168085058Y-121123699D01*
X168244480Y-121057664D01*
X168413720Y-121024000D01*
X168586280Y-121024000D01*
X168755520Y-121057664D01*
X168755520Y-121057664D01*
G37*
G36*
X127710442Y-119915518D02*
G01*
X127776627Y-119922037D01*
X127946466Y-119973557D01*
X128102991Y-120057222D01*
X128138729Y-120086552D01*
X128240186Y-120169814D01*
X128323448Y-120271271D01*
X128352778Y-120307009D01*
X128436443Y-120463534D01*
X128487963Y-120633373D01*
X128505359Y-120810000D01*
X128487963Y-120986627D01*
X128436443Y-121156466D01*
X128352778Y-121312991D01*
X128329314Y-121341582D01*
X128240186Y-121450186D01*
X128138729Y-121533448D01*
X128102991Y-121562778D01*
X128102989Y-121562779D01*
X127950139Y-121644480D01*
X127946466Y-121646443D01*
X127776627Y-121697963D01*
X127710442Y-121704482D01*
X127644260Y-121711000D01*
X127555740Y-121711000D01*
X127489558Y-121704482D01*
X127423373Y-121697963D01*
X127253534Y-121646443D01*
X127249862Y-121644480D01*
X127097011Y-121562779D01*
X127097009Y-121562778D01*
X127061271Y-121533448D01*
X126959814Y-121450186D01*
X126870686Y-121341582D01*
X126847222Y-121312991D01*
X126763557Y-121156466D01*
X126712037Y-120986627D01*
X126694641Y-120810000D01*
X126712037Y-120633373D01*
X126763557Y-120463534D01*
X126847222Y-120307009D01*
X126876552Y-120271271D01*
X126959814Y-120169814D01*
X127061271Y-120086552D01*
X127097009Y-120057222D01*
X127253534Y-119973557D01*
X127423373Y-119922037D01*
X127489558Y-119915518D01*
X127555740Y-119909000D01*
X127644260Y-119909000D01*
X127710442Y-119915518D01*
X127710442Y-119915518D01*
G37*
G36*
X176110442Y-119915518D02*
G01*
X176176627Y-119922037D01*
X176346466Y-119973557D01*
X176502991Y-120057222D01*
X176538729Y-120086552D01*
X176640186Y-120169814D01*
X176723448Y-120271271D01*
X176752778Y-120307009D01*
X176836443Y-120463534D01*
X176887963Y-120633373D01*
X176905359Y-120810000D01*
X176887963Y-120986627D01*
X176836443Y-121156466D01*
X176752778Y-121312991D01*
X176729314Y-121341582D01*
X176640186Y-121450186D01*
X176538729Y-121533448D01*
X176502991Y-121562778D01*
X176502989Y-121562779D01*
X176350139Y-121644480D01*
X176346466Y-121646443D01*
X176176627Y-121697963D01*
X176110442Y-121704482D01*
X176044260Y-121711000D01*
X175955740Y-121711000D01*
X175889558Y-121704482D01*
X175823373Y-121697963D01*
X175653534Y-121646443D01*
X175649862Y-121644480D01*
X175497011Y-121562779D01*
X175497009Y-121562778D01*
X175461271Y-121533448D01*
X175359814Y-121450186D01*
X175270686Y-121341582D01*
X175247222Y-121312991D01*
X175163557Y-121156466D01*
X175112037Y-120986627D01*
X175094641Y-120810000D01*
X175112037Y-120633373D01*
X175163557Y-120463534D01*
X175247222Y-120307009D01*
X175276552Y-120271271D01*
X175359814Y-120169814D01*
X175461271Y-120086552D01*
X175497009Y-120057222D01*
X175653534Y-119973557D01*
X175823373Y-119922037D01*
X175889558Y-119915518D01*
X175955740Y-119909000D01*
X176044260Y-119909000D01*
X176110442Y-119915518D01*
X176110442Y-119915518D01*
G37*
G36*
X137754591Y-119178085D02*
G01*
X137788569Y-119188393D01*
X137819890Y-119205134D01*
X137847339Y-119227661D01*
X137869866Y-119255110D01*
X137886607Y-119286431D01*
X137896915Y-119320409D01*
X137901000Y-119361890D01*
X137901000Y-120038110D01*
X137896915Y-120079591D01*
X137886607Y-120113569D01*
X137869866Y-120144890D01*
X137847339Y-120172339D01*
X137819890Y-120194866D01*
X137788569Y-120211607D01*
X137754591Y-120221915D01*
X137713110Y-120226000D01*
X137111890Y-120226000D01*
X137070409Y-120221915D01*
X137036431Y-120211607D01*
X137005110Y-120194866D01*
X136977661Y-120172339D01*
X136955134Y-120144890D01*
X136938393Y-120113569D01*
X136928085Y-120079591D01*
X136924000Y-120038110D01*
X136924000Y-119361890D01*
X136928085Y-119320409D01*
X136938393Y-119286431D01*
X136955134Y-119255110D01*
X136977661Y-119227661D01*
X137005110Y-119205134D01*
X137036431Y-119188393D01*
X137070409Y-119178085D01*
X137111890Y-119174000D01*
X137713110Y-119174000D01*
X137754591Y-119178085D01*
X137754591Y-119178085D01*
G37*
G36*
X134929591Y-119178085D02*
G01*
X134963569Y-119188393D01*
X134994890Y-119205134D01*
X135022339Y-119227661D01*
X135044866Y-119255110D01*
X135061607Y-119286431D01*
X135071915Y-119320409D01*
X135076000Y-119361890D01*
X135076000Y-120038110D01*
X135071915Y-120079591D01*
X135061607Y-120113569D01*
X135044866Y-120144890D01*
X135022339Y-120172339D01*
X134994890Y-120194866D01*
X134963569Y-120211607D01*
X134929591Y-120221915D01*
X134888110Y-120226000D01*
X134286890Y-120226000D01*
X134245409Y-120221915D01*
X134211431Y-120211607D01*
X134180110Y-120194866D01*
X134152661Y-120172339D01*
X134130134Y-120144890D01*
X134113393Y-120113569D01*
X134103085Y-120079591D01*
X134099000Y-120038110D01*
X134099000Y-119361890D01*
X134103085Y-119320409D01*
X134113393Y-119286431D01*
X134130134Y-119255110D01*
X134152661Y-119227661D01*
X134180110Y-119205134D01*
X134211431Y-119188393D01*
X134245409Y-119178085D01*
X134286890Y-119174000D01*
X134888110Y-119174000D01*
X134929591Y-119178085D01*
X134929591Y-119178085D01*
G37*
G36*
X133354591Y-119178085D02*
G01*
X133388569Y-119188393D01*
X133419890Y-119205134D01*
X133447339Y-119227661D01*
X133469866Y-119255110D01*
X133486607Y-119286431D01*
X133496915Y-119320409D01*
X133501000Y-119361890D01*
X133501000Y-120038110D01*
X133496915Y-120079591D01*
X133486607Y-120113569D01*
X133469866Y-120144890D01*
X133447339Y-120172339D01*
X133419890Y-120194866D01*
X133388569Y-120211607D01*
X133354591Y-120221915D01*
X133313110Y-120226000D01*
X132711890Y-120226000D01*
X132670409Y-120221915D01*
X132636431Y-120211607D01*
X132605110Y-120194866D01*
X132577661Y-120172339D01*
X132555134Y-120144890D01*
X132538393Y-120113569D01*
X132528085Y-120079591D01*
X132524000Y-120038110D01*
X132524000Y-119361890D01*
X132528085Y-119320409D01*
X132538393Y-119286431D01*
X132555134Y-119255110D01*
X132577661Y-119227661D01*
X132605110Y-119205134D01*
X132636431Y-119188393D01*
X132670409Y-119178085D01*
X132711890Y-119174000D01*
X133313110Y-119174000D01*
X133354591Y-119178085D01*
X133354591Y-119178085D01*
G37*
G36*
X139329591Y-119178085D02*
G01*
X139363569Y-119188393D01*
X139394890Y-119205134D01*
X139422339Y-119227661D01*
X139444866Y-119255110D01*
X139461607Y-119286431D01*
X139471915Y-119320409D01*
X139476000Y-119361890D01*
X139476000Y-120038110D01*
X139471915Y-120079591D01*
X139461607Y-120113569D01*
X139444866Y-120144890D01*
X139422339Y-120172339D01*
X139394890Y-120194866D01*
X139363569Y-120211607D01*
X139329591Y-120221915D01*
X139288110Y-120226000D01*
X138686890Y-120226000D01*
X138645409Y-120221915D01*
X138611431Y-120211607D01*
X138580110Y-120194866D01*
X138552661Y-120172339D01*
X138530134Y-120144890D01*
X138513393Y-120113569D01*
X138503085Y-120079591D01*
X138499000Y-120038110D01*
X138499000Y-119361890D01*
X138503085Y-119320409D01*
X138513393Y-119286431D01*
X138530134Y-119255110D01*
X138552661Y-119227661D01*
X138580110Y-119205134D01*
X138611431Y-119188393D01*
X138645409Y-119178085D01*
X138686890Y-119174000D01*
X139288110Y-119174000D01*
X139329591Y-119178085D01*
X139329591Y-119178085D01*
G37*
G36*
X147806564Y-117889389D02*
G01*
X147997833Y-117968615D01*
X147997835Y-117968616D01*
X148169973Y-118083635D01*
X148316365Y-118230027D01*
X148431385Y-118402167D01*
X148510611Y-118593436D01*
X148551000Y-118796484D01*
X148551000Y-119003516D01*
X148510611Y-119206564D01*
X148431385Y-119397833D01*
X148431384Y-119397835D01*
X148316365Y-119569973D01*
X148169973Y-119716365D01*
X147997835Y-119831384D01*
X147997834Y-119831385D01*
X147997833Y-119831385D01*
X147806564Y-119910611D01*
X147603516Y-119951000D01*
X147396484Y-119951000D01*
X147193436Y-119910611D01*
X147002167Y-119831385D01*
X147002166Y-119831385D01*
X147002165Y-119831384D01*
X146830027Y-119716365D01*
X146683635Y-119569973D01*
X146568616Y-119397835D01*
X146568615Y-119397833D01*
X146489389Y-119206564D01*
X146449000Y-119003516D01*
X146449000Y-118796484D01*
X146489389Y-118593436D01*
X146568615Y-118402167D01*
X146683635Y-118230027D01*
X146830027Y-118083635D01*
X147002165Y-117968616D01*
X147002167Y-117968615D01*
X147193436Y-117889389D01*
X147396484Y-117849000D01*
X147603516Y-117849000D01*
X147806564Y-117889389D01*
X147806564Y-117889389D01*
G37*
G36*
X143306564Y-117889389D02*
G01*
X143497833Y-117968615D01*
X143497835Y-117968616D01*
X143669973Y-118083635D01*
X143816365Y-118230027D01*
X143931385Y-118402167D01*
X144010611Y-118593436D01*
X144051000Y-118796484D01*
X144051000Y-119003516D01*
X144010611Y-119206564D01*
X143931385Y-119397833D01*
X143931384Y-119397835D01*
X143816365Y-119569973D01*
X143669973Y-119716365D01*
X143497835Y-119831384D01*
X143497834Y-119831385D01*
X143497833Y-119831385D01*
X143306564Y-119910611D01*
X143103516Y-119951000D01*
X142896484Y-119951000D01*
X142693436Y-119910611D01*
X142502167Y-119831385D01*
X142502166Y-119831385D01*
X142502165Y-119831384D01*
X142330027Y-119716365D01*
X142183635Y-119569973D01*
X142068616Y-119397835D01*
X142068615Y-119397833D01*
X141989389Y-119206564D01*
X141949000Y-119003516D01*
X141949000Y-118796484D01*
X141989389Y-118593436D01*
X142068615Y-118402167D01*
X142183635Y-118230027D01*
X142330027Y-118083635D01*
X142502165Y-117968616D01*
X142502167Y-117968615D01*
X142693436Y-117889389D01*
X142896484Y-117849000D01*
X143103516Y-117849000D01*
X143306564Y-117889389D01*
X143306564Y-117889389D01*
G37*
G36*
X176110442Y-117375518D02*
G01*
X176176627Y-117382037D01*
X176346466Y-117433557D01*
X176502991Y-117517222D01*
X176538729Y-117546552D01*
X176640186Y-117629814D01*
X176723448Y-117731271D01*
X176752778Y-117767009D01*
X176836443Y-117923534D01*
X176887963Y-118093373D01*
X176905359Y-118270000D01*
X176887963Y-118446627D01*
X176836443Y-118616466D01*
X176752778Y-118772991D01*
X176733496Y-118796486D01*
X176640186Y-118910186D01*
X176538729Y-118993448D01*
X176502991Y-119022778D01*
X176346466Y-119106443D01*
X176176627Y-119157963D01*
X176110442Y-119164482D01*
X176044260Y-119171000D01*
X175955740Y-119171000D01*
X175889558Y-119164482D01*
X175823373Y-119157963D01*
X175653534Y-119106443D01*
X175497009Y-119022778D01*
X175461271Y-118993448D01*
X175359814Y-118910186D01*
X175266504Y-118796486D01*
X175247222Y-118772991D01*
X175163557Y-118616466D01*
X175112037Y-118446627D01*
X175094641Y-118270000D01*
X175112037Y-118093373D01*
X175163557Y-117923534D01*
X175247222Y-117767009D01*
X175276552Y-117731271D01*
X175359814Y-117629814D01*
X175461271Y-117546552D01*
X175497009Y-117517222D01*
X175653534Y-117433557D01*
X175823373Y-117382037D01*
X175889558Y-117375518D01*
X175955740Y-117369000D01*
X176044260Y-117369000D01*
X176110442Y-117375518D01*
X176110442Y-117375518D01*
G37*
G36*
X127710442Y-117375518D02*
G01*
X127776627Y-117382037D01*
X127946466Y-117433557D01*
X128102991Y-117517222D01*
X128138729Y-117546552D01*
X128240186Y-117629814D01*
X128323448Y-117731271D01*
X128352778Y-117767009D01*
X128436443Y-117923534D01*
X128487963Y-118093373D01*
X128505359Y-118270000D01*
X128487963Y-118446627D01*
X128436443Y-118616466D01*
X128352778Y-118772991D01*
X128333496Y-118796486D01*
X128240186Y-118910186D01*
X128138729Y-118993448D01*
X128102991Y-119022778D01*
X127946466Y-119106443D01*
X127776627Y-119157963D01*
X127710442Y-119164482D01*
X127644260Y-119171000D01*
X127555740Y-119171000D01*
X127489558Y-119164482D01*
X127423373Y-119157963D01*
X127253534Y-119106443D01*
X127097009Y-119022778D01*
X127061271Y-118993448D01*
X126959814Y-118910186D01*
X126866504Y-118796486D01*
X126847222Y-118772991D01*
X126763557Y-118616466D01*
X126712037Y-118446627D01*
X126694641Y-118270000D01*
X126712037Y-118093373D01*
X126763557Y-117923534D01*
X126847222Y-117767009D01*
X126876552Y-117731271D01*
X126959814Y-117629814D01*
X127061271Y-117546552D01*
X127097009Y-117517222D01*
X127253534Y-117433557D01*
X127423373Y-117382037D01*
X127489558Y-117375518D01*
X127555740Y-117369000D01*
X127644260Y-117369000D01*
X127710442Y-117375518D01*
X127710442Y-117375518D01*
G37*
G36*
X153670899Y-116040832D02*
G01*
X153755520Y-116057664D01*
X153914942Y-116123699D01*
X154058418Y-116219566D01*
X154180434Y-116341582D01*
X154276301Y-116485058D01*
X154342336Y-116644480D01*
X154376000Y-116813721D01*
X154376000Y-116986279D01*
X154342336Y-117155520D01*
X154276301Y-117314942D01*
X154180434Y-117458418D01*
X154058418Y-117580434D01*
X153914942Y-117676301D01*
X153755520Y-117742336D01*
X153586280Y-117776000D01*
X153413720Y-117776000D01*
X153244480Y-117742336D01*
X153085058Y-117676301D01*
X152941582Y-117580434D01*
X152819566Y-117458418D01*
X152723699Y-117314942D01*
X152657664Y-117155520D01*
X152624000Y-116986279D01*
X152624000Y-116813721D01*
X152657664Y-116644480D01*
X152723699Y-116485058D01*
X152819566Y-116341582D01*
X152941582Y-116219566D01*
X153085058Y-116123699D01*
X153244480Y-116057664D01*
X153329101Y-116040832D01*
X153413720Y-116024000D01*
X153586280Y-116024000D01*
X153670899Y-116040832D01*
X153670899Y-116040832D01*
G37*
G36*
X165170899Y-116040832D02*
G01*
X165255520Y-116057664D01*
X165414942Y-116123699D01*
X165558418Y-116219566D01*
X165680434Y-116341582D01*
X165776301Y-116485058D01*
X165842336Y-116644480D01*
X165876000Y-116813721D01*
X165876000Y-116986279D01*
X165842336Y-117155520D01*
X165776301Y-117314942D01*
X165680434Y-117458418D01*
X165558418Y-117580434D01*
X165414942Y-117676301D01*
X165255520Y-117742336D01*
X165086280Y-117776000D01*
X164913720Y-117776000D01*
X164744480Y-117742336D01*
X164585058Y-117676301D01*
X164441582Y-117580434D01*
X164319566Y-117458418D01*
X164223699Y-117314942D01*
X164157664Y-117155520D01*
X164124000Y-116986279D01*
X164124000Y-116813721D01*
X164157664Y-116644480D01*
X164223699Y-116485058D01*
X164319566Y-116341582D01*
X164441582Y-116219566D01*
X164585058Y-116123699D01*
X164744480Y-116057664D01*
X164829101Y-116040832D01*
X164913720Y-116024000D01*
X165086280Y-116024000D01*
X165170899Y-116040832D01*
X165170899Y-116040832D01*
G37*
G36*
X146529591Y-115878085D02*
G01*
X146563569Y-115888393D01*
X146594890Y-115905134D01*
X146622339Y-115927661D01*
X146644866Y-115955110D01*
X146661607Y-115986431D01*
X146671915Y-116020409D01*
X146676000Y-116061890D01*
X146676000Y-116738110D01*
X146671915Y-116779591D01*
X146661607Y-116813569D01*
X146644866Y-116844890D01*
X146622339Y-116872339D01*
X146594890Y-116894866D01*
X146563569Y-116911607D01*
X146529591Y-116921915D01*
X146488110Y-116926000D01*
X145886890Y-116926000D01*
X145845409Y-116921915D01*
X145811431Y-116911607D01*
X145780110Y-116894866D01*
X145752661Y-116872339D01*
X145730134Y-116844890D01*
X145713393Y-116813569D01*
X145703085Y-116779591D01*
X145699000Y-116738110D01*
X145699000Y-116061890D01*
X145703085Y-116020409D01*
X145713393Y-115986431D01*
X145730134Y-115955110D01*
X145752661Y-115927661D01*
X145780110Y-115905134D01*
X145811431Y-115888393D01*
X145845409Y-115878085D01*
X145886890Y-115874000D01*
X146488110Y-115874000D01*
X146529591Y-115878085D01*
X146529591Y-115878085D01*
G37*
G36*
X141779591Y-115878085D02*
G01*
X141813569Y-115888393D01*
X141844890Y-115905134D01*
X141872339Y-115927661D01*
X141894866Y-115955110D01*
X141911607Y-115986431D01*
X141921915Y-116020409D01*
X141926000Y-116061890D01*
X141926000Y-116738110D01*
X141921915Y-116779591D01*
X141911607Y-116813569D01*
X141894866Y-116844890D01*
X141872339Y-116872339D01*
X141844890Y-116894866D01*
X141813569Y-116911607D01*
X141779591Y-116921915D01*
X141738110Y-116926000D01*
X141136890Y-116926000D01*
X141095409Y-116921915D01*
X141061431Y-116911607D01*
X141030110Y-116894866D01*
X141002661Y-116872339D01*
X140980134Y-116844890D01*
X140963393Y-116813569D01*
X140953085Y-116779591D01*
X140949000Y-116738110D01*
X140949000Y-116061890D01*
X140953085Y-116020409D01*
X140963393Y-115986431D01*
X140980134Y-115955110D01*
X141002661Y-115927661D01*
X141030110Y-115905134D01*
X141061431Y-115888393D01*
X141095409Y-115878085D01*
X141136890Y-115874000D01*
X141738110Y-115874000D01*
X141779591Y-115878085D01*
X141779591Y-115878085D01*
G37*
G36*
X143354591Y-115878085D02*
G01*
X143388569Y-115888393D01*
X143419890Y-115905134D01*
X143447339Y-115927661D01*
X143469866Y-115955110D01*
X143486607Y-115986431D01*
X143496915Y-116020409D01*
X143501000Y-116061890D01*
X143501000Y-116738110D01*
X143496915Y-116779591D01*
X143486607Y-116813569D01*
X143469866Y-116844890D01*
X143447339Y-116872339D01*
X143419890Y-116894866D01*
X143388569Y-116911607D01*
X143354591Y-116921915D01*
X143313110Y-116926000D01*
X142711890Y-116926000D01*
X142670409Y-116921915D01*
X142636431Y-116911607D01*
X142605110Y-116894866D01*
X142577661Y-116872339D01*
X142555134Y-116844890D01*
X142538393Y-116813569D01*
X142528085Y-116779591D01*
X142524000Y-116738110D01*
X142524000Y-116061890D01*
X142528085Y-116020409D01*
X142538393Y-115986431D01*
X142555134Y-115955110D01*
X142577661Y-115927661D01*
X142605110Y-115905134D01*
X142636431Y-115888393D01*
X142670409Y-115878085D01*
X142711890Y-115874000D01*
X143313110Y-115874000D01*
X143354591Y-115878085D01*
X143354591Y-115878085D01*
G37*
G36*
X144954591Y-115878085D02*
G01*
X144988569Y-115888393D01*
X145019890Y-115905134D01*
X145047339Y-115927661D01*
X145069866Y-115955110D01*
X145086607Y-115986431D01*
X145096915Y-116020409D01*
X145101000Y-116061890D01*
X145101000Y-116738110D01*
X145096915Y-116779591D01*
X145086607Y-116813569D01*
X145069866Y-116844890D01*
X145047339Y-116872339D01*
X145019890Y-116894866D01*
X144988569Y-116911607D01*
X144954591Y-116921915D01*
X144913110Y-116926000D01*
X144311890Y-116926000D01*
X144270409Y-116921915D01*
X144236431Y-116911607D01*
X144205110Y-116894866D01*
X144177661Y-116872339D01*
X144155134Y-116844890D01*
X144138393Y-116813569D01*
X144128085Y-116779591D01*
X144124000Y-116738110D01*
X144124000Y-116061890D01*
X144128085Y-116020409D01*
X144138393Y-115986431D01*
X144155134Y-115955110D01*
X144177661Y-115927661D01*
X144205110Y-115905134D01*
X144236431Y-115888393D01*
X144270409Y-115878085D01*
X144311890Y-115874000D01*
X144913110Y-115874000D01*
X144954591Y-115878085D01*
X144954591Y-115878085D01*
G37*
G36*
X176110443Y-114835519D02*
G01*
X176176627Y-114842037D01*
X176346466Y-114893557D01*
X176502991Y-114977222D01*
X176538729Y-115006552D01*
X176640186Y-115089814D01*
X176723448Y-115191271D01*
X176752778Y-115227009D01*
X176836443Y-115383534D01*
X176887963Y-115553373D01*
X176905359Y-115730000D01*
X176887963Y-115906627D01*
X176836443Y-116076466D01*
X176752778Y-116232991D01*
X176723448Y-116268729D01*
X176640186Y-116370186D01*
X176538729Y-116453448D01*
X176502991Y-116482778D01*
X176346466Y-116566443D01*
X176176627Y-116617963D01*
X176110443Y-116624481D01*
X176044260Y-116631000D01*
X175955740Y-116631000D01*
X175889557Y-116624481D01*
X175823373Y-116617963D01*
X175653534Y-116566443D01*
X175497009Y-116482778D01*
X175461271Y-116453448D01*
X175359814Y-116370186D01*
X175276552Y-116268729D01*
X175247222Y-116232991D01*
X175163557Y-116076466D01*
X175112037Y-115906627D01*
X175094641Y-115730000D01*
X175112037Y-115553373D01*
X175163557Y-115383534D01*
X175247222Y-115227009D01*
X175276552Y-115191271D01*
X175359814Y-115089814D01*
X175461271Y-115006552D01*
X175497009Y-114977222D01*
X175653534Y-114893557D01*
X175823373Y-114842037D01*
X175889557Y-114835519D01*
X175955740Y-114829000D01*
X176044260Y-114829000D01*
X176110443Y-114835519D01*
X176110443Y-114835519D01*
G37*
G36*
X127710443Y-114835519D02*
G01*
X127776627Y-114842037D01*
X127946466Y-114893557D01*
X128102991Y-114977222D01*
X128138729Y-115006552D01*
X128240186Y-115089814D01*
X128323448Y-115191271D01*
X128352778Y-115227009D01*
X128436443Y-115383534D01*
X128487963Y-115553373D01*
X128505359Y-115730000D01*
X128487963Y-115906627D01*
X128436443Y-116076466D01*
X128352778Y-116232991D01*
X128323448Y-116268729D01*
X128240186Y-116370186D01*
X128138729Y-116453448D01*
X128102991Y-116482778D01*
X127946466Y-116566443D01*
X127776627Y-116617963D01*
X127710443Y-116624481D01*
X127644260Y-116631000D01*
X127555740Y-116631000D01*
X127489557Y-116624481D01*
X127423373Y-116617963D01*
X127253534Y-116566443D01*
X127097009Y-116482778D01*
X127061271Y-116453448D01*
X126959814Y-116370186D01*
X126876552Y-116268729D01*
X126847222Y-116232991D01*
X126763557Y-116076466D01*
X126712037Y-115906627D01*
X126694641Y-115730000D01*
X126712037Y-115553373D01*
X126763557Y-115383534D01*
X126847222Y-115227009D01*
X126876552Y-115191271D01*
X126959814Y-115089814D01*
X127061271Y-115006552D01*
X127097009Y-114977222D01*
X127253534Y-114893557D01*
X127423373Y-114842037D01*
X127489557Y-114835519D01*
X127555740Y-114829000D01*
X127644260Y-114829000D01*
X127710443Y-114835519D01*
X127710443Y-114835519D01*
G37*
G36*
X127710443Y-112295519D02*
G01*
X127776627Y-112302037D01*
X127946466Y-112353557D01*
X128102991Y-112437222D01*
X128138729Y-112466552D01*
X128240186Y-112549814D01*
X128323448Y-112651271D01*
X128352778Y-112687009D01*
X128436443Y-112843534D01*
X128487963Y-113013373D01*
X128505359Y-113190000D01*
X128487963Y-113366627D01*
X128436443Y-113536466D01*
X128352778Y-113692991D01*
X128323448Y-113728729D01*
X128240186Y-113830186D01*
X128138729Y-113913448D01*
X128102991Y-113942778D01*
X127946466Y-114026443D01*
X127776627Y-114077963D01*
X127710443Y-114084481D01*
X127644260Y-114091000D01*
X127555740Y-114091000D01*
X127489557Y-114084481D01*
X127423373Y-114077963D01*
X127253534Y-114026443D01*
X127097009Y-113942778D01*
X127061271Y-113913448D01*
X126959814Y-113830186D01*
X126876552Y-113728729D01*
X126847222Y-113692991D01*
X126763557Y-113536466D01*
X126712037Y-113366627D01*
X126694641Y-113190000D01*
X126712037Y-113013373D01*
X126763557Y-112843534D01*
X126847222Y-112687009D01*
X126876552Y-112651271D01*
X126959814Y-112549814D01*
X127061271Y-112466552D01*
X127097009Y-112437222D01*
X127253534Y-112353557D01*
X127423373Y-112302037D01*
X127489557Y-112295519D01*
X127555740Y-112289000D01*
X127644260Y-112289000D01*
X127710443Y-112295519D01*
X127710443Y-112295519D01*
G37*
G36*
X176110443Y-112295519D02*
G01*
X176176627Y-112302037D01*
X176346466Y-112353557D01*
X176502991Y-112437222D01*
X176538729Y-112466552D01*
X176640186Y-112549814D01*
X176723448Y-112651271D01*
X176752778Y-112687009D01*
X176836443Y-112843534D01*
X176887963Y-113013373D01*
X176905359Y-113190000D01*
X176887963Y-113366627D01*
X176836443Y-113536466D01*
X176752778Y-113692991D01*
X176723448Y-113728729D01*
X176640186Y-113830186D01*
X176538729Y-113913448D01*
X176502991Y-113942778D01*
X176346466Y-114026443D01*
X176176627Y-114077963D01*
X176110443Y-114084481D01*
X176044260Y-114091000D01*
X175955740Y-114091000D01*
X175889557Y-114084481D01*
X175823373Y-114077963D01*
X175653534Y-114026443D01*
X175497009Y-113942778D01*
X175461271Y-113913448D01*
X175359814Y-113830186D01*
X175276552Y-113728729D01*
X175247222Y-113692991D01*
X175163557Y-113536466D01*
X175112037Y-113366627D01*
X175094641Y-113190000D01*
X175112037Y-113013373D01*
X175163557Y-112843534D01*
X175247222Y-112687009D01*
X175276552Y-112651271D01*
X175359814Y-112549814D01*
X175461271Y-112466552D01*
X175497009Y-112437222D01*
X175653534Y-112353557D01*
X175823373Y-112302037D01*
X175889557Y-112295519D01*
X175955740Y-112289000D01*
X176044260Y-112289000D01*
X176110443Y-112295519D01*
X176110443Y-112295519D01*
G37*
G36*
X176110443Y-109755519D02*
G01*
X176176627Y-109762037D01*
X176346466Y-109813557D01*
X176502991Y-109897222D01*
X176538729Y-109926552D01*
X176640186Y-110009814D01*
X176723448Y-110111271D01*
X176752778Y-110147009D01*
X176836443Y-110303534D01*
X176887963Y-110473373D01*
X176905359Y-110650000D01*
X176887963Y-110826627D01*
X176836443Y-110996466D01*
X176752778Y-111152991D01*
X176723448Y-111188729D01*
X176640186Y-111290186D01*
X176538729Y-111373448D01*
X176502991Y-111402778D01*
X176346466Y-111486443D01*
X176176627Y-111537963D01*
X176110443Y-111544481D01*
X176044260Y-111551000D01*
X175955740Y-111551000D01*
X175889557Y-111544481D01*
X175823373Y-111537963D01*
X175653534Y-111486443D01*
X175497009Y-111402778D01*
X175461271Y-111373448D01*
X175359814Y-111290186D01*
X175276552Y-111188729D01*
X175247222Y-111152991D01*
X175163557Y-110996466D01*
X175112037Y-110826627D01*
X175094641Y-110650000D01*
X175112037Y-110473373D01*
X175163557Y-110303534D01*
X175247222Y-110147009D01*
X175276552Y-110111271D01*
X175359814Y-110009814D01*
X175461271Y-109926552D01*
X175497009Y-109897222D01*
X175653534Y-109813557D01*
X175823373Y-109762037D01*
X175889557Y-109755519D01*
X175955740Y-109749000D01*
X176044260Y-109749000D01*
X176110443Y-109755519D01*
X176110443Y-109755519D01*
G37*
G36*
X127710443Y-109755519D02*
G01*
X127776627Y-109762037D01*
X127946466Y-109813557D01*
X128102991Y-109897222D01*
X128138729Y-109926552D01*
X128240186Y-110009814D01*
X128323448Y-110111271D01*
X128352778Y-110147009D01*
X128436443Y-110303534D01*
X128487963Y-110473373D01*
X128505359Y-110650000D01*
X128487963Y-110826627D01*
X128436443Y-110996466D01*
X128352778Y-111152991D01*
X128323448Y-111188729D01*
X128240186Y-111290186D01*
X128138729Y-111373448D01*
X128102991Y-111402778D01*
X127946466Y-111486443D01*
X127776627Y-111537963D01*
X127710443Y-111544481D01*
X127644260Y-111551000D01*
X127555740Y-111551000D01*
X127489557Y-111544481D01*
X127423373Y-111537963D01*
X127253534Y-111486443D01*
X127097009Y-111402778D01*
X127061271Y-111373448D01*
X126959814Y-111290186D01*
X126876552Y-111188729D01*
X126847222Y-111152991D01*
X126763557Y-110996466D01*
X126712037Y-110826627D01*
X126694641Y-110650000D01*
X126712037Y-110473373D01*
X126763557Y-110303534D01*
X126847222Y-110147009D01*
X126876552Y-110111271D01*
X126959814Y-110009814D01*
X127061271Y-109926552D01*
X127097009Y-109897222D01*
X127253534Y-109813557D01*
X127423373Y-109762037D01*
X127489557Y-109755519D01*
X127555740Y-109749000D01*
X127644260Y-109749000D01*
X127710443Y-109755519D01*
X127710443Y-109755519D01*
G37*
G36*
X169177532Y-105367191D02*
G01*
X169298667Y-105391286D01*
X169440460Y-105450019D01*
X169640986Y-105533079D01*
X169949067Y-105738932D01*
X170211068Y-106000933D01*
X170416921Y-106309014D01*
X170558714Y-106651334D01*
X170631000Y-107014736D01*
X170631000Y-107385264D01*
X170586892Y-107607009D01*
X170558714Y-107748667D01*
X170501721Y-107886259D01*
X170416921Y-108090986D01*
X170211068Y-108399067D01*
X169949067Y-108661068D01*
X169640986Y-108866921D01*
X169449002Y-108946443D01*
X169298667Y-109008714D01*
X169177532Y-109032809D01*
X168935264Y-109081000D01*
X168564736Y-109081000D01*
X168322468Y-109032809D01*
X168201333Y-109008714D01*
X168050998Y-108946443D01*
X167859014Y-108866921D01*
X167550933Y-108661068D01*
X167288932Y-108399067D01*
X167083079Y-108090986D01*
X166998279Y-107886259D01*
X166941286Y-107748667D01*
X166913108Y-107607009D01*
X166869000Y-107385264D01*
X166869000Y-107014736D01*
X166941286Y-106651334D01*
X167083079Y-106309014D01*
X167288932Y-106000933D01*
X167550933Y-105738932D01*
X167859014Y-105533079D01*
X168059540Y-105450019D01*
X168201333Y-105391286D01*
X168322468Y-105367191D01*
X168564736Y-105319000D01*
X168935264Y-105319000D01*
X169177532Y-105367191D01*
X169177532Y-105367191D01*
G37*
G36*
X176110442Y-107215518D02*
G01*
X176176627Y-107222037D01*
X176346466Y-107273557D01*
X176346468Y-107273558D01*
X176424729Y-107315390D01*
X176502991Y-107357222D01*
X176537158Y-107385262D01*
X176640186Y-107469814D01*
X176723448Y-107571271D01*
X176752778Y-107607009D01*
X176836443Y-107763534D01*
X176887963Y-107933373D01*
X176905359Y-108110000D01*
X176887963Y-108286627D01*
X176836443Y-108456466D01*
X176752778Y-108612991D01*
X176723448Y-108648729D01*
X176640186Y-108750186D01*
X176538729Y-108833448D01*
X176502991Y-108862778D01*
X176346466Y-108946443D01*
X176176627Y-108997963D01*
X176110443Y-109004481D01*
X176044260Y-109011000D01*
X175955740Y-109011000D01*
X175889557Y-109004481D01*
X175823373Y-108997963D01*
X175653534Y-108946443D01*
X175497009Y-108862778D01*
X175461271Y-108833448D01*
X175359814Y-108750186D01*
X175276552Y-108648729D01*
X175247222Y-108612991D01*
X175163557Y-108456466D01*
X175112037Y-108286627D01*
X175094641Y-108110000D01*
X175112037Y-107933373D01*
X175163557Y-107763534D01*
X175247222Y-107607009D01*
X175276552Y-107571271D01*
X175359814Y-107469814D01*
X175462842Y-107385262D01*
X175497009Y-107357222D01*
X175575272Y-107315389D01*
X175653532Y-107273558D01*
X175653534Y-107273557D01*
X175823373Y-107222037D01*
X175889558Y-107215518D01*
X175955740Y-107209000D01*
X176044260Y-107209000D01*
X176110442Y-107215518D01*
X176110442Y-107215518D01*
G37*
G36*
X127710442Y-107215518D02*
G01*
X127776627Y-107222037D01*
X127946466Y-107273557D01*
X127946468Y-107273558D01*
X128024729Y-107315390D01*
X128102991Y-107357222D01*
X128137158Y-107385262D01*
X128240186Y-107469814D01*
X128323448Y-107571271D01*
X128352778Y-107607009D01*
X128436443Y-107763534D01*
X128487963Y-107933373D01*
X128505359Y-108110000D01*
X128487963Y-108286627D01*
X128436443Y-108456466D01*
X128352778Y-108612991D01*
X128323448Y-108648729D01*
X128240186Y-108750186D01*
X128138729Y-108833448D01*
X128102991Y-108862778D01*
X127946466Y-108946443D01*
X127776627Y-108997963D01*
X127710443Y-109004481D01*
X127644260Y-109011000D01*
X127555740Y-109011000D01*
X127489557Y-109004481D01*
X127423373Y-108997963D01*
X127253534Y-108946443D01*
X127097009Y-108862778D01*
X127061271Y-108833448D01*
X126959814Y-108750186D01*
X126876552Y-108648729D01*
X126847222Y-108612991D01*
X126763557Y-108456466D01*
X126712037Y-108286627D01*
X126694641Y-108110000D01*
X126712037Y-107933373D01*
X126763557Y-107763534D01*
X126847222Y-107607009D01*
X126876552Y-107571271D01*
X126959814Y-107469814D01*
X127062842Y-107385262D01*
X127097009Y-107357222D01*
X127175272Y-107315389D01*
X127253532Y-107273558D01*
X127253534Y-107273557D01*
X127423373Y-107222037D01*
X127489558Y-107215518D01*
X127555740Y-107209000D01*
X127644260Y-107209000D01*
X127710442Y-107215518D01*
X127710442Y-107215518D01*
G37*
G36*
X163960810Y-106339135D02*
G01*
X164017707Y-106350452D01*
X164178494Y-106417052D01*
X164178496Y-106417053D01*
X164323196Y-106513738D01*
X164446262Y-106636804D01*
X164542947Y-106781504D01*
X164542948Y-106781506D01*
X164609548Y-106942293D01*
X164643500Y-107112983D01*
X164643500Y-107287017D01*
X164609548Y-107457707D01*
X164547705Y-107607009D01*
X164542947Y-107618496D01*
X164446262Y-107763196D01*
X164323196Y-107886262D01*
X164178496Y-107982947D01*
X164178495Y-107982948D01*
X164178494Y-107982948D01*
X164017707Y-108049548D01*
X163960810Y-108060865D01*
X163847019Y-108083500D01*
X163672981Y-108083500D01*
X163559190Y-108060865D01*
X163502293Y-108049548D01*
X163341506Y-107982948D01*
X163341505Y-107982948D01*
X163341504Y-107982947D01*
X163196804Y-107886262D01*
X163073738Y-107763196D01*
X162977053Y-107618496D01*
X162972295Y-107607009D01*
X162910452Y-107457707D01*
X162876500Y-107287017D01*
X162876500Y-107112983D01*
X162910452Y-106942293D01*
X162977052Y-106781506D01*
X162977053Y-106781504D01*
X163073738Y-106636804D01*
X163196804Y-106513738D01*
X163341504Y-106417053D01*
X163341506Y-106417052D01*
X163502293Y-106350452D01*
X163559190Y-106339135D01*
X163672981Y-106316500D01*
X163847019Y-106316500D01*
X163960810Y-106339135D01*
X163960810Y-106339135D01*
G37*
G36*
X161420810Y-106339135D02*
G01*
X161477707Y-106350452D01*
X161638494Y-106417052D01*
X161638496Y-106417053D01*
X161783196Y-106513738D01*
X161906262Y-106636804D01*
X162002947Y-106781504D01*
X162002948Y-106781506D01*
X162069548Y-106942293D01*
X162103500Y-107112983D01*
X162103500Y-107287017D01*
X162069548Y-107457707D01*
X162007705Y-107607009D01*
X162002947Y-107618496D01*
X161906262Y-107763196D01*
X161783196Y-107886262D01*
X161638496Y-107982947D01*
X161638495Y-107982948D01*
X161638494Y-107982948D01*
X161477707Y-108049548D01*
X161420810Y-108060865D01*
X161307019Y-108083500D01*
X161132981Y-108083500D01*
X161019190Y-108060865D01*
X160962293Y-108049548D01*
X160801506Y-107982948D01*
X160801505Y-107982948D01*
X160801504Y-107982947D01*
X160656804Y-107886262D01*
X160533738Y-107763196D01*
X160437053Y-107618496D01*
X160432295Y-107607009D01*
X160370452Y-107457707D01*
X160336500Y-107287017D01*
X160336500Y-107112983D01*
X160370452Y-106942293D01*
X160437052Y-106781506D01*
X160437053Y-106781504D01*
X160533738Y-106636804D01*
X160656804Y-106513738D01*
X160801504Y-106417053D01*
X160801506Y-106417052D01*
X160962293Y-106350452D01*
X161019190Y-106339135D01*
X161132981Y-106316500D01*
X161307019Y-106316500D01*
X161420810Y-106339135D01*
X161420810Y-106339135D01*
G37*
G36*
X158880810Y-106339135D02*
G01*
X158937707Y-106350452D01*
X159098494Y-106417052D01*
X159098496Y-106417053D01*
X159243196Y-106513738D01*
X159366262Y-106636804D01*
X159462947Y-106781504D01*
X159462948Y-106781506D01*
X159529548Y-106942293D01*
X159563500Y-107112983D01*
X159563500Y-107287017D01*
X159529548Y-107457707D01*
X159467705Y-107607009D01*
X159462947Y-107618496D01*
X159366262Y-107763196D01*
X159243196Y-107886262D01*
X159098496Y-107982947D01*
X159098495Y-107982948D01*
X159098494Y-107982948D01*
X158937707Y-108049548D01*
X158880810Y-108060865D01*
X158767019Y-108083500D01*
X158592981Y-108083500D01*
X158479190Y-108060865D01*
X158422293Y-108049548D01*
X158261506Y-107982948D01*
X158261505Y-107982948D01*
X158261504Y-107982947D01*
X158116804Y-107886262D01*
X157993738Y-107763196D01*
X157897053Y-107618496D01*
X157892295Y-107607009D01*
X157830452Y-107457707D01*
X157796500Y-107287017D01*
X157796500Y-107112983D01*
X157830452Y-106942293D01*
X157897052Y-106781506D01*
X157897053Y-106781504D01*
X157993738Y-106636804D01*
X158116804Y-106513738D01*
X158261504Y-106417053D01*
X158261506Y-106417052D01*
X158422293Y-106350452D01*
X158479190Y-106339135D01*
X158592981Y-106316500D01*
X158767019Y-106316500D01*
X158880810Y-106339135D01*
X158880810Y-106339135D01*
G37*
G36*
X156340810Y-106339135D02*
G01*
X156397707Y-106350452D01*
X156558494Y-106417052D01*
X156558496Y-106417053D01*
X156703196Y-106513738D01*
X156826262Y-106636804D01*
X156922947Y-106781504D01*
X156922948Y-106781506D01*
X156989548Y-106942293D01*
X157023500Y-107112983D01*
X157023500Y-107287017D01*
X156989548Y-107457707D01*
X156927705Y-107607009D01*
X156922947Y-107618496D01*
X156826262Y-107763196D01*
X156703196Y-107886262D01*
X156558496Y-107982947D01*
X156558495Y-107982948D01*
X156558494Y-107982948D01*
X156397707Y-108049548D01*
X156340810Y-108060865D01*
X156227019Y-108083500D01*
X156052981Y-108083500D01*
X155939190Y-108060865D01*
X155882293Y-108049548D01*
X155721506Y-107982948D01*
X155721505Y-107982948D01*
X155721504Y-107982947D01*
X155576804Y-107886262D01*
X155453738Y-107763196D01*
X155357053Y-107618496D01*
X155352295Y-107607009D01*
X155290452Y-107457707D01*
X155256500Y-107287017D01*
X155256500Y-107112983D01*
X155290452Y-106942293D01*
X155357052Y-106781506D01*
X155357053Y-106781504D01*
X155453738Y-106636804D01*
X155576804Y-106513738D01*
X155721504Y-106417053D01*
X155721506Y-106417052D01*
X155882293Y-106350452D01*
X155939190Y-106339135D01*
X156052981Y-106316500D01*
X156227019Y-106316500D01*
X156340810Y-106339135D01*
X156340810Y-106339135D01*
G37*
G36*
X153800810Y-106339135D02*
G01*
X153857707Y-106350452D01*
X154018494Y-106417052D01*
X154018496Y-106417053D01*
X154163196Y-106513738D01*
X154286262Y-106636804D01*
X154382947Y-106781504D01*
X154382948Y-106781506D01*
X154449548Y-106942293D01*
X154483500Y-107112983D01*
X154483500Y-107287017D01*
X154449548Y-107457707D01*
X154387705Y-107607009D01*
X154382947Y-107618496D01*
X154286262Y-107763196D01*
X154163196Y-107886262D01*
X154018496Y-107982947D01*
X154018495Y-107982948D01*
X154018494Y-107982948D01*
X153857707Y-108049548D01*
X153800810Y-108060865D01*
X153687019Y-108083500D01*
X153512981Y-108083500D01*
X153399190Y-108060865D01*
X153342293Y-108049548D01*
X153181506Y-107982948D01*
X153181505Y-107982948D01*
X153181504Y-107982947D01*
X153036804Y-107886262D01*
X152913738Y-107763196D01*
X152817053Y-107618496D01*
X152812295Y-107607009D01*
X152750452Y-107457707D01*
X152716500Y-107287017D01*
X152716500Y-107112983D01*
X152750452Y-106942293D01*
X152817052Y-106781506D01*
X152817053Y-106781504D01*
X152913738Y-106636804D01*
X153036804Y-106513738D01*
X153181504Y-106417053D01*
X153181506Y-106417052D01*
X153342293Y-106350452D01*
X153399190Y-106339135D01*
X153512981Y-106316500D01*
X153687019Y-106316500D01*
X153800810Y-106339135D01*
X153800810Y-106339135D01*
G37*
G36*
X176110443Y-104675519D02*
G01*
X176176627Y-104682037D01*
X176346466Y-104733557D01*
X176502991Y-104817222D01*
X176538729Y-104846552D01*
X176640186Y-104929814D01*
X176723448Y-105031271D01*
X176752778Y-105067009D01*
X176836443Y-105223534D01*
X176887963Y-105393373D01*
X176905359Y-105570000D01*
X176887963Y-105746627D01*
X176836443Y-105916466D01*
X176752778Y-106072991D01*
X176723448Y-106108729D01*
X176640186Y-106210186D01*
X176538729Y-106293448D01*
X176502991Y-106322778D01*
X176346466Y-106406443D01*
X176176627Y-106457963D01*
X176110442Y-106464482D01*
X176044260Y-106471000D01*
X175955740Y-106471000D01*
X175889558Y-106464482D01*
X175823373Y-106457963D01*
X175653534Y-106406443D01*
X175497009Y-106322778D01*
X175461271Y-106293448D01*
X175359814Y-106210186D01*
X175276552Y-106108729D01*
X175247222Y-106072991D01*
X175163557Y-105916466D01*
X175112037Y-105746627D01*
X175094641Y-105570000D01*
X175112037Y-105393373D01*
X175163557Y-105223534D01*
X175247222Y-105067009D01*
X175276552Y-105031271D01*
X175359814Y-104929814D01*
X175461271Y-104846552D01*
X175497009Y-104817222D01*
X175653534Y-104733557D01*
X175823373Y-104682037D01*
X175889557Y-104675519D01*
X175955740Y-104669000D01*
X176044260Y-104669000D01*
X176110443Y-104675519D01*
X176110443Y-104675519D01*
G37*
G36*
X127710443Y-104675519D02*
G01*
X127776627Y-104682037D01*
X127946466Y-104733557D01*
X128102991Y-104817222D01*
X128138729Y-104846552D01*
X128240186Y-104929814D01*
X128323448Y-105031271D01*
X128352778Y-105067009D01*
X128436443Y-105223534D01*
X128487963Y-105393373D01*
X128505359Y-105570000D01*
X128487963Y-105746627D01*
X128436443Y-105916466D01*
X128352778Y-106072991D01*
X128323448Y-106108729D01*
X128240186Y-106210186D01*
X128138729Y-106293448D01*
X128102991Y-106322778D01*
X127946466Y-106406443D01*
X127776627Y-106457963D01*
X127710442Y-106464482D01*
X127644260Y-106471000D01*
X127555740Y-106471000D01*
X127489558Y-106464482D01*
X127423373Y-106457963D01*
X127253534Y-106406443D01*
X127097009Y-106322778D01*
X127061271Y-106293448D01*
X126959814Y-106210186D01*
X126876552Y-106108729D01*
X126847222Y-106072991D01*
X126763557Y-105916466D01*
X126712037Y-105746627D01*
X126694641Y-105570000D01*
X126712037Y-105393373D01*
X126763557Y-105223534D01*
X126847222Y-105067009D01*
X126876552Y-105031271D01*
X126959814Y-104929814D01*
X127061271Y-104846552D01*
X127097009Y-104817222D01*
X127253534Y-104733557D01*
X127423373Y-104682037D01*
X127489557Y-104675519D01*
X127555740Y-104669000D01*
X127644260Y-104669000D01*
X127710443Y-104675519D01*
X127710443Y-104675519D01*
G37*
G36*
X127710442Y-102135518D02*
G01*
X127776627Y-102142037D01*
X127946466Y-102193557D01*
X128102991Y-102277222D01*
X128138729Y-102306552D01*
X128240186Y-102389814D01*
X128323448Y-102491271D01*
X128352778Y-102527009D01*
X128436443Y-102683534D01*
X128487963Y-102853373D01*
X128505359Y-103030000D01*
X128487963Y-103206627D01*
X128436443Y-103376466D01*
X128352778Y-103532991D01*
X128323448Y-103568729D01*
X128240186Y-103670186D01*
X128138729Y-103753448D01*
X128102991Y-103782778D01*
X127946466Y-103866443D01*
X127776627Y-103917963D01*
X127710443Y-103924481D01*
X127644260Y-103931000D01*
X127555740Y-103931000D01*
X127489558Y-103924482D01*
X127423373Y-103917963D01*
X127253534Y-103866443D01*
X127097009Y-103782778D01*
X127061271Y-103753448D01*
X126959814Y-103670186D01*
X126876552Y-103568729D01*
X126847222Y-103532991D01*
X126763557Y-103376466D01*
X126712037Y-103206627D01*
X126694641Y-103030000D01*
X126712037Y-102853373D01*
X126763557Y-102683534D01*
X126847222Y-102527009D01*
X126876552Y-102491271D01*
X126959814Y-102389814D01*
X127061271Y-102306552D01*
X127097009Y-102277222D01*
X127253534Y-102193557D01*
X127423373Y-102142037D01*
X127489558Y-102135518D01*
X127555740Y-102129000D01*
X127644260Y-102129000D01*
X127710442Y-102135518D01*
X127710442Y-102135518D01*
G37*
G36*
X176110442Y-102135518D02*
G01*
X176176627Y-102142037D01*
X176346466Y-102193557D01*
X176502991Y-102277222D01*
X176538729Y-102306552D01*
X176640186Y-102389814D01*
X176723448Y-102491271D01*
X176752778Y-102527009D01*
X176836443Y-102683534D01*
X176887963Y-102853373D01*
X176905359Y-103030000D01*
X176887963Y-103206627D01*
X176836443Y-103376466D01*
X176752778Y-103532991D01*
X176723448Y-103568729D01*
X176640186Y-103670186D01*
X176538729Y-103753448D01*
X176502991Y-103782778D01*
X176346466Y-103866443D01*
X176176627Y-103917963D01*
X176110443Y-103924481D01*
X176044260Y-103931000D01*
X175955740Y-103931000D01*
X175889558Y-103924482D01*
X175823373Y-103917963D01*
X175653534Y-103866443D01*
X175497009Y-103782778D01*
X175461271Y-103753448D01*
X175359814Y-103670186D01*
X175276552Y-103568729D01*
X175247222Y-103532991D01*
X175163557Y-103376466D01*
X175112037Y-103206627D01*
X175094641Y-103030000D01*
X175112037Y-102853373D01*
X175163557Y-102683534D01*
X175247222Y-102527009D01*
X175276552Y-102491271D01*
X175359814Y-102389814D01*
X175461271Y-102306552D01*
X175497009Y-102277222D01*
X175653534Y-102193557D01*
X175823373Y-102142037D01*
X175889558Y-102135518D01*
X175955740Y-102129000D01*
X176044260Y-102129000D01*
X176110442Y-102135518D01*
X176110442Y-102135518D01*
G37*
G36*
X176110442Y-99595518D02*
G01*
X176176627Y-99602037D01*
X176346466Y-99653557D01*
X176502991Y-99737222D01*
X176538729Y-99766552D01*
X176640186Y-99849814D01*
X176723448Y-99951271D01*
X176752778Y-99987009D01*
X176836443Y-100143534D01*
X176887963Y-100313373D01*
X176905359Y-100490000D01*
X176887963Y-100666627D01*
X176836443Y-100836466D01*
X176752778Y-100992991D01*
X176723448Y-101028729D01*
X176640186Y-101130186D01*
X176538729Y-101213448D01*
X176502991Y-101242778D01*
X176346466Y-101326443D01*
X176176627Y-101377963D01*
X176110443Y-101384481D01*
X176044260Y-101391000D01*
X175955740Y-101391000D01*
X175889558Y-101384482D01*
X175823373Y-101377963D01*
X175653534Y-101326443D01*
X175497009Y-101242778D01*
X175461271Y-101213448D01*
X175359814Y-101130186D01*
X175276552Y-101028729D01*
X175247222Y-100992991D01*
X175163557Y-100836466D01*
X175112037Y-100666627D01*
X175094641Y-100490000D01*
X175112037Y-100313373D01*
X175163557Y-100143534D01*
X175247222Y-99987009D01*
X175276552Y-99951271D01*
X175359814Y-99849814D01*
X175461271Y-99766552D01*
X175497009Y-99737222D01*
X175653534Y-99653557D01*
X175823373Y-99602037D01*
X175889558Y-99595518D01*
X175955740Y-99589000D01*
X176044260Y-99589000D01*
X176110442Y-99595518D01*
X176110442Y-99595518D01*
G37*
G36*
X127710442Y-99595518D02*
G01*
X127776627Y-99602037D01*
X127946466Y-99653557D01*
X128102991Y-99737222D01*
X128138729Y-99766552D01*
X128240186Y-99849814D01*
X128323448Y-99951271D01*
X128352778Y-99987009D01*
X128436443Y-100143534D01*
X128487963Y-100313373D01*
X128505359Y-100490000D01*
X128487963Y-100666627D01*
X128436443Y-100836466D01*
X128352778Y-100992991D01*
X128323448Y-101028729D01*
X128240186Y-101130186D01*
X128138729Y-101213448D01*
X128102991Y-101242778D01*
X127946466Y-101326443D01*
X127776627Y-101377963D01*
X127710443Y-101384481D01*
X127644260Y-101391000D01*
X127555740Y-101391000D01*
X127489558Y-101384482D01*
X127423373Y-101377963D01*
X127253534Y-101326443D01*
X127097009Y-101242778D01*
X127061271Y-101213448D01*
X126959814Y-101130186D01*
X126876552Y-101028729D01*
X126847222Y-100992991D01*
X126763557Y-100836466D01*
X126712037Y-100666627D01*
X126694641Y-100490000D01*
X126712037Y-100313373D01*
X126763557Y-100143534D01*
X126847222Y-99987009D01*
X126876552Y-99951271D01*
X126959814Y-99849814D01*
X127061271Y-99766552D01*
X127097009Y-99737222D01*
X127253534Y-99653557D01*
X127423373Y-99602037D01*
X127489558Y-99595518D01*
X127555740Y-99589000D01*
X127644260Y-99589000D01*
X127710442Y-99595518D01*
X127710442Y-99595518D01*
G37*
G36*
X176110442Y-97055518D02*
G01*
X176176627Y-97062037D01*
X176346466Y-97113557D01*
X176502991Y-97197222D01*
X176538729Y-97226552D01*
X176640186Y-97309814D01*
X176723448Y-97411271D01*
X176752778Y-97447009D01*
X176836443Y-97603534D01*
X176887963Y-97773373D01*
X176905359Y-97950000D01*
X176887963Y-98126627D01*
X176836443Y-98296466D01*
X176752778Y-98452991D01*
X176723448Y-98488729D01*
X176640186Y-98590186D01*
X176538729Y-98673448D01*
X176502991Y-98702778D01*
X176346466Y-98786443D01*
X176176627Y-98837963D01*
X176110443Y-98844481D01*
X176044260Y-98851000D01*
X175955740Y-98851000D01*
X175889557Y-98844481D01*
X175823373Y-98837963D01*
X175653534Y-98786443D01*
X175497009Y-98702778D01*
X175461271Y-98673448D01*
X175359814Y-98590186D01*
X175276552Y-98488729D01*
X175247222Y-98452991D01*
X175163557Y-98296466D01*
X175112037Y-98126627D01*
X175094641Y-97950000D01*
X175112037Y-97773373D01*
X175163557Y-97603534D01*
X175247222Y-97447009D01*
X175276552Y-97411271D01*
X175359814Y-97309814D01*
X175461271Y-97226552D01*
X175497009Y-97197222D01*
X175653534Y-97113557D01*
X175823373Y-97062037D01*
X175889558Y-97055518D01*
X175955740Y-97049000D01*
X176044260Y-97049000D01*
X176110442Y-97055518D01*
X176110442Y-97055518D01*
G37*
G36*
X127710442Y-97055518D02*
G01*
X127776627Y-97062037D01*
X127946466Y-97113557D01*
X128102991Y-97197222D01*
X128138729Y-97226552D01*
X128240186Y-97309814D01*
X128323448Y-97411271D01*
X128352778Y-97447009D01*
X128436443Y-97603534D01*
X128487963Y-97773373D01*
X128505359Y-97950000D01*
X128487963Y-98126627D01*
X128436443Y-98296466D01*
X128352778Y-98452991D01*
X128323448Y-98488729D01*
X128240186Y-98590186D01*
X128138729Y-98673448D01*
X128102991Y-98702778D01*
X127946466Y-98786443D01*
X127776627Y-98837963D01*
X127710443Y-98844481D01*
X127644260Y-98851000D01*
X127555740Y-98851000D01*
X127489557Y-98844481D01*
X127423373Y-98837963D01*
X127253534Y-98786443D01*
X127097009Y-98702778D01*
X127061271Y-98673448D01*
X126959814Y-98590186D01*
X126876552Y-98488729D01*
X126847222Y-98452991D01*
X126763557Y-98296466D01*
X126712037Y-98126627D01*
X126694641Y-97950000D01*
X126712037Y-97773373D01*
X126763557Y-97603534D01*
X126847222Y-97447009D01*
X126876552Y-97411271D01*
X126959814Y-97309814D01*
X127061271Y-97226552D01*
X127097009Y-97197222D01*
X127253534Y-97113557D01*
X127423373Y-97062037D01*
X127489558Y-97055518D01*
X127555740Y-97049000D01*
X127644260Y-97049000D01*
X127710442Y-97055518D01*
X127710442Y-97055518D01*
G37*
G36*
X176110443Y-94515519D02*
G01*
X176176627Y-94522037D01*
X176346466Y-94573557D01*
X176502991Y-94657222D01*
X176538729Y-94686552D01*
X176640186Y-94769814D01*
X176723448Y-94871271D01*
X176752778Y-94907009D01*
X176836443Y-95063534D01*
X176887963Y-95233373D01*
X176905359Y-95410000D01*
X176887963Y-95586627D01*
X176836443Y-95756466D01*
X176752778Y-95912991D01*
X176723448Y-95948729D01*
X176640186Y-96050186D01*
X176538729Y-96133448D01*
X176502991Y-96162778D01*
X176346466Y-96246443D01*
X176176627Y-96297963D01*
X176110442Y-96304482D01*
X176044260Y-96311000D01*
X175955740Y-96311000D01*
X175889558Y-96304482D01*
X175823373Y-96297963D01*
X175653534Y-96246443D01*
X175497009Y-96162778D01*
X175461271Y-96133448D01*
X175359814Y-96050186D01*
X175276552Y-95948729D01*
X175247222Y-95912991D01*
X175163557Y-95756466D01*
X175112037Y-95586627D01*
X175094641Y-95410000D01*
X175112037Y-95233373D01*
X175163557Y-95063534D01*
X175247222Y-94907009D01*
X175276552Y-94871271D01*
X175359814Y-94769814D01*
X175461271Y-94686552D01*
X175497009Y-94657222D01*
X175653534Y-94573557D01*
X175823373Y-94522037D01*
X175889557Y-94515519D01*
X175955740Y-94509000D01*
X176044260Y-94509000D01*
X176110443Y-94515519D01*
X176110443Y-94515519D01*
G37*
G36*
X127710443Y-94515519D02*
G01*
X127776627Y-94522037D01*
X127946466Y-94573557D01*
X128102991Y-94657222D01*
X128138729Y-94686552D01*
X128240186Y-94769814D01*
X128323448Y-94871271D01*
X128352778Y-94907009D01*
X128436443Y-95063534D01*
X128487963Y-95233373D01*
X128505359Y-95410000D01*
X128487963Y-95586627D01*
X128436443Y-95756466D01*
X128352778Y-95912991D01*
X128323448Y-95948729D01*
X128240186Y-96050186D01*
X128138729Y-96133448D01*
X128102991Y-96162778D01*
X127946466Y-96246443D01*
X127776627Y-96297963D01*
X127710442Y-96304482D01*
X127644260Y-96311000D01*
X127555740Y-96311000D01*
X127489558Y-96304482D01*
X127423373Y-96297963D01*
X127253534Y-96246443D01*
X127097009Y-96162778D01*
X127061271Y-96133448D01*
X126959814Y-96050186D01*
X126876552Y-95948729D01*
X126847222Y-95912991D01*
X126763557Y-95756466D01*
X126712037Y-95586627D01*
X126694641Y-95410000D01*
X126712037Y-95233373D01*
X126763557Y-95063534D01*
X126847222Y-94907009D01*
X126876552Y-94871271D01*
X126959814Y-94769814D01*
X127061271Y-94686552D01*
X127097009Y-94657222D01*
X127253534Y-94573557D01*
X127423373Y-94522037D01*
X127489557Y-94515519D01*
X127555740Y-94509000D01*
X127644260Y-94509000D01*
X127710443Y-94515519D01*
X127710443Y-94515519D01*
G37*
G36*
X127710442Y-91975518D02*
G01*
X127776627Y-91982037D01*
X127946466Y-92033557D01*
X128102991Y-92117222D01*
X128138729Y-92146552D01*
X128240186Y-92229814D01*
X128323448Y-92331271D01*
X128352778Y-92367009D01*
X128436443Y-92523534D01*
X128487963Y-92693373D01*
X128505359Y-92870000D01*
X128487963Y-93046627D01*
X128436443Y-93216466D01*
X128436442Y-93216468D01*
X128411266Y-93263569D01*
X128352778Y-93372991D01*
X128323448Y-93408729D01*
X128240186Y-93510186D01*
X128138729Y-93593448D01*
X128102991Y-93622778D01*
X127946466Y-93706443D01*
X127776627Y-93757963D01*
X127710443Y-93764481D01*
X127644260Y-93771000D01*
X127555740Y-93771000D01*
X127489557Y-93764481D01*
X127423373Y-93757963D01*
X127253534Y-93706443D01*
X127097009Y-93622778D01*
X127061271Y-93593448D01*
X126959814Y-93510186D01*
X126876552Y-93408729D01*
X126847222Y-93372991D01*
X126788734Y-93263569D01*
X126763558Y-93216468D01*
X126763557Y-93216466D01*
X126712037Y-93046627D01*
X126694641Y-92870000D01*
X126712037Y-92693373D01*
X126763557Y-92523534D01*
X126847222Y-92367009D01*
X126876552Y-92331271D01*
X126959814Y-92229814D01*
X127061271Y-92146552D01*
X127097009Y-92117222D01*
X127253534Y-92033557D01*
X127423373Y-91982037D01*
X127489558Y-91975518D01*
X127555740Y-91969000D01*
X127644260Y-91969000D01*
X127710442Y-91975518D01*
X127710442Y-91975518D01*
G37*
G36*
X176110442Y-91975518D02*
G01*
X176176627Y-91982037D01*
X176346466Y-92033557D01*
X176502991Y-92117222D01*
X176538729Y-92146552D01*
X176640186Y-92229814D01*
X176723448Y-92331271D01*
X176752778Y-92367009D01*
X176836443Y-92523534D01*
X176887963Y-92693373D01*
X176905359Y-92870000D01*
X176887963Y-93046627D01*
X176836443Y-93216466D01*
X176836442Y-93216468D01*
X176811266Y-93263569D01*
X176752778Y-93372991D01*
X176723448Y-93408729D01*
X176640186Y-93510186D01*
X176538729Y-93593448D01*
X176502991Y-93622778D01*
X176346466Y-93706443D01*
X176176627Y-93757963D01*
X176110443Y-93764481D01*
X176044260Y-93771000D01*
X175955740Y-93771000D01*
X175889557Y-93764481D01*
X175823373Y-93757963D01*
X175653534Y-93706443D01*
X175497009Y-93622778D01*
X175461271Y-93593448D01*
X175359814Y-93510186D01*
X175276552Y-93408729D01*
X175247222Y-93372991D01*
X175188734Y-93263569D01*
X175163558Y-93216468D01*
X175163557Y-93216466D01*
X175112037Y-93046627D01*
X175094641Y-92870000D01*
X175112037Y-92693373D01*
X175163557Y-92523534D01*
X175247222Y-92367009D01*
X175276552Y-92331271D01*
X175359814Y-92229814D01*
X175461271Y-92146552D01*
X175497009Y-92117222D01*
X175653534Y-92033557D01*
X175823373Y-91982037D01*
X175889557Y-91975519D01*
X175955740Y-91969000D01*
X176044260Y-91969000D01*
X176110442Y-91975518D01*
X176110442Y-91975518D01*
G37*
G36*
X134679591Y-92403085D02*
G01*
X134713569Y-92413393D01*
X134744890Y-92430134D01*
X134772339Y-92452661D01*
X134794866Y-92480110D01*
X134811607Y-92511431D01*
X134821915Y-92545409D01*
X134826000Y-92586890D01*
X134826000Y-93188110D01*
X134821915Y-93229591D01*
X134811607Y-93263569D01*
X134794866Y-93294890D01*
X134772339Y-93322339D01*
X134744890Y-93344866D01*
X134713569Y-93361607D01*
X134679591Y-93371915D01*
X134638110Y-93376000D01*
X133961890Y-93376000D01*
X133920409Y-93371915D01*
X133886431Y-93361607D01*
X133855110Y-93344866D01*
X133827661Y-93322339D01*
X133805134Y-93294890D01*
X133788393Y-93263569D01*
X133778085Y-93229591D01*
X133774000Y-93188110D01*
X133774000Y-92586890D01*
X133778085Y-92545409D01*
X133788393Y-92511431D01*
X133805134Y-92480110D01*
X133827661Y-92452661D01*
X133855110Y-92430134D01*
X133886431Y-92413393D01*
X133920409Y-92403085D01*
X133961890Y-92399000D01*
X134638110Y-92399000D01*
X134679591Y-92403085D01*
X134679591Y-92403085D01*
G37*
G36*
X133079591Y-92403085D02*
G01*
X133113569Y-92413393D01*
X133144890Y-92430134D01*
X133172339Y-92452661D01*
X133194866Y-92480110D01*
X133211607Y-92511431D01*
X133221915Y-92545409D01*
X133226000Y-92586890D01*
X133226000Y-93188110D01*
X133221915Y-93229591D01*
X133211607Y-93263569D01*
X133194866Y-93294890D01*
X133172339Y-93322339D01*
X133144890Y-93344866D01*
X133113569Y-93361607D01*
X133079591Y-93371915D01*
X133038110Y-93376000D01*
X132361890Y-93376000D01*
X132320409Y-93371915D01*
X132286431Y-93361607D01*
X132255110Y-93344866D01*
X132227661Y-93322339D01*
X132205134Y-93294890D01*
X132188393Y-93263569D01*
X132178085Y-93229591D01*
X132174000Y-93188110D01*
X132174000Y-92586890D01*
X132178085Y-92545409D01*
X132188393Y-92511431D01*
X132205134Y-92480110D01*
X132227661Y-92452661D01*
X132255110Y-92430134D01*
X132286431Y-92413393D01*
X132320409Y-92403085D01*
X132361890Y-92399000D01*
X133038110Y-92399000D01*
X133079591Y-92403085D01*
X133079591Y-92403085D01*
G37*
G36*
X134679591Y-90828085D02*
G01*
X134713569Y-90838393D01*
X134744890Y-90855134D01*
X134772339Y-90877661D01*
X134794866Y-90905110D01*
X134811607Y-90936431D01*
X134821915Y-90970409D01*
X134826000Y-91011890D01*
X134826000Y-91613110D01*
X134821915Y-91654591D01*
X134811607Y-91688569D01*
X134794866Y-91719890D01*
X134772339Y-91747339D01*
X134744890Y-91769866D01*
X134713569Y-91786607D01*
X134679591Y-91796915D01*
X134638110Y-91801000D01*
X133961890Y-91801000D01*
X133920409Y-91796915D01*
X133886431Y-91786607D01*
X133855110Y-91769866D01*
X133827661Y-91747339D01*
X133805134Y-91719890D01*
X133788393Y-91688569D01*
X133778085Y-91654591D01*
X133774000Y-91613110D01*
X133774000Y-91011890D01*
X133778085Y-90970409D01*
X133788393Y-90936431D01*
X133805134Y-90905110D01*
X133827661Y-90877661D01*
X133855110Y-90855134D01*
X133886431Y-90838393D01*
X133920409Y-90828085D01*
X133961890Y-90824000D01*
X134638110Y-90824000D01*
X134679591Y-90828085D01*
X134679591Y-90828085D01*
G37*
G36*
X133079591Y-90828085D02*
G01*
X133113569Y-90838393D01*
X133144890Y-90855134D01*
X133172339Y-90877661D01*
X133194866Y-90905110D01*
X133211607Y-90936431D01*
X133221915Y-90970409D01*
X133226000Y-91011890D01*
X133226000Y-91613110D01*
X133221915Y-91654591D01*
X133211607Y-91688569D01*
X133194866Y-91719890D01*
X133172339Y-91747339D01*
X133144890Y-91769866D01*
X133113569Y-91786607D01*
X133079591Y-91796915D01*
X133038110Y-91801000D01*
X132361890Y-91801000D01*
X132320409Y-91796915D01*
X132286431Y-91786607D01*
X132255110Y-91769866D01*
X132227661Y-91747339D01*
X132205134Y-91719890D01*
X132188393Y-91688569D01*
X132178085Y-91654591D01*
X132174000Y-91613110D01*
X132174000Y-91011890D01*
X132178085Y-90970409D01*
X132188393Y-90936431D01*
X132205134Y-90905110D01*
X132227661Y-90877661D01*
X132255110Y-90855134D01*
X132286431Y-90838393D01*
X132320409Y-90828085D01*
X132361890Y-90824000D01*
X133038110Y-90824000D01*
X133079591Y-90828085D01*
X133079591Y-90828085D01*
G37*
G36*
X127710442Y-89435518D02*
G01*
X127776627Y-89442037D01*
X127946466Y-89493557D01*
X128102991Y-89577222D01*
X128138729Y-89606552D01*
X128240186Y-89689814D01*
X128323448Y-89791271D01*
X128352778Y-89827009D01*
X128436443Y-89983534D01*
X128487963Y-90153373D01*
X128505359Y-90330000D01*
X128487963Y-90506627D01*
X128436443Y-90676466D01*
X128352778Y-90832991D01*
X128326374Y-90865164D01*
X128240186Y-90970186D01*
X128138729Y-91053448D01*
X128102991Y-91082778D01*
X127946466Y-91166443D01*
X127776627Y-91217963D01*
X127710442Y-91224482D01*
X127644260Y-91231000D01*
X127555740Y-91231000D01*
X127489558Y-91224482D01*
X127423373Y-91217963D01*
X127253534Y-91166443D01*
X127097009Y-91082778D01*
X127061271Y-91053448D01*
X126959814Y-90970186D01*
X126873626Y-90865164D01*
X126847222Y-90832991D01*
X126763557Y-90676466D01*
X126712037Y-90506627D01*
X126694641Y-90330000D01*
X126712037Y-90153373D01*
X126763557Y-89983534D01*
X126847222Y-89827009D01*
X126876552Y-89791271D01*
X126959814Y-89689814D01*
X127061271Y-89606552D01*
X127097009Y-89577222D01*
X127253534Y-89493557D01*
X127423373Y-89442037D01*
X127489558Y-89435518D01*
X127555740Y-89429000D01*
X127644260Y-89429000D01*
X127710442Y-89435518D01*
X127710442Y-89435518D01*
G37*
G36*
X176110442Y-89435518D02*
G01*
X176176627Y-89442037D01*
X176346466Y-89493557D01*
X176502991Y-89577222D01*
X176538729Y-89606552D01*
X176640186Y-89689814D01*
X176723448Y-89791271D01*
X176752778Y-89827009D01*
X176836443Y-89983534D01*
X176887963Y-90153373D01*
X176905359Y-90330000D01*
X176887963Y-90506627D01*
X176836443Y-90676466D01*
X176752778Y-90832991D01*
X176726374Y-90865164D01*
X176640186Y-90970186D01*
X176538729Y-91053448D01*
X176502991Y-91082778D01*
X176346466Y-91166443D01*
X176176627Y-91217963D01*
X176110442Y-91224482D01*
X176044260Y-91231000D01*
X175955740Y-91231000D01*
X175889558Y-91224482D01*
X175823373Y-91217963D01*
X175653534Y-91166443D01*
X175497009Y-91082778D01*
X175461271Y-91053448D01*
X175359814Y-90970186D01*
X175273626Y-90865164D01*
X175247222Y-90832991D01*
X175163557Y-90676466D01*
X175112037Y-90506627D01*
X175094641Y-90330000D01*
X175112037Y-90153373D01*
X175163557Y-89983534D01*
X175247222Y-89827009D01*
X175276552Y-89791271D01*
X175359814Y-89689814D01*
X175461271Y-89606552D01*
X175497009Y-89577222D01*
X175653534Y-89493557D01*
X175823373Y-89442037D01*
X175889558Y-89435518D01*
X175955740Y-89429000D01*
X176044260Y-89429000D01*
X176110442Y-89435518D01*
X176110442Y-89435518D01*
G37*
G36*
X152927532Y-85047191D02*
G01*
X153048667Y-85071286D01*
X153190460Y-85130019D01*
X153390986Y-85213079D01*
X153699067Y-85418932D01*
X153961068Y-85680933D01*
X154166921Y-85989014D01*
X154308714Y-86331334D01*
X154381000Y-86694736D01*
X154381000Y-87065264D01*
X154336892Y-87287009D01*
X154308714Y-87428667D01*
X154284597Y-87486890D01*
X154166921Y-87770986D01*
X153961068Y-88079067D01*
X153699067Y-88341068D01*
X153390986Y-88546921D01*
X153199002Y-88626443D01*
X153048667Y-88688714D01*
X152927532Y-88712809D01*
X152685264Y-88761000D01*
X152314736Y-88761000D01*
X152072468Y-88712809D01*
X151951333Y-88688714D01*
X151800998Y-88626443D01*
X151609014Y-88546921D01*
X151300933Y-88341068D01*
X151038932Y-88079067D01*
X150833079Y-87770986D01*
X150715403Y-87486890D01*
X150691286Y-87428667D01*
X150663108Y-87287009D01*
X150619000Y-87065264D01*
X150619000Y-86694736D01*
X150691286Y-86331334D01*
X150833079Y-85989014D01*
X151038932Y-85680933D01*
X151300933Y-85418932D01*
X151609014Y-85213079D01*
X151809540Y-85130019D01*
X151951333Y-85071286D01*
X152072468Y-85047191D01*
X152314736Y-84999000D01*
X152685264Y-84999000D01*
X152927532Y-85047191D01*
X152927532Y-85047191D01*
G37*
G36*
X176110443Y-86895519D02*
G01*
X176176627Y-86902037D01*
X176346466Y-86953557D01*
X176502991Y-87037222D01*
X176537158Y-87065262D01*
X176640186Y-87149814D01*
X176723448Y-87251271D01*
X176752778Y-87287009D01*
X176836443Y-87443534D01*
X176887963Y-87613373D01*
X176905359Y-87790000D01*
X176887963Y-87966627D01*
X176836443Y-88136466D01*
X176752778Y-88292991D01*
X176723448Y-88328729D01*
X176640186Y-88430186D01*
X176538729Y-88513448D01*
X176502991Y-88542778D01*
X176346466Y-88626443D01*
X176176627Y-88677963D01*
X176110443Y-88684481D01*
X176044260Y-88691000D01*
X175955740Y-88691000D01*
X175889557Y-88684481D01*
X175823373Y-88677963D01*
X175653534Y-88626443D01*
X175497009Y-88542778D01*
X175461271Y-88513448D01*
X175359814Y-88430186D01*
X175276552Y-88328729D01*
X175247222Y-88292991D01*
X175163557Y-88136466D01*
X175112037Y-87966627D01*
X175094641Y-87790000D01*
X175112037Y-87613373D01*
X175163557Y-87443534D01*
X175247222Y-87287009D01*
X175276552Y-87251271D01*
X175359814Y-87149814D01*
X175462842Y-87065262D01*
X175497009Y-87037222D01*
X175653534Y-86953557D01*
X175823373Y-86902037D01*
X175889557Y-86895519D01*
X175955740Y-86889000D01*
X176044260Y-86889000D01*
X176110443Y-86895519D01*
X176110443Y-86895519D01*
G37*
G36*
X127710443Y-86895519D02*
G01*
X127776627Y-86902037D01*
X127946466Y-86953557D01*
X128102991Y-87037222D01*
X128137158Y-87065262D01*
X128240186Y-87149814D01*
X128323448Y-87251271D01*
X128352778Y-87287009D01*
X128436443Y-87443534D01*
X128487963Y-87613373D01*
X128505359Y-87790000D01*
X128487963Y-87966627D01*
X128436443Y-88136466D01*
X128352778Y-88292991D01*
X128323448Y-88328729D01*
X128240186Y-88430186D01*
X128138729Y-88513448D01*
X128102991Y-88542778D01*
X127946466Y-88626443D01*
X127776627Y-88677963D01*
X127710443Y-88684481D01*
X127644260Y-88691000D01*
X127555740Y-88691000D01*
X127489557Y-88684481D01*
X127423373Y-88677963D01*
X127253534Y-88626443D01*
X127097009Y-88542778D01*
X127061271Y-88513448D01*
X126959814Y-88430186D01*
X126876552Y-88328729D01*
X126847222Y-88292991D01*
X126763557Y-88136466D01*
X126712037Y-87966627D01*
X126694641Y-87790000D01*
X126712037Y-87613373D01*
X126763557Y-87443534D01*
X126847222Y-87287009D01*
X126876552Y-87251271D01*
X126959814Y-87149814D01*
X127062842Y-87065262D01*
X127097009Y-87037222D01*
X127253534Y-86953557D01*
X127423373Y-86902037D01*
X127489557Y-86895519D01*
X127555740Y-86889000D01*
X127644260Y-86889000D01*
X127710443Y-86895519D01*
X127710443Y-86895519D01*
G37*
G36*
X169279591Y-87303085D02*
G01*
X169313569Y-87313393D01*
X169344890Y-87330134D01*
X169372339Y-87352661D01*
X169394866Y-87380110D01*
X169411607Y-87411431D01*
X169421915Y-87445409D01*
X169426000Y-87486890D01*
X169426000Y-88088110D01*
X169421915Y-88129591D01*
X169411607Y-88163569D01*
X169394866Y-88194890D01*
X169372339Y-88222339D01*
X169344890Y-88244866D01*
X169313569Y-88261607D01*
X169279591Y-88271915D01*
X169238110Y-88276000D01*
X168561890Y-88276000D01*
X168520409Y-88271915D01*
X168486431Y-88261607D01*
X168455110Y-88244866D01*
X168427661Y-88222339D01*
X168405134Y-88194890D01*
X168388393Y-88163569D01*
X168378085Y-88129591D01*
X168374000Y-88088110D01*
X168374000Y-87486890D01*
X168378085Y-87445409D01*
X168388393Y-87411431D01*
X168405134Y-87380110D01*
X168427661Y-87352661D01*
X168455110Y-87330134D01*
X168486431Y-87313393D01*
X168520409Y-87303085D01*
X168561890Y-87299000D01*
X169238110Y-87299000D01*
X169279591Y-87303085D01*
X169279591Y-87303085D01*
G37*
G36*
X170979591Y-87303085D02*
G01*
X171013569Y-87313393D01*
X171044890Y-87330134D01*
X171072339Y-87352661D01*
X171094866Y-87380110D01*
X171111607Y-87411431D01*
X171121915Y-87445409D01*
X171126000Y-87486890D01*
X171126000Y-88088110D01*
X171121915Y-88129591D01*
X171111607Y-88163569D01*
X171094866Y-88194890D01*
X171072339Y-88222339D01*
X171044890Y-88244866D01*
X171013569Y-88261607D01*
X170979591Y-88271915D01*
X170938110Y-88276000D01*
X170261890Y-88276000D01*
X170220409Y-88271915D01*
X170186431Y-88261607D01*
X170155110Y-88244866D01*
X170127661Y-88222339D01*
X170105134Y-88194890D01*
X170088393Y-88163569D01*
X170078085Y-88129591D01*
X170074000Y-88088110D01*
X170074000Y-87486890D01*
X170078085Y-87445409D01*
X170088393Y-87411431D01*
X170105134Y-87380110D01*
X170127661Y-87352661D01*
X170155110Y-87330134D01*
X170186431Y-87313393D01*
X170220409Y-87303085D01*
X170261890Y-87299000D01*
X170938110Y-87299000D01*
X170979591Y-87303085D01*
X170979591Y-87303085D01*
G37*
G36*
X169279591Y-85728085D02*
G01*
X169313569Y-85738393D01*
X169344890Y-85755134D01*
X169372339Y-85777661D01*
X169394866Y-85805110D01*
X169411607Y-85836431D01*
X169421915Y-85870409D01*
X169426000Y-85911890D01*
X169426000Y-86513110D01*
X169421915Y-86554591D01*
X169411607Y-86588569D01*
X169394866Y-86619890D01*
X169372339Y-86647339D01*
X169344890Y-86669866D01*
X169313569Y-86686607D01*
X169279591Y-86696915D01*
X169238110Y-86701000D01*
X168561890Y-86701000D01*
X168520409Y-86696915D01*
X168486431Y-86686607D01*
X168455110Y-86669866D01*
X168427661Y-86647339D01*
X168405134Y-86619890D01*
X168388393Y-86588569D01*
X168378085Y-86554591D01*
X168374000Y-86513110D01*
X168374000Y-85911890D01*
X168378085Y-85870409D01*
X168388393Y-85836431D01*
X168405134Y-85805110D01*
X168427661Y-85777661D01*
X168455110Y-85755134D01*
X168486431Y-85738393D01*
X168520409Y-85728085D01*
X168561890Y-85724000D01*
X169238110Y-85724000D01*
X169279591Y-85728085D01*
X169279591Y-85728085D01*
G37*
G36*
X170979591Y-85728085D02*
G01*
X171013569Y-85738393D01*
X171044890Y-85755134D01*
X171072339Y-85777661D01*
X171094866Y-85805110D01*
X171111607Y-85836431D01*
X171121915Y-85870409D01*
X171126000Y-85911890D01*
X171126000Y-86513110D01*
X171121915Y-86554591D01*
X171111607Y-86588569D01*
X171094866Y-86619890D01*
X171072339Y-86647339D01*
X171044890Y-86669866D01*
X171013569Y-86686607D01*
X170979591Y-86696915D01*
X170938110Y-86701000D01*
X170261890Y-86701000D01*
X170220409Y-86696915D01*
X170186431Y-86686607D01*
X170155110Y-86669866D01*
X170127661Y-86647339D01*
X170105134Y-86619890D01*
X170088393Y-86588569D01*
X170078085Y-86554591D01*
X170074000Y-86513110D01*
X170074000Y-85911890D01*
X170078085Y-85870409D01*
X170088393Y-85836431D01*
X170105134Y-85805110D01*
X170127661Y-85777661D01*
X170155110Y-85755134D01*
X170186431Y-85738393D01*
X170220409Y-85728085D01*
X170261890Y-85724000D01*
X170938110Y-85724000D01*
X170979591Y-85728085D01*
X170979591Y-85728085D01*
G37*
G36*
X176110443Y-84355519D02*
G01*
X176176627Y-84362037D01*
X176346466Y-84413557D01*
X176502991Y-84497222D01*
X176538729Y-84526552D01*
X176640186Y-84609814D01*
X176723448Y-84711271D01*
X176752778Y-84747009D01*
X176836443Y-84903534D01*
X176887963Y-85073373D01*
X176905359Y-85250000D01*
X176887963Y-85426627D01*
X176836443Y-85596466D01*
X176752778Y-85752991D01*
X176732532Y-85777661D01*
X176640186Y-85890186D01*
X176545063Y-85968250D01*
X176502991Y-86002778D01*
X176346466Y-86086443D01*
X176176627Y-86137963D01*
X176110442Y-86144482D01*
X176044260Y-86151000D01*
X175955740Y-86151000D01*
X175889558Y-86144482D01*
X175823373Y-86137963D01*
X175653534Y-86086443D01*
X175497009Y-86002778D01*
X175454937Y-85968250D01*
X175359814Y-85890186D01*
X175267468Y-85777661D01*
X175247222Y-85752991D01*
X175163557Y-85596466D01*
X175112037Y-85426627D01*
X175094641Y-85250000D01*
X175112037Y-85073373D01*
X175163557Y-84903534D01*
X175247222Y-84747009D01*
X175276552Y-84711271D01*
X175359814Y-84609814D01*
X175461271Y-84526552D01*
X175497009Y-84497222D01*
X175653534Y-84413557D01*
X175823373Y-84362037D01*
X175889557Y-84355519D01*
X175955740Y-84349000D01*
X176044260Y-84349000D01*
X176110443Y-84355519D01*
X176110443Y-84355519D01*
G37*
G36*
X128501000Y-86151000D02*
G01*
X126699000Y-86151000D01*
X126699000Y-84349000D01*
X128501000Y-84349000D01*
X128501000Y-86151000D01*
X128501000Y-86151000D01*
G37*
G36*
X163135993Y-78686203D02*
G01*
X163200411Y-78705744D01*
X163259781Y-78737478D01*
X163311817Y-78780183D01*
X163354522Y-78832219D01*
X163386256Y-78891589D01*
X163405797Y-78956007D01*
X163413000Y-79029140D01*
X163413000Y-80430860D01*
X163405797Y-80503993D01*
X163386256Y-80568411D01*
X163354522Y-80627781D01*
X163311817Y-80679817D01*
X163259781Y-80722522D01*
X163200411Y-80754256D01*
X163135993Y-80773797D01*
X163062860Y-80781000D01*
X162137140Y-80781000D01*
X162064007Y-80773797D01*
X161999589Y-80754256D01*
X161940219Y-80722522D01*
X161888183Y-80679817D01*
X161845478Y-80627781D01*
X161813744Y-80568411D01*
X161794203Y-80503993D01*
X161787000Y-80430860D01*
X161787000Y-79029140D01*
X161794203Y-78956007D01*
X161813744Y-78891589D01*
X161845478Y-78832219D01*
X161888183Y-78780183D01*
X161940219Y-78737478D01*
X161999589Y-78705744D01*
X162064007Y-78686203D01*
X162137140Y-78679000D01*
X163062860Y-78679000D01*
X163135993Y-78686203D01*
X163135993Y-78686203D01*
G37*
G36*
X165675993Y-78686203D02*
G01*
X165740411Y-78705744D01*
X165799781Y-78737478D01*
X165851817Y-78780183D01*
X165894522Y-78832219D01*
X165926256Y-78891589D01*
X165945797Y-78956007D01*
X165953000Y-79029140D01*
X165953000Y-80430860D01*
X165945797Y-80503993D01*
X165926256Y-80568411D01*
X165894522Y-80627781D01*
X165851817Y-80679817D01*
X165799781Y-80722522D01*
X165740411Y-80754256D01*
X165675993Y-80773797D01*
X165602860Y-80781000D01*
X164677140Y-80781000D01*
X164604007Y-80773797D01*
X164539589Y-80754256D01*
X164480219Y-80722522D01*
X164428183Y-80679817D01*
X164385478Y-80627781D01*
X164353744Y-80568411D01*
X164334203Y-80503993D01*
X164327000Y-80430860D01*
X164327000Y-79029140D01*
X164334203Y-78956007D01*
X164353744Y-78891589D01*
X164385478Y-78832219D01*
X164428183Y-78780183D01*
X164480219Y-78737478D01*
X164539589Y-78705744D01*
X164604007Y-78686203D01*
X164677140Y-78679000D01*
X165602860Y-78679000D01*
X165675993Y-78686203D01*
X165675993Y-78686203D01*
G37*
G36*
X160595993Y-78686203D02*
G01*
X160660411Y-78705744D01*
X160719781Y-78737478D01*
X160771817Y-78780183D01*
X160814522Y-78832219D01*
X160846256Y-78891589D01*
X160865797Y-78956007D01*
X160873000Y-79029140D01*
X160873000Y-80430860D01*
X160865797Y-80503993D01*
X160846256Y-80568411D01*
X160814522Y-80627781D01*
X160771817Y-80679817D01*
X160719781Y-80722522D01*
X160660411Y-80754256D01*
X160595993Y-80773797D01*
X160522860Y-80781000D01*
X159597140Y-80781000D01*
X159524007Y-80773797D01*
X159459589Y-80754256D01*
X159400219Y-80722522D01*
X159348183Y-80679817D01*
X159305478Y-80627781D01*
X159273744Y-80568411D01*
X159254203Y-80503993D01*
X159247000Y-80430860D01*
X159247000Y-79029140D01*
X159254203Y-78956007D01*
X159273744Y-78891589D01*
X159305478Y-78832219D01*
X159348183Y-78780183D01*
X159400219Y-78737478D01*
X159459589Y-78705744D01*
X159524007Y-78686203D01*
X159597140Y-78679000D01*
X160522860Y-78679000D01*
X160595993Y-78686203D01*
X160595993Y-78686203D01*
G37*
G36*
X158055993Y-78686203D02*
G01*
X158120411Y-78705744D01*
X158179781Y-78737478D01*
X158231817Y-78780183D01*
X158274522Y-78832219D01*
X158306256Y-78891589D01*
X158325797Y-78956007D01*
X158333000Y-79029140D01*
X158333000Y-80430860D01*
X158325797Y-80503993D01*
X158306256Y-80568411D01*
X158274522Y-80627781D01*
X158231817Y-80679817D01*
X158179781Y-80722522D01*
X158120411Y-80754256D01*
X158055993Y-80773797D01*
X157982860Y-80781000D01*
X157057140Y-80781000D01*
X156984007Y-80773797D01*
X156919589Y-80754256D01*
X156860219Y-80722522D01*
X156808183Y-80679817D01*
X156765478Y-80627781D01*
X156733744Y-80568411D01*
X156714203Y-80503993D01*
X156707000Y-80430860D01*
X156707000Y-79029140D01*
X156714203Y-78956007D01*
X156733744Y-78891589D01*
X156765478Y-78832219D01*
X156808183Y-78780183D01*
X156860219Y-78737478D01*
X156919589Y-78705744D01*
X156984007Y-78686203D01*
X157057140Y-78679000D01*
X157982860Y-78679000D01*
X158055993Y-78686203D01*
X158055993Y-78686203D01*
G37*
G36*
X152975993Y-78686203D02*
G01*
X153040411Y-78705744D01*
X153099781Y-78737478D01*
X153151817Y-78780183D01*
X153194522Y-78832219D01*
X153226256Y-78891589D01*
X153245797Y-78956007D01*
X153253000Y-79029140D01*
X153253000Y-80430860D01*
X153245797Y-80503993D01*
X153226256Y-80568411D01*
X153194522Y-80627781D01*
X153151817Y-80679817D01*
X153099781Y-80722522D01*
X153040411Y-80754256D01*
X152975993Y-80773797D01*
X152902860Y-80781000D01*
X151977140Y-80781000D01*
X151904007Y-80773797D01*
X151839589Y-80754256D01*
X151780219Y-80722522D01*
X151728183Y-80679817D01*
X151685478Y-80627781D01*
X151653744Y-80568411D01*
X151634203Y-80503993D01*
X151627000Y-80430860D01*
X151627000Y-79029140D01*
X151634203Y-78956007D01*
X151653744Y-78891589D01*
X151685478Y-78832219D01*
X151728183Y-78780183D01*
X151780219Y-78737478D01*
X151839589Y-78705744D01*
X151904007Y-78686203D01*
X151977140Y-78679000D01*
X152902860Y-78679000D01*
X152975993Y-78686203D01*
X152975993Y-78686203D01*
G37*
G36*
X150435993Y-78686203D02*
G01*
X150500411Y-78705744D01*
X150559781Y-78737478D01*
X150611817Y-78780183D01*
X150654522Y-78832219D01*
X150686256Y-78891589D01*
X150705797Y-78956007D01*
X150713000Y-79029140D01*
X150713000Y-80430860D01*
X150705797Y-80503993D01*
X150686256Y-80568411D01*
X150654522Y-80627781D01*
X150611817Y-80679817D01*
X150559781Y-80722522D01*
X150500411Y-80754256D01*
X150435993Y-80773797D01*
X150362860Y-80781000D01*
X149437140Y-80781000D01*
X149364007Y-80773797D01*
X149299589Y-80754256D01*
X149240219Y-80722522D01*
X149188183Y-80679817D01*
X149145478Y-80627781D01*
X149113744Y-80568411D01*
X149094203Y-80503993D01*
X149087000Y-80430860D01*
X149087000Y-79029140D01*
X149094203Y-78956007D01*
X149113744Y-78891589D01*
X149145478Y-78832219D01*
X149188183Y-78780183D01*
X149240219Y-78737478D01*
X149299589Y-78705744D01*
X149364007Y-78686203D01*
X149437140Y-78679000D01*
X150362860Y-78679000D01*
X150435993Y-78686203D01*
X150435993Y-78686203D01*
G37*
G36*
X168215993Y-78686203D02*
G01*
X168280411Y-78705744D01*
X168339781Y-78737478D01*
X168391817Y-78780183D01*
X168434522Y-78832219D01*
X168466256Y-78891589D01*
X168485797Y-78956007D01*
X168493000Y-79029140D01*
X168493000Y-80430860D01*
X168485797Y-80503993D01*
X168466256Y-80568411D01*
X168434522Y-80627781D01*
X168391817Y-80679817D01*
X168339781Y-80722522D01*
X168280411Y-80754256D01*
X168215993Y-80773797D01*
X168142860Y-80781000D01*
X167217140Y-80781000D01*
X167144007Y-80773797D01*
X167079589Y-80754256D01*
X167020219Y-80722522D01*
X166968183Y-80679817D01*
X166925478Y-80627781D01*
X166893744Y-80568411D01*
X166874203Y-80503993D01*
X166867000Y-80430860D01*
X166867000Y-79029140D01*
X166874203Y-78956007D01*
X166893744Y-78891589D01*
X166925478Y-78832219D01*
X166968183Y-78780183D01*
X167020219Y-78737478D01*
X167079589Y-78705744D01*
X167144007Y-78686203D01*
X167217140Y-78679000D01*
X168142860Y-78679000D01*
X168215993Y-78686203D01*
X168215993Y-78686203D01*
G37*
G36*
X155515993Y-78686203D02*
G01*
X155580411Y-78705744D01*
X155639781Y-78737478D01*
X155691817Y-78780183D01*
X155734522Y-78832219D01*
X155766256Y-78891589D01*
X155785797Y-78956007D01*
X155793000Y-79029140D01*
X155793000Y-80430860D01*
X155785797Y-80503993D01*
X155766256Y-80568411D01*
X155734522Y-80627781D01*
X155691817Y-80679817D01*
X155639781Y-80722522D01*
X155580411Y-80754256D01*
X155515993Y-80773797D01*
X155442860Y-80781000D01*
X154517140Y-80781000D01*
X154444007Y-80773797D01*
X154379589Y-80754256D01*
X154320219Y-80722522D01*
X154268183Y-80679817D01*
X154225478Y-80627781D01*
X154193744Y-80568411D01*
X154174203Y-80503993D01*
X154167000Y-80430860D01*
X154167000Y-79029140D01*
X154174203Y-78956007D01*
X154193744Y-78891589D01*
X154225478Y-78832219D01*
X154268183Y-78780183D01*
X154320219Y-78737478D01*
X154379589Y-78705744D01*
X154444007Y-78686203D01*
X154517140Y-78679000D01*
X155442860Y-78679000D01*
X155515993Y-78686203D01*
X155515993Y-78686203D01*
G37*
G36*
X128275331Y-77028211D02*
G01*
X128603092Y-77163974D01*
X128898070Y-77361072D01*
X129148928Y-77611930D01*
X129346026Y-77906908D01*
X129481789Y-78234669D01*
X129551000Y-78582616D01*
X129551000Y-78937384D01*
X129481789Y-79285331D01*
X129346026Y-79613092D01*
X129148928Y-79908070D01*
X128898070Y-80158928D01*
X128603092Y-80356026D01*
X128275331Y-80491789D01*
X127927384Y-80561000D01*
X127572616Y-80561000D01*
X127224669Y-80491789D01*
X126896908Y-80356026D01*
X126601930Y-80158928D01*
X126351072Y-79908070D01*
X126153974Y-79613092D01*
X126018211Y-79285331D01*
X125949000Y-78937384D01*
X125949000Y-78582616D01*
X126018211Y-78234669D01*
X126153974Y-77906908D01*
X126351072Y-77611930D01*
X126601930Y-77361072D01*
X126896908Y-77163974D01*
X127224669Y-77028211D01*
X127572616Y-76959000D01*
X127927384Y-76959000D01*
X128275331Y-77028211D01*
X128275331Y-77028211D01*
G37*
G36*
X176525331Y-75738211D02*
G01*
X176853092Y-75873974D01*
X177148070Y-76071072D01*
X177398928Y-76321930D01*
X177596026Y-76616908D01*
X177731789Y-76944669D01*
X177801000Y-77292616D01*
X177801000Y-77647384D01*
X177731789Y-77995331D01*
X177596026Y-78323092D01*
X177398928Y-78618070D01*
X177148070Y-78868928D01*
X176853092Y-79066026D01*
X176525331Y-79201789D01*
X176177384Y-79271000D01*
X175822616Y-79271000D01*
X175474669Y-79201789D01*
X175146908Y-79066026D01*
X174851930Y-78868928D01*
X174601072Y-78618070D01*
X174403974Y-78323092D01*
X174268211Y-77995331D01*
X174199000Y-77647384D01*
X174199000Y-77292616D01*
X174268211Y-76944669D01*
X174403974Y-76616908D01*
X174601072Y-76321930D01*
X174851930Y-76071072D01*
X175146908Y-75873974D01*
X175474669Y-75738211D01*
X175822616Y-75669000D01*
X176177384Y-75669000D01*
X176525331Y-75738211D01*
X176525331Y-75738211D01*
G37*
G36*
X147501000Y-79151000D02*
G01*
X145699000Y-79151000D01*
X145699000Y-77349000D01*
X147501000Y-77349000D01*
X147501000Y-79151000D01*
X147501000Y-79151000D01*
G37*
G36*
X141630443Y-77355519D02*
G01*
X141696627Y-77362037D01*
X141866466Y-77413557D01*
X142022991Y-77497222D01*
X142058729Y-77526552D01*
X142160186Y-77609814D01*
X142243448Y-77711271D01*
X142272778Y-77747009D01*
X142356443Y-77903534D01*
X142407963Y-78073373D01*
X142425359Y-78250000D01*
X142407963Y-78426627D01*
X142356443Y-78596466D01*
X142272778Y-78752991D01*
X142250462Y-78780183D01*
X142160186Y-78890186D01*
X142058729Y-78973448D01*
X142022991Y-79002778D01*
X141866466Y-79086443D01*
X141696627Y-79137963D01*
X141630442Y-79144482D01*
X141564260Y-79151000D01*
X141475740Y-79151000D01*
X141409558Y-79144482D01*
X141343373Y-79137963D01*
X141173534Y-79086443D01*
X141017009Y-79002778D01*
X140981271Y-78973448D01*
X140879814Y-78890186D01*
X140789538Y-78780183D01*
X140767222Y-78752991D01*
X140683557Y-78596466D01*
X140632037Y-78426627D01*
X140614641Y-78250000D01*
X140632037Y-78073373D01*
X140683557Y-77903534D01*
X140767222Y-77747009D01*
X140796552Y-77711271D01*
X140879814Y-77609814D01*
X140981271Y-77526552D01*
X141017009Y-77497222D01*
X141173534Y-77413557D01*
X141343373Y-77362037D01*
X141409557Y-77355519D01*
X141475740Y-77349000D01*
X141564260Y-77349000D01*
X141630443Y-77355519D01*
X141630443Y-77355519D01*
G37*
G36*
X144170443Y-77355519D02*
G01*
X144236627Y-77362037D01*
X144406466Y-77413557D01*
X144562991Y-77497222D01*
X144598729Y-77526552D01*
X144700186Y-77609814D01*
X144783448Y-77711271D01*
X144812778Y-77747009D01*
X144896443Y-77903534D01*
X144947963Y-78073373D01*
X144965359Y-78250000D01*
X144947963Y-78426627D01*
X144896443Y-78596466D01*
X144812778Y-78752991D01*
X144790462Y-78780183D01*
X144700186Y-78890186D01*
X144598729Y-78973448D01*
X144562991Y-79002778D01*
X144406466Y-79086443D01*
X144236627Y-79137963D01*
X144170442Y-79144482D01*
X144104260Y-79151000D01*
X144015740Y-79151000D01*
X143949558Y-79144482D01*
X143883373Y-79137963D01*
X143713534Y-79086443D01*
X143557009Y-79002778D01*
X143521271Y-78973448D01*
X143419814Y-78890186D01*
X143329538Y-78780183D01*
X143307222Y-78752991D01*
X143223557Y-78596466D01*
X143172037Y-78426627D01*
X143154641Y-78250000D01*
X143172037Y-78073373D01*
X143223557Y-77903534D01*
X143307222Y-77747009D01*
X143336552Y-77711271D01*
X143419814Y-77609814D01*
X143521271Y-77526552D01*
X143557009Y-77497222D01*
X143713534Y-77413557D01*
X143883373Y-77362037D01*
X143949557Y-77355519D01*
X144015740Y-77349000D01*
X144104260Y-77349000D01*
X144170443Y-77355519D01*
X144170443Y-77355519D01*
G37*
G36*
X134010443Y-77355519D02*
G01*
X134076627Y-77362037D01*
X134246466Y-77413557D01*
X134402991Y-77497222D01*
X134438729Y-77526552D01*
X134540186Y-77609814D01*
X134623448Y-77711271D01*
X134652778Y-77747009D01*
X134736443Y-77903534D01*
X134787963Y-78073373D01*
X134805359Y-78250000D01*
X134787963Y-78426627D01*
X134736443Y-78596466D01*
X134652778Y-78752991D01*
X134630462Y-78780183D01*
X134540186Y-78890186D01*
X134438729Y-78973448D01*
X134402991Y-79002778D01*
X134246466Y-79086443D01*
X134076627Y-79137963D01*
X134010442Y-79144482D01*
X133944260Y-79151000D01*
X133855740Y-79151000D01*
X133789558Y-79144482D01*
X133723373Y-79137963D01*
X133553534Y-79086443D01*
X133397009Y-79002778D01*
X133361271Y-78973448D01*
X133259814Y-78890186D01*
X133169538Y-78780183D01*
X133147222Y-78752991D01*
X133063557Y-78596466D01*
X133012037Y-78426627D01*
X132994641Y-78250000D01*
X133012037Y-78073373D01*
X133063557Y-77903534D01*
X133147222Y-77747009D01*
X133176552Y-77711271D01*
X133259814Y-77609814D01*
X133361271Y-77526552D01*
X133397009Y-77497222D01*
X133553534Y-77413557D01*
X133723373Y-77362037D01*
X133789557Y-77355519D01*
X133855740Y-77349000D01*
X133944260Y-77349000D01*
X134010443Y-77355519D01*
X134010443Y-77355519D01*
G37*
G36*
X136550443Y-77355519D02*
G01*
X136616627Y-77362037D01*
X136786466Y-77413557D01*
X136942991Y-77497222D01*
X136978729Y-77526552D01*
X137080186Y-77609814D01*
X137163448Y-77711271D01*
X137192778Y-77747009D01*
X137276443Y-77903534D01*
X137327963Y-78073373D01*
X137345359Y-78250000D01*
X137327963Y-78426627D01*
X137276443Y-78596466D01*
X137192778Y-78752991D01*
X137170462Y-78780183D01*
X137080186Y-78890186D01*
X136978729Y-78973448D01*
X136942991Y-79002778D01*
X136786466Y-79086443D01*
X136616627Y-79137963D01*
X136550442Y-79144482D01*
X136484260Y-79151000D01*
X136395740Y-79151000D01*
X136329558Y-79144482D01*
X136263373Y-79137963D01*
X136093534Y-79086443D01*
X135937009Y-79002778D01*
X135901271Y-78973448D01*
X135799814Y-78890186D01*
X135709538Y-78780183D01*
X135687222Y-78752991D01*
X135603557Y-78596466D01*
X135552037Y-78426627D01*
X135534641Y-78250000D01*
X135552037Y-78073373D01*
X135603557Y-77903534D01*
X135687222Y-77747009D01*
X135716552Y-77711271D01*
X135799814Y-77609814D01*
X135901271Y-77526552D01*
X135937009Y-77497222D01*
X136093534Y-77413557D01*
X136263373Y-77362037D01*
X136329557Y-77355519D01*
X136395740Y-77349000D01*
X136484260Y-77349000D01*
X136550443Y-77355519D01*
X136550443Y-77355519D01*
G37*
G36*
X139090443Y-77355519D02*
G01*
X139156627Y-77362037D01*
X139326466Y-77413557D01*
X139482991Y-77497222D01*
X139518729Y-77526552D01*
X139620186Y-77609814D01*
X139703448Y-77711271D01*
X139732778Y-77747009D01*
X139816443Y-77903534D01*
X139867963Y-78073373D01*
X139885359Y-78250000D01*
X139867963Y-78426627D01*
X139816443Y-78596466D01*
X139732778Y-78752991D01*
X139710462Y-78780183D01*
X139620186Y-78890186D01*
X139518729Y-78973448D01*
X139482991Y-79002778D01*
X139326466Y-79086443D01*
X139156627Y-79137963D01*
X139090442Y-79144482D01*
X139024260Y-79151000D01*
X138935740Y-79151000D01*
X138869558Y-79144482D01*
X138803373Y-79137963D01*
X138633534Y-79086443D01*
X138477009Y-79002778D01*
X138441271Y-78973448D01*
X138339814Y-78890186D01*
X138249538Y-78780183D01*
X138227222Y-78752991D01*
X138143557Y-78596466D01*
X138092037Y-78426627D01*
X138074641Y-78250000D01*
X138092037Y-78073373D01*
X138143557Y-77903534D01*
X138227222Y-77747009D01*
X138256552Y-77711271D01*
X138339814Y-77609814D01*
X138441271Y-77526552D01*
X138477009Y-77497222D01*
X138633534Y-77413557D01*
X138803373Y-77362037D01*
X138869557Y-77355519D01*
X138935740Y-77349000D01*
X139024260Y-77349000D01*
X139090443Y-77355519D01*
X139090443Y-77355519D01*
G37*
G36*
X155465993Y-76156203D02*
G01*
X155530411Y-76175744D01*
X155589781Y-76207478D01*
X155641817Y-76250183D01*
X155684522Y-76302219D01*
X155716256Y-76361589D01*
X155735797Y-76426007D01*
X155743000Y-76499140D01*
X155743000Y-77900860D01*
X155735797Y-77973993D01*
X155716256Y-78038411D01*
X155684522Y-78097781D01*
X155641817Y-78149817D01*
X155589781Y-78192522D01*
X155530411Y-78224256D01*
X155465993Y-78243797D01*
X155392860Y-78251000D01*
X154467140Y-78251000D01*
X154394007Y-78243797D01*
X154329589Y-78224256D01*
X154270219Y-78192522D01*
X154218183Y-78149817D01*
X154175478Y-78097781D01*
X154143744Y-78038411D01*
X154124203Y-77973993D01*
X154117000Y-77900860D01*
X154117000Y-76499140D01*
X154124203Y-76426007D01*
X154143744Y-76361589D01*
X154175478Y-76302219D01*
X154218183Y-76250183D01*
X154270219Y-76207478D01*
X154329589Y-76175744D01*
X154394007Y-76156203D01*
X154467140Y-76149000D01*
X155392860Y-76149000D01*
X155465993Y-76156203D01*
X155465993Y-76156203D01*
G37*
G36*
X165625993Y-76156203D02*
G01*
X165690411Y-76175744D01*
X165749781Y-76207478D01*
X165801817Y-76250183D01*
X165844522Y-76302219D01*
X165876256Y-76361589D01*
X165895797Y-76426007D01*
X165903000Y-76499140D01*
X165903000Y-77900860D01*
X165895797Y-77973993D01*
X165876256Y-78038411D01*
X165844522Y-78097781D01*
X165801817Y-78149817D01*
X165749781Y-78192522D01*
X165690411Y-78224256D01*
X165625993Y-78243797D01*
X165552860Y-78251000D01*
X164627140Y-78251000D01*
X164554007Y-78243797D01*
X164489589Y-78224256D01*
X164430219Y-78192522D01*
X164378183Y-78149817D01*
X164335478Y-78097781D01*
X164303744Y-78038411D01*
X164284203Y-77973993D01*
X164277000Y-77900860D01*
X164277000Y-76499140D01*
X164284203Y-76426007D01*
X164303744Y-76361589D01*
X164335478Y-76302219D01*
X164378183Y-76250183D01*
X164430219Y-76207478D01*
X164489589Y-76175744D01*
X164554007Y-76156203D01*
X164627140Y-76149000D01*
X165552860Y-76149000D01*
X165625993Y-76156203D01*
X165625993Y-76156203D01*
G37*
G36*
X163085993Y-76156203D02*
G01*
X163150411Y-76175744D01*
X163209781Y-76207478D01*
X163261817Y-76250183D01*
X163304522Y-76302219D01*
X163336256Y-76361589D01*
X163355797Y-76426007D01*
X163363000Y-76499140D01*
X163363000Y-77900860D01*
X163355797Y-77973993D01*
X163336256Y-78038411D01*
X163304522Y-78097781D01*
X163261817Y-78149817D01*
X163209781Y-78192522D01*
X163150411Y-78224256D01*
X163085993Y-78243797D01*
X163012860Y-78251000D01*
X162087140Y-78251000D01*
X162014007Y-78243797D01*
X161949589Y-78224256D01*
X161890219Y-78192522D01*
X161838183Y-78149817D01*
X161795478Y-78097781D01*
X161763744Y-78038411D01*
X161744203Y-77973993D01*
X161737000Y-77900860D01*
X161737000Y-76499140D01*
X161744203Y-76426007D01*
X161763744Y-76361589D01*
X161795478Y-76302219D01*
X161838183Y-76250183D01*
X161890219Y-76207478D01*
X161949589Y-76175744D01*
X162014007Y-76156203D01*
X162087140Y-76149000D01*
X163012860Y-76149000D01*
X163085993Y-76156203D01*
X163085993Y-76156203D01*
G37*
G36*
X168165993Y-76156203D02*
G01*
X168230411Y-76175744D01*
X168289781Y-76207478D01*
X168341817Y-76250183D01*
X168384522Y-76302219D01*
X168416256Y-76361589D01*
X168435797Y-76426007D01*
X168443000Y-76499140D01*
X168443000Y-77900860D01*
X168435797Y-77973993D01*
X168416256Y-78038411D01*
X168384522Y-78097781D01*
X168341817Y-78149817D01*
X168289781Y-78192522D01*
X168230411Y-78224256D01*
X168165993Y-78243797D01*
X168092860Y-78251000D01*
X167167140Y-78251000D01*
X167094007Y-78243797D01*
X167029589Y-78224256D01*
X166970219Y-78192522D01*
X166918183Y-78149817D01*
X166875478Y-78097781D01*
X166843744Y-78038411D01*
X166824203Y-77973993D01*
X166817000Y-77900860D01*
X166817000Y-76499140D01*
X166824203Y-76426007D01*
X166843744Y-76361589D01*
X166875478Y-76302219D01*
X166918183Y-76250183D01*
X166970219Y-76207478D01*
X167029589Y-76175744D01*
X167094007Y-76156203D01*
X167167140Y-76149000D01*
X168092860Y-76149000D01*
X168165993Y-76156203D01*
X168165993Y-76156203D01*
G37*
G36*
X160545993Y-76156203D02*
G01*
X160610411Y-76175744D01*
X160669781Y-76207478D01*
X160721817Y-76250183D01*
X160764522Y-76302219D01*
X160796256Y-76361589D01*
X160815797Y-76426007D01*
X160823000Y-76499140D01*
X160823000Y-77900860D01*
X160815797Y-77973993D01*
X160796256Y-78038411D01*
X160764522Y-78097781D01*
X160721817Y-78149817D01*
X160669781Y-78192522D01*
X160610411Y-78224256D01*
X160545993Y-78243797D01*
X160472860Y-78251000D01*
X159547140Y-78251000D01*
X159474007Y-78243797D01*
X159409589Y-78224256D01*
X159350219Y-78192522D01*
X159298183Y-78149817D01*
X159255478Y-78097781D01*
X159223744Y-78038411D01*
X159204203Y-77973993D01*
X159197000Y-77900860D01*
X159197000Y-76499140D01*
X159204203Y-76426007D01*
X159223744Y-76361589D01*
X159255478Y-76302219D01*
X159298183Y-76250183D01*
X159350219Y-76207478D01*
X159409589Y-76175744D01*
X159474007Y-76156203D01*
X159547140Y-76149000D01*
X160472860Y-76149000D01*
X160545993Y-76156203D01*
X160545993Y-76156203D01*
G37*
G36*
X158005993Y-76156203D02*
G01*
X158070411Y-76175744D01*
X158129781Y-76207478D01*
X158181817Y-76250183D01*
X158224522Y-76302219D01*
X158256256Y-76361589D01*
X158275797Y-76426007D01*
X158283000Y-76499140D01*
X158283000Y-77900860D01*
X158275797Y-77973993D01*
X158256256Y-78038411D01*
X158224522Y-78097781D01*
X158181817Y-78149817D01*
X158129781Y-78192522D01*
X158070411Y-78224256D01*
X158005993Y-78243797D01*
X157932860Y-78251000D01*
X157007140Y-78251000D01*
X156934007Y-78243797D01*
X156869589Y-78224256D01*
X156810219Y-78192522D01*
X156758183Y-78149817D01*
X156715478Y-78097781D01*
X156683744Y-78038411D01*
X156664203Y-77973993D01*
X156657000Y-77900860D01*
X156657000Y-76499140D01*
X156664203Y-76426007D01*
X156683744Y-76361589D01*
X156715478Y-76302219D01*
X156758183Y-76250183D01*
X156810219Y-76207478D01*
X156869589Y-76175744D01*
X156934007Y-76156203D01*
X157007140Y-76149000D01*
X157932860Y-76149000D01*
X158005993Y-76156203D01*
X158005993Y-76156203D01*
G37*
G36*
X152925993Y-76156203D02*
G01*
X152990411Y-76175744D01*
X153049781Y-76207478D01*
X153101817Y-76250183D01*
X153144522Y-76302219D01*
X153176256Y-76361589D01*
X153195797Y-76426007D01*
X153203000Y-76499140D01*
X153203000Y-77900860D01*
X153195797Y-77973993D01*
X153176256Y-78038411D01*
X153144522Y-78097781D01*
X153101817Y-78149817D01*
X153049781Y-78192522D01*
X152990411Y-78224256D01*
X152925993Y-78243797D01*
X152852860Y-78251000D01*
X151927140Y-78251000D01*
X151854007Y-78243797D01*
X151789589Y-78224256D01*
X151730219Y-78192522D01*
X151678183Y-78149817D01*
X151635478Y-78097781D01*
X151603744Y-78038411D01*
X151584203Y-77973993D01*
X151577000Y-77900860D01*
X151577000Y-76499140D01*
X151584203Y-76426007D01*
X151603744Y-76361589D01*
X151635478Y-76302219D01*
X151678183Y-76250183D01*
X151730219Y-76207478D01*
X151789589Y-76175744D01*
X151854007Y-76156203D01*
X151927140Y-76149000D01*
X152852860Y-76149000D01*
X152925993Y-76156203D01*
X152925993Y-76156203D01*
G37*
G36*
X150385993Y-76156203D02*
G01*
X150450411Y-76175744D01*
X150509781Y-76207478D01*
X150561817Y-76250183D01*
X150604522Y-76302219D01*
X150636256Y-76361589D01*
X150655797Y-76426007D01*
X150663000Y-76499140D01*
X150663000Y-77900860D01*
X150655797Y-77973993D01*
X150636256Y-78038411D01*
X150604522Y-78097781D01*
X150561817Y-78149817D01*
X150509781Y-78192522D01*
X150450411Y-78224256D01*
X150385993Y-78243797D01*
X150312860Y-78251000D01*
X149387140Y-78251000D01*
X149314007Y-78243797D01*
X149249589Y-78224256D01*
X149190219Y-78192522D01*
X149138183Y-78149817D01*
X149095478Y-78097781D01*
X149063744Y-78038411D01*
X149044203Y-77973993D01*
X149037000Y-77900860D01*
X149037000Y-76499140D01*
X149044203Y-76426007D01*
X149063744Y-76361589D01*
X149095478Y-76302219D01*
X149138183Y-76250183D01*
X149190219Y-76207478D01*
X149249589Y-76175744D01*
X149314007Y-76156203D01*
X149387140Y-76149000D01*
X150312860Y-76149000D01*
X150385993Y-76156203D01*
X150385993Y-76156203D01*
G37*
M02*
