G04 #@! TF.GenerationSoftware,KiCad,Pcbnew,(5.1.4)-1*
G04 #@! TF.CreationDate,2020-08-17T08:14:46+02:00*
G04 #@! TF.ProjectId,proto,70726f74-6f2e-46b6-9963-61645f706362,rev?*
G04 #@! TF.SameCoordinates,Original*
G04 #@! TF.FileFunction,Paste,Top*
G04 #@! TF.FilePolarity,Positive*
%FSLAX46Y46*%
G04 Gerber Fmt 4.6, Leading zero omitted, Abs format (unit mm)*
G04 Created by KiCad (PCBNEW (5.1.4)-1) date 2020-08-17 08:14:46*
%MOMM*%
%LPD*%
G04 APERTURE LIST*
%ADD10R,1.150000X0.600000*%
%ADD11C,0.100000*%
%ADD12C,0.875000*%
G04 APERTURE END LIST*
D10*
X136700000Y-124450000D03*
X136700000Y-122550000D03*
X139300000Y-122550000D03*
X139300000Y-123500000D03*
X139300000Y-124450000D03*
D11*
G36*
X141427691Y-119226053D02*
G01*
X141448926Y-119229203D01*
X141469750Y-119234419D01*
X141489962Y-119241651D01*
X141509368Y-119250830D01*
X141527781Y-119261866D01*
X141545024Y-119274654D01*
X141560930Y-119289070D01*
X141575346Y-119304976D01*
X141588134Y-119322219D01*
X141599170Y-119340632D01*
X141608349Y-119360038D01*
X141615581Y-119380250D01*
X141620797Y-119401074D01*
X141623947Y-119422309D01*
X141625000Y-119443750D01*
X141625000Y-119956250D01*
X141623947Y-119977691D01*
X141620797Y-119998926D01*
X141615581Y-120019750D01*
X141608349Y-120039962D01*
X141599170Y-120059368D01*
X141588134Y-120077781D01*
X141575346Y-120095024D01*
X141560930Y-120110930D01*
X141545024Y-120125346D01*
X141527781Y-120138134D01*
X141509368Y-120149170D01*
X141489962Y-120158349D01*
X141469750Y-120165581D01*
X141448926Y-120170797D01*
X141427691Y-120173947D01*
X141406250Y-120175000D01*
X140968750Y-120175000D01*
X140947309Y-120173947D01*
X140926074Y-120170797D01*
X140905250Y-120165581D01*
X140885038Y-120158349D01*
X140865632Y-120149170D01*
X140847219Y-120138134D01*
X140829976Y-120125346D01*
X140814070Y-120110930D01*
X140799654Y-120095024D01*
X140786866Y-120077781D01*
X140775830Y-120059368D01*
X140766651Y-120039962D01*
X140759419Y-120019750D01*
X140754203Y-119998926D01*
X140751053Y-119977691D01*
X140750000Y-119956250D01*
X140750000Y-119443750D01*
X140751053Y-119422309D01*
X140754203Y-119401074D01*
X140759419Y-119380250D01*
X140766651Y-119360038D01*
X140775830Y-119340632D01*
X140786866Y-119322219D01*
X140799654Y-119304976D01*
X140814070Y-119289070D01*
X140829976Y-119274654D01*
X140847219Y-119261866D01*
X140865632Y-119250830D01*
X140885038Y-119241651D01*
X140905250Y-119234419D01*
X140926074Y-119229203D01*
X140947309Y-119226053D01*
X140968750Y-119225000D01*
X141406250Y-119225000D01*
X141427691Y-119226053D01*
X141427691Y-119226053D01*
G37*
D12*
X141187500Y-119700000D03*
D11*
G36*
X139852691Y-119226053D02*
G01*
X139873926Y-119229203D01*
X139894750Y-119234419D01*
X139914962Y-119241651D01*
X139934368Y-119250830D01*
X139952781Y-119261866D01*
X139970024Y-119274654D01*
X139985930Y-119289070D01*
X140000346Y-119304976D01*
X140013134Y-119322219D01*
X140024170Y-119340632D01*
X140033349Y-119360038D01*
X140040581Y-119380250D01*
X140045797Y-119401074D01*
X140048947Y-119422309D01*
X140050000Y-119443750D01*
X140050000Y-119956250D01*
X140048947Y-119977691D01*
X140045797Y-119998926D01*
X140040581Y-120019750D01*
X140033349Y-120039962D01*
X140024170Y-120059368D01*
X140013134Y-120077781D01*
X140000346Y-120095024D01*
X139985930Y-120110930D01*
X139970024Y-120125346D01*
X139952781Y-120138134D01*
X139934368Y-120149170D01*
X139914962Y-120158349D01*
X139894750Y-120165581D01*
X139873926Y-120170797D01*
X139852691Y-120173947D01*
X139831250Y-120175000D01*
X139393750Y-120175000D01*
X139372309Y-120173947D01*
X139351074Y-120170797D01*
X139330250Y-120165581D01*
X139310038Y-120158349D01*
X139290632Y-120149170D01*
X139272219Y-120138134D01*
X139254976Y-120125346D01*
X139239070Y-120110930D01*
X139224654Y-120095024D01*
X139211866Y-120077781D01*
X139200830Y-120059368D01*
X139191651Y-120039962D01*
X139184419Y-120019750D01*
X139179203Y-119998926D01*
X139176053Y-119977691D01*
X139175000Y-119956250D01*
X139175000Y-119443750D01*
X139176053Y-119422309D01*
X139179203Y-119401074D01*
X139184419Y-119380250D01*
X139191651Y-119360038D01*
X139200830Y-119340632D01*
X139211866Y-119322219D01*
X139224654Y-119304976D01*
X139239070Y-119289070D01*
X139254976Y-119274654D01*
X139272219Y-119261866D01*
X139290632Y-119250830D01*
X139310038Y-119241651D01*
X139330250Y-119234419D01*
X139351074Y-119229203D01*
X139372309Y-119226053D01*
X139393750Y-119225000D01*
X139831250Y-119225000D01*
X139852691Y-119226053D01*
X139852691Y-119226053D01*
G37*
D12*
X139612500Y-119700000D03*
D11*
G36*
X163177691Y-80851053D02*
G01*
X163198926Y-80854203D01*
X163219750Y-80859419D01*
X163239962Y-80866651D01*
X163259368Y-80875830D01*
X163277781Y-80886866D01*
X163295024Y-80899654D01*
X163310930Y-80914070D01*
X163325346Y-80929976D01*
X163338134Y-80947219D01*
X163349170Y-80965632D01*
X163358349Y-80985038D01*
X163365581Y-81005250D01*
X163370797Y-81026074D01*
X163373947Y-81047309D01*
X163375000Y-81068750D01*
X163375000Y-81506250D01*
X163373947Y-81527691D01*
X163370797Y-81548926D01*
X163365581Y-81569750D01*
X163358349Y-81589962D01*
X163349170Y-81609368D01*
X163338134Y-81627781D01*
X163325346Y-81645024D01*
X163310930Y-81660930D01*
X163295024Y-81675346D01*
X163277781Y-81688134D01*
X163259368Y-81699170D01*
X163239962Y-81708349D01*
X163219750Y-81715581D01*
X163198926Y-81720797D01*
X163177691Y-81723947D01*
X163156250Y-81725000D01*
X162643750Y-81725000D01*
X162622309Y-81723947D01*
X162601074Y-81720797D01*
X162580250Y-81715581D01*
X162560038Y-81708349D01*
X162540632Y-81699170D01*
X162522219Y-81688134D01*
X162504976Y-81675346D01*
X162489070Y-81660930D01*
X162474654Y-81645024D01*
X162461866Y-81627781D01*
X162450830Y-81609368D01*
X162441651Y-81589962D01*
X162434419Y-81569750D01*
X162429203Y-81548926D01*
X162426053Y-81527691D01*
X162425000Y-81506250D01*
X162425000Y-81068750D01*
X162426053Y-81047309D01*
X162429203Y-81026074D01*
X162434419Y-81005250D01*
X162441651Y-80985038D01*
X162450830Y-80965632D01*
X162461866Y-80947219D01*
X162474654Y-80929976D01*
X162489070Y-80914070D01*
X162504976Y-80899654D01*
X162522219Y-80886866D01*
X162540632Y-80875830D01*
X162560038Y-80866651D01*
X162580250Y-80859419D01*
X162601074Y-80854203D01*
X162622309Y-80851053D01*
X162643750Y-80850000D01*
X163156250Y-80850000D01*
X163177691Y-80851053D01*
X163177691Y-80851053D01*
G37*
D12*
X162900000Y-81287500D03*
D11*
G36*
X163177691Y-79276053D02*
G01*
X163198926Y-79279203D01*
X163219750Y-79284419D01*
X163239962Y-79291651D01*
X163259368Y-79300830D01*
X163277781Y-79311866D01*
X163295024Y-79324654D01*
X163310930Y-79339070D01*
X163325346Y-79354976D01*
X163338134Y-79372219D01*
X163349170Y-79390632D01*
X163358349Y-79410038D01*
X163365581Y-79430250D01*
X163370797Y-79451074D01*
X163373947Y-79472309D01*
X163375000Y-79493750D01*
X163375000Y-79931250D01*
X163373947Y-79952691D01*
X163370797Y-79973926D01*
X163365581Y-79994750D01*
X163358349Y-80014962D01*
X163349170Y-80034368D01*
X163338134Y-80052781D01*
X163325346Y-80070024D01*
X163310930Y-80085930D01*
X163295024Y-80100346D01*
X163277781Y-80113134D01*
X163259368Y-80124170D01*
X163239962Y-80133349D01*
X163219750Y-80140581D01*
X163198926Y-80145797D01*
X163177691Y-80148947D01*
X163156250Y-80150000D01*
X162643750Y-80150000D01*
X162622309Y-80148947D01*
X162601074Y-80145797D01*
X162580250Y-80140581D01*
X162560038Y-80133349D01*
X162540632Y-80124170D01*
X162522219Y-80113134D01*
X162504976Y-80100346D01*
X162489070Y-80085930D01*
X162474654Y-80070024D01*
X162461866Y-80052781D01*
X162450830Y-80034368D01*
X162441651Y-80014962D01*
X162434419Y-79994750D01*
X162429203Y-79973926D01*
X162426053Y-79952691D01*
X162425000Y-79931250D01*
X162425000Y-79493750D01*
X162426053Y-79472309D01*
X162429203Y-79451074D01*
X162434419Y-79430250D01*
X162441651Y-79410038D01*
X162450830Y-79390632D01*
X162461866Y-79372219D01*
X162474654Y-79354976D01*
X162489070Y-79339070D01*
X162504976Y-79324654D01*
X162522219Y-79311866D01*
X162540632Y-79300830D01*
X162560038Y-79291651D01*
X162580250Y-79284419D01*
X162601074Y-79279203D01*
X162622309Y-79276053D01*
X162643750Y-79275000D01*
X163156250Y-79275000D01*
X163177691Y-79276053D01*
X163177691Y-79276053D01*
G37*
D12*
X162900000Y-79712500D03*
D11*
G36*
X137027691Y-119226053D02*
G01*
X137048926Y-119229203D01*
X137069750Y-119234419D01*
X137089962Y-119241651D01*
X137109368Y-119250830D01*
X137127781Y-119261866D01*
X137145024Y-119274654D01*
X137160930Y-119289070D01*
X137175346Y-119304976D01*
X137188134Y-119322219D01*
X137199170Y-119340632D01*
X137208349Y-119360038D01*
X137215581Y-119380250D01*
X137220797Y-119401074D01*
X137223947Y-119422309D01*
X137225000Y-119443750D01*
X137225000Y-119956250D01*
X137223947Y-119977691D01*
X137220797Y-119998926D01*
X137215581Y-120019750D01*
X137208349Y-120039962D01*
X137199170Y-120059368D01*
X137188134Y-120077781D01*
X137175346Y-120095024D01*
X137160930Y-120110930D01*
X137145024Y-120125346D01*
X137127781Y-120138134D01*
X137109368Y-120149170D01*
X137089962Y-120158349D01*
X137069750Y-120165581D01*
X137048926Y-120170797D01*
X137027691Y-120173947D01*
X137006250Y-120175000D01*
X136568750Y-120175000D01*
X136547309Y-120173947D01*
X136526074Y-120170797D01*
X136505250Y-120165581D01*
X136485038Y-120158349D01*
X136465632Y-120149170D01*
X136447219Y-120138134D01*
X136429976Y-120125346D01*
X136414070Y-120110930D01*
X136399654Y-120095024D01*
X136386866Y-120077781D01*
X136375830Y-120059368D01*
X136366651Y-120039962D01*
X136359419Y-120019750D01*
X136354203Y-119998926D01*
X136351053Y-119977691D01*
X136350000Y-119956250D01*
X136350000Y-119443750D01*
X136351053Y-119422309D01*
X136354203Y-119401074D01*
X136359419Y-119380250D01*
X136366651Y-119360038D01*
X136375830Y-119340632D01*
X136386866Y-119322219D01*
X136399654Y-119304976D01*
X136414070Y-119289070D01*
X136429976Y-119274654D01*
X136447219Y-119261866D01*
X136465632Y-119250830D01*
X136485038Y-119241651D01*
X136505250Y-119234419D01*
X136526074Y-119229203D01*
X136547309Y-119226053D01*
X136568750Y-119225000D01*
X137006250Y-119225000D01*
X137027691Y-119226053D01*
X137027691Y-119226053D01*
G37*
D12*
X136787500Y-119700000D03*
D11*
G36*
X135452691Y-119226053D02*
G01*
X135473926Y-119229203D01*
X135494750Y-119234419D01*
X135514962Y-119241651D01*
X135534368Y-119250830D01*
X135552781Y-119261866D01*
X135570024Y-119274654D01*
X135585930Y-119289070D01*
X135600346Y-119304976D01*
X135613134Y-119322219D01*
X135624170Y-119340632D01*
X135633349Y-119360038D01*
X135640581Y-119380250D01*
X135645797Y-119401074D01*
X135648947Y-119422309D01*
X135650000Y-119443750D01*
X135650000Y-119956250D01*
X135648947Y-119977691D01*
X135645797Y-119998926D01*
X135640581Y-120019750D01*
X135633349Y-120039962D01*
X135624170Y-120059368D01*
X135613134Y-120077781D01*
X135600346Y-120095024D01*
X135585930Y-120110930D01*
X135570024Y-120125346D01*
X135552781Y-120138134D01*
X135534368Y-120149170D01*
X135514962Y-120158349D01*
X135494750Y-120165581D01*
X135473926Y-120170797D01*
X135452691Y-120173947D01*
X135431250Y-120175000D01*
X134993750Y-120175000D01*
X134972309Y-120173947D01*
X134951074Y-120170797D01*
X134930250Y-120165581D01*
X134910038Y-120158349D01*
X134890632Y-120149170D01*
X134872219Y-120138134D01*
X134854976Y-120125346D01*
X134839070Y-120110930D01*
X134824654Y-120095024D01*
X134811866Y-120077781D01*
X134800830Y-120059368D01*
X134791651Y-120039962D01*
X134784419Y-120019750D01*
X134779203Y-119998926D01*
X134776053Y-119977691D01*
X134775000Y-119956250D01*
X134775000Y-119443750D01*
X134776053Y-119422309D01*
X134779203Y-119401074D01*
X134784419Y-119380250D01*
X134791651Y-119360038D01*
X134800830Y-119340632D01*
X134811866Y-119322219D01*
X134824654Y-119304976D01*
X134839070Y-119289070D01*
X134854976Y-119274654D01*
X134872219Y-119261866D01*
X134890632Y-119250830D01*
X134910038Y-119241651D01*
X134930250Y-119234419D01*
X134951074Y-119229203D01*
X134972309Y-119226053D01*
X134993750Y-119225000D01*
X135431250Y-119225000D01*
X135452691Y-119226053D01*
X135452691Y-119226053D01*
G37*
D12*
X135212500Y-119700000D03*
D11*
G36*
X132977691Y-92451053D02*
G01*
X132998926Y-92454203D01*
X133019750Y-92459419D01*
X133039962Y-92466651D01*
X133059368Y-92475830D01*
X133077781Y-92486866D01*
X133095024Y-92499654D01*
X133110930Y-92514070D01*
X133125346Y-92529976D01*
X133138134Y-92547219D01*
X133149170Y-92565632D01*
X133158349Y-92585038D01*
X133165581Y-92605250D01*
X133170797Y-92626074D01*
X133173947Y-92647309D01*
X133175000Y-92668750D01*
X133175000Y-93106250D01*
X133173947Y-93127691D01*
X133170797Y-93148926D01*
X133165581Y-93169750D01*
X133158349Y-93189962D01*
X133149170Y-93209368D01*
X133138134Y-93227781D01*
X133125346Y-93245024D01*
X133110930Y-93260930D01*
X133095024Y-93275346D01*
X133077781Y-93288134D01*
X133059368Y-93299170D01*
X133039962Y-93308349D01*
X133019750Y-93315581D01*
X132998926Y-93320797D01*
X132977691Y-93323947D01*
X132956250Y-93325000D01*
X132443750Y-93325000D01*
X132422309Y-93323947D01*
X132401074Y-93320797D01*
X132380250Y-93315581D01*
X132360038Y-93308349D01*
X132340632Y-93299170D01*
X132322219Y-93288134D01*
X132304976Y-93275346D01*
X132289070Y-93260930D01*
X132274654Y-93245024D01*
X132261866Y-93227781D01*
X132250830Y-93209368D01*
X132241651Y-93189962D01*
X132234419Y-93169750D01*
X132229203Y-93148926D01*
X132226053Y-93127691D01*
X132225000Y-93106250D01*
X132225000Y-92668750D01*
X132226053Y-92647309D01*
X132229203Y-92626074D01*
X132234419Y-92605250D01*
X132241651Y-92585038D01*
X132250830Y-92565632D01*
X132261866Y-92547219D01*
X132274654Y-92529976D01*
X132289070Y-92514070D01*
X132304976Y-92499654D01*
X132322219Y-92486866D01*
X132340632Y-92475830D01*
X132360038Y-92466651D01*
X132380250Y-92459419D01*
X132401074Y-92454203D01*
X132422309Y-92451053D01*
X132443750Y-92450000D01*
X132956250Y-92450000D01*
X132977691Y-92451053D01*
X132977691Y-92451053D01*
G37*
D12*
X132700000Y-92887500D03*
D11*
G36*
X132977691Y-90876053D02*
G01*
X132998926Y-90879203D01*
X133019750Y-90884419D01*
X133039962Y-90891651D01*
X133059368Y-90900830D01*
X133077781Y-90911866D01*
X133095024Y-90924654D01*
X133110930Y-90939070D01*
X133125346Y-90954976D01*
X133138134Y-90972219D01*
X133149170Y-90990632D01*
X133158349Y-91010038D01*
X133165581Y-91030250D01*
X133170797Y-91051074D01*
X133173947Y-91072309D01*
X133175000Y-91093750D01*
X133175000Y-91531250D01*
X133173947Y-91552691D01*
X133170797Y-91573926D01*
X133165581Y-91594750D01*
X133158349Y-91614962D01*
X133149170Y-91634368D01*
X133138134Y-91652781D01*
X133125346Y-91670024D01*
X133110930Y-91685930D01*
X133095024Y-91700346D01*
X133077781Y-91713134D01*
X133059368Y-91724170D01*
X133039962Y-91733349D01*
X133019750Y-91740581D01*
X132998926Y-91745797D01*
X132977691Y-91748947D01*
X132956250Y-91750000D01*
X132443750Y-91750000D01*
X132422309Y-91748947D01*
X132401074Y-91745797D01*
X132380250Y-91740581D01*
X132360038Y-91733349D01*
X132340632Y-91724170D01*
X132322219Y-91713134D01*
X132304976Y-91700346D01*
X132289070Y-91685930D01*
X132274654Y-91670024D01*
X132261866Y-91652781D01*
X132250830Y-91634368D01*
X132241651Y-91614962D01*
X132234419Y-91594750D01*
X132229203Y-91573926D01*
X132226053Y-91552691D01*
X132225000Y-91531250D01*
X132225000Y-91093750D01*
X132226053Y-91072309D01*
X132229203Y-91051074D01*
X132234419Y-91030250D01*
X132241651Y-91010038D01*
X132250830Y-90990632D01*
X132261866Y-90972219D01*
X132274654Y-90954976D01*
X132289070Y-90939070D01*
X132304976Y-90924654D01*
X132322219Y-90911866D01*
X132340632Y-90900830D01*
X132360038Y-90891651D01*
X132380250Y-90884419D01*
X132401074Y-90879203D01*
X132422309Y-90876053D01*
X132443750Y-90875000D01*
X132956250Y-90875000D01*
X132977691Y-90876053D01*
X132977691Y-90876053D01*
G37*
D12*
X132700000Y-91312500D03*
D11*
G36*
X170877691Y-85776053D02*
G01*
X170898926Y-85779203D01*
X170919750Y-85784419D01*
X170939962Y-85791651D01*
X170959368Y-85800830D01*
X170977781Y-85811866D01*
X170995024Y-85824654D01*
X171010930Y-85839070D01*
X171025346Y-85854976D01*
X171038134Y-85872219D01*
X171049170Y-85890632D01*
X171058349Y-85910038D01*
X171065581Y-85930250D01*
X171070797Y-85951074D01*
X171073947Y-85972309D01*
X171075000Y-85993750D01*
X171075000Y-86431250D01*
X171073947Y-86452691D01*
X171070797Y-86473926D01*
X171065581Y-86494750D01*
X171058349Y-86514962D01*
X171049170Y-86534368D01*
X171038134Y-86552781D01*
X171025346Y-86570024D01*
X171010930Y-86585930D01*
X170995024Y-86600346D01*
X170977781Y-86613134D01*
X170959368Y-86624170D01*
X170939962Y-86633349D01*
X170919750Y-86640581D01*
X170898926Y-86645797D01*
X170877691Y-86648947D01*
X170856250Y-86650000D01*
X170343750Y-86650000D01*
X170322309Y-86648947D01*
X170301074Y-86645797D01*
X170280250Y-86640581D01*
X170260038Y-86633349D01*
X170240632Y-86624170D01*
X170222219Y-86613134D01*
X170204976Y-86600346D01*
X170189070Y-86585930D01*
X170174654Y-86570024D01*
X170161866Y-86552781D01*
X170150830Y-86534368D01*
X170141651Y-86514962D01*
X170134419Y-86494750D01*
X170129203Y-86473926D01*
X170126053Y-86452691D01*
X170125000Y-86431250D01*
X170125000Y-85993750D01*
X170126053Y-85972309D01*
X170129203Y-85951074D01*
X170134419Y-85930250D01*
X170141651Y-85910038D01*
X170150830Y-85890632D01*
X170161866Y-85872219D01*
X170174654Y-85854976D01*
X170189070Y-85839070D01*
X170204976Y-85824654D01*
X170222219Y-85811866D01*
X170240632Y-85800830D01*
X170260038Y-85791651D01*
X170280250Y-85784419D01*
X170301074Y-85779203D01*
X170322309Y-85776053D01*
X170343750Y-85775000D01*
X170856250Y-85775000D01*
X170877691Y-85776053D01*
X170877691Y-85776053D01*
G37*
D12*
X170600000Y-86212500D03*
D11*
G36*
X170877691Y-87351053D02*
G01*
X170898926Y-87354203D01*
X170919750Y-87359419D01*
X170939962Y-87366651D01*
X170959368Y-87375830D01*
X170977781Y-87386866D01*
X170995024Y-87399654D01*
X171010930Y-87414070D01*
X171025346Y-87429976D01*
X171038134Y-87447219D01*
X171049170Y-87465632D01*
X171058349Y-87485038D01*
X171065581Y-87505250D01*
X171070797Y-87526074D01*
X171073947Y-87547309D01*
X171075000Y-87568750D01*
X171075000Y-88006250D01*
X171073947Y-88027691D01*
X171070797Y-88048926D01*
X171065581Y-88069750D01*
X171058349Y-88089962D01*
X171049170Y-88109368D01*
X171038134Y-88127781D01*
X171025346Y-88145024D01*
X171010930Y-88160930D01*
X170995024Y-88175346D01*
X170977781Y-88188134D01*
X170959368Y-88199170D01*
X170939962Y-88208349D01*
X170919750Y-88215581D01*
X170898926Y-88220797D01*
X170877691Y-88223947D01*
X170856250Y-88225000D01*
X170343750Y-88225000D01*
X170322309Y-88223947D01*
X170301074Y-88220797D01*
X170280250Y-88215581D01*
X170260038Y-88208349D01*
X170240632Y-88199170D01*
X170222219Y-88188134D01*
X170204976Y-88175346D01*
X170189070Y-88160930D01*
X170174654Y-88145024D01*
X170161866Y-88127781D01*
X170150830Y-88109368D01*
X170141651Y-88089962D01*
X170134419Y-88069750D01*
X170129203Y-88048926D01*
X170126053Y-88027691D01*
X170125000Y-88006250D01*
X170125000Y-87568750D01*
X170126053Y-87547309D01*
X170129203Y-87526074D01*
X170134419Y-87505250D01*
X170141651Y-87485038D01*
X170150830Y-87465632D01*
X170161866Y-87447219D01*
X170174654Y-87429976D01*
X170189070Y-87414070D01*
X170204976Y-87399654D01*
X170222219Y-87386866D01*
X170240632Y-87375830D01*
X170260038Y-87366651D01*
X170280250Y-87359419D01*
X170301074Y-87354203D01*
X170322309Y-87351053D01*
X170343750Y-87350000D01*
X170856250Y-87350000D01*
X170877691Y-87351053D01*
X170877691Y-87351053D01*
G37*
D12*
X170600000Y-87787500D03*
D11*
G36*
X161477691Y-80851053D02*
G01*
X161498926Y-80854203D01*
X161519750Y-80859419D01*
X161539962Y-80866651D01*
X161559368Y-80875830D01*
X161577781Y-80886866D01*
X161595024Y-80899654D01*
X161610930Y-80914070D01*
X161625346Y-80929976D01*
X161638134Y-80947219D01*
X161649170Y-80965632D01*
X161658349Y-80985038D01*
X161665581Y-81005250D01*
X161670797Y-81026074D01*
X161673947Y-81047309D01*
X161675000Y-81068750D01*
X161675000Y-81506250D01*
X161673947Y-81527691D01*
X161670797Y-81548926D01*
X161665581Y-81569750D01*
X161658349Y-81589962D01*
X161649170Y-81609368D01*
X161638134Y-81627781D01*
X161625346Y-81645024D01*
X161610930Y-81660930D01*
X161595024Y-81675346D01*
X161577781Y-81688134D01*
X161559368Y-81699170D01*
X161539962Y-81708349D01*
X161519750Y-81715581D01*
X161498926Y-81720797D01*
X161477691Y-81723947D01*
X161456250Y-81725000D01*
X160943750Y-81725000D01*
X160922309Y-81723947D01*
X160901074Y-81720797D01*
X160880250Y-81715581D01*
X160860038Y-81708349D01*
X160840632Y-81699170D01*
X160822219Y-81688134D01*
X160804976Y-81675346D01*
X160789070Y-81660930D01*
X160774654Y-81645024D01*
X160761866Y-81627781D01*
X160750830Y-81609368D01*
X160741651Y-81589962D01*
X160734419Y-81569750D01*
X160729203Y-81548926D01*
X160726053Y-81527691D01*
X160725000Y-81506250D01*
X160725000Y-81068750D01*
X160726053Y-81047309D01*
X160729203Y-81026074D01*
X160734419Y-81005250D01*
X160741651Y-80985038D01*
X160750830Y-80965632D01*
X160761866Y-80947219D01*
X160774654Y-80929976D01*
X160789070Y-80914070D01*
X160804976Y-80899654D01*
X160822219Y-80886866D01*
X160840632Y-80875830D01*
X160860038Y-80866651D01*
X160880250Y-80859419D01*
X160901074Y-80854203D01*
X160922309Y-80851053D01*
X160943750Y-80850000D01*
X161456250Y-80850000D01*
X161477691Y-80851053D01*
X161477691Y-80851053D01*
G37*
D12*
X161200000Y-81287500D03*
D11*
G36*
X161477691Y-79276053D02*
G01*
X161498926Y-79279203D01*
X161519750Y-79284419D01*
X161539962Y-79291651D01*
X161559368Y-79300830D01*
X161577781Y-79311866D01*
X161595024Y-79324654D01*
X161610930Y-79339070D01*
X161625346Y-79354976D01*
X161638134Y-79372219D01*
X161649170Y-79390632D01*
X161658349Y-79410038D01*
X161665581Y-79430250D01*
X161670797Y-79451074D01*
X161673947Y-79472309D01*
X161675000Y-79493750D01*
X161675000Y-79931250D01*
X161673947Y-79952691D01*
X161670797Y-79973926D01*
X161665581Y-79994750D01*
X161658349Y-80014962D01*
X161649170Y-80034368D01*
X161638134Y-80052781D01*
X161625346Y-80070024D01*
X161610930Y-80085930D01*
X161595024Y-80100346D01*
X161577781Y-80113134D01*
X161559368Y-80124170D01*
X161539962Y-80133349D01*
X161519750Y-80140581D01*
X161498926Y-80145797D01*
X161477691Y-80148947D01*
X161456250Y-80150000D01*
X160943750Y-80150000D01*
X160922309Y-80148947D01*
X160901074Y-80145797D01*
X160880250Y-80140581D01*
X160860038Y-80133349D01*
X160840632Y-80124170D01*
X160822219Y-80113134D01*
X160804976Y-80100346D01*
X160789070Y-80085930D01*
X160774654Y-80070024D01*
X160761866Y-80052781D01*
X160750830Y-80034368D01*
X160741651Y-80014962D01*
X160734419Y-79994750D01*
X160729203Y-79973926D01*
X160726053Y-79952691D01*
X160725000Y-79931250D01*
X160725000Y-79493750D01*
X160726053Y-79472309D01*
X160729203Y-79451074D01*
X160734419Y-79430250D01*
X160741651Y-79410038D01*
X160750830Y-79390632D01*
X160761866Y-79372219D01*
X160774654Y-79354976D01*
X160789070Y-79339070D01*
X160804976Y-79324654D01*
X160822219Y-79311866D01*
X160840632Y-79300830D01*
X160860038Y-79291651D01*
X160880250Y-79284419D01*
X160901074Y-79279203D01*
X160922309Y-79276053D01*
X160943750Y-79275000D01*
X161456250Y-79275000D01*
X161477691Y-79276053D01*
X161477691Y-79276053D01*
G37*
D12*
X161200000Y-79712500D03*
D11*
G36*
X134577691Y-90876053D02*
G01*
X134598926Y-90879203D01*
X134619750Y-90884419D01*
X134639962Y-90891651D01*
X134659368Y-90900830D01*
X134677781Y-90911866D01*
X134695024Y-90924654D01*
X134710930Y-90939070D01*
X134725346Y-90954976D01*
X134738134Y-90972219D01*
X134749170Y-90990632D01*
X134758349Y-91010038D01*
X134765581Y-91030250D01*
X134770797Y-91051074D01*
X134773947Y-91072309D01*
X134775000Y-91093750D01*
X134775000Y-91531250D01*
X134773947Y-91552691D01*
X134770797Y-91573926D01*
X134765581Y-91594750D01*
X134758349Y-91614962D01*
X134749170Y-91634368D01*
X134738134Y-91652781D01*
X134725346Y-91670024D01*
X134710930Y-91685930D01*
X134695024Y-91700346D01*
X134677781Y-91713134D01*
X134659368Y-91724170D01*
X134639962Y-91733349D01*
X134619750Y-91740581D01*
X134598926Y-91745797D01*
X134577691Y-91748947D01*
X134556250Y-91750000D01*
X134043750Y-91750000D01*
X134022309Y-91748947D01*
X134001074Y-91745797D01*
X133980250Y-91740581D01*
X133960038Y-91733349D01*
X133940632Y-91724170D01*
X133922219Y-91713134D01*
X133904976Y-91700346D01*
X133889070Y-91685930D01*
X133874654Y-91670024D01*
X133861866Y-91652781D01*
X133850830Y-91634368D01*
X133841651Y-91614962D01*
X133834419Y-91594750D01*
X133829203Y-91573926D01*
X133826053Y-91552691D01*
X133825000Y-91531250D01*
X133825000Y-91093750D01*
X133826053Y-91072309D01*
X133829203Y-91051074D01*
X133834419Y-91030250D01*
X133841651Y-91010038D01*
X133850830Y-90990632D01*
X133861866Y-90972219D01*
X133874654Y-90954976D01*
X133889070Y-90939070D01*
X133904976Y-90924654D01*
X133922219Y-90911866D01*
X133940632Y-90900830D01*
X133960038Y-90891651D01*
X133980250Y-90884419D01*
X134001074Y-90879203D01*
X134022309Y-90876053D01*
X134043750Y-90875000D01*
X134556250Y-90875000D01*
X134577691Y-90876053D01*
X134577691Y-90876053D01*
G37*
D12*
X134300000Y-91312500D03*
D11*
G36*
X134577691Y-92451053D02*
G01*
X134598926Y-92454203D01*
X134619750Y-92459419D01*
X134639962Y-92466651D01*
X134659368Y-92475830D01*
X134677781Y-92486866D01*
X134695024Y-92499654D01*
X134710930Y-92514070D01*
X134725346Y-92529976D01*
X134738134Y-92547219D01*
X134749170Y-92565632D01*
X134758349Y-92585038D01*
X134765581Y-92605250D01*
X134770797Y-92626074D01*
X134773947Y-92647309D01*
X134775000Y-92668750D01*
X134775000Y-93106250D01*
X134773947Y-93127691D01*
X134770797Y-93148926D01*
X134765581Y-93169750D01*
X134758349Y-93189962D01*
X134749170Y-93209368D01*
X134738134Y-93227781D01*
X134725346Y-93245024D01*
X134710930Y-93260930D01*
X134695024Y-93275346D01*
X134677781Y-93288134D01*
X134659368Y-93299170D01*
X134639962Y-93308349D01*
X134619750Y-93315581D01*
X134598926Y-93320797D01*
X134577691Y-93323947D01*
X134556250Y-93325000D01*
X134043750Y-93325000D01*
X134022309Y-93323947D01*
X134001074Y-93320797D01*
X133980250Y-93315581D01*
X133960038Y-93308349D01*
X133940632Y-93299170D01*
X133922219Y-93288134D01*
X133904976Y-93275346D01*
X133889070Y-93260930D01*
X133874654Y-93245024D01*
X133861866Y-93227781D01*
X133850830Y-93209368D01*
X133841651Y-93189962D01*
X133834419Y-93169750D01*
X133829203Y-93148926D01*
X133826053Y-93127691D01*
X133825000Y-93106250D01*
X133825000Y-92668750D01*
X133826053Y-92647309D01*
X133829203Y-92626074D01*
X133834419Y-92605250D01*
X133841651Y-92585038D01*
X133850830Y-92565632D01*
X133861866Y-92547219D01*
X133874654Y-92529976D01*
X133889070Y-92514070D01*
X133904976Y-92499654D01*
X133922219Y-92486866D01*
X133940632Y-92475830D01*
X133960038Y-92466651D01*
X133980250Y-92459419D01*
X134001074Y-92454203D01*
X134022309Y-92451053D01*
X134043750Y-92450000D01*
X134556250Y-92450000D01*
X134577691Y-92451053D01*
X134577691Y-92451053D01*
G37*
D12*
X134300000Y-92887500D03*
D11*
G36*
X169177691Y-85776053D02*
G01*
X169198926Y-85779203D01*
X169219750Y-85784419D01*
X169239962Y-85791651D01*
X169259368Y-85800830D01*
X169277781Y-85811866D01*
X169295024Y-85824654D01*
X169310930Y-85839070D01*
X169325346Y-85854976D01*
X169338134Y-85872219D01*
X169349170Y-85890632D01*
X169358349Y-85910038D01*
X169365581Y-85930250D01*
X169370797Y-85951074D01*
X169373947Y-85972309D01*
X169375000Y-85993750D01*
X169375000Y-86431250D01*
X169373947Y-86452691D01*
X169370797Y-86473926D01*
X169365581Y-86494750D01*
X169358349Y-86514962D01*
X169349170Y-86534368D01*
X169338134Y-86552781D01*
X169325346Y-86570024D01*
X169310930Y-86585930D01*
X169295024Y-86600346D01*
X169277781Y-86613134D01*
X169259368Y-86624170D01*
X169239962Y-86633349D01*
X169219750Y-86640581D01*
X169198926Y-86645797D01*
X169177691Y-86648947D01*
X169156250Y-86650000D01*
X168643750Y-86650000D01*
X168622309Y-86648947D01*
X168601074Y-86645797D01*
X168580250Y-86640581D01*
X168560038Y-86633349D01*
X168540632Y-86624170D01*
X168522219Y-86613134D01*
X168504976Y-86600346D01*
X168489070Y-86585930D01*
X168474654Y-86570024D01*
X168461866Y-86552781D01*
X168450830Y-86534368D01*
X168441651Y-86514962D01*
X168434419Y-86494750D01*
X168429203Y-86473926D01*
X168426053Y-86452691D01*
X168425000Y-86431250D01*
X168425000Y-85993750D01*
X168426053Y-85972309D01*
X168429203Y-85951074D01*
X168434419Y-85930250D01*
X168441651Y-85910038D01*
X168450830Y-85890632D01*
X168461866Y-85872219D01*
X168474654Y-85854976D01*
X168489070Y-85839070D01*
X168504976Y-85824654D01*
X168522219Y-85811866D01*
X168540632Y-85800830D01*
X168560038Y-85791651D01*
X168580250Y-85784419D01*
X168601074Y-85779203D01*
X168622309Y-85776053D01*
X168643750Y-85775000D01*
X169156250Y-85775000D01*
X169177691Y-85776053D01*
X169177691Y-85776053D01*
G37*
D12*
X168900000Y-86212500D03*
D11*
G36*
X169177691Y-87351053D02*
G01*
X169198926Y-87354203D01*
X169219750Y-87359419D01*
X169239962Y-87366651D01*
X169259368Y-87375830D01*
X169277781Y-87386866D01*
X169295024Y-87399654D01*
X169310930Y-87414070D01*
X169325346Y-87429976D01*
X169338134Y-87447219D01*
X169349170Y-87465632D01*
X169358349Y-87485038D01*
X169365581Y-87505250D01*
X169370797Y-87526074D01*
X169373947Y-87547309D01*
X169375000Y-87568750D01*
X169375000Y-88006250D01*
X169373947Y-88027691D01*
X169370797Y-88048926D01*
X169365581Y-88069750D01*
X169358349Y-88089962D01*
X169349170Y-88109368D01*
X169338134Y-88127781D01*
X169325346Y-88145024D01*
X169310930Y-88160930D01*
X169295024Y-88175346D01*
X169277781Y-88188134D01*
X169259368Y-88199170D01*
X169239962Y-88208349D01*
X169219750Y-88215581D01*
X169198926Y-88220797D01*
X169177691Y-88223947D01*
X169156250Y-88225000D01*
X168643750Y-88225000D01*
X168622309Y-88223947D01*
X168601074Y-88220797D01*
X168580250Y-88215581D01*
X168560038Y-88208349D01*
X168540632Y-88199170D01*
X168522219Y-88188134D01*
X168504976Y-88175346D01*
X168489070Y-88160930D01*
X168474654Y-88145024D01*
X168461866Y-88127781D01*
X168450830Y-88109368D01*
X168441651Y-88089962D01*
X168434419Y-88069750D01*
X168429203Y-88048926D01*
X168426053Y-88027691D01*
X168425000Y-88006250D01*
X168425000Y-87568750D01*
X168426053Y-87547309D01*
X168429203Y-87526074D01*
X168434419Y-87505250D01*
X168441651Y-87485038D01*
X168450830Y-87465632D01*
X168461866Y-87447219D01*
X168474654Y-87429976D01*
X168489070Y-87414070D01*
X168504976Y-87399654D01*
X168522219Y-87386866D01*
X168540632Y-87375830D01*
X168560038Y-87366651D01*
X168580250Y-87359419D01*
X168601074Y-87354203D01*
X168622309Y-87351053D01*
X168643750Y-87350000D01*
X169156250Y-87350000D01*
X169177691Y-87351053D01*
X169177691Y-87351053D01*
G37*
D12*
X168900000Y-87787500D03*
M02*
