M48
; DRILL file {KiCad (5.1.4)-1} date 17/08/2020 08:15:51
; FORMAT={-:-/ absolute / inch / decimal}
; #@! TF.CreationDate,2020-08-17T08:15:51+02:00
; #@! TF.GenerationSoftware,Kicad,Pcbnew,(5.1.4)-1
; #@! TF.FileFunction,Plated,1,2,PTH
FMAT,2
INCH
T1C0.0157
T2C0.0236
T3C0.0394
T4C0.0433
T5C0.0437
%
G90
G05
T1
X4.1732Y-2.126
X4.1732Y-2.126
X4.1732Y-2.2835
X4.1732Y-2.4803
X4.1732Y-2.5984
X4.1732Y-2.7559
X4.1732Y-2.874
X4.1732Y-3.0709
X4.1732Y-3.2677
X4.1732Y-3.4646
X4.1732Y-3.6614
X4.1732Y-3.8583
X4.1732Y-4.0551
X4.1732Y-4.252
X4.1732Y-4.4488
X4.252Y-4.5669
X4.2736Y-3.2047
X4.2874Y-3.3012
X4.2913Y-3.3858
X4.2913Y-3.5039
X4.2913Y-3.622
X4.2913Y-3.7008
X4.2913Y-3.8189
X4.2913Y-3.8976
X4.2913Y-4.0551
X4.2913Y-4.1496
X4.2913Y-4.3543
X4.2933Y-3.4528
X4.2933Y-3.5531
X4.2933Y-3.6535
X4.2953Y-2.9488
X4.2953Y-3.7539
X4.2953Y-3.8524
X4.2953Y-3.9528
X4.2953Y-4.252
X4.2992Y-3.1063
X4.3268Y-3.1535
X4.3484Y-3.4528
X4.3494Y-3.248
X4.3622Y-2.3543
X4.3622Y-3.0039
X4.3681Y-3.5531
X4.3701Y-2.126
X4.372Y-3.3504
X4.3898Y-2.6496
X4.3898Y-2.9488
X4.3937Y-3.6516
X4.3947Y-3.4488
X4.4094Y-4.4094
X4.4173Y-2.748
X4.4173Y-3.5512
X4.4173Y-3.752
X4.439Y-3.8524
X4.44Y-3.6496
X4.4488Y-4.5669
X4.4646Y-3.752
X4.4646Y-3.9528
X4.5079Y-2.5394
X4.5079Y-2.8346
X4.5079Y-2.9331
X4.5079Y-3.1024
X4.5079Y-3.2008
X4.5079Y-3.3268
X4.5079Y-3.4252
X4.5079Y-3.5236
X4.5079Y-3.622
X4.5079Y-3.7205
X4.5079Y-3.9173
X4.5079Y-4.1142
X4.5079Y-4.311
X4.5669Y-2.126
X4.6063Y-4.4094
X4.6457Y-4.5669
X4.7047Y-2.2441
X4.7047Y-2.3425
X4.7047Y-2.5394
X4.7047Y-2.8346
X4.7047Y-2.9331
X4.7047Y-3.1024
X4.7047Y-3.2008
X4.7047Y-3.3268
X4.7047Y-3.4252
X4.7047Y-3.5236
X4.7047Y-3.622
X4.7047Y-3.7205
X4.7047Y-3.9173
X4.7047Y-4.311
X4.7638Y-2.126
X4.7638Y-2.126
X4.8031Y-2.2441
X4.8031Y-2.3425
X4.8031Y-4.4094
X4.8425Y-4.5669
X4.8504Y-2.6496
X4.8504Y-2.748
X4.8504Y-3.0512
X4.8504Y-3.1496
X4.8504Y-3.248
X4.8504Y-3.3504
X4.8504Y-3.5472
X4.8504Y-3.6496
X4.8504Y-3.748
X4.8543Y-3.4488
X4.9016Y-3.9173
X4.9016Y-4.0157
X4.9016Y-4.311
X4.9606Y-2.126
X5.0Y-2.315
X5.0Y-2.4409
X5.0Y-4.4094
X5.0394Y-4.5669
X5.0472Y-3.8425
X5.0984Y-2.315
X5.0984Y-2.4409
X5.0984Y-2.7362
X5.0984Y-2.9331
X5.0984Y-3.1299
X5.0984Y-3.3268
X5.0984Y-3.5236
X5.0984Y-3.7205
X5.0984Y-4.311
X5.0984Y-4.7047
X5.1575Y-2.126
X5.1969Y-2.315
X5.1969Y-2.4409
X5.1969Y-4.4094
X5.2362Y-4.5669
X5.2953Y-2.7362
X5.2953Y-2.9331
X5.2953Y-3.1299
X5.2953Y-3.3268
X5.2953Y-3.5236
X5.2953Y-4.311
X5.2953Y-4.7047
X5.3189Y-3.6929
X5.3543Y-2.126
X5.3937Y-2.4409
X5.3937Y-4.4094
X5.4134Y-3.8504
X5.4331Y-3.0512
X5.4331Y-4.5669
X5.4449Y-2.9961
X5.4449Y-3.0984
X5.4528Y-2.9173
X5.4921Y-4.311
X5.4921Y-4.7047
X5.5079Y-4.1575
X5.5512Y-2.126
X5.563Y-3.1457
X5.563Y-3.248
X5.563Y-3.3504
X5.563Y-3.4488
X5.5669Y-2.8504
X5.5669Y-2.9488
X5.5669Y-3.5472
X5.5906Y-2.2953
X5.5906Y-2.4409
X5.5906Y-3.9173
X5.5906Y-4.4094
X5.6299Y-4.5669
X5.6543Y-3.0472
X5.689Y-2.2441
X5.689Y-2.5394
X5.689Y-2.7362
X5.689Y-3.2008
X5.689Y-3.3031
X5.689Y-3.4055
X5.689Y-3.5
X5.689Y-4.311
X5.689Y-4.7047
X5.7205Y-3.6496
X5.7205Y-4.2008
X5.748Y-2.126
X5.752Y-3.0039
X5.752Y-3.6929
X5.7874Y-3.9173
X5.7874Y-4.4094
X5.8268Y-3.5472
X5.8268Y-4.2559
X5.8268Y-4.5669
X5.8504Y-3.4488
X5.8504Y-4.3543
X5.8858Y-2.5906
X5.8858Y-2.7362
X5.8858Y-3.8189
X5.8858Y-3.9764
X5.8898Y-3.2008
X5.8898Y-3.3504
X5.8898Y-3.748
X5.9134Y-3.248
X5.9183Y-3.6496
X5.9409Y-2.6378
X5.9409Y-2.9134
X5.9449Y-2.126
X5.9646Y-3.5472
X5.9685Y-3.1457
X5.9724Y-2.6457
X5.9724Y-2.7756
X5.9843Y-4.4094
X5.9921Y-2.8465
X6.0039Y-2.6339
X6.0197Y-3.0472
X6.0236Y-4.1732
X6.0236Y-4.5669
X6.0315Y-2.5512
X6.0472Y-2.9961
X6.0512Y-3.0984
X6.0827Y-3.2874
X6.0827Y-3.3858
X6.0827Y-3.5472
X6.0827Y-3.748
X6.0866Y-3.0472
X6.1417Y-2.126
X6.1417Y-2.126
X6.2205Y-2.2441
X6.2205Y-2.4409
X6.2205Y-2.5591
X6.2205Y-2.7165
X6.2205Y-2.8346
X6.2205Y-3.0315
X6.2205Y-3.2283
X6.2205Y-3.4252
X6.2205Y-3.622
X6.2205Y-3.8189
X6.2205Y-4.0157
X6.2205Y-4.2126
X6.2205Y-4.4094
X6.2205Y-4.5669
T2
X4.5866Y-2.3622
X4.6378Y-2.4134
X4.6378Y-4.0913
X5.9055Y-4.3425
X5.9094Y-4.1142
X6.0834Y-4.3488
T3
X4.9528Y-2.248
X5.0528Y-2.248
X5.1528Y-2.248
X5.2528Y-2.248
X5.3528Y-2.248
X5.4528Y-2.248
X4.2362Y-2.9528
X4.2362Y-3.0528
X4.2362Y-3.1528
X4.2362Y-3.2528
X4.2362Y-3.3528
X4.2362Y-3.4528
X4.2362Y-3.5528
X4.2362Y-3.6528
X4.2362Y-3.7528
X4.2362Y-3.8528
X4.2362Y-3.9528
X4.2362Y-4.0528
X4.2362Y-4.1528
X4.2362Y-4.2528
X4.2362Y-4.3528
X4.2362Y-4.4528
X6.1417Y-2.9488
X6.1417Y-3.0488
X6.1417Y-3.1488
X6.1417Y-3.2488
X6.1417Y-3.3488
X6.1417Y-3.4488
X6.1417Y-3.5488
X6.1417Y-3.6488
X6.1417Y-3.7488
X6.1417Y-3.8488
X6.1417Y-3.9488
X6.1417Y-4.0488
X6.1417Y-4.1488
X6.1417Y-4.2488
X6.1417Y-4.3488
X6.1417Y-4.4488
X4.4276Y-2.252
X4.5276Y-2.252
T4
X5.8622Y-2.185
X5.8622Y-2.3622
X6.1181Y-2.185
X6.1181Y-2.3622
T5
X4.9094Y-2.6488
X4.9094Y-2.7488
X4.9094Y-2.8488
X4.9094Y-2.9488
X4.9094Y-3.0488
X4.9094Y-3.1488
X4.9094Y-3.2488
X4.9094Y-3.3488
X4.9094Y-3.4488
X4.9094Y-3.5488
X4.9094Y-3.6488
X4.9094Y-3.7488
X4.9594Y-2.5488
X5.0594Y-2.5488
X5.1594Y-2.5488
X5.2094Y-3.7488
X5.2594Y-2.5488
X5.3094Y-3.7488
X5.3594Y-2.5488
X5.3917Y-2.9988
X5.3917Y-3.0988
X5.4094Y-3.7488
X5.4594Y-2.5488
X5.5094Y-2.6488
X5.5094Y-2.7488
X5.5094Y-2.8488
X5.5094Y-2.9488
X5.5094Y-3.0488
X5.5094Y-3.1488
X5.5094Y-3.2488
X5.5094Y-3.3488
X5.5094Y-3.4488
X5.5094Y-3.5488
X5.5094Y-3.6488
X5.5094Y-3.7488
T0
M30
