G04 #@! TF.GenerationSoftware,KiCad,Pcbnew,(5.1.4)-1*
G04 #@! TF.CreationDate,2021-05-11T15:13:18+02:00*
G04 #@! TF.ProjectId,proto,70726f74-6f2e-46b6-9963-61645f706362,rev?*
G04 #@! TF.SameCoordinates,Original*
G04 #@! TF.FileFunction,Legend,Top*
G04 #@! TF.FilePolarity,Positive*
%FSLAX46Y46*%
G04 Gerber Fmt 4.6, Leading zero omitted, Abs format (unit mm)*
G04 Created by KiCad (PCBNEW (5.1.4)-1) date 2021-05-11 15:13:18*
%MOMM*%
%LPD*%
G04 APERTURE LIST*
%ADD10C,0.150000*%
%ADD11C,0.300000*%
%ADD12C,0.120000*%
%ADD13C,0.100000*%
%ADD14C,0.200000*%
%ADD15C,0.254000*%
G04 APERTURE END LIST*
D10*
X105000000Y-53000000D02*
X159000000Y-53000000D01*
X105000000Y-117000000D02*
X105000000Y-53000000D01*
X107000000Y-119000000D02*
X105000000Y-117000000D01*
X118000000Y-119000000D02*
X107000000Y-119000000D01*
X121000000Y-122000000D02*
X118000000Y-119000000D01*
X153000000Y-122000000D02*
X121000000Y-122000000D01*
X156000000Y-119000000D02*
X153000000Y-122000000D01*
X159000000Y-119000000D02*
X156000000Y-119000000D01*
X159000000Y-53000000D02*
X159000000Y-119000000D01*
X132266666Y-59152380D02*
X132600000Y-60152380D01*
X132933333Y-59152380D01*
X133838095Y-60057142D02*
X133790476Y-60104761D01*
X133647619Y-60152380D01*
X133552380Y-60152380D01*
X133409523Y-60104761D01*
X133314285Y-60009523D01*
X133266666Y-59914285D01*
X133219047Y-59723809D01*
X133219047Y-59580952D01*
X133266666Y-59390476D01*
X133314285Y-59295238D01*
X133409523Y-59200000D01*
X133552380Y-59152380D01*
X133647619Y-59152380D01*
X133790476Y-59200000D01*
X133838095Y-59247619D01*
X134838095Y-60057142D02*
X134790476Y-60104761D01*
X134647619Y-60152380D01*
X134552380Y-60152380D01*
X134409523Y-60104761D01*
X134314285Y-60009523D01*
X134266666Y-59914285D01*
X134219047Y-59723809D01*
X134219047Y-59580952D01*
X134266666Y-59390476D01*
X134314285Y-59295238D01*
X134409523Y-59200000D01*
X134552380Y-59152380D01*
X134647619Y-59152380D01*
X134790476Y-59200000D01*
X134838095Y-59247619D01*
X128233333Y-60252380D02*
X127900000Y-59776190D01*
X127661904Y-60252380D02*
X127661904Y-59252380D01*
X128042857Y-59252380D01*
X128138095Y-59300000D01*
X128185714Y-59347619D01*
X128233333Y-59442857D01*
X128233333Y-59585714D01*
X128185714Y-59680952D01*
X128138095Y-59728571D01*
X128042857Y-59776190D01*
X127661904Y-59776190D01*
X128566666Y-59252380D02*
X129233333Y-60252380D01*
X129233333Y-59252380D02*
X128566666Y-60252380D01*
X130038095Y-59252380D02*
X130609523Y-59252380D01*
X130323809Y-60252380D02*
X130323809Y-59252380D01*
X130847619Y-59252380D02*
X131514285Y-60252380D01*
X131514285Y-59252380D02*
X130847619Y-60252380D01*
X124480952Y-60252380D02*
X124480952Y-59252380D01*
X124719047Y-59252380D01*
X124861904Y-59300000D01*
X124957142Y-59395238D01*
X125004761Y-59490476D01*
X125052380Y-59680952D01*
X125052380Y-59823809D01*
X125004761Y-60014285D01*
X124957142Y-60109523D01*
X124861904Y-60204761D01*
X124719047Y-60252380D01*
X124480952Y-60252380D01*
X125433333Y-60204761D02*
X125576190Y-60252380D01*
X125814285Y-60252380D01*
X125909523Y-60204761D01*
X125957142Y-60157142D01*
X126004761Y-60061904D01*
X126004761Y-59966666D01*
X125957142Y-59871428D01*
X125909523Y-59823809D01*
X125814285Y-59776190D01*
X125623809Y-59728571D01*
X125528571Y-59680952D01*
X125480952Y-59633333D01*
X125433333Y-59538095D01*
X125433333Y-59442857D01*
X125480952Y-59347619D01*
X125528571Y-59300000D01*
X125623809Y-59252380D01*
X125861904Y-59252380D01*
X126004761Y-59300000D01*
X126290476Y-59252380D02*
X126861904Y-59252380D01*
X126576190Y-60252380D02*
X126576190Y-59252380D01*
X136657142Y-59200000D02*
X136561904Y-59152380D01*
X136419047Y-59152380D01*
X136276190Y-59200000D01*
X136180952Y-59295238D01*
X136133333Y-59390476D01*
X136085714Y-59580952D01*
X136085714Y-59723809D01*
X136133333Y-59914285D01*
X136180952Y-60009523D01*
X136276190Y-60104761D01*
X136419047Y-60152380D01*
X136514285Y-60152380D01*
X136657142Y-60104761D01*
X136704761Y-60057142D01*
X136704761Y-59723809D01*
X136514285Y-59723809D01*
X137133333Y-59485714D02*
X137133333Y-60152380D01*
X137133333Y-59580952D02*
X137180952Y-59533333D01*
X137276190Y-59485714D01*
X137419047Y-59485714D01*
X137514285Y-59533333D01*
X137561904Y-59628571D01*
X137561904Y-60152380D01*
X138466666Y-60152380D02*
X138466666Y-59152380D01*
X138466666Y-60104761D02*
X138371428Y-60152380D01*
X138180952Y-60152380D01*
X138085714Y-60104761D01*
X138038095Y-60057142D01*
X137990476Y-59961904D01*
X137990476Y-59676190D01*
X138038095Y-59580952D01*
X138085714Y-59533333D01*
X138180952Y-59485714D01*
X138371428Y-59485714D01*
X138466666Y-59533333D01*
X112295238Y-54566666D02*
X112771428Y-54566666D01*
X112200000Y-54852380D02*
X112533333Y-53852380D01*
X112866666Y-54852380D01*
X113342857Y-54852380D02*
X113247619Y-54804761D01*
X113200000Y-54709523D01*
X113200000Y-53852380D01*
X113723809Y-54852380D02*
X113723809Y-54185714D01*
X113723809Y-53852380D02*
X113676190Y-53900000D01*
X113723809Y-53947619D01*
X113771428Y-53900000D01*
X113723809Y-53852380D01*
X113723809Y-53947619D01*
X114200000Y-54852380D02*
X114200000Y-54185714D01*
X114200000Y-54280952D02*
X114247619Y-54233333D01*
X114342857Y-54185714D01*
X114485714Y-54185714D01*
X114580952Y-54233333D01*
X114628571Y-54328571D01*
X114628571Y-54852380D01*
X114628571Y-54328571D02*
X114676190Y-54233333D01*
X114771428Y-54185714D01*
X114914285Y-54185714D01*
X115009523Y-54233333D01*
X115057142Y-54328571D01*
X115057142Y-54852380D01*
X132023809Y-54752380D02*
X132023809Y-53752380D01*
X132404761Y-53752380D01*
X132500000Y-53800000D01*
X132547619Y-53847619D01*
X132595238Y-53942857D01*
X132595238Y-54085714D01*
X132547619Y-54180952D01*
X132500000Y-54228571D01*
X132404761Y-54276190D01*
X132023809Y-54276190D01*
X133023809Y-54752380D02*
X133023809Y-54085714D01*
X133023809Y-54276190D02*
X133071428Y-54180952D01*
X133119047Y-54133333D01*
X133214285Y-54085714D01*
X133309523Y-54085714D01*
X133785714Y-54752380D02*
X133690476Y-54704761D01*
X133642857Y-54657142D01*
X133595238Y-54561904D01*
X133595238Y-54276190D01*
X133642857Y-54180952D01*
X133690476Y-54133333D01*
X133785714Y-54085714D01*
X133928571Y-54085714D01*
X134023809Y-54133333D01*
X134071428Y-54180952D01*
X134119047Y-54276190D01*
X134119047Y-54561904D01*
X134071428Y-54657142D01*
X134023809Y-54704761D01*
X133928571Y-54752380D01*
X133785714Y-54752380D01*
X134976190Y-54085714D02*
X134976190Y-54895238D01*
X134928571Y-54990476D01*
X134880952Y-55038095D01*
X134785714Y-55085714D01*
X134642857Y-55085714D01*
X134547619Y-55038095D01*
X134976190Y-54704761D02*
X134880952Y-54752380D01*
X134690476Y-54752380D01*
X134595238Y-54704761D01*
X134547619Y-54657142D01*
X134500000Y-54561904D01*
X134500000Y-54276190D01*
X134547619Y-54180952D01*
X134595238Y-54133333D01*
X134690476Y-54085714D01*
X134880952Y-54085714D01*
X134976190Y-54133333D01*
X150861904Y-62852380D02*
X150528571Y-62376190D01*
X150290476Y-62852380D02*
X150290476Y-61852380D01*
X150671428Y-61852380D01*
X150766666Y-61900000D01*
X150814285Y-61947619D01*
X150861904Y-62042857D01*
X150861904Y-62185714D01*
X150814285Y-62280952D01*
X150766666Y-62328571D01*
X150671428Y-62376190D01*
X150290476Y-62376190D01*
X151671428Y-62804761D02*
X151576190Y-62852380D01*
X151385714Y-62852380D01*
X151290476Y-62804761D01*
X151242857Y-62709523D01*
X151242857Y-62328571D01*
X151290476Y-62233333D01*
X151385714Y-62185714D01*
X151576190Y-62185714D01*
X151671428Y-62233333D01*
X151719047Y-62328571D01*
X151719047Y-62423809D01*
X151242857Y-62519047D01*
X152100000Y-62804761D02*
X152195238Y-62852380D01*
X152385714Y-62852380D01*
X152480952Y-62804761D01*
X152528571Y-62709523D01*
X152528571Y-62661904D01*
X152480952Y-62566666D01*
X152385714Y-62519047D01*
X152242857Y-62519047D01*
X152147619Y-62471428D01*
X152100000Y-62376190D01*
X152100000Y-62328571D01*
X152147619Y-62233333D01*
X152242857Y-62185714D01*
X152385714Y-62185714D01*
X152480952Y-62233333D01*
X153338095Y-62804761D02*
X153242857Y-62852380D01*
X153052380Y-62852380D01*
X152957142Y-62804761D01*
X152909523Y-62709523D01*
X152909523Y-62328571D01*
X152957142Y-62233333D01*
X153052380Y-62185714D01*
X153242857Y-62185714D01*
X153338095Y-62233333D01*
X153385714Y-62328571D01*
X153385714Y-62423809D01*
X152909523Y-62519047D01*
X153671428Y-62185714D02*
X154052380Y-62185714D01*
X153814285Y-61852380D02*
X153814285Y-62709523D01*
X153861904Y-62804761D01*
X153957142Y-62852380D01*
X154052380Y-62852380D01*
D11*
X150000000Y-112478571D02*
X150500000Y-113978571D01*
X151000000Y-112478571D01*
X152357142Y-113835714D02*
X152285714Y-113907142D01*
X152071428Y-113978571D01*
X151928571Y-113978571D01*
X151714285Y-113907142D01*
X151571428Y-113764285D01*
X151500000Y-113621428D01*
X151428571Y-113335714D01*
X151428571Y-113121428D01*
X151500000Y-112835714D01*
X151571428Y-112692857D01*
X151714285Y-112550000D01*
X151928571Y-112478571D01*
X152071428Y-112478571D01*
X152285714Y-112550000D01*
X152357142Y-112621428D01*
X153857142Y-113835714D02*
X153785714Y-113907142D01*
X153571428Y-113978571D01*
X153428571Y-113978571D01*
X153214285Y-113907142D01*
X153071428Y-113764285D01*
X153000000Y-113621428D01*
X152928571Y-113335714D01*
X152928571Y-113121428D01*
X153000000Y-112835714D01*
X153071428Y-112692857D01*
X153214285Y-112550000D01*
X153428571Y-112478571D01*
X153571428Y-112478571D01*
X153785714Y-112550000D01*
X153857142Y-112621428D01*
X150000000Y-109878571D02*
X150500000Y-111378571D01*
X151000000Y-109878571D01*
X152357142Y-111235714D02*
X152285714Y-111307142D01*
X152071428Y-111378571D01*
X151928571Y-111378571D01*
X151714285Y-111307142D01*
X151571428Y-111164285D01*
X151500000Y-111021428D01*
X151428571Y-110735714D01*
X151428571Y-110521428D01*
X151500000Y-110235714D01*
X151571428Y-110092857D01*
X151714285Y-109950000D01*
X151928571Y-109878571D01*
X152071428Y-109878571D01*
X152285714Y-109950000D01*
X152357142Y-110021428D01*
X153857142Y-111235714D02*
X153785714Y-111307142D01*
X153571428Y-111378571D01*
X153428571Y-111378571D01*
X153214285Y-111307142D01*
X153071428Y-111164285D01*
X153000000Y-111021428D01*
X152928571Y-110735714D01*
X152928571Y-110521428D01*
X153000000Y-110235714D01*
X153071428Y-110092857D01*
X153214285Y-109950000D01*
X153428571Y-109878571D01*
X153571428Y-109878571D01*
X153785714Y-109950000D01*
X153857142Y-110021428D01*
X148557142Y-108307142D02*
X149700000Y-108307142D01*
X149128571Y-108878571D02*
X149128571Y-107735714D01*
X150271428Y-107378571D02*
X151200000Y-107378571D01*
X150700000Y-107950000D01*
X150914285Y-107950000D01*
X151057142Y-108021428D01*
X151128571Y-108092857D01*
X151200000Y-108235714D01*
X151200000Y-108592857D01*
X151128571Y-108735714D01*
X151057142Y-108807142D01*
X150914285Y-108878571D01*
X150485714Y-108878571D01*
X150342857Y-108807142D01*
X150271428Y-108735714D01*
X151628571Y-107378571D02*
X152128571Y-108878571D01*
X152628571Y-107378571D01*
X152985714Y-107378571D02*
X153914285Y-107378571D01*
X153414285Y-107950000D01*
X153628571Y-107950000D01*
X153771428Y-108021428D01*
X153842857Y-108092857D01*
X153914285Y-108235714D01*
X153914285Y-108592857D01*
X153842857Y-108735714D01*
X153771428Y-108807142D01*
X153628571Y-108878571D01*
X153200000Y-108878571D01*
X153057142Y-108807142D01*
X152985714Y-108735714D01*
X151178571Y-106178571D02*
X150678571Y-105464285D01*
X150321428Y-106178571D02*
X150321428Y-104678571D01*
X150892857Y-104678571D01*
X151035714Y-104750000D01*
X151107142Y-104821428D01*
X151178571Y-104964285D01*
X151178571Y-105178571D01*
X151107142Y-105321428D01*
X151035714Y-105392857D01*
X150892857Y-105464285D01*
X150321428Y-105464285D01*
X151750000Y-106107142D02*
X151964285Y-106178571D01*
X152321428Y-106178571D01*
X152464285Y-106107142D01*
X152535714Y-106035714D01*
X152607142Y-105892857D01*
X152607142Y-105750000D01*
X152535714Y-105607142D01*
X152464285Y-105535714D01*
X152321428Y-105464285D01*
X152035714Y-105392857D01*
X151892857Y-105321428D01*
X151821428Y-105250000D01*
X151750000Y-105107142D01*
X151750000Y-104964285D01*
X151821428Y-104821428D01*
X151892857Y-104750000D01*
X152035714Y-104678571D01*
X152392857Y-104678571D01*
X152607142Y-104750000D01*
X153035714Y-104678571D02*
X153892857Y-104678571D01*
X153464285Y-106178571D02*
X153464285Y-104678571D01*
X150757142Y-102250000D02*
X150614285Y-102178571D01*
X150400000Y-102178571D01*
X150185714Y-102250000D01*
X150042857Y-102392857D01*
X149971428Y-102535714D01*
X149900000Y-102821428D01*
X149900000Y-103035714D01*
X149971428Y-103321428D01*
X150042857Y-103464285D01*
X150185714Y-103607142D01*
X150400000Y-103678571D01*
X150542857Y-103678571D01*
X150757142Y-103607142D01*
X150828571Y-103535714D01*
X150828571Y-103035714D01*
X150542857Y-103035714D01*
X151471428Y-103678571D02*
X151471428Y-102178571D01*
X152328571Y-103678571D01*
X152328571Y-102178571D01*
X153042857Y-103678571D02*
X153042857Y-102178571D01*
X153400000Y-102178571D01*
X153614285Y-102250000D01*
X153757142Y-102392857D01*
X153828571Y-102535714D01*
X153900000Y-102821428D01*
X153900000Y-103035714D01*
X153828571Y-103321428D01*
X153757142Y-103464285D01*
X153614285Y-103607142D01*
X153400000Y-103678571D01*
X153042857Y-103678571D01*
X150757142Y-99650000D02*
X150614285Y-99578571D01*
X150400000Y-99578571D01*
X150185714Y-99650000D01*
X150042857Y-99792857D01*
X149971428Y-99935714D01*
X149900000Y-100221428D01*
X149900000Y-100435714D01*
X149971428Y-100721428D01*
X150042857Y-100864285D01*
X150185714Y-101007142D01*
X150400000Y-101078571D01*
X150542857Y-101078571D01*
X150757142Y-101007142D01*
X150828571Y-100935714D01*
X150828571Y-100435714D01*
X150542857Y-100435714D01*
X151471428Y-101078571D02*
X151471428Y-99578571D01*
X152328571Y-101078571D01*
X152328571Y-99578571D01*
X153042857Y-101078571D02*
X153042857Y-99578571D01*
X153400000Y-99578571D01*
X153614285Y-99650000D01*
X153757142Y-99792857D01*
X153828571Y-99935714D01*
X153900000Y-100221428D01*
X153900000Y-100435714D01*
X153828571Y-100721428D01*
X153757142Y-100864285D01*
X153614285Y-101007142D01*
X153400000Y-101078571D01*
X153042857Y-101078571D01*
X151521428Y-98578571D02*
X151521428Y-97078571D01*
X152378571Y-98578571D01*
X152378571Y-97078571D01*
X153950000Y-98435714D02*
X153878571Y-98507142D01*
X153664285Y-98578571D01*
X153521428Y-98578571D01*
X153307142Y-98507142D01*
X153164285Y-98364285D01*
X153092857Y-98221428D01*
X153021428Y-97935714D01*
X153021428Y-97721428D01*
X153092857Y-97435714D01*
X153164285Y-97292857D01*
X153307142Y-97150000D01*
X153521428Y-97078571D01*
X153664285Y-97078571D01*
X153878571Y-97150000D01*
X153950000Y-97221428D01*
X151728571Y-95550000D02*
X152442857Y-95550000D01*
X151585714Y-95978571D02*
X152085714Y-94478571D01*
X152585714Y-95978571D01*
X153371428Y-94478571D02*
X153514285Y-94478571D01*
X153657142Y-94550000D01*
X153728571Y-94621428D01*
X153800000Y-94764285D01*
X153871428Y-95050000D01*
X153871428Y-95407142D01*
X153800000Y-95692857D01*
X153728571Y-95835714D01*
X153657142Y-95907142D01*
X153514285Y-95978571D01*
X153371428Y-95978571D01*
X153228571Y-95907142D01*
X153157142Y-95835714D01*
X153085714Y-95692857D01*
X153014285Y-95407142D01*
X153014285Y-95050000D01*
X153085714Y-94764285D01*
X153157142Y-94621428D01*
X153228571Y-94550000D01*
X153371428Y-94478571D01*
X151828571Y-92950000D02*
X152542857Y-92950000D01*
X151685714Y-93378571D02*
X152185714Y-91878571D01*
X152685714Y-93378571D01*
X153971428Y-93378571D02*
X153114285Y-93378571D01*
X153542857Y-93378571D02*
X153542857Y-91878571D01*
X153400000Y-92092857D01*
X153257142Y-92235714D01*
X153114285Y-92307142D01*
X151828571Y-90450000D02*
X152542857Y-90450000D01*
X151685714Y-90878571D02*
X152185714Y-89378571D01*
X152685714Y-90878571D01*
X153114285Y-89521428D02*
X153185714Y-89450000D01*
X153328571Y-89378571D01*
X153685714Y-89378571D01*
X153828571Y-89450000D01*
X153900000Y-89521428D01*
X153971428Y-89664285D01*
X153971428Y-89807142D01*
X153900000Y-90021428D01*
X153042857Y-90878571D01*
X153971428Y-90878571D01*
X151828571Y-88050000D02*
X152542857Y-88050000D01*
X151685714Y-88478571D02*
X152185714Y-86978571D01*
X152685714Y-88478571D01*
X153042857Y-86978571D02*
X153971428Y-86978571D01*
X153471428Y-87550000D01*
X153685714Y-87550000D01*
X153828571Y-87621428D01*
X153900000Y-87692857D01*
X153971428Y-87835714D01*
X153971428Y-88192857D01*
X153900000Y-88335714D01*
X153828571Y-88407142D01*
X153685714Y-88478571D01*
X153257142Y-88478571D01*
X153114285Y-88407142D01*
X153042857Y-88335714D01*
X150385714Y-85350000D02*
X151100000Y-85350000D01*
X150242857Y-85778571D02*
X150742857Y-84278571D01*
X151242857Y-85778571D01*
X152385714Y-84778571D02*
X152385714Y-85778571D01*
X152028571Y-84207142D02*
X151671428Y-85278571D01*
X152600000Y-85278571D01*
X153100000Y-85350000D02*
X153814285Y-85350000D01*
X152957142Y-85778571D02*
X153457142Y-84278571D01*
X153957142Y-85778571D01*
X150321428Y-82850000D02*
X151035714Y-82850000D01*
X150178571Y-83278571D02*
X150678571Y-81778571D01*
X151178571Y-83278571D01*
X152392857Y-81778571D02*
X151678571Y-81778571D01*
X151607142Y-82492857D01*
X151678571Y-82421428D01*
X151821428Y-82350000D01*
X152178571Y-82350000D01*
X152321428Y-82421428D01*
X152392857Y-82492857D01*
X152464285Y-82635714D01*
X152464285Y-82992857D01*
X152392857Y-83135714D01*
X152321428Y-83207142D01*
X152178571Y-83278571D01*
X151821428Y-83278571D01*
X151678571Y-83207142D01*
X151607142Y-83135714D01*
X153821428Y-83278571D02*
X153107142Y-83278571D01*
X153107142Y-81778571D01*
X150557142Y-80450000D02*
X151271428Y-80450000D01*
X150414285Y-80878571D02*
X150914285Y-79378571D01*
X151414285Y-80878571D01*
X152557142Y-79378571D02*
X152271428Y-79378571D01*
X152128571Y-79450000D01*
X152057142Y-79521428D01*
X151914285Y-79735714D01*
X151842857Y-80021428D01*
X151842857Y-80592857D01*
X151914285Y-80735714D01*
X151985714Y-80807142D01*
X152128571Y-80878571D01*
X152414285Y-80878571D01*
X152557142Y-80807142D01*
X152628571Y-80735714D01*
X152700000Y-80592857D01*
X152700000Y-80235714D01*
X152628571Y-80092857D01*
X152557142Y-80021428D01*
X152414285Y-79950000D01*
X152128571Y-79950000D01*
X151985714Y-80021428D01*
X151914285Y-80092857D01*
X151842857Y-80235714D01*
X153557142Y-79378571D02*
X153557142Y-79735714D01*
X153200000Y-79592857D02*
X153557142Y-79735714D01*
X153914285Y-79592857D01*
X153342857Y-80021428D02*
X153557142Y-79735714D01*
X153771428Y-80021428D01*
X151728571Y-77850000D02*
X152442857Y-77850000D01*
X151585714Y-78278571D02*
X152085714Y-76778571D01*
X152585714Y-78278571D01*
X152942857Y-76778571D02*
X153942857Y-76778571D01*
X153300000Y-78278571D01*
X150757142Y-74350000D02*
X150614285Y-74278571D01*
X150400000Y-74278571D01*
X150185714Y-74350000D01*
X150042857Y-74492857D01*
X149971428Y-74635714D01*
X149900000Y-74921428D01*
X149900000Y-75135714D01*
X149971428Y-75421428D01*
X150042857Y-75564285D01*
X150185714Y-75707142D01*
X150400000Y-75778571D01*
X150542857Y-75778571D01*
X150757142Y-75707142D01*
X150828571Y-75635714D01*
X150828571Y-75135714D01*
X150542857Y-75135714D01*
X151471428Y-75778571D02*
X151471428Y-74278571D01*
X152328571Y-75778571D01*
X152328571Y-74278571D01*
X153042857Y-75778571D02*
X153042857Y-74278571D01*
X153400000Y-74278571D01*
X153614285Y-74350000D01*
X153757142Y-74492857D01*
X153828571Y-74635714D01*
X153900000Y-74921428D01*
X153900000Y-75135714D01*
X153828571Y-75421428D01*
X153757142Y-75564285D01*
X153614285Y-75707142D01*
X153400000Y-75778571D01*
X153042857Y-75778571D01*
X110557142Y-112550000D02*
X110414285Y-112478571D01*
X110200000Y-112478571D01*
X109985714Y-112550000D01*
X109842857Y-112692857D01*
X109771428Y-112835714D01*
X109700000Y-113121428D01*
X109700000Y-113335714D01*
X109771428Y-113621428D01*
X109842857Y-113764285D01*
X109985714Y-113907142D01*
X110200000Y-113978571D01*
X110342857Y-113978571D01*
X110557142Y-113907142D01*
X110628571Y-113835714D01*
X110628571Y-113335714D01*
X110342857Y-113335714D01*
X111271428Y-113978571D02*
X111271428Y-112478571D01*
X112128571Y-113978571D01*
X112128571Y-112478571D01*
X112842857Y-113978571D02*
X112842857Y-112478571D01*
X113200000Y-112478571D01*
X113414285Y-112550000D01*
X113557142Y-112692857D01*
X113628571Y-112835714D01*
X113700000Y-113121428D01*
X113700000Y-113335714D01*
X113628571Y-113621428D01*
X113557142Y-113764285D01*
X113414285Y-113907142D01*
X113200000Y-113978571D01*
X112842857Y-113978571D01*
X110614285Y-111178571D02*
X109757142Y-111178571D01*
X110185714Y-111178571D02*
X110185714Y-109678571D01*
X110042857Y-109892857D01*
X109900000Y-110035714D01*
X109757142Y-110107142D01*
X111114285Y-109678571D02*
X112042857Y-109678571D01*
X111542857Y-110250000D01*
X111757142Y-110250000D01*
X111900000Y-110321428D01*
X111971428Y-110392857D01*
X112042857Y-110535714D01*
X112042857Y-110892857D01*
X111971428Y-111035714D01*
X111900000Y-111107142D01*
X111757142Y-111178571D01*
X111328571Y-111178571D01*
X111185714Y-111107142D01*
X111114285Y-111035714D01*
X110614285Y-108678571D02*
X109757142Y-108678571D01*
X110185714Y-108678571D02*
X110185714Y-107178571D01*
X110042857Y-107392857D01*
X109900000Y-107535714D01*
X109757142Y-107607142D01*
X111185714Y-107321428D02*
X111257142Y-107250000D01*
X111400000Y-107178571D01*
X111757142Y-107178571D01*
X111900000Y-107250000D01*
X111971428Y-107321428D01*
X112042857Y-107464285D01*
X112042857Y-107607142D01*
X111971428Y-107821428D01*
X111114285Y-108678571D01*
X112042857Y-108678571D01*
X110614285Y-106178571D02*
X109757142Y-106178571D01*
X110185714Y-106178571D02*
X110185714Y-104678571D01*
X110042857Y-104892857D01*
X109900000Y-105035714D01*
X109757142Y-105107142D01*
X112042857Y-106178571D02*
X111185714Y-106178571D01*
X111614285Y-106178571D02*
X111614285Y-104678571D01*
X111471428Y-104892857D01*
X111328571Y-105035714D01*
X111185714Y-105107142D01*
X110614285Y-103578571D02*
X109757142Y-103578571D01*
X110185714Y-103578571D02*
X110185714Y-102078571D01*
X110042857Y-102292857D01*
X109900000Y-102435714D01*
X109757142Y-102507142D01*
X111542857Y-102078571D02*
X111685714Y-102078571D01*
X111828571Y-102150000D01*
X111900000Y-102221428D01*
X111971428Y-102364285D01*
X112042857Y-102650000D01*
X112042857Y-103007142D01*
X111971428Y-103292857D01*
X111900000Y-103435714D01*
X111828571Y-103507142D01*
X111685714Y-103578571D01*
X111542857Y-103578571D01*
X111400000Y-103507142D01*
X111328571Y-103435714D01*
X111257142Y-103292857D01*
X111185714Y-103007142D01*
X111185714Y-102650000D01*
X111257142Y-102364285D01*
X111328571Y-102221428D01*
X111400000Y-102150000D01*
X111542857Y-102078571D01*
X109914285Y-101178571D02*
X110200000Y-101178571D01*
X110342857Y-101107142D01*
X110414285Y-101035714D01*
X110557142Y-100821428D01*
X110628571Y-100535714D01*
X110628571Y-99964285D01*
X110557142Y-99821428D01*
X110485714Y-99750000D01*
X110342857Y-99678571D01*
X110057142Y-99678571D01*
X109914285Y-99750000D01*
X109842857Y-99821428D01*
X109771428Y-99964285D01*
X109771428Y-100321428D01*
X109842857Y-100464285D01*
X109914285Y-100535714D01*
X110057142Y-100607142D01*
X110342857Y-100607142D01*
X110485714Y-100535714D01*
X110557142Y-100464285D01*
X110628571Y-100321428D01*
X110057142Y-97721428D02*
X109914285Y-97650000D01*
X109842857Y-97578571D01*
X109771428Y-97435714D01*
X109771428Y-97364285D01*
X109842857Y-97221428D01*
X109914285Y-97150000D01*
X110057142Y-97078571D01*
X110342857Y-97078571D01*
X110485714Y-97150000D01*
X110557142Y-97221428D01*
X110628571Y-97364285D01*
X110628571Y-97435714D01*
X110557142Y-97578571D01*
X110485714Y-97650000D01*
X110342857Y-97721428D01*
X110057142Y-97721428D01*
X109914285Y-97792857D01*
X109842857Y-97864285D01*
X109771428Y-98007142D01*
X109771428Y-98292857D01*
X109842857Y-98435714D01*
X109914285Y-98507142D01*
X110057142Y-98578571D01*
X110342857Y-98578571D01*
X110485714Y-98507142D01*
X110557142Y-98435714D01*
X110628571Y-98292857D01*
X110628571Y-98007142D01*
X110557142Y-97864285D01*
X110485714Y-97792857D01*
X110342857Y-97721428D01*
X109028571Y-94578571D02*
X110028571Y-94578571D01*
X109385714Y-96078571D01*
X110814285Y-94578571D02*
X110814285Y-94935714D01*
X110457142Y-94792857D02*
X110814285Y-94935714D01*
X111171428Y-94792857D01*
X110600000Y-95221428D02*
X110814285Y-94935714D01*
X111028571Y-95221428D01*
X110485714Y-92078571D02*
X110200000Y-92078571D01*
X110057142Y-92150000D01*
X109985714Y-92221428D01*
X109842857Y-92435714D01*
X109771428Y-92721428D01*
X109771428Y-93292857D01*
X109842857Y-93435714D01*
X109914285Y-93507142D01*
X110057142Y-93578571D01*
X110342857Y-93578571D01*
X110485714Y-93507142D01*
X110557142Y-93435714D01*
X110628571Y-93292857D01*
X110628571Y-92935714D01*
X110557142Y-92792857D01*
X110485714Y-92721428D01*
X110342857Y-92650000D01*
X110057142Y-92650000D01*
X109914285Y-92721428D01*
X109842857Y-92792857D01*
X109771428Y-92935714D01*
X110557142Y-89478571D02*
X109842857Y-89478571D01*
X109771428Y-90192857D01*
X109842857Y-90121428D01*
X109985714Y-90050000D01*
X110342857Y-90050000D01*
X110485714Y-90121428D01*
X110557142Y-90192857D01*
X110628571Y-90335714D01*
X110628571Y-90692857D01*
X110557142Y-90835714D01*
X110485714Y-90907142D01*
X110342857Y-90978571D01*
X109985714Y-90978571D01*
X109842857Y-90907142D01*
X109771428Y-90835714D01*
X110485714Y-87478571D02*
X110485714Y-88478571D01*
X110128571Y-86907142D02*
X109771428Y-87978571D01*
X110700000Y-87978571D01*
X110300000Y-84478571D02*
X111228571Y-84478571D01*
X110728571Y-85050000D01*
X110942857Y-85050000D01*
X111085714Y-85121428D01*
X111157142Y-85192857D01*
X111228571Y-85335714D01*
X111228571Y-85692857D01*
X111157142Y-85835714D01*
X111085714Y-85907142D01*
X110942857Y-85978571D01*
X110514285Y-85978571D01*
X110371428Y-85907142D01*
X110300000Y-85835714D01*
X110371428Y-81921428D02*
X110442857Y-81850000D01*
X110585714Y-81778571D01*
X110942857Y-81778571D01*
X111085714Y-81850000D01*
X111157142Y-81921428D01*
X111228571Y-82064285D01*
X111228571Y-82207142D01*
X111157142Y-82421428D01*
X110300000Y-83278571D01*
X111228571Y-83278571D01*
X110457142Y-79650000D02*
X110314285Y-79578571D01*
X110100000Y-79578571D01*
X109885714Y-79650000D01*
X109742857Y-79792857D01*
X109671428Y-79935714D01*
X109600000Y-80221428D01*
X109600000Y-80435714D01*
X109671428Y-80721428D01*
X109742857Y-80864285D01*
X109885714Y-81007142D01*
X110100000Y-81078571D01*
X110242857Y-81078571D01*
X110457142Y-81007142D01*
X110528571Y-80935714D01*
X110528571Y-80435714D01*
X110242857Y-80435714D01*
X111171428Y-81078571D02*
X111171428Y-79578571D01*
X112028571Y-81078571D01*
X112028571Y-79578571D01*
X112742857Y-81078571D02*
X112742857Y-79578571D01*
X113100000Y-79578571D01*
X113314285Y-79650000D01*
X113457142Y-79792857D01*
X113528571Y-79935714D01*
X113600000Y-80221428D01*
X113600000Y-80435714D01*
X113528571Y-80721428D01*
X113457142Y-80864285D01*
X113314285Y-81007142D01*
X113100000Y-81078571D01*
X112742857Y-81078571D01*
X110750000Y-78378571D02*
X110250000Y-77664285D01*
X109892857Y-78378571D02*
X109892857Y-76878571D01*
X110464285Y-76878571D01*
X110607142Y-76950000D01*
X110678571Y-77021428D01*
X110750000Y-77164285D01*
X110750000Y-77378571D01*
X110678571Y-77521428D01*
X110607142Y-77592857D01*
X110464285Y-77664285D01*
X109892857Y-77664285D01*
X111250000Y-76878571D02*
X112250000Y-78378571D01*
X112250000Y-76878571D02*
X111250000Y-78378571D01*
X109657142Y-74178571D02*
X110514285Y-74178571D01*
X110085714Y-75678571D02*
X110085714Y-74178571D01*
X110871428Y-74178571D02*
X111871428Y-75678571D01*
X111871428Y-74178571D02*
X110871428Y-75678571D01*
D12*
X117110000Y-61937221D02*
X117110000Y-62262779D01*
X116090000Y-61937221D02*
X116090000Y-62262779D01*
D13*
X123200000Y-63500000D02*
X141100000Y-63500000D01*
X141100000Y-63500000D02*
X141100000Y-96400000D01*
X141100000Y-96400000D02*
X123200000Y-96400000D01*
X123200000Y-96400000D02*
X123200000Y-63500000D01*
D12*
X106270000Y-114430000D02*
X108930000Y-114430000D01*
X106270000Y-76270000D02*
X106270000Y-114430000D01*
X108930000Y-76270000D02*
X108930000Y-114430000D01*
X106270000Y-76270000D02*
X108930000Y-76270000D01*
X106270000Y-75000000D02*
X106270000Y-73670000D01*
X106270000Y-73670000D02*
X107600000Y-73670000D01*
X124470000Y-55770000D02*
X124470000Y-58430000D01*
X137230000Y-55770000D02*
X124470000Y-55770000D01*
X137230000Y-58430000D02*
X124470000Y-58430000D01*
X137230000Y-55770000D02*
X137230000Y-58430000D01*
X138500000Y-55770000D02*
X139830000Y-55770000D01*
X139830000Y-55770000D02*
X139830000Y-57100000D01*
X157330000Y-114330000D02*
X156000000Y-114330000D01*
X157330000Y-113000000D02*
X157330000Y-114330000D01*
X157330000Y-111730000D02*
X154670000Y-111730000D01*
X154670000Y-111730000D02*
X154670000Y-73570000D01*
X157330000Y-111730000D02*
X157330000Y-73570000D01*
X157330000Y-73570000D02*
X154670000Y-73570000D01*
X111130000Y-55870000D02*
X111130000Y-58530000D01*
X113730000Y-55870000D02*
X111130000Y-55870000D01*
X113730000Y-58530000D02*
X111130000Y-58530000D01*
X113730000Y-55870000D02*
X113730000Y-58530000D01*
X115000000Y-55870000D02*
X116330000Y-55870000D01*
X116330000Y-55870000D02*
X116330000Y-57200000D01*
X151537221Y-65390000D02*
X151862779Y-65390000D01*
X151537221Y-66410000D02*
X151862779Y-66410000D01*
X135290000Y-99762779D02*
X135290000Y-99437221D01*
X136310000Y-99762779D02*
X136310000Y-99437221D01*
X136990000Y-99437221D02*
X136990000Y-99762779D01*
X138010000Y-99437221D02*
X138010000Y-99762779D01*
X149900000Y-61000000D02*
X154400000Y-61000000D01*
X148650000Y-57000000D02*
X148650000Y-58500000D01*
X154400000Y-54500000D02*
X149900000Y-54500000D01*
X155650000Y-58500000D02*
X155650000Y-57000000D01*
D14*
X129250000Y-98356000D02*
X132550000Y-98356000D01*
X132550000Y-98356000D02*
X132550000Y-102444000D01*
X132550000Y-102444000D02*
X129250000Y-102444000D01*
X129250000Y-102444000D02*
X129250000Y-98356000D01*
X127400000Y-98455000D02*
X128900000Y-98455000D01*
D12*
X109690000Y-62362779D02*
X109690000Y-62037221D01*
X110710000Y-62362779D02*
X110710000Y-62037221D01*
X114200000Y-60390000D02*
X112400000Y-60390000D01*
X112400000Y-63610000D02*
X114850000Y-63610000D01*
D10*
X118633333Y-62757142D02*
X118585714Y-62804761D01*
X118442857Y-62852380D01*
X118347619Y-62852380D01*
X118204761Y-62804761D01*
X118109523Y-62709523D01*
X118061904Y-62614285D01*
X118014285Y-62423809D01*
X118014285Y-62280952D01*
X118061904Y-62090476D01*
X118109523Y-61995238D01*
X118204761Y-61900000D01*
X118347619Y-61852380D01*
X118442857Y-61852380D01*
X118585714Y-61900000D01*
X118633333Y-61947619D01*
X119538095Y-61852380D02*
X119061904Y-61852380D01*
X119014285Y-62328571D01*
X119061904Y-62280952D01*
X119157142Y-62233333D01*
X119395238Y-62233333D01*
X119490476Y-62280952D01*
X119538095Y-62328571D01*
X119585714Y-62423809D01*
X119585714Y-62661904D01*
X119538095Y-62757142D01*
X119490476Y-62804761D01*
X119395238Y-62852380D01*
X119157142Y-62852380D01*
X119061904Y-62804761D01*
X119014285Y-62757142D01*
D15*
X130910238Y-80524523D02*
X130910238Y-79254523D01*
X132240714Y-80403571D02*
X132180238Y-80464047D01*
X131998809Y-80524523D01*
X131877857Y-80524523D01*
X131696428Y-80464047D01*
X131575476Y-80343095D01*
X131515000Y-80222142D01*
X131454523Y-79980238D01*
X131454523Y-79798809D01*
X131515000Y-79556904D01*
X131575476Y-79435952D01*
X131696428Y-79315000D01*
X131877857Y-79254523D01*
X131998809Y-79254523D01*
X132180238Y-79315000D01*
X132240714Y-79375476D01*
X133450238Y-80524523D02*
X132724523Y-80524523D01*
X133087380Y-80524523D02*
X133087380Y-79254523D01*
X132966428Y-79435952D01*
X132845476Y-79556904D01*
X132724523Y-79617380D01*
D10*
X149333333Y-67252380D02*
X149000000Y-66776190D01*
X148761904Y-67252380D02*
X148761904Y-66252380D01*
X149142857Y-66252380D01*
X149238095Y-66300000D01*
X149285714Y-66347619D01*
X149333333Y-66442857D01*
X149333333Y-66585714D01*
X149285714Y-66680952D01*
X149238095Y-66728571D01*
X149142857Y-66776190D01*
X148761904Y-66776190D01*
X150285714Y-67252380D02*
X149714285Y-67252380D01*
X150000000Y-67252380D02*
X150000000Y-66252380D01*
X149904761Y-66395238D01*
X149809523Y-66490476D01*
X149714285Y-66538095D01*
X136352380Y-102166666D02*
X135876190Y-102500000D01*
X136352380Y-102738095D02*
X135352380Y-102738095D01*
X135352380Y-102357142D01*
X135400000Y-102261904D01*
X135447619Y-102214285D01*
X135542857Y-102166666D01*
X135685714Y-102166666D01*
X135780952Y-102214285D01*
X135828571Y-102261904D01*
X135876190Y-102357142D01*
X135876190Y-102738095D01*
X135352380Y-101261904D02*
X135352380Y-101738095D01*
X135828571Y-101785714D01*
X135780952Y-101738095D01*
X135733333Y-101642857D01*
X135733333Y-101404761D01*
X135780952Y-101309523D01*
X135828571Y-101261904D01*
X135923809Y-101214285D01*
X136161904Y-101214285D01*
X136257142Y-101261904D01*
X136304761Y-101309523D01*
X136352380Y-101404761D01*
X136352380Y-101642857D01*
X136304761Y-101738095D01*
X136257142Y-101785714D01*
X138933333Y-100052380D02*
X138600000Y-99576190D01*
X138361904Y-100052380D02*
X138361904Y-99052380D01*
X138742857Y-99052380D01*
X138838095Y-99100000D01*
X138885714Y-99147619D01*
X138933333Y-99242857D01*
X138933333Y-99385714D01*
X138885714Y-99480952D01*
X138838095Y-99528571D01*
X138742857Y-99576190D01*
X138361904Y-99576190D01*
X139790476Y-99052380D02*
X139600000Y-99052380D01*
X139504761Y-99100000D01*
X139457142Y-99147619D01*
X139361904Y-99290476D01*
X139314285Y-99480952D01*
X139314285Y-99861904D01*
X139361904Y-99957142D01*
X139409523Y-100004761D01*
X139504761Y-100052380D01*
X139695238Y-100052380D01*
X139790476Y-100004761D01*
X139838095Y-99957142D01*
X139885714Y-99861904D01*
X139885714Y-99623809D01*
X139838095Y-99528571D01*
X139790476Y-99480952D01*
X139695238Y-99433333D01*
X139504761Y-99433333D01*
X139409523Y-99480952D01*
X139361904Y-99528571D01*
X139314285Y-99623809D01*
D15*
X129962619Y-100974523D02*
X129962619Y-99704523D01*
X130688333Y-100974523D02*
X130144047Y-100248809D01*
X130688333Y-99704523D02*
X129962619Y-100430238D01*
X131897857Y-100974523D02*
X131172142Y-100974523D01*
X131535000Y-100974523D02*
X131535000Y-99704523D01*
X131414047Y-99885952D01*
X131293095Y-100006904D01*
X131172142Y-100067380D01*
D10*
X109127142Y-62366666D02*
X109174761Y-62414285D01*
X109222380Y-62557142D01*
X109222380Y-62652380D01*
X109174761Y-62795238D01*
X109079523Y-62890476D01*
X108984285Y-62938095D01*
X108793809Y-62985714D01*
X108650952Y-62985714D01*
X108460476Y-62938095D01*
X108365238Y-62890476D01*
X108270000Y-62795238D01*
X108222380Y-62652380D01*
X108222380Y-62557142D01*
X108270000Y-62414285D01*
X108317619Y-62366666D01*
X108222380Y-62033333D02*
X108222380Y-61366666D01*
X109222380Y-61795238D01*
X112538095Y-64352380D02*
X112538095Y-65161904D01*
X112585714Y-65257142D01*
X112633333Y-65304761D01*
X112728571Y-65352380D01*
X112919047Y-65352380D01*
X113014285Y-65304761D01*
X113061904Y-65257142D01*
X113109523Y-65161904D01*
X113109523Y-64352380D01*
X114109523Y-65352380D02*
X113538095Y-65352380D01*
X113823809Y-65352380D02*
X113823809Y-64352380D01*
X113728571Y-64495238D01*
X113633333Y-64590476D01*
X113538095Y-64638095D01*
M02*
