G04 #@! TF.GenerationSoftware,KiCad,Pcbnew,(5.1.4)-1*
G04 #@! TF.CreationDate,2021-05-11T15:13:18+02:00*
G04 #@! TF.ProjectId,proto,70726f74-6f2e-46b6-9963-61645f706362,rev?*
G04 #@! TF.SameCoordinates,Original*
G04 #@! TF.FileFunction,Paste,Top*
G04 #@! TF.FilePolarity,Positive*
%FSLAX46Y46*%
G04 Gerber Fmt 4.6, Leading zero omitted, Abs format (unit mm)*
G04 Created by KiCad (PCBNEW (5.1.4)-1) date 2021-05-11 15:13:18*
%MOMM*%
%LPD*%
G04 APERTURE LIST*
%ADD10C,0.100000*%
%ADD11C,0.875000*%
%ADD12R,1.500000X0.650000*%
%ADD13R,1.060000X0.650000*%
G04 APERTURE END LIST*
D10*
G36*
X116877691Y-60876053D02*
G01*
X116898926Y-60879203D01*
X116919750Y-60884419D01*
X116939962Y-60891651D01*
X116959368Y-60900830D01*
X116977781Y-60911866D01*
X116995024Y-60924654D01*
X117010930Y-60939070D01*
X117025346Y-60954976D01*
X117038134Y-60972219D01*
X117049170Y-60990632D01*
X117058349Y-61010038D01*
X117065581Y-61030250D01*
X117070797Y-61051074D01*
X117073947Y-61072309D01*
X117075000Y-61093750D01*
X117075000Y-61531250D01*
X117073947Y-61552691D01*
X117070797Y-61573926D01*
X117065581Y-61594750D01*
X117058349Y-61614962D01*
X117049170Y-61634368D01*
X117038134Y-61652781D01*
X117025346Y-61670024D01*
X117010930Y-61685930D01*
X116995024Y-61700346D01*
X116977781Y-61713134D01*
X116959368Y-61724170D01*
X116939962Y-61733349D01*
X116919750Y-61740581D01*
X116898926Y-61745797D01*
X116877691Y-61748947D01*
X116856250Y-61750000D01*
X116343750Y-61750000D01*
X116322309Y-61748947D01*
X116301074Y-61745797D01*
X116280250Y-61740581D01*
X116260038Y-61733349D01*
X116240632Y-61724170D01*
X116222219Y-61713134D01*
X116204976Y-61700346D01*
X116189070Y-61685930D01*
X116174654Y-61670024D01*
X116161866Y-61652781D01*
X116150830Y-61634368D01*
X116141651Y-61614962D01*
X116134419Y-61594750D01*
X116129203Y-61573926D01*
X116126053Y-61552691D01*
X116125000Y-61531250D01*
X116125000Y-61093750D01*
X116126053Y-61072309D01*
X116129203Y-61051074D01*
X116134419Y-61030250D01*
X116141651Y-61010038D01*
X116150830Y-60990632D01*
X116161866Y-60972219D01*
X116174654Y-60954976D01*
X116189070Y-60939070D01*
X116204976Y-60924654D01*
X116222219Y-60911866D01*
X116240632Y-60900830D01*
X116260038Y-60891651D01*
X116280250Y-60884419D01*
X116301074Y-60879203D01*
X116322309Y-60876053D01*
X116343750Y-60875000D01*
X116856250Y-60875000D01*
X116877691Y-60876053D01*
X116877691Y-60876053D01*
G37*
D11*
X116600000Y-61312500D03*
D10*
G36*
X116877691Y-62451053D02*
G01*
X116898926Y-62454203D01*
X116919750Y-62459419D01*
X116939962Y-62466651D01*
X116959368Y-62475830D01*
X116977781Y-62486866D01*
X116995024Y-62499654D01*
X117010930Y-62514070D01*
X117025346Y-62529976D01*
X117038134Y-62547219D01*
X117049170Y-62565632D01*
X117058349Y-62585038D01*
X117065581Y-62605250D01*
X117070797Y-62626074D01*
X117073947Y-62647309D01*
X117075000Y-62668750D01*
X117075000Y-63106250D01*
X117073947Y-63127691D01*
X117070797Y-63148926D01*
X117065581Y-63169750D01*
X117058349Y-63189962D01*
X117049170Y-63209368D01*
X117038134Y-63227781D01*
X117025346Y-63245024D01*
X117010930Y-63260930D01*
X116995024Y-63275346D01*
X116977781Y-63288134D01*
X116959368Y-63299170D01*
X116939962Y-63308349D01*
X116919750Y-63315581D01*
X116898926Y-63320797D01*
X116877691Y-63323947D01*
X116856250Y-63325000D01*
X116343750Y-63325000D01*
X116322309Y-63323947D01*
X116301074Y-63320797D01*
X116280250Y-63315581D01*
X116260038Y-63308349D01*
X116240632Y-63299170D01*
X116222219Y-63288134D01*
X116204976Y-63275346D01*
X116189070Y-63260930D01*
X116174654Y-63245024D01*
X116161866Y-63227781D01*
X116150830Y-63209368D01*
X116141651Y-63189962D01*
X116134419Y-63169750D01*
X116129203Y-63148926D01*
X116126053Y-63127691D01*
X116125000Y-63106250D01*
X116125000Y-62668750D01*
X116126053Y-62647309D01*
X116129203Y-62626074D01*
X116134419Y-62605250D01*
X116141651Y-62585038D01*
X116150830Y-62565632D01*
X116161866Y-62547219D01*
X116174654Y-62529976D01*
X116189070Y-62514070D01*
X116204976Y-62499654D01*
X116222219Y-62486866D01*
X116240632Y-62475830D01*
X116260038Y-62466651D01*
X116280250Y-62459419D01*
X116301074Y-62454203D01*
X116322309Y-62451053D01*
X116343750Y-62450000D01*
X116856250Y-62450000D01*
X116877691Y-62451053D01*
X116877691Y-62451053D01*
G37*
D11*
X116600000Y-62887500D03*
D10*
G36*
X151152691Y-65426053D02*
G01*
X151173926Y-65429203D01*
X151194750Y-65434419D01*
X151214962Y-65441651D01*
X151234368Y-65450830D01*
X151252781Y-65461866D01*
X151270024Y-65474654D01*
X151285930Y-65489070D01*
X151300346Y-65504976D01*
X151313134Y-65522219D01*
X151324170Y-65540632D01*
X151333349Y-65560038D01*
X151340581Y-65580250D01*
X151345797Y-65601074D01*
X151348947Y-65622309D01*
X151350000Y-65643750D01*
X151350000Y-66156250D01*
X151348947Y-66177691D01*
X151345797Y-66198926D01*
X151340581Y-66219750D01*
X151333349Y-66239962D01*
X151324170Y-66259368D01*
X151313134Y-66277781D01*
X151300346Y-66295024D01*
X151285930Y-66310930D01*
X151270024Y-66325346D01*
X151252781Y-66338134D01*
X151234368Y-66349170D01*
X151214962Y-66358349D01*
X151194750Y-66365581D01*
X151173926Y-66370797D01*
X151152691Y-66373947D01*
X151131250Y-66375000D01*
X150693750Y-66375000D01*
X150672309Y-66373947D01*
X150651074Y-66370797D01*
X150630250Y-66365581D01*
X150610038Y-66358349D01*
X150590632Y-66349170D01*
X150572219Y-66338134D01*
X150554976Y-66325346D01*
X150539070Y-66310930D01*
X150524654Y-66295024D01*
X150511866Y-66277781D01*
X150500830Y-66259368D01*
X150491651Y-66239962D01*
X150484419Y-66219750D01*
X150479203Y-66198926D01*
X150476053Y-66177691D01*
X150475000Y-66156250D01*
X150475000Y-65643750D01*
X150476053Y-65622309D01*
X150479203Y-65601074D01*
X150484419Y-65580250D01*
X150491651Y-65560038D01*
X150500830Y-65540632D01*
X150511866Y-65522219D01*
X150524654Y-65504976D01*
X150539070Y-65489070D01*
X150554976Y-65474654D01*
X150572219Y-65461866D01*
X150590632Y-65450830D01*
X150610038Y-65441651D01*
X150630250Y-65434419D01*
X150651074Y-65429203D01*
X150672309Y-65426053D01*
X150693750Y-65425000D01*
X151131250Y-65425000D01*
X151152691Y-65426053D01*
X151152691Y-65426053D01*
G37*
D11*
X150912500Y-65900000D03*
D10*
G36*
X152727691Y-65426053D02*
G01*
X152748926Y-65429203D01*
X152769750Y-65434419D01*
X152789962Y-65441651D01*
X152809368Y-65450830D01*
X152827781Y-65461866D01*
X152845024Y-65474654D01*
X152860930Y-65489070D01*
X152875346Y-65504976D01*
X152888134Y-65522219D01*
X152899170Y-65540632D01*
X152908349Y-65560038D01*
X152915581Y-65580250D01*
X152920797Y-65601074D01*
X152923947Y-65622309D01*
X152925000Y-65643750D01*
X152925000Y-66156250D01*
X152923947Y-66177691D01*
X152920797Y-66198926D01*
X152915581Y-66219750D01*
X152908349Y-66239962D01*
X152899170Y-66259368D01*
X152888134Y-66277781D01*
X152875346Y-66295024D01*
X152860930Y-66310930D01*
X152845024Y-66325346D01*
X152827781Y-66338134D01*
X152809368Y-66349170D01*
X152789962Y-66358349D01*
X152769750Y-66365581D01*
X152748926Y-66370797D01*
X152727691Y-66373947D01*
X152706250Y-66375000D01*
X152268750Y-66375000D01*
X152247309Y-66373947D01*
X152226074Y-66370797D01*
X152205250Y-66365581D01*
X152185038Y-66358349D01*
X152165632Y-66349170D01*
X152147219Y-66338134D01*
X152129976Y-66325346D01*
X152114070Y-66310930D01*
X152099654Y-66295024D01*
X152086866Y-66277781D01*
X152075830Y-66259368D01*
X152066651Y-66239962D01*
X152059419Y-66219750D01*
X152054203Y-66198926D01*
X152051053Y-66177691D01*
X152050000Y-66156250D01*
X152050000Y-65643750D01*
X152051053Y-65622309D01*
X152054203Y-65601074D01*
X152059419Y-65580250D01*
X152066651Y-65560038D01*
X152075830Y-65540632D01*
X152086866Y-65522219D01*
X152099654Y-65504976D01*
X152114070Y-65489070D01*
X152129976Y-65474654D01*
X152147219Y-65461866D01*
X152165632Y-65450830D01*
X152185038Y-65441651D01*
X152205250Y-65434419D01*
X152226074Y-65429203D01*
X152247309Y-65426053D01*
X152268750Y-65425000D01*
X152706250Y-65425000D01*
X152727691Y-65426053D01*
X152727691Y-65426053D01*
G37*
D11*
X152487500Y-65900000D03*
D10*
G36*
X136077691Y-99951053D02*
G01*
X136098926Y-99954203D01*
X136119750Y-99959419D01*
X136139962Y-99966651D01*
X136159368Y-99975830D01*
X136177781Y-99986866D01*
X136195024Y-99999654D01*
X136210930Y-100014070D01*
X136225346Y-100029976D01*
X136238134Y-100047219D01*
X136249170Y-100065632D01*
X136258349Y-100085038D01*
X136265581Y-100105250D01*
X136270797Y-100126074D01*
X136273947Y-100147309D01*
X136275000Y-100168750D01*
X136275000Y-100606250D01*
X136273947Y-100627691D01*
X136270797Y-100648926D01*
X136265581Y-100669750D01*
X136258349Y-100689962D01*
X136249170Y-100709368D01*
X136238134Y-100727781D01*
X136225346Y-100745024D01*
X136210930Y-100760930D01*
X136195024Y-100775346D01*
X136177781Y-100788134D01*
X136159368Y-100799170D01*
X136139962Y-100808349D01*
X136119750Y-100815581D01*
X136098926Y-100820797D01*
X136077691Y-100823947D01*
X136056250Y-100825000D01*
X135543750Y-100825000D01*
X135522309Y-100823947D01*
X135501074Y-100820797D01*
X135480250Y-100815581D01*
X135460038Y-100808349D01*
X135440632Y-100799170D01*
X135422219Y-100788134D01*
X135404976Y-100775346D01*
X135389070Y-100760930D01*
X135374654Y-100745024D01*
X135361866Y-100727781D01*
X135350830Y-100709368D01*
X135341651Y-100689962D01*
X135334419Y-100669750D01*
X135329203Y-100648926D01*
X135326053Y-100627691D01*
X135325000Y-100606250D01*
X135325000Y-100168750D01*
X135326053Y-100147309D01*
X135329203Y-100126074D01*
X135334419Y-100105250D01*
X135341651Y-100085038D01*
X135350830Y-100065632D01*
X135361866Y-100047219D01*
X135374654Y-100029976D01*
X135389070Y-100014070D01*
X135404976Y-99999654D01*
X135422219Y-99986866D01*
X135440632Y-99975830D01*
X135460038Y-99966651D01*
X135480250Y-99959419D01*
X135501074Y-99954203D01*
X135522309Y-99951053D01*
X135543750Y-99950000D01*
X136056250Y-99950000D01*
X136077691Y-99951053D01*
X136077691Y-99951053D01*
G37*
D11*
X135800000Y-100387500D03*
D10*
G36*
X136077691Y-98376053D02*
G01*
X136098926Y-98379203D01*
X136119750Y-98384419D01*
X136139962Y-98391651D01*
X136159368Y-98400830D01*
X136177781Y-98411866D01*
X136195024Y-98424654D01*
X136210930Y-98439070D01*
X136225346Y-98454976D01*
X136238134Y-98472219D01*
X136249170Y-98490632D01*
X136258349Y-98510038D01*
X136265581Y-98530250D01*
X136270797Y-98551074D01*
X136273947Y-98572309D01*
X136275000Y-98593750D01*
X136275000Y-99031250D01*
X136273947Y-99052691D01*
X136270797Y-99073926D01*
X136265581Y-99094750D01*
X136258349Y-99114962D01*
X136249170Y-99134368D01*
X136238134Y-99152781D01*
X136225346Y-99170024D01*
X136210930Y-99185930D01*
X136195024Y-99200346D01*
X136177781Y-99213134D01*
X136159368Y-99224170D01*
X136139962Y-99233349D01*
X136119750Y-99240581D01*
X136098926Y-99245797D01*
X136077691Y-99248947D01*
X136056250Y-99250000D01*
X135543750Y-99250000D01*
X135522309Y-99248947D01*
X135501074Y-99245797D01*
X135480250Y-99240581D01*
X135460038Y-99233349D01*
X135440632Y-99224170D01*
X135422219Y-99213134D01*
X135404976Y-99200346D01*
X135389070Y-99185930D01*
X135374654Y-99170024D01*
X135361866Y-99152781D01*
X135350830Y-99134368D01*
X135341651Y-99114962D01*
X135334419Y-99094750D01*
X135329203Y-99073926D01*
X135326053Y-99052691D01*
X135325000Y-99031250D01*
X135325000Y-98593750D01*
X135326053Y-98572309D01*
X135329203Y-98551074D01*
X135334419Y-98530250D01*
X135341651Y-98510038D01*
X135350830Y-98490632D01*
X135361866Y-98472219D01*
X135374654Y-98454976D01*
X135389070Y-98439070D01*
X135404976Y-98424654D01*
X135422219Y-98411866D01*
X135440632Y-98400830D01*
X135460038Y-98391651D01*
X135480250Y-98384419D01*
X135501074Y-98379203D01*
X135522309Y-98376053D01*
X135543750Y-98375000D01*
X136056250Y-98375000D01*
X136077691Y-98376053D01*
X136077691Y-98376053D01*
G37*
D11*
X135800000Y-98812500D03*
D10*
G36*
X137777691Y-99951053D02*
G01*
X137798926Y-99954203D01*
X137819750Y-99959419D01*
X137839962Y-99966651D01*
X137859368Y-99975830D01*
X137877781Y-99986866D01*
X137895024Y-99999654D01*
X137910930Y-100014070D01*
X137925346Y-100029976D01*
X137938134Y-100047219D01*
X137949170Y-100065632D01*
X137958349Y-100085038D01*
X137965581Y-100105250D01*
X137970797Y-100126074D01*
X137973947Y-100147309D01*
X137975000Y-100168750D01*
X137975000Y-100606250D01*
X137973947Y-100627691D01*
X137970797Y-100648926D01*
X137965581Y-100669750D01*
X137958349Y-100689962D01*
X137949170Y-100709368D01*
X137938134Y-100727781D01*
X137925346Y-100745024D01*
X137910930Y-100760930D01*
X137895024Y-100775346D01*
X137877781Y-100788134D01*
X137859368Y-100799170D01*
X137839962Y-100808349D01*
X137819750Y-100815581D01*
X137798926Y-100820797D01*
X137777691Y-100823947D01*
X137756250Y-100825000D01*
X137243750Y-100825000D01*
X137222309Y-100823947D01*
X137201074Y-100820797D01*
X137180250Y-100815581D01*
X137160038Y-100808349D01*
X137140632Y-100799170D01*
X137122219Y-100788134D01*
X137104976Y-100775346D01*
X137089070Y-100760930D01*
X137074654Y-100745024D01*
X137061866Y-100727781D01*
X137050830Y-100709368D01*
X137041651Y-100689962D01*
X137034419Y-100669750D01*
X137029203Y-100648926D01*
X137026053Y-100627691D01*
X137025000Y-100606250D01*
X137025000Y-100168750D01*
X137026053Y-100147309D01*
X137029203Y-100126074D01*
X137034419Y-100105250D01*
X137041651Y-100085038D01*
X137050830Y-100065632D01*
X137061866Y-100047219D01*
X137074654Y-100029976D01*
X137089070Y-100014070D01*
X137104976Y-99999654D01*
X137122219Y-99986866D01*
X137140632Y-99975830D01*
X137160038Y-99966651D01*
X137180250Y-99959419D01*
X137201074Y-99954203D01*
X137222309Y-99951053D01*
X137243750Y-99950000D01*
X137756250Y-99950000D01*
X137777691Y-99951053D01*
X137777691Y-99951053D01*
G37*
D11*
X137500000Y-100387500D03*
D10*
G36*
X137777691Y-98376053D02*
G01*
X137798926Y-98379203D01*
X137819750Y-98384419D01*
X137839962Y-98391651D01*
X137859368Y-98400830D01*
X137877781Y-98411866D01*
X137895024Y-98424654D01*
X137910930Y-98439070D01*
X137925346Y-98454976D01*
X137938134Y-98472219D01*
X137949170Y-98490632D01*
X137958349Y-98510038D01*
X137965581Y-98530250D01*
X137970797Y-98551074D01*
X137973947Y-98572309D01*
X137975000Y-98593750D01*
X137975000Y-99031250D01*
X137973947Y-99052691D01*
X137970797Y-99073926D01*
X137965581Y-99094750D01*
X137958349Y-99114962D01*
X137949170Y-99134368D01*
X137938134Y-99152781D01*
X137925346Y-99170024D01*
X137910930Y-99185930D01*
X137895024Y-99200346D01*
X137877781Y-99213134D01*
X137859368Y-99224170D01*
X137839962Y-99233349D01*
X137819750Y-99240581D01*
X137798926Y-99245797D01*
X137777691Y-99248947D01*
X137756250Y-99250000D01*
X137243750Y-99250000D01*
X137222309Y-99248947D01*
X137201074Y-99245797D01*
X137180250Y-99240581D01*
X137160038Y-99233349D01*
X137140632Y-99224170D01*
X137122219Y-99213134D01*
X137104976Y-99200346D01*
X137089070Y-99185930D01*
X137074654Y-99170024D01*
X137061866Y-99152781D01*
X137050830Y-99134368D01*
X137041651Y-99114962D01*
X137034419Y-99094750D01*
X137029203Y-99073926D01*
X137026053Y-99052691D01*
X137025000Y-99031250D01*
X137025000Y-98593750D01*
X137026053Y-98572309D01*
X137029203Y-98551074D01*
X137034419Y-98530250D01*
X137041651Y-98510038D01*
X137050830Y-98490632D01*
X137061866Y-98472219D01*
X137074654Y-98454976D01*
X137089070Y-98439070D01*
X137104976Y-98424654D01*
X137122219Y-98411866D01*
X137140632Y-98400830D01*
X137160038Y-98391651D01*
X137180250Y-98384419D01*
X137201074Y-98379203D01*
X137222309Y-98376053D01*
X137243750Y-98375000D01*
X137756250Y-98375000D01*
X137777691Y-98376053D01*
X137777691Y-98376053D01*
G37*
D11*
X137500000Y-98812500D03*
D12*
X128150000Y-99130000D03*
X128150000Y-101670000D03*
X133650000Y-101670000D03*
X133650000Y-99130000D03*
D10*
G36*
X110477691Y-62551053D02*
G01*
X110498926Y-62554203D01*
X110519750Y-62559419D01*
X110539962Y-62566651D01*
X110559368Y-62575830D01*
X110577781Y-62586866D01*
X110595024Y-62599654D01*
X110610930Y-62614070D01*
X110625346Y-62629976D01*
X110638134Y-62647219D01*
X110649170Y-62665632D01*
X110658349Y-62685038D01*
X110665581Y-62705250D01*
X110670797Y-62726074D01*
X110673947Y-62747309D01*
X110675000Y-62768750D01*
X110675000Y-63206250D01*
X110673947Y-63227691D01*
X110670797Y-63248926D01*
X110665581Y-63269750D01*
X110658349Y-63289962D01*
X110649170Y-63309368D01*
X110638134Y-63327781D01*
X110625346Y-63345024D01*
X110610930Y-63360930D01*
X110595024Y-63375346D01*
X110577781Y-63388134D01*
X110559368Y-63399170D01*
X110539962Y-63408349D01*
X110519750Y-63415581D01*
X110498926Y-63420797D01*
X110477691Y-63423947D01*
X110456250Y-63425000D01*
X109943750Y-63425000D01*
X109922309Y-63423947D01*
X109901074Y-63420797D01*
X109880250Y-63415581D01*
X109860038Y-63408349D01*
X109840632Y-63399170D01*
X109822219Y-63388134D01*
X109804976Y-63375346D01*
X109789070Y-63360930D01*
X109774654Y-63345024D01*
X109761866Y-63327781D01*
X109750830Y-63309368D01*
X109741651Y-63289962D01*
X109734419Y-63269750D01*
X109729203Y-63248926D01*
X109726053Y-63227691D01*
X109725000Y-63206250D01*
X109725000Y-62768750D01*
X109726053Y-62747309D01*
X109729203Y-62726074D01*
X109734419Y-62705250D01*
X109741651Y-62685038D01*
X109750830Y-62665632D01*
X109761866Y-62647219D01*
X109774654Y-62629976D01*
X109789070Y-62614070D01*
X109804976Y-62599654D01*
X109822219Y-62586866D01*
X109840632Y-62575830D01*
X109860038Y-62566651D01*
X109880250Y-62559419D01*
X109901074Y-62554203D01*
X109922309Y-62551053D01*
X109943750Y-62550000D01*
X110456250Y-62550000D01*
X110477691Y-62551053D01*
X110477691Y-62551053D01*
G37*
D11*
X110200000Y-62987500D03*
D10*
G36*
X110477691Y-60976053D02*
G01*
X110498926Y-60979203D01*
X110519750Y-60984419D01*
X110539962Y-60991651D01*
X110559368Y-61000830D01*
X110577781Y-61011866D01*
X110595024Y-61024654D01*
X110610930Y-61039070D01*
X110625346Y-61054976D01*
X110638134Y-61072219D01*
X110649170Y-61090632D01*
X110658349Y-61110038D01*
X110665581Y-61130250D01*
X110670797Y-61151074D01*
X110673947Y-61172309D01*
X110675000Y-61193750D01*
X110675000Y-61631250D01*
X110673947Y-61652691D01*
X110670797Y-61673926D01*
X110665581Y-61694750D01*
X110658349Y-61714962D01*
X110649170Y-61734368D01*
X110638134Y-61752781D01*
X110625346Y-61770024D01*
X110610930Y-61785930D01*
X110595024Y-61800346D01*
X110577781Y-61813134D01*
X110559368Y-61824170D01*
X110539962Y-61833349D01*
X110519750Y-61840581D01*
X110498926Y-61845797D01*
X110477691Y-61848947D01*
X110456250Y-61850000D01*
X109943750Y-61850000D01*
X109922309Y-61848947D01*
X109901074Y-61845797D01*
X109880250Y-61840581D01*
X109860038Y-61833349D01*
X109840632Y-61824170D01*
X109822219Y-61813134D01*
X109804976Y-61800346D01*
X109789070Y-61785930D01*
X109774654Y-61770024D01*
X109761866Y-61752781D01*
X109750830Y-61734368D01*
X109741651Y-61714962D01*
X109734419Y-61694750D01*
X109729203Y-61673926D01*
X109726053Y-61652691D01*
X109725000Y-61631250D01*
X109725000Y-61193750D01*
X109726053Y-61172309D01*
X109729203Y-61151074D01*
X109734419Y-61130250D01*
X109741651Y-61110038D01*
X109750830Y-61090632D01*
X109761866Y-61072219D01*
X109774654Y-61054976D01*
X109789070Y-61039070D01*
X109804976Y-61024654D01*
X109822219Y-61011866D01*
X109840632Y-61000830D01*
X109860038Y-60991651D01*
X109880250Y-60984419D01*
X109901074Y-60979203D01*
X109922309Y-60976053D01*
X109943750Y-60975000D01*
X110456250Y-60975000D01*
X110477691Y-60976053D01*
X110477691Y-60976053D01*
G37*
D11*
X110200000Y-61412500D03*
D13*
X114400000Y-62950000D03*
X114400000Y-62000000D03*
X114400000Y-61050000D03*
X112200000Y-61050000D03*
X112200000Y-62950000D03*
M02*
