G04 #@! TF.GenerationSoftware,KiCad,Pcbnew,(5.1.4)-1*
G04 #@! TF.CreationDate,2020-08-17T08:15:49+02:00*
G04 #@! TF.ProjectId,proto,70726f74-6f2e-46b6-9963-61645f706362,rev?*
G04 #@! TF.SameCoordinates,Original*
G04 #@! TF.FileFunction,Soldermask,Top*
G04 #@! TF.FilePolarity,Negative*
%FSLAX46Y46*%
G04 Gerber Fmt 4.6, Leading zero omitted, Abs format (unit mm)*
G04 Created by KiCad (PCBNEW (5.1.4)-1) date 2020-08-17 08:15:49*
%MOMM*%
%LPD*%
G04 APERTURE LIST*
%ADD10C,0.100000*%
G04 APERTURE END LIST*
D10*
G36*
X151425331Y-117368211D02*
G01*
X151753092Y-117503974D01*
X152048070Y-117701072D01*
X152298928Y-117951930D01*
X152496026Y-118246908D01*
X152631789Y-118574669D01*
X152701000Y-118922616D01*
X152701000Y-119277384D01*
X152631789Y-119625331D01*
X152496026Y-119953092D01*
X152298928Y-120248070D01*
X152048070Y-120498928D01*
X151753092Y-120696026D01*
X151425331Y-120831789D01*
X151077384Y-120901000D01*
X150722616Y-120901000D01*
X150374669Y-120831789D01*
X150046908Y-120696026D01*
X149751930Y-120498928D01*
X149501072Y-120248070D01*
X149303974Y-119953092D01*
X149168211Y-119625331D01*
X149099000Y-119277384D01*
X149099000Y-118922616D01*
X149168211Y-118574669D01*
X149303974Y-118246908D01*
X149501072Y-117951930D01*
X149751930Y-117701072D01*
X150046908Y-117503974D01*
X150374669Y-117368211D01*
X150722616Y-117299000D01*
X151077384Y-117299000D01*
X151425331Y-117368211D01*
X151425331Y-117368211D01*
G37*
G36*
X123525331Y-117368211D02*
G01*
X123853092Y-117503974D01*
X124148070Y-117701072D01*
X124398928Y-117951930D01*
X124596026Y-118246908D01*
X124731789Y-118574669D01*
X124801000Y-118922616D01*
X124801000Y-119277384D01*
X124731789Y-119625331D01*
X124596026Y-119953092D01*
X124398928Y-120248070D01*
X124148070Y-120498928D01*
X123853092Y-120696026D01*
X123525331Y-120831789D01*
X123177384Y-120901000D01*
X122822616Y-120901000D01*
X122474669Y-120831789D01*
X122146908Y-120696026D01*
X121851930Y-120498928D01*
X121601072Y-120248070D01*
X121403974Y-119953092D01*
X121268211Y-119625331D01*
X121199000Y-119277384D01*
X121199000Y-118922616D01*
X121268211Y-118574669D01*
X121403974Y-118246908D01*
X121601072Y-117951930D01*
X121851930Y-117701072D01*
X122146908Y-117503974D01*
X122474669Y-117368211D01*
X122822616Y-117299000D01*
X123177384Y-117299000D01*
X123525331Y-117368211D01*
X123525331Y-117368211D01*
G37*
G36*
X107710442Y-112205518D02*
G01*
X107776627Y-112212037D01*
X107946466Y-112263557D01*
X108102991Y-112347222D01*
X108138729Y-112376552D01*
X108240186Y-112459814D01*
X108323448Y-112561271D01*
X108352778Y-112597009D01*
X108436443Y-112753534D01*
X108487963Y-112923373D01*
X108505359Y-113100000D01*
X108487963Y-113276627D01*
X108436443Y-113446466D01*
X108352778Y-113602991D01*
X108323448Y-113638729D01*
X108240186Y-113740186D01*
X108138729Y-113823448D01*
X108102991Y-113852778D01*
X107946466Y-113936443D01*
X107776627Y-113987963D01*
X107710443Y-113994481D01*
X107644260Y-114001000D01*
X107555740Y-114001000D01*
X107489557Y-113994481D01*
X107423373Y-113987963D01*
X107253534Y-113936443D01*
X107097009Y-113852778D01*
X107061271Y-113823448D01*
X106959814Y-113740186D01*
X106876552Y-113638729D01*
X106847222Y-113602991D01*
X106763557Y-113446466D01*
X106712037Y-113276627D01*
X106694641Y-113100000D01*
X106712037Y-112923373D01*
X106763557Y-112753534D01*
X106847222Y-112597009D01*
X106876552Y-112561271D01*
X106959814Y-112459814D01*
X107061271Y-112376552D01*
X107097009Y-112347222D01*
X107253534Y-112263557D01*
X107423373Y-112212037D01*
X107489558Y-112205518D01*
X107555740Y-112199000D01*
X107644260Y-112199000D01*
X107710442Y-112205518D01*
X107710442Y-112205518D01*
G37*
G36*
X156901000Y-113901000D02*
G01*
X155099000Y-113901000D01*
X155099000Y-112099000D01*
X156901000Y-112099000D01*
X156901000Y-113901000D01*
X156901000Y-113901000D01*
G37*
G36*
X107710442Y-109665518D02*
G01*
X107776627Y-109672037D01*
X107946466Y-109723557D01*
X108102991Y-109807222D01*
X108138729Y-109836552D01*
X108240186Y-109919814D01*
X108323448Y-110021271D01*
X108352778Y-110057009D01*
X108436443Y-110213534D01*
X108487963Y-110383373D01*
X108505359Y-110560000D01*
X108487963Y-110736627D01*
X108436443Y-110906466D01*
X108352778Y-111062991D01*
X108323448Y-111098729D01*
X108240186Y-111200186D01*
X108138729Y-111283448D01*
X108102991Y-111312778D01*
X107946466Y-111396443D01*
X107776627Y-111447963D01*
X107710443Y-111454481D01*
X107644260Y-111461000D01*
X107555740Y-111461000D01*
X107489557Y-111454481D01*
X107423373Y-111447963D01*
X107253534Y-111396443D01*
X107097009Y-111312778D01*
X107061271Y-111283448D01*
X106959814Y-111200186D01*
X106876552Y-111098729D01*
X106847222Y-111062991D01*
X106763557Y-110906466D01*
X106712037Y-110736627D01*
X106694641Y-110560000D01*
X106712037Y-110383373D01*
X106763557Y-110213534D01*
X106847222Y-110057009D01*
X106876552Y-110021271D01*
X106959814Y-109919814D01*
X107061271Y-109836552D01*
X107097009Y-109807222D01*
X107253534Y-109723557D01*
X107423373Y-109672037D01*
X107489558Y-109665518D01*
X107555740Y-109659000D01*
X107644260Y-109659000D01*
X107710442Y-109665518D01*
X107710442Y-109665518D01*
G37*
G36*
X156110442Y-109565518D02*
G01*
X156176627Y-109572037D01*
X156346466Y-109623557D01*
X156502991Y-109707222D01*
X156522895Y-109723557D01*
X156640186Y-109819814D01*
X156722253Y-109919814D01*
X156752778Y-109957009D01*
X156836443Y-110113534D01*
X156887963Y-110283373D01*
X156905359Y-110460000D01*
X156887963Y-110636627D01*
X156836443Y-110806466D01*
X156752778Y-110962991D01*
X156723448Y-110998729D01*
X156640186Y-111100186D01*
X156538729Y-111183448D01*
X156502991Y-111212778D01*
X156346466Y-111296443D01*
X156176627Y-111347963D01*
X156110442Y-111354482D01*
X156044260Y-111361000D01*
X155955740Y-111361000D01*
X155889558Y-111354482D01*
X155823373Y-111347963D01*
X155653534Y-111296443D01*
X155497009Y-111212778D01*
X155461271Y-111183448D01*
X155359814Y-111100186D01*
X155276552Y-110998729D01*
X155247222Y-110962991D01*
X155163557Y-110806466D01*
X155112037Y-110636627D01*
X155094641Y-110460000D01*
X155112037Y-110283373D01*
X155163557Y-110113534D01*
X155247222Y-109957009D01*
X155277747Y-109919814D01*
X155359814Y-109819814D01*
X155477105Y-109723557D01*
X155497009Y-109707222D01*
X155653534Y-109623557D01*
X155823373Y-109572037D01*
X155889558Y-109565518D01*
X155955740Y-109559000D01*
X156044260Y-109559000D01*
X156110442Y-109565518D01*
X156110442Y-109565518D01*
G37*
G36*
X107710442Y-107125518D02*
G01*
X107776627Y-107132037D01*
X107946466Y-107183557D01*
X108102991Y-107267222D01*
X108138729Y-107296552D01*
X108240186Y-107379814D01*
X108323448Y-107481271D01*
X108352778Y-107517009D01*
X108436443Y-107673534D01*
X108487963Y-107843373D01*
X108505359Y-108020000D01*
X108487963Y-108196627D01*
X108436443Y-108366466D01*
X108352778Y-108522991D01*
X108323448Y-108558729D01*
X108240186Y-108660186D01*
X108138729Y-108743448D01*
X108102991Y-108772778D01*
X107946466Y-108856443D01*
X107776627Y-108907963D01*
X107710442Y-108914482D01*
X107644260Y-108921000D01*
X107555740Y-108921000D01*
X107489558Y-108914482D01*
X107423373Y-108907963D01*
X107253534Y-108856443D01*
X107097009Y-108772778D01*
X107061271Y-108743448D01*
X106959814Y-108660186D01*
X106876552Y-108558729D01*
X106847222Y-108522991D01*
X106763557Y-108366466D01*
X106712037Y-108196627D01*
X106694641Y-108020000D01*
X106712037Y-107843373D01*
X106763557Y-107673534D01*
X106847222Y-107517009D01*
X106876552Y-107481271D01*
X106959814Y-107379814D01*
X107061271Y-107296552D01*
X107097009Y-107267222D01*
X107253534Y-107183557D01*
X107423373Y-107132037D01*
X107489558Y-107125518D01*
X107555740Y-107119000D01*
X107644260Y-107119000D01*
X107710442Y-107125518D01*
X107710442Y-107125518D01*
G37*
G36*
X156110443Y-107025519D02*
G01*
X156176627Y-107032037D01*
X156346466Y-107083557D01*
X156502991Y-107167222D01*
X156522895Y-107183557D01*
X156640186Y-107279814D01*
X156722253Y-107379814D01*
X156752778Y-107417009D01*
X156836443Y-107573534D01*
X156887963Y-107743373D01*
X156905359Y-107920000D01*
X156887963Y-108096627D01*
X156836443Y-108266466D01*
X156752778Y-108422991D01*
X156723448Y-108458729D01*
X156640186Y-108560186D01*
X156538729Y-108643448D01*
X156502991Y-108672778D01*
X156346466Y-108756443D01*
X156176627Y-108807963D01*
X156110442Y-108814482D01*
X156044260Y-108821000D01*
X155955740Y-108821000D01*
X155889558Y-108814482D01*
X155823373Y-108807963D01*
X155653534Y-108756443D01*
X155497009Y-108672778D01*
X155461271Y-108643448D01*
X155359814Y-108560186D01*
X155276552Y-108458729D01*
X155247222Y-108422991D01*
X155163557Y-108266466D01*
X155112037Y-108096627D01*
X155094641Y-107920000D01*
X155112037Y-107743373D01*
X155163557Y-107573534D01*
X155247222Y-107417009D01*
X155277747Y-107379814D01*
X155359814Y-107279814D01*
X155477105Y-107183557D01*
X155497009Y-107167222D01*
X155653534Y-107083557D01*
X155823373Y-107032037D01*
X155889557Y-107025519D01*
X155955740Y-107019000D01*
X156044260Y-107019000D01*
X156110443Y-107025519D01*
X156110443Y-107025519D01*
G37*
G36*
X107710443Y-104585519D02*
G01*
X107776627Y-104592037D01*
X107946466Y-104643557D01*
X108102991Y-104727222D01*
X108138729Y-104756552D01*
X108240186Y-104839814D01*
X108323448Y-104941271D01*
X108352778Y-104977009D01*
X108436443Y-105133534D01*
X108487963Y-105303373D01*
X108505359Y-105480000D01*
X108487963Y-105656627D01*
X108436443Y-105826466D01*
X108352778Y-105982991D01*
X108323448Y-106018729D01*
X108240186Y-106120186D01*
X108138729Y-106203448D01*
X108102991Y-106232778D01*
X107946466Y-106316443D01*
X107776627Y-106367963D01*
X107710442Y-106374482D01*
X107644260Y-106381000D01*
X107555740Y-106381000D01*
X107489558Y-106374482D01*
X107423373Y-106367963D01*
X107253534Y-106316443D01*
X107097009Y-106232778D01*
X107061271Y-106203448D01*
X106959814Y-106120186D01*
X106876552Y-106018729D01*
X106847222Y-105982991D01*
X106763557Y-105826466D01*
X106712037Y-105656627D01*
X106694641Y-105480000D01*
X106712037Y-105303373D01*
X106763557Y-105133534D01*
X106847222Y-104977009D01*
X106876552Y-104941271D01*
X106959814Y-104839814D01*
X107061271Y-104756552D01*
X107097009Y-104727222D01*
X107253534Y-104643557D01*
X107423373Y-104592037D01*
X107489557Y-104585519D01*
X107555740Y-104579000D01*
X107644260Y-104579000D01*
X107710443Y-104585519D01*
X107710443Y-104585519D01*
G37*
G36*
X156110443Y-104485519D02*
G01*
X156176627Y-104492037D01*
X156346466Y-104543557D01*
X156502991Y-104627222D01*
X156522895Y-104643557D01*
X156640186Y-104739814D01*
X156722253Y-104839814D01*
X156752778Y-104877009D01*
X156836443Y-105033534D01*
X156887963Y-105203373D01*
X156905359Y-105380000D01*
X156887963Y-105556627D01*
X156836443Y-105726466D01*
X156752778Y-105882991D01*
X156723448Y-105918729D01*
X156640186Y-106020186D01*
X156538729Y-106103448D01*
X156502991Y-106132778D01*
X156346466Y-106216443D01*
X156176627Y-106267963D01*
X156110442Y-106274482D01*
X156044260Y-106281000D01*
X155955740Y-106281000D01*
X155889558Y-106274482D01*
X155823373Y-106267963D01*
X155653534Y-106216443D01*
X155497009Y-106132778D01*
X155461271Y-106103448D01*
X155359814Y-106020186D01*
X155276552Y-105918729D01*
X155247222Y-105882991D01*
X155163557Y-105726466D01*
X155112037Y-105556627D01*
X155094641Y-105380000D01*
X155112037Y-105203373D01*
X155163557Y-105033534D01*
X155247222Y-104877009D01*
X155277747Y-104839814D01*
X155359814Y-104739814D01*
X155477105Y-104643557D01*
X155497009Y-104627222D01*
X155653534Y-104543557D01*
X155823373Y-104492037D01*
X155889557Y-104485519D01*
X155955740Y-104479000D01*
X156044260Y-104479000D01*
X156110443Y-104485519D01*
X156110443Y-104485519D01*
G37*
G36*
X107710443Y-102045519D02*
G01*
X107776627Y-102052037D01*
X107946466Y-102103557D01*
X107946468Y-102103558D01*
X108024729Y-102145390D01*
X108102991Y-102187222D01*
X108138729Y-102216552D01*
X108240186Y-102299814D01*
X108323448Y-102401271D01*
X108352778Y-102437009D01*
X108436443Y-102593534D01*
X108487963Y-102763373D01*
X108505359Y-102940000D01*
X108487963Y-103116627D01*
X108436443Y-103286466D01*
X108352778Y-103442991D01*
X108323448Y-103478729D01*
X108240186Y-103580186D01*
X108138729Y-103663448D01*
X108102991Y-103692778D01*
X107946466Y-103776443D01*
X107776627Y-103827963D01*
X107710443Y-103834481D01*
X107644260Y-103841000D01*
X107555740Y-103841000D01*
X107489558Y-103834482D01*
X107423373Y-103827963D01*
X107253534Y-103776443D01*
X107097009Y-103692778D01*
X107061271Y-103663448D01*
X106959814Y-103580186D01*
X106876552Y-103478729D01*
X106847222Y-103442991D01*
X106763557Y-103286466D01*
X106712037Y-103116627D01*
X106694641Y-102940000D01*
X106712037Y-102763373D01*
X106763557Y-102593534D01*
X106847222Y-102437009D01*
X106876552Y-102401271D01*
X106959814Y-102299814D01*
X107061271Y-102216552D01*
X107097009Y-102187222D01*
X107175272Y-102145389D01*
X107253532Y-102103558D01*
X107253534Y-102103557D01*
X107423373Y-102052037D01*
X107489558Y-102045518D01*
X107555740Y-102039000D01*
X107644260Y-102039000D01*
X107710443Y-102045519D01*
X107710443Y-102045519D01*
G37*
G36*
X156110443Y-101945519D02*
G01*
X156176627Y-101952037D01*
X156346466Y-102003557D01*
X156502991Y-102087222D01*
X156522895Y-102103557D01*
X156640186Y-102199814D01*
X156722253Y-102299814D01*
X156752778Y-102337009D01*
X156836443Y-102493534D01*
X156887963Y-102663373D01*
X156905359Y-102840000D01*
X156887963Y-103016627D01*
X156836443Y-103186466D01*
X156752778Y-103342991D01*
X156723448Y-103378729D01*
X156640186Y-103480186D01*
X156538729Y-103563448D01*
X156502991Y-103592778D01*
X156346466Y-103676443D01*
X156176627Y-103727963D01*
X156110442Y-103734482D01*
X156044260Y-103741000D01*
X155955740Y-103741000D01*
X155889557Y-103734481D01*
X155823373Y-103727963D01*
X155653534Y-103676443D01*
X155497009Y-103592778D01*
X155461271Y-103563448D01*
X155359814Y-103480186D01*
X155276552Y-103378729D01*
X155247222Y-103342991D01*
X155163557Y-103186466D01*
X155112037Y-103016627D01*
X155094641Y-102840000D01*
X155112037Y-102663373D01*
X155163557Y-102493534D01*
X155247222Y-102337009D01*
X155277747Y-102299814D01*
X155359814Y-102199814D01*
X155477105Y-102103557D01*
X155497009Y-102087222D01*
X155653534Y-102003557D01*
X155823373Y-101952037D01*
X155889557Y-101945519D01*
X155955740Y-101939000D01*
X156044260Y-101939000D01*
X156110443Y-101945519D01*
X156110443Y-101945519D01*
G37*
G36*
X131754591Y-101878085D02*
G01*
X131788569Y-101888393D01*
X131819890Y-101905134D01*
X131847339Y-101927661D01*
X131869866Y-101955110D01*
X131886607Y-101986431D01*
X131896915Y-102020409D01*
X131901000Y-102061890D01*
X131901000Y-102738110D01*
X131896915Y-102779591D01*
X131886607Y-102813569D01*
X131869866Y-102844890D01*
X131847339Y-102872339D01*
X131819890Y-102894866D01*
X131788569Y-102911607D01*
X131754591Y-102921915D01*
X131713110Y-102926000D01*
X131111890Y-102926000D01*
X131070409Y-102921915D01*
X131036431Y-102911607D01*
X131005110Y-102894866D01*
X130977661Y-102872339D01*
X130955134Y-102844890D01*
X130938393Y-102813569D01*
X130928085Y-102779591D01*
X130924000Y-102738110D01*
X130924000Y-102061890D01*
X130928085Y-102020409D01*
X130938393Y-101986431D01*
X130955134Y-101955110D01*
X130977661Y-101927661D01*
X131005110Y-101905134D01*
X131036431Y-101888393D01*
X131070409Y-101878085D01*
X131111890Y-101874000D01*
X131713110Y-101874000D01*
X131754591Y-101878085D01*
X131754591Y-101878085D01*
G37*
G36*
X133329591Y-101878085D02*
G01*
X133363569Y-101888393D01*
X133394890Y-101905134D01*
X133422339Y-101927661D01*
X133444866Y-101955110D01*
X133461607Y-101986431D01*
X133471915Y-102020409D01*
X133476000Y-102061890D01*
X133476000Y-102738110D01*
X133471915Y-102779591D01*
X133461607Y-102813569D01*
X133444866Y-102844890D01*
X133422339Y-102872339D01*
X133394890Y-102894866D01*
X133363569Y-102911607D01*
X133329591Y-102921915D01*
X133288110Y-102926000D01*
X132686890Y-102926000D01*
X132645409Y-102921915D01*
X132611431Y-102911607D01*
X132580110Y-102894866D01*
X132552661Y-102872339D01*
X132530134Y-102844890D01*
X132513393Y-102813569D01*
X132503085Y-102779591D01*
X132499000Y-102738110D01*
X132499000Y-102061890D01*
X132503085Y-102020409D01*
X132513393Y-101986431D01*
X132530134Y-101955110D01*
X132552661Y-101927661D01*
X132580110Y-101905134D01*
X132611431Y-101888393D01*
X132645409Y-101878085D01*
X132686890Y-101874000D01*
X133288110Y-101874000D01*
X133329591Y-101878085D01*
X133329591Y-101878085D01*
G37*
G36*
X107710443Y-99505519D02*
G01*
X107776627Y-99512037D01*
X107946466Y-99563557D01*
X108102991Y-99647222D01*
X108138729Y-99676552D01*
X108240186Y-99759814D01*
X108323448Y-99861271D01*
X108352778Y-99897009D01*
X108436443Y-100053534D01*
X108487963Y-100223373D01*
X108505359Y-100400000D01*
X108487963Y-100576627D01*
X108436443Y-100746466D01*
X108352778Y-100902991D01*
X108323448Y-100938729D01*
X108240186Y-101040186D01*
X108138729Y-101123448D01*
X108102991Y-101152778D01*
X107946466Y-101236443D01*
X107776627Y-101287963D01*
X107710442Y-101294482D01*
X107644260Y-101301000D01*
X107555740Y-101301000D01*
X107489557Y-101294481D01*
X107423373Y-101287963D01*
X107253534Y-101236443D01*
X107097009Y-101152778D01*
X107061271Y-101123448D01*
X106959814Y-101040186D01*
X106876552Y-100938729D01*
X106847222Y-100902991D01*
X106763557Y-100746466D01*
X106712037Y-100576627D01*
X106694641Y-100400000D01*
X106712037Y-100223373D01*
X106763557Y-100053534D01*
X106847222Y-99897009D01*
X106876552Y-99861271D01*
X106959814Y-99759814D01*
X107061271Y-99676552D01*
X107097009Y-99647222D01*
X107253534Y-99563557D01*
X107423373Y-99512037D01*
X107489558Y-99505518D01*
X107555740Y-99499000D01*
X107644260Y-99499000D01*
X107710443Y-99505519D01*
X107710443Y-99505519D01*
G37*
G36*
X156110442Y-99405518D02*
G01*
X156176627Y-99412037D01*
X156346466Y-99463557D01*
X156502991Y-99547222D01*
X156522895Y-99563557D01*
X156640186Y-99659814D01*
X156722253Y-99759814D01*
X156752778Y-99797009D01*
X156836443Y-99953534D01*
X156887963Y-100123373D01*
X156905359Y-100300000D01*
X156887963Y-100476627D01*
X156836443Y-100646466D01*
X156752778Y-100802991D01*
X156736899Y-100822339D01*
X156640186Y-100940186D01*
X156538729Y-101023448D01*
X156502991Y-101052778D01*
X156346466Y-101136443D01*
X156176627Y-101187963D01*
X156110443Y-101194481D01*
X156044260Y-101201000D01*
X155955740Y-101201000D01*
X155889558Y-101194482D01*
X155823373Y-101187963D01*
X155653534Y-101136443D01*
X155497009Y-101052778D01*
X155461271Y-101023448D01*
X155359814Y-100940186D01*
X155263101Y-100822339D01*
X155247222Y-100802991D01*
X155163557Y-100646466D01*
X155112037Y-100476627D01*
X155094641Y-100300000D01*
X155112037Y-100123373D01*
X155163557Y-99953534D01*
X155247222Y-99797009D01*
X155277747Y-99759814D01*
X155359814Y-99659814D01*
X155477105Y-99563557D01*
X155497009Y-99547222D01*
X155653534Y-99463557D01*
X155823373Y-99412037D01*
X155889557Y-99405519D01*
X155955740Y-99399000D01*
X156044260Y-99399000D01*
X156110442Y-99405518D01*
X156110442Y-99405518D01*
G37*
G36*
X132501000Y-101001000D02*
G01*
X131499000Y-101001000D01*
X131499000Y-100099000D01*
X132501000Y-100099000D01*
X132501000Y-101001000D01*
X132501000Y-101001000D01*
G37*
G36*
X128701000Y-101001000D02*
G01*
X127699000Y-101001000D01*
X127699000Y-100099000D01*
X128701000Y-100099000D01*
X128701000Y-101001000D01*
X128701000Y-101001000D01*
G37*
G36*
X137879591Y-99903085D02*
G01*
X137913569Y-99913393D01*
X137944890Y-99930134D01*
X137972339Y-99952661D01*
X137994866Y-99980110D01*
X138011607Y-100011431D01*
X138021915Y-100045409D01*
X138026000Y-100086890D01*
X138026000Y-100688110D01*
X138021915Y-100729591D01*
X138011607Y-100763569D01*
X137994866Y-100794890D01*
X137972339Y-100822339D01*
X137944890Y-100844866D01*
X137913569Y-100861607D01*
X137879591Y-100871915D01*
X137838110Y-100876000D01*
X137161890Y-100876000D01*
X137120409Y-100871915D01*
X137086431Y-100861607D01*
X137055110Y-100844866D01*
X137027661Y-100822339D01*
X137005134Y-100794890D01*
X136988393Y-100763569D01*
X136978085Y-100729591D01*
X136974000Y-100688110D01*
X136974000Y-100086890D01*
X136978085Y-100045409D01*
X136988393Y-100011431D01*
X137005134Y-99980110D01*
X137027661Y-99952661D01*
X137055110Y-99930134D01*
X137086431Y-99913393D01*
X137120409Y-99903085D01*
X137161890Y-99899000D01*
X137838110Y-99899000D01*
X137879591Y-99903085D01*
X137879591Y-99903085D01*
G37*
G36*
X126779591Y-99903085D02*
G01*
X126813569Y-99913393D01*
X126844890Y-99930134D01*
X126872339Y-99952661D01*
X126894866Y-99980110D01*
X126911607Y-100011431D01*
X126921915Y-100045409D01*
X126926000Y-100086890D01*
X126926000Y-100688110D01*
X126921915Y-100729591D01*
X126911607Y-100763569D01*
X126894866Y-100794890D01*
X126872339Y-100822339D01*
X126844890Y-100844866D01*
X126813569Y-100861607D01*
X126779591Y-100871915D01*
X126738110Y-100876000D01*
X126061890Y-100876000D01*
X126020409Y-100871915D01*
X125986431Y-100861607D01*
X125955110Y-100844866D01*
X125927661Y-100822339D01*
X125905134Y-100794890D01*
X125888393Y-100763569D01*
X125878085Y-100729591D01*
X125874000Y-100688110D01*
X125874000Y-100086890D01*
X125878085Y-100045409D01*
X125888393Y-100011431D01*
X125905134Y-99980110D01*
X125927661Y-99952661D01*
X125955110Y-99930134D01*
X125986431Y-99913393D01*
X126020409Y-99903085D01*
X126061890Y-99899000D01*
X126738110Y-99899000D01*
X126779591Y-99903085D01*
X126779591Y-99903085D01*
G37*
G36*
X136179591Y-99903085D02*
G01*
X136213569Y-99913393D01*
X136244890Y-99930134D01*
X136272339Y-99952661D01*
X136294866Y-99980110D01*
X136311607Y-100011431D01*
X136321915Y-100045409D01*
X136326000Y-100086890D01*
X136326000Y-100688110D01*
X136321915Y-100729591D01*
X136311607Y-100763569D01*
X136294866Y-100794890D01*
X136272339Y-100822339D01*
X136244890Y-100844866D01*
X136213569Y-100861607D01*
X136179591Y-100871915D01*
X136138110Y-100876000D01*
X135461890Y-100876000D01*
X135420409Y-100871915D01*
X135386431Y-100861607D01*
X135355110Y-100844866D01*
X135327661Y-100822339D01*
X135305134Y-100794890D01*
X135288393Y-100763569D01*
X135278085Y-100729591D01*
X135274000Y-100688110D01*
X135274000Y-100086890D01*
X135278085Y-100045409D01*
X135288393Y-100011431D01*
X135305134Y-99980110D01*
X135327661Y-99952661D01*
X135355110Y-99930134D01*
X135386431Y-99913393D01*
X135420409Y-99903085D01*
X135461890Y-99899000D01*
X136138110Y-99899000D01*
X136179591Y-99903085D01*
X136179591Y-99903085D01*
G37*
G36*
X134501000Y-100051000D02*
G01*
X133499000Y-100051000D01*
X133499000Y-99149000D01*
X134501000Y-99149000D01*
X134501000Y-100051000D01*
X134501000Y-100051000D01*
G37*
G36*
X130701000Y-100051000D02*
G01*
X129699000Y-100051000D01*
X129699000Y-99149000D01*
X130701000Y-99149000D01*
X130701000Y-100051000D01*
X130701000Y-100051000D01*
G37*
G36*
X136179591Y-98328085D02*
G01*
X136213569Y-98338393D01*
X136244890Y-98355134D01*
X136272339Y-98377661D01*
X136294866Y-98405110D01*
X136311607Y-98436431D01*
X136321915Y-98470409D01*
X136326000Y-98511890D01*
X136326000Y-99113110D01*
X136321915Y-99154591D01*
X136311607Y-99188569D01*
X136294866Y-99219890D01*
X136272339Y-99247339D01*
X136244890Y-99269866D01*
X136213569Y-99286607D01*
X136179591Y-99296915D01*
X136138110Y-99301000D01*
X135461890Y-99301000D01*
X135420409Y-99296915D01*
X135386431Y-99286607D01*
X135355110Y-99269866D01*
X135327661Y-99247339D01*
X135305134Y-99219890D01*
X135288393Y-99188569D01*
X135278085Y-99154591D01*
X135274000Y-99113110D01*
X135274000Y-98511890D01*
X135278085Y-98470409D01*
X135288393Y-98436431D01*
X135305134Y-98405110D01*
X135327661Y-98377661D01*
X135355110Y-98355134D01*
X135386431Y-98338393D01*
X135420409Y-98328085D01*
X135461890Y-98324000D01*
X136138110Y-98324000D01*
X136179591Y-98328085D01*
X136179591Y-98328085D01*
G37*
G36*
X137879591Y-98328085D02*
G01*
X137913569Y-98338393D01*
X137944890Y-98355134D01*
X137972339Y-98377661D01*
X137994866Y-98405110D01*
X138011607Y-98436431D01*
X138021915Y-98470409D01*
X138026000Y-98511890D01*
X138026000Y-99113110D01*
X138021915Y-99154591D01*
X138011607Y-99188569D01*
X137994866Y-99219890D01*
X137972339Y-99247339D01*
X137944890Y-99269866D01*
X137913569Y-99286607D01*
X137879591Y-99296915D01*
X137838110Y-99301000D01*
X137161890Y-99301000D01*
X137120409Y-99296915D01*
X137086431Y-99286607D01*
X137055110Y-99269866D01*
X137027661Y-99247339D01*
X137005134Y-99219890D01*
X136988393Y-99188569D01*
X136978085Y-99154591D01*
X136974000Y-99113110D01*
X136974000Y-98511890D01*
X136978085Y-98470409D01*
X136988393Y-98436431D01*
X137005134Y-98405110D01*
X137027661Y-98377661D01*
X137055110Y-98355134D01*
X137086431Y-98338393D01*
X137120409Y-98328085D01*
X137161890Y-98324000D01*
X137838110Y-98324000D01*
X137879591Y-98328085D01*
X137879591Y-98328085D01*
G37*
G36*
X126779591Y-98328085D02*
G01*
X126813569Y-98338393D01*
X126844890Y-98355134D01*
X126872339Y-98377661D01*
X126894866Y-98405110D01*
X126911607Y-98436431D01*
X126921915Y-98470409D01*
X126926000Y-98511890D01*
X126926000Y-99113110D01*
X126921915Y-99154591D01*
X126911607Y-99188569D01*
X126894866Y-99219890D01*
X126872339Y-99247339D01*
X126844890Y-99269866D01*
X126813569Y-99286607D01*
X126779591Y-99296915D01*
X126738110Y-99301000D01*
X126061890Y-99301000D01*
X126020409Y-99296915D01*
X125986431Y-99286607D01*
X125955110Y-99269866D01*
X125927661Y-99247339D01*
X125905134Y-99219890D01*
X125888393Y-99188569D01*
X125878085Y-99154591D01*
X125874000Y-99113110D01*
X125874000Y-98511890D01*
X125878085Y-98470409D01*
X125888393Y-98436431D01*
X125905134Y-98405110D01*
X125927661Y-98377661D01*
X125955110Y-98355134D01*
X125986431Y-98338393D01*
X126020409Y-98328085D01*
X126061890Y-98324000D01*
X126738110Y-98324000D01*
X126779591Y-98328085D01*
X126779591Y-98328085D01*
G37*
G36*
X132501000Y-99101000D02*
G01*
X131499000Y-99101000D01*
X131499000Y-98199000D01*
X132501000Y-98199000D01*
X132501000Y-99101000D01*
X132501000Y-99101000D01*
G37*
G36*
X128701000Y-99101000D02*
G01*
X127699000Y-99101000D01*
X127699000Y-98199000D01*
X128701000Y-98199000D01*
X128701000Y-99101000D01*
X128701000Y-99101000D01*
G37*
G36*
X107710442Y-96965518D02*
G01*
X107776627Y-96972037D01*
X107946466Y-97023557D01*
X108102991Y-97107222D01*
X108138729Y-97136552D01*
X108240186Y-97219814D01*
X108323448Y-97321271D01*
X108352778Y-97357009D01*
X108436443Y-97513534D01*
X108487963Y-97683373D01*
X108505359Y-97860000D01*
X108487963Y-98036627D01*
X108436443Y-98206466D01*
X108352778Y-98362991D01*
X108326066Y-98395539D01*
X108240186Y-98500186D01*
X108138729Y-98583448D01*
X108102991Y-98612778D01*
X107946466Y-98696443D01*
X107776627Y-98747963D01*
X107710443Y-98754481D01*
X107644260Y-98761000D01*
X107555740Y-98761000D01*
X107489558Y-98754482D01*
X107423373Y-98747963D01*
X107253534Y-98696443D01*
X107097009Y-98612778D01*
X107061271Y-98583448D01*
X106959814Y-98500186D01*
X106873934Y-98395539D01*
X106847222Y-98362991D01*
X106763557Y-98206466D01*
X106712037Y-98036627D01*
X106694641Y-97860000D01*
X106712037Y-97683373D01*
X106763557Y-97513534D01*
X106847222Y-97357009D01*
X106876552Y-97321271D01*
X106959814Y-97219814D01*
X107061271Y-97136552D01*
X107097009Y-97107222D01*
X107253534Y-97023557D01*
X107423373Y-96972037D01*
X107489557Y-96965519D01*
X107555740Y-96959000D01*
X107644260Y-96959000D01*
X107710442Y-96965518D01*
X107710442Y-96965518D01*
G37*
G36*
X156110443Y-96865519D02*
G01*
X156176627Y-96872037D01*
X156346466Y-96923557D01*
X156502991Y-97007222D01*
X156522895Y-97023557D01*
X156640186Y-97119814D01*
X156722253Y-97219814D01*
X156752778Y-97257009D01*
X156836443Y-97413534D01*
X156887963Y-97583373D01*
X156905359Y-97760000D01*
X156887963Y-97936627D01*
X156836443Y-98106466D01*
X156752778Y-98262991D01*
X156723448Y-98298729D01*
X156640186Y-98400186D01*
X156538729Y-98483448D01*
X156502991Y-98512778D01*
X156346466Y-98596443D01*
X156176627Y-98647963D01*
X156110442Y-98654482D01*
X156044260Y-98661000D01*
X155955740Y-98661000D01*
X155889558Y-98654482D01*
X155823373Y-98647963D01*
X155653534Y-98596443D01*
X155497009Y-98512778D01*
X155461271Y-98483448D01*
X155359814Y-98400186D01*
X155276552Y-98298729D01*
X155247222Y-98262991D01*
X155163557Y-98106466D01*
X155112037Y-97936627D01*
X155094641Y-97760000D01*
X155112037Y-97583373D01*
X155163557Y-97413534D01*
X155247222Y-97257009D01*
X155277747Y-97219814D01*
X155359814Y-97119814D01*
X155477105Y-97023557D01*
X155497009Y-97007222D01*
X155653534Y-96923557D01*
X155823373Y-96872037D01*
X155889558Y-96865518D01*
X155955740Y-96859000D01*
X156044260Y-96859000D01*
X156110443Y-96865519D01*
X156110443Y-96865519D01*
G37*
G36*
X107710443Y-94425519D02*
G01*
X107776627Y-94432037D01*
X107946466Y-94483557D01*
X108102991Y-94567222D01*
X108138729Y-94596552D01*
X108240186Y-94679814D01*
X108323448Y-94781271D01*
X108352778Y-94817009D01*
X108436443Y-94973534D01*
X108487963Y-95143373D01*
X108505359Y-95320000D01*
X108487963Y-95496627D01*
X108436443Y-95666466D01*
X108352778Y-95822991D01*
X108323448Y-95858729D01*
X108240186Y-95960186D01*
X108138729Y-96043448D01*
X108102991Y-96072778D01*
X107946466Y-96156443D01*
X107776627Y-96207963D01*
X107710442Y-96214482D01*
X107644260Y-96221000D01*
X107555740Y-96221000D01*
X107489557Y-96214481D01*
X107423373Y-96207963D01*
X107253534Y-96156443D01*
X107097009Y-96072778D01*
X107061271Y-96043448D01*
X106959814Y-95960186D01*
X106876552Y-95858729D01*
X106847222Y-95822991D01*
X106763557Y-95666466D01*
X106712037Y-95496627D01*
X106694641Y-95320000D01*
X106712037Y-95143373D01*
X106763557Y-94973534D01*
X106847222Y-94817009D01*
X106876552Y-94781271D01*
X106959814Y-94679814D01*
X107061271Y-94596552D01*
X107097009Y-94567222D01*
X107253534Y-94483557D01*
X107423373Y-94432037D01*
X107489557Y-94425519D01*
X107555740Y-94419000D01*
X107644260Y-94419000D01*
X107710443Y-94425519D01*
X107710443Y-94425519D01*
G37*
G36*
X156110442Y-94325518D02*
G01*
X156176627Y-94332037D01*
X156346466Y-94383557D01*
X156502991Y-94467222D01*
X156522895Y-94483557D01*
X156640186Y-94579814D01*
X156703367Y-94656802D01*
X156752778Y-94717009D01*
X156836443Y-94873534D01*
X156887963Y-95043373D01*
X156905359Y-95220000D01*
X156887963Y-95396627D01*
X156836443Y-95566466D01*
X156752778Y-95722991D01*
X156723448Y-95758729D01*
X156640186Y-95860186D01*
X156538729Y-95943448D01*
X156502991Y-95972778D01*
X156346466Y-96056443D01*
X156176627Y-96107963D01*
X156110443Y-96114481D01*
X156044260Y-96121000D01*
X155955740Y-96121000D01*
X155889557Y-96114481D01*
X155823373Y-96107963D01*
X155653534Y-96056443D01*
X155497009Y-95972778D01*
X155461271Y-95943448D01*
X155359814Y-95860186D01*
X155276552Y-95758729D01*
X155247222Y-95722991D01*
X155163557Y-95566466D01*
X155112037Y-95396627D01*
X155094641Y-95220000D01*
X155112037Y-95043373D01*
X155163557Y-94873534D01*
X155247222Y-94717009D01*
X155296633Y-94656802D01*
X155359814Y-94579814D01*
X155477105Y-94483557D01*
X155497009Y-94467222D01*
X155653534Y-94383557D01*
X155823373Y-94332037D01*
X155889558Y-94325518D01*
X155955740Y-94319000D01*
X156044260Y-94319000D01*
X156110442Y-94325518D01*
X156110442Y-94325518D01*
G37*
G36*
X137600810Y-94359135D02*
G01*
X137657707Y-94370452D01*
X137818494Y-94437052D01*
X137818496Y-94437053D01*
X137963196Y-94533738D01*
X138086262Y-94656804D01*
X138182947Y-94801504D01*
X138182948Y-94801506D01*
X138249548Y-94962293D01*
X138251784Y-94973534D01*
X138283500Y-95132981D01*
X138283500Y-95307019D01*
X138249548Y-95477706D01*
X138182947Y-95638496D01*
X138086262Y-95783196D01*
X137963196Y-95906262D01*
X137818496Y-96002947D01*
X137818495Y-96002948D01*
X137818494Y-96002948D01*
X137657707Y-96069548D01*
X137641463Y-96072779D01*
X137487019Y-96103500D01*
X137312981Y-96103500D01*
X137158537Y-96072779D01*
X137142293Y-96069548D01*
X136981506Y-96002948D01*
X136981505Y-96002948D01*
X136981504Y-96002947D01*
X136836804Y-95906262D01*
X136713738Y-95783196D01*
X136617053Y-95638496D01*
X136550452Y-95477706D01*
X136516500Y-95307019D01*
X136516500Y-95132981D01*
X136548216Y-94973534D01*
X136550452Y-94962293D01*
X136617052Y-94801506D01*
X136617053Y-94801504D01*
X136713738Y-94656804D01*
X136836804Y-94533738D01*
X136981504Y-94437053D01*
X136981506Y-94437052D01*
X137142293Y-94370452D01*
X137199190Y-94359135D01*
X137312981Y-94336500D01*
X137487019Y-94336500D01*
X137600810Y-94359135D01*
X137600810Y-94359135D01*
G37*
G36*
X135060810Y-94359135D02*
G01*
X135117707Y-94370452D01*
X135278494Y-94437052D01*
X135278496Y-94437053D01*
X135423196Y-94533738D01*
X135546262Y-94656804D01*
X135642947Y-94801504D01*
X135642948Y-94801506D01*
X135709548Y-94962293D01*
X135711784Y-94973534D01*
X135743500Y-95132981D01*
X135743500Y-95307019D01*
X135709548Y-95477706D01*
X135642947Y-95638496D01*
X135546262Y-95783196D01*
X135423196Y-95906262D01*
X135278496Y-96002947D01*
X135278495Y-96002948D01*
X135278494Y-96002948D01*
X135117707Y-96069548D01*
X135101463Y-96072779D01*
X134947019Y-96103500D01*
X134772981Y-96103500D01*
X134618537Y-96072779D01*
X134602293Y-96069548D01*
X134441506Y-96002948D01*
X134441505Y-96002948D01*
X134441504Y-96002947D01*
X134296804Y-95906262D01*
X134173738Y-95783196D01*
X134077053Y-95638496D01*
X134010452Y-95477706D01*
X133976500Y-95307019D01*
X133976500Y-95132981D01*
X134008216Y-94973534D01*
X134010452Y-94962293D01*
X134077052Y-94801506D01*
X134077053Y-94801504D01*
X134173738Y-94656804D01*
X134296804Y-94533738D01*
X134441504Y-94437053D01*
X134441506Y-94437052D01*
X134602293Y-94370452D01*
X134659190Y-94359135D01*
X134772981Y-94336500D01*
X134947019Y-94336500D01*
X135060810Y-94359135D01*
X135060810Y-94359135D01*
G37*
G36*
X132520810Y-94359135D02*
G01*
X132577707Y-94370452D01*
X132738494Y-94437052D01*
X132738496Y-94437053D01*
X132883196Y-94533738D01*
X133006262Y-94656804D01*
X133102947Y-94801504D01*
X133102948Y-94801506D01*
X133169548Y-94962293D01*
X133171784Y-94973534D01*
X133203500Y-95132981D01*
X133203500Y-95307019D01*
X133169548Y-95477706D01*
X133102947Y-95638496D01*
X133006262Y-95783196D01*
X132883196Y-95906262D01*
X132738496Y-96002947D01*
X132738495Y-96002948D01*
X132738494Y-96002948D01*
X132577707Y-96069548D01*
X132561463Y-96072779D01*
X132407019Y-96103500D01*
X132232981Y-96103500D01*
X132078537Y-96072779D01*
X132062293Y-96069548D01*
X131901506Y-96002948D01*
X131901505Y-96002948D01*
X131901504Y-96002947D01*
X131756804Y-95906262D01*
X131633738Y-95783196D01*
X131537053Y-95638496D01*
X131470452Y-95477706D01*
X131436500Y-95307019D01*
X131436500Y-95132981D01*
X131468216Y-94973534D01*
X131470452Y-94962293D01*
X131537052Y-94801506D01*
X131537053Y-94801504D01*
X131633738Y-94656804D01*
X131756804Y-94533738D01*
X131901504Y-94437053D01*
X131901506Y-94437052D01*
X132062293Y-94370452D01*
X132119190Y-94359135D01*
X132232981Y-94336500D01*
X132407019Y-94336500D01*
X132520810Y-94359135D01*
X132520810Y-94359135D01*
G37*
G36*
X140140810Y-94359135D02*
G01*
X140197707Y-94370452D01*
X140358494Y-94437052D01*
X140358496Y-94437053D01*
X140503196Y-94533738D01*
X140626262Y-94656804D01*
X140722947Y-94801504D01*
X140722948Y-94801506D01*
X140789548Y-94962293D01*
X140791784Y-94973534D01*
X140823500Y-95132981D01*
X140823500Y-95307019D01*
X140789548Y-95477706D01*
X140722947Y-95638496D01*
X140626262Y-95783196D01*
X140503196Y-95906262D01*
X140358496Y-96002947D01*
X140358495Y-96002948D01*
X140358494Y-96002948D01*
X140197707Y-96069548D01*
X140181463Y-96072779D01*
X140027019Y-96103500D01*
X139852981Y-96103500D01*
X139698537Y-96072779D01*
X139682293Y-96069548D01*
X139521506Y-96002948D01*
X139521505Y-96002948D01*
X139521504Y-96002947D01*
X139376804Y-95906262D01*
X139253738Y-95783196D01*
X139157053Y-95638496D01*
X139090452Y-95477706D01*
X139056500Y-95307019D01*
X139056500Y-95132981D01*
X139088216Y-94973534D01*
X139090452Y-94962293D01*
X139157052Y-94801506D01*
X139157053Y-94801504D01*
X139253738Y-94656804D01*
X139376804Y-94533738D01*
X139521504Y-94437053D01*
X139521506Y-94437052D01*
X139682293Y-94370452D01*
X139739190Y-94359135D01*
X139852981Y-94336500D01*
X140027019Y-94336500D01*
X140140810Y-94359135D01*
X140140810Y-94359135D01*
G37*
G36*
X124900810Y-94359135D02*
G01*
X124957707Y-94370452D01*
X125118494Y-94437052D01*
X125118496Y-94437053D01*
X125263196Y-94533738D01*
X125386262Y-94656804D01*
X125482947Y-94801504D01*
X125482948Y-94801506D01*
X125549548Y-94962293D01*
X125551784Y-94973534D01*
X125583500Y-95132981D01*
X125583500Y-95307019D01*
X125549548Y-95477706D01*
X125482947Y-95638496D01*
X125386262Y-95783196D01*
X125263196Y-95906262D01*
X125118496Y-96002947D01*
X125118495Y-96002948D01*
X125118494Y-96002948D01*
X124957707Y-96069548D01*
X124941463Y-96072779D01*
X124787019Y-96103500D01*
X124612981Y-96103500D01*
X124458537Y-96072779D01*
X124442293Y-96069548D01*
X124281506Y-96002948D01*
X124281505Y-96002948D01*
X124281504Y-96002947D01*
X124136804Y-95906262D01*
X124013738Y-95783196D01*
X123917053Y-95638496D01*
X123850452Y-95477706D01*
X123816500Y-95307019D01*
X123816500Y-95132981D01*
X123848216Y-94973534D01*
X123850452Y-94962293D01*
X123917052Y-94801506D01*
X123917053Y-94801504D01*
X124013738Y-94656804D01*
X124136804Y-94533738D01*
X124281504Y-94437053D01*
X124281506Y-94437052D01*
X124442293Y-94370452D01*
X124499190Y-94359135D01*
X124612981Y-94336500D01*
X124787019Y-94336500D01*
X124900810Y-94359135D01*
X124900810Y-94359135D01*
G37*
G36*
X107710443Y-91885519D02*
G01*
X107776627Y-91892037D01*
X107946466Y-91943557D01*
X108102991Y-92027222D01*
X108138729Y-92056552D01*
X108240186Y-92139814D01*
X108323448Y-92241271D01*
X108352778Y-92277009D01*
X108436443Y-92433534D01*
X108487963Y-92603373D01*
X108505359Y-92780000D01*
X108487963Y-92956627D01*
X108436443Y-93126466D01*
X108352778Y-93282991D01*
X108323448Y-93318729D01*
X108240186Y-93420186D01*
X108138729Y-93503448D01*
X108102991Y-93532778D01*
X107946466Y-93616443D01*
X107776627Y-93667963D01*
X107710443Y-93674481D01*
X107644260Y-93681000D01*
X107555740Y-93681000D01*
X107489557Y-93674481D01*
X107423373Y-93667963D01*
X107253534Y-93616443D01*
X107097009Y-93532778D01*
X107061271Y-93503448D01*
X106959814Y-93420186D01*
X106876552Y-93318729D01*
X106847222Y-93282991D01*
X106763557Y-93126466D01*
X106712037Y-92956627D01*
X106694641Y-92780000D01*
X106712037Y-92603373D01*
X106763557Y-92433534D01*
X106847222Y-92277009D01*
X106876552Y-92241271D01*
X106959814Y-92139814D01*
X107061271Y-92056552D01*
X107097009Y-92027222D01*
X107253534Y-91943557D01*
X107423373Y-91892037D01*
X107489557Y-91885519D01*
X107555740Y-91879000D01*
X107644260Y-91879000D01*
X107710443Y-91885519D01*
X107710443Y-91885519D01*
G37*
G36*
X156110443Y-91785519D02*
G01*
X156176627Y-91792037D01*
X156346466Y-91843557D01*
X156502991Y-91927222D01*
X156522895Y-91943557D01*
X156640186Y-92039814D01*
X156703367Y-92116802D01*
X156752778Y-92177009D01*
X156836443Y-92333534D01*
X156887963Y-92503373D01*
X156905359Y-92680000D01*
X156887963Y-92856627D01*
X156836443Y-93026466D01*
X156752778Y-93182991D01*
X156723448Y-93218729D01*
X156640186Y-93320186D01*
X156538729Y-93403448D01*
X156502991Y-93432778D01*
X156346466Y-93516443D01*
X156176627Y-93567963D01*
X156110443Y-93574481D01*
X156044260Y-93581000D01*
X155955740Y-93581000D01*
X155889557Y-93574481D01*
X155823373Y-93567963D01*
X155653534Y-93516443D01*
X155497009Y-93432778D01*
X155461271Y-93403448D01*
X155359814Y-93320186D01*
X155276552Y-93218729D01*
X155247222Y-93182991D01*
X155163557Y-93026466D01*
X155112037Y-92856627D01*
X155094641Y-92680000D01*
X155112037Y-92503373D01*
X155163557Y-92333534D01*
X155247222Y-92177009D01*
X155296633Y-92116802D01*
X155359814Y-92039814D01*
X155477105Y-91943557D01*
X155497009Y-91927222D01*
X155653534Y-91843557D01*
X155823373Y-91792037D01*
X155889558Y-91785518D01*
X155955740Y-91779000D01*
X156044260Y-91779000D01*
X156110443Y-91785519D01*
X156110443Y-91785519D01*
G37*
G36*
X140140810Y-91819135D02*
G01*
X140197707Y-91830452D01*
X140358494Y-91897052D01*
X140358496Y-91897053D01*
X140503196Y-91993738D01*
X140626262Y-92116804D01*
X140722947Y-92261504D01*
X140722948Y-92261506D01*
X140789548Y-92422293D01*
X140791784Y-92433534D01*
X140823500Y-92592981D01*
X140823500Y-92767019D01*
X140789548Y-92937706D01*
X140722947Y-93098496D01*
X140626262Y-93243196D01*
X140503196Y-93366262D01*
X140358496Y-93462947D01*
X140358495Y-93462948D01*
X140358494Y-93462948D01*
X140197707Y-93529548D01*
X140181463Y-93532779D01*
X140027019Y-93563500D01*
X139852981Y-93563500D01*
X139698537Y-93532779D01*
X139682293Y-93529548D01*
X139521506Y-93462948D01*
X139521505Y-93462948D01*
X139521504Y-93462947D01*
X139376804Y-93366262D01*
X139253738Y-93243196D01*
X139157053Y-93098496D01*
X139090452Y-92937706D01*
X139056500Y-92767019D01*
X139056500Y-92592981D01*
X139088216Y-92433534D01*
X139090452Y-92422293D01*
X139157052Y-92261506D01*
X139157053Y-92261504D01*
X139253738Y-92116804D01*
X139376804Y-91993738D01*
X139521504Y-91897053D01*
X139521506Y-91897052D01*
X139682293Y-91830452D01*
X139739190Y-91819135D01*
X139852981Y-91796500D01*
X140027019Y-91796500D01*
X140140810Y-91819135D01*
X140140810Y-91819135D01*
G37*
G36*
X124900810Y-91819135D02*
G01*
X124957707Y-91830452D01*
X125118494Y-91897052D01*
X125118496Y-91897053D01*
X125263196Y-91993738D01*
X125386262Y-92116804D01*
X125482947Y-92261504D01*
X125482948Y-92261506D01*
X125549548Y-92422293D01*
X125551784Y-92433534D01*
X125583500Y-92592981D01*
X125583500Y-92767019D01*
X125549548Y-92937706D01*
X125482947Y-93098496D01*
X125386262Y-93243196D01*
X125263196Y-93366262D01*
X125118496Y-93462947D01*
X125118495Y-93462948D01*
X125118494Y-93462948D01*
X124957707Y-93529548D01*
X124941463Y-93532779D01*
X124787019Y-93563500D01*
X124612981Y-93563500D01*
X124458537Y-93532779D01*
X124442293Y-93529548D01*
X124281506Y-93462948D01*
X124281505Y-93462948D01*
X124281504Y-93462947D01*
X124136804Y-93366262D01*
X124013738Y-93243196D01*
X123917053Y-93098496D01*
X123850452Y-92937706D01*
X123816500Y-92767019D01*
X123816500Y-92592981D01*
X123848216Y-92433534D01*
X123850452Y-92422293D01*
X123917052Y-92261506D01*
X123917053Y-92261504D01*
X124013738Y-92116804D01*
X124136804Y-91993738D01*
X124281504Y-91897053D01*
X124281506Y-91897052D01*
X124442293Y-91830452D01*
X124499190Y-91819135D01*
X124612981Y-91796500D01*
X124787019Y-91796500D01*
X124900810Y-91819135D01*
X124900810Y-91819135D01*
G37*
G36*
X107710443Y-89345519D02*
G01*
X107776627Y-89352037D01*
X107946466Y-89403557D01*
X108102991Y-89487222D01*
X108138729Y-89516552D01*
X108240186Y-89599814D01*
X108323448Y-89701271D01*
X108352778Y-89737009D01*
X108436443Y-89893534D01*
X108487963Y-90063373D01*
X108505359Y-90240000D01*
X108487963Y-90416627D01*
X108436443Y-90586466D01*
X108352778Y-90742991D01*
X108323448Y-90778729D01*
X108240186Y-90880186D01*
X108138729Y-90963448D01*
X108102991Y-90992778D01*
X107946466Y-91076443D01*
X107776627Y-91127963D01*
X107710443Y-91134481D01*
X107644260Y-91141000D01*
X107555740Y-91141000D01*
X107489557Y-91134481D01*
X107423373Y-91127963D01*
X107253534Y-91076443D01*
X107097009Y-90992778D01*
X107061271Y-90963448D01*
X106959814Y-90880186D01*
X106876552Y-90778729D01*
X106847222Y-90742991D01*
X106763557Y-90586466D01*
X106712037Y-90416627D01*
X106694641Y-90240000D01*
X106712037Y-90063373D01*
X106763557Y-89893534D01*
X106847222Y-89737009D01*
X106876552Y-89701271D01*
X106959814Y-89599814D01*
X107061271Y-89516552D01*
X107097009Y-89487222D01*
X107253534Y-89403557D01*
X107423373Y-89352037D01*
X107489557Y-89345519D01*
X107555740Y-89339000D01*
X107644260Y-89339000D01*
X107710443Y-89345519D01*
X107710443Y-89345519D01*
G37*
G36*
X156110442Y-89245518D02*
G01*
X156176627Y-89252037D01*
X156346466Y-89303557D01*
X156502991Y-89387222D01*
X156522895Y-89403557D01*
X156640186Y-89499814D01*
X156703367Y-89576802D01*
X156752778Y-89637009D01*
X156836443Y-89793534D01*
X156887963Y-89963373D01*
X156905359Y-90140000D01*
X156887963Y-90316627D01*
X156836443Y-90486466D01*
X156752778Y-90642991D01*
X156723448Y-90678729D01*
X156640186Y-90780186D01*
X156538729Y-90863448D01*
X156502991Y-90892778D01*
X156346466Y-90976443D01*
X156176627Y-91027963D01*
X156110442Y-91034482D01*
X156044260Y-91041000D01*
X155955740Y-91041000D01*
X155889558Y-91034482D01*
X155823373Y-91027963D01*
X155653534Y-90976443D01*
X155497009Y-90892778D01*
X155461271Y-90863448D01*
X155359814Y-90780186D01*
X155276552Y-90678729D01*
X155247222Y-90642991D01*
X155163557Y-90486466D01*
X155112037Y-90316627D01*
X155094641Y-90140000D01*
X155112037Y-89963373D01*
X155163557Y-89793534D01*
X155247222Y-89637009D01*
X155296633Y-89576802D01*
X155359814Y-89499814D01*
X155477105Y-89403557D01*
X155497009Y-89387222D01*
X155653534Y-89303557D01*
X155823373Y-89252037D01*
X155889558Y-89245518D01*
X155955740Y-89239000D01*
X156044260Y-89239000D01*
X156110442Y-89245518D01*
X156110442Y-89245518D01*
G37*
G36*
X124900810Y-89279135D02*
G01*
X124957707Y-89290452D01*
X125118494Y-89357052D01*
X125118496Y-89357053D01*
X125263196Y-89453738D01*
X125386262Y-89576804D01*
X125482947Y-89721504D01*
X125482948Y-89721506D01*
X125549548Y-89882293D01*
X125551784Y-89893534D01*
X125583500Y-90052981D01*
X125583500Y-90227019D01*
X125549548Y-90397706D01*
X125482947Y-90558496D01*
X125386262Y-90703196D01*
X125263196Y-90826262D01*
X125118496Y-90922947D01*
X125118495Y-90922948D01*
X125118494Y-90922948D01*
X124957707Y-90989548D01*
X124941463Y-90992779D01*
X124787019Y-91023500D01*
X124612981Y-91023500D01*
X124458537Y-90992779D01*
X124442293Y-90989548D01*
X124281506Y-90922948D01*
X124281505Y-90922948D01*
X124281504Y-90922947D01*
X124136804Y-90826262D01*
X124013738Y-90703196D01*
X123917053Y-90558496D01*
X123850452Y-90397706D01*
X123816500Y-90227019D01*
X123816500Y-90052981D01*
X123848216Y-89893534D01*
X123850452Y-89882293D01*
X123917052Y-89721506D01*
X123917053Y-89721504D01*
X124013738Y-89576804D01*
X124136804Y-89453738D01*
X124281504Y-89357053D01*
X124281506Y-89357052D01*
X124442293Y-89290452D01*
X124499190Y-89279135D01*
X124612981Y-89256500D01*
X124787019Y-89256500D01*
X124900810Y-89279135D01*
X124900810Y-89279135D01*
G37*
G36*
X140140810Y-89279135D02*
G01*
X140197707Y-89290452D01*
X140358494Y-89357052D01*
X140358496Y-89357053D01*
X140503196Y-89453738D01*
X140626262Y-89576804D01*
X140722947Y-89721504D01*
X140722948Y-89721506D01*
X140789548Y-89882293D01*
X140791784Y-89893534D01*
X140823500Y-90052981D01*
X140823500Y-90227019D01*
X140789548Y-90397706D01*
X140722947Y-90558496D01*
X140626262Y-90703196D01*
X140503196Y-90826262D01*
X140358496Y-90922947D01*
X140358495Y-90922948D01*
X140358494Y-90922948D01*
X140197707Y-90989548D01*
X140181463Y-90992779D01*
X140027019Y-91023500D01*
X139852981Y-91023500D01*
X139698537Y-90992779D01*
X139682293Y-90989548D01*
X139521506Y-90922948D01*
X139521505Y-90922948D01*
X139521504Y-90922947D01*
X139376804Y-90826262D01*
X139253738Y-90703196D01*
X139157053Y-90558496D01*
X139090452Y-90397706D01*
X139056500Y-90227019D01*
X139056500Y-90052981D01*
X139088216Y-89893534D01*
X139090452Y-89882293D01*
X139157052Y-89721506D01*
X139157053Y-89721504D01*
X139253738Y-89576804D01*
X139376804Y-89453738D01*
X139521504Y-89357053D01*
X139521506Y-89357052D01*
X139682293Y-89290452D01*
X139739190Y-89279135D01*
X139852981Y-89256500D01*
X140027019Y-89256500D01*
X140140810Y-89279135D01*
X140140810Y-89279135D01*
G37*
G36*
X107710442Y-86805518D02*
G01*
X107776627Y-86812037D01*
X107946466Y-86863557D01*
X108102991Y-86947222D01*
X108138729Y-86976552D01*
X108240186Y-87059814D01*
X108323448Y-87161271D01*
X108352778Y-87197009D01*
X108436443Y-87353534D01*
X108487963Y-87523373D01*
X108505359Y-87700000D01*
X108487963Y-87876627D01*
X108436443Y-88046466D01*
X108352778Y-88202991D01*
X108323448Y-88238729D01*
X108240186Y-88340186D01*
X108138729Y-88423448D01*
X108102991Y-88452778D01*
X107946466Y-88536443D01*
X107776627Y-88587963D01*
X107710442Y-88594482D01*
X107644260Y-88601000D01*
X107555740Y-88601000D01*
X107489558Y-88594482D01*
X107423373Y-88587963D01*
X107253534Y-88536443D01*
X107097009Y-88452778D01*
X107061271Y-88423448D01*
X106959814Y-88340186D01*
X106876552Y-88238729D01*
X106847222Y-88202991D01*
X106763557Y-88046466D01*
X106712037Y-87876627D01*
X106694641Y-87700000D01*
X106712037Y-87523373D01*
X106763557Y-87353534D01*
X106847222Y-87197009D01*
X106876552Y-87161271D01*
X106959814Y-87059814D01*
X107061271Y-86976552D01*
X107097009Y-86947222D01*
X107253534Y-86863557D01*
X107423373Y-86812037D01*
X107489558Y-86805518D01*
X107555740Y-86799000D01*
X107644260Y-86799000D01*
X107710442Y-86805518D01*
X107710442Y-86805518D01*
G37*
G36*
X156110443Y-86705519D02*
G01*
X156176627Y-86712037D01*
X156346466Y-86763557D01*
X156502991Y-86847222D01*
X156522895Y-86863557D01*
X156640186Y-86959814D01*
X156703367Y-87036802D01*
X156752778Y-87097009D01*
X156836443Y-87253534D01*
X156887963Y-87423373D01*
X156905359Y-87600000D01*
X156887963Y-87776627D01*
X156836443Y-87946466D01*
X156752778Y-88102991D01*
X156723448Y-88138729D01*
X156640186Y-88240186D01*
X156538729Y-88323448D01*
X156502991Y-88352778D01*
X156346466Y-88436443D01*
X156176627Y-88487963D01*
X156110443Y-88494481D01*
X156044260Y-88501000D01*
X155955740Y-88501000D01*
X155889557Y-88494481D01*
X155823373Y-88487963D01*
X155653534Y-88436443D01*
X155497009Y-88352778D01*
X155461271Y-88323448D01*
X155359814Y-88240186D01*
X155276552Y-88138729D01*
X155247222Y-88102991D01*
X155163557Y-87946466D01*
X155112037Y-87776627D01*
X155094641Y-87600000D01*
X155112037Y-87423373D01*
X155163557Y-87253534D01*
X155247222Y-87097009D01*
X155296633Y-87036802D01*
X155359814Y-86959814D01*
X155477105Y-86863557D01*
X155497009Y-86847222D01*
X155653534Y-86763557D01*
X155823373Y-86712037D01*
X155889557Y-86705519D01*
X155955740Y-86699000D01*
X156044260Y-86699000D01*
X156110443Y-86705519D01*
X156110443Y-86705519D01*
G37*
G36*
X140140810Y-86739135D02*
G01*
X140197707Y-86750452D01*
X140358494Y-86817052D01*
X140358496Y-86817053D01*
X140503196Y-86913738D01*
X140626262Y-87036804D01*
X140722947Y-87181504D01*
X140722948Y-87181506D01*
X140789548Y-87342293D01*
X140791784Y-87353534D01*
X140823500Y-87512981D01*
X140823500Y-87687019D01*
X140789548Y-87857706D01*
X140722947Y-88018496D01*
X140626262Y-88163196D01*
X140503196Y-88286262D01*
X140358496Y-88382947D01*
X140358495Y-88382948D01*
X140358494Y-88382948D01*
X140197707Y-88449548D01*
X140181463Y-88452779D01*
X140027019Y-88483500D01*
X139852981Y-88483500D01*
X139698537Y-88452779D01*
X139682293Y-88449548D01*
X139521506Y-88382948D01*
X139521505Y-88382948D01*
X139521504Y-88382947D01*
X139376804Y-88286262D01*
X139253738Y-88163196D01*
X139157053Y-88018496D01*
X139090452Y-87857706D01*
X139056500Y-87687019D01*
X139056500Y-87512981D01*
X139088216Y-87353534D01*
X139090452Y-87342293D01*
X139157052Y-87181506D01*
X139157053Y-87181504D01*
X139253738Y-87036804D01*
X139376804Y-86913738D01*
X139521504Y-86817053D01*
X139521506Y-86817052D01*
X139682293Y-86750452D01*
X139739190Y-86739135D01*
X139852981Y-86716500D01*
X140027019Y-86716500D01*
X140140810Y-86739135D01*
X140140810Y-86739135D01*
G37*
G36*
X124900810Y-86739135D02*
G01*
X124957707Y-86750452D01*
X125118494Y-86817052D01*
X125118496Y-86817053D01*
X125263196Y-86913738D01*
X125386262Y-87036804D01*
X125482947Y-87181504D01*
X125482948Y-87181506D01*
X125549548Y-87342293D01*
X125551784Y-87353534D01*
X125583500Y-87512981D01*
X125583500Y-87687019D01*
X125549548Y-87857706D01*
X125482947Y-88018496D01*
X125386262Y-88163196D01*
X125263196Y-88286262D01*
X125118496Y-88382947D01*
X125118495Y-88382948D01*
X125118494Y-88382948D01*
X124957707Y-88449548D01*
X124941463Y-88452779D01*
X124787019Y-88483500D01*
X124612981Y-88483500D01*
X124458537Y-88452779D01*
X124442293Y-88449548D01*
X124281506Y-88382948D01*
X124281505Y-88382948D01*
X124281504Y-88382947D01*
X124136804Y-88286262D01*
X124013738Y-88163196D01*
X123917053Y-88018496D01*
X123850452Y-87857706D01*
X123816500Y-87687019D01*
X123816500Y-87512981D01*
X123848216Y-87353534D01*
X123850452Y-87342293D01*
X123917052Y-87181506D01*
X123917053Y-87181504D01*
X124013738Y-87036804D01*
X124136804Y-86913738D01*
X124281504Y-86817053D01*
X124281506Y-86817052D01*
X124442293Y-86750452D01*
X124499190Y-86739135D01*
X124612981Y-86716500D01*
X124787019Y-86716500D01*
X124900810Y-86739135D01*
X124900810Y-86739135D01*
G37*
G36*
X107710443Y-84265519D02*
G01*
X107776627Y-84272037D01*
X107946466Y-84323557D01*
X108102991Y-84407222D01*
X108138729Y-84436552D01*
X108240186Y-84519814D01*
X108323448Y-84621271D01*
X108352778Y-84657009D01*
X108436443Y-84813534D01*
X108487963Y-84983373D01*
X108505359Y-85160000D01*
X108487963Y-85336627D01*
X108436443Y-85506466D01*
X108352778Y-85662991D01*
X108323448Y-85698729D01*
X108240186Y-85800186D01*
X108138729Y-85883448D01*
X108102991Y-85912778D01*
X107946466Y-85996443D01*
X107776627Y-86047963D01*
X107710443Y-86054481D01*
X107644260Y-86061000D01*
X107555740Y-86061000D01*
X107489557Y-86054481D01*
X107423373Y-86047963D01*
X107253534Y-85996443D01*
X107097009Y-85912778D01*
X107061271Y-85883448D01*
X106959814Y-85800186D01*
X106876552Y-85698729D01*
X106847222Y-85662991D01*
X106763557Y-85506466D01*
X106712037Y-85336627D01*
X106694641Y-85160000D01*
X106712037Y-84983373D01*
X106763557Y-84813534D01*
X106847222Y-84657009D01*
X106876552Y-84621271D01*
X106959814Y-84519814D01*
X107061271Y-84436552D01*
X107097009Y-84407222D01*
X107253534Y-84323557D01*
X107423373Y-84272037D01*
X107489557Y-84265519D01*
X107555740Y-84259000D01*
X107644260Y-84259000D01*
X107710443Y-84265519D01*
X107710443Y-84265519D01*
G37*
G36*
X156110442Y-84165518D02*
G01*
X156176627Y-84172037D01*
X156346466Y-84223557D01*
X156502991Y-84307222D01*
X156522895Y-84323557D01*
X156640186Y-84419814D01*
X156703367Y-84496802D01*
X156752778Y-84557009D01*
X156836443Y-84713534D01*
X156887963Y-84883373D01*
X156905359Y-85060000D01*
X156887963Y-85236627D01*
X156836443Y-85406466D01*
X156752778Y-85562991D01*
X156723448Y-85598729D01*
X156640186Y-85700186D01*
X156538729Y-85783448D01*
X156502991Y-85812778D01*
X156346466Y-85896443D01*
X156176627Y-85947963D01*
X156110443Y-85954481D01*
X156044260Y-85961000D01*
X155955740Y-85961000D01*
X155889557Y-85954481D01*
X155823373Y-85947963D01*
X155653534Y-85896443D01*
X155497009Y-85812778D01*
X155461271Y-85783448D01*
X155359814Y-85700186D01*
X155276552Y-85598729D01*
X155247222Y-85562991D01*
X155163557Y-85406466D01*
X155112037Y-85236627D01*
X155094641Y-85060000D01*
X155112037Y-84883373D01*
X155163557Y-84713534D01*
X155247222Y-84557009D01*
X155296633Y-84496802D01*
X155359814Y-84419814D01*
X155477105Y-84323557D01*
X155497009Y-84307222D01*
X155653534Y-84223557D01*
X155823373Y-84172037D01*
X155889558Y-84165518D01*
X155955740Y-84159000D01*
X156044260Y-84159000D01*
X156110442Y-84165518D01*
X156110442Y-84165518D01*
G37*
G36*
X124900810Y-84199135D02*
G01*
X124957707Y-84210452D01*
X125118494Y-84277052D01*
X125118496Y-84277053D01*
X125263196Y-84373738D01*
X125386262Y-84496804D01*
X125482947Y-84641504D01*
X125482948Y-84641506D01*
X125549548Y-84802293D01*
X125551784Y-84813534D01*
X125583500Y-84972981D01*
X125583500Y-85147019D01*
X125549548Y-85317706D01*
X125482947Y-85478496D01*
X125386262Y-85623196D01*
X125263196Y-85746262D01*
X125118496Y-85842947D01*
X125118495Y-85842948D01*
X125118494Y-85842948D01*
X124957707Y-85909548D01*
X124941463Y-85912779D01*
X124787019Y-85943500D01*
X124612981Y-85943500D01*
X124458537Y-85912779D01*
X124442293Y-85909548D01*
X124281506Y-85842948D01*
X124281505Y-85842948D01*
X124281504Y-85842947D01*
X124136804Y-85746262D01*
X124013738Y-85623196D01*
X123917053Y-85478496D01*
X123850452Y-85317706D01*
X123816500Y-85147019D01*
X123816500Y-84972981D01*
X123848216Y-84813534D01*
X123850452Y-84802293D01*
X123917052Y-84641506D01*
X123917053Y-84641504D01*
X124013738Y-84496804D01*
X124136804Y-84373738D01*
X124281504Y-84277053D01*
X124281506Y-84277052D01*
X124442293Y-84210452D01*
X124499190Y-84199135D01*
X124612981Y-84176500D01*
X124787019Y-84176500D01*
X124900810Y-84199135D01*
X124900810Y-84199135D01*
G37*
G36*
X140140810Y-84199135D02*
G01*
X140197707Y-84210452D01*
X140358494Y-84277052D01*
X140358496Y-84277053D01*
X140503196Y-84373738D01*
X140626262Y-84496804D01*
X140722947Y-84641504D01*
X140722948Y-84641506D01*
X140789548Y-84802293D01*
X140791784Y-84813534D01*
X140823500Y-84972981D01*
X140823500Y-85147019D01*
X140789548Y-85317706D01*
X140722947Y-85478496D01*
X140626262Y-85623196D01*
X140503196Y-85746262D01*
X140358496Y-85842947D01*
X140358495Y-85842948D01*
X140358494Y-85842948D01*
X140197707Y-85909548D01*
X140181463Y-85912779D01*
X140027019Y-85943500D01*
X139852981Y-85943500D01*
X139698537Y-85912779D01*
X139682293Y-85909548D01*
X139521506Y-85842948D01*
X139521505Y-85842948D01*
X139521504Y-85842947D01*
X139376804Y-85746262D01*
X139253738Y-85623196D01*
X139157053Y-85478496D01*
X139090452Y-85317706D01*
X139056500Y-85147019D01*
X139056500Y-84972981D01*
X139088216Y-84813534D01*
X139090452Y-84802293D01*
X139157052Y-84641506D01*
X139157053Y-84641504D01*
X139253738Y-84496804D01*
X139376804Y-84373738D01*
X139521504Y-84277053D01*
X139521506Y-84277052D01*
X139682293Y-84210452D01*
X139739190Y-84199135D01*
X139852981Y-84176500D01*
X140027019Y-84176500D01*
X140140810Y-84199135D01*
X140140810Y-84199135D01*
G37*
G36*
X107710442Y-81725518D02*
G01*
X107776627Y-81732037D01*
X107946466Y-81783557D01*
X108102991Y-81867222D01*
X108138729Y-81896552D01*
X108240186Y-81979814D01*
X108323448Y-82081271D01*
X108352778Y-82117009D01*
X108436443Y-82273534D01*
X108487963Y-82443373D01*
X108505359Y-82620000D01*
X108487963Y-82796627D01*
X108436443Y-82966466D01*
X108352778Y-83122991D01*
X108323448Y-83158729D01*
X108240186Y-83260186D01*
X108138729Y-83343448D01*
X108102991Y-83372778D01*
X107946466Y-83456443D01*
X107776627Y-83507963D01*
X107710443Y-83514481D01*
X107644260Y-83521000D01*
X107555740Y-83521000D01*
X107489557Y-83514481D01*
X107423373Y-83507963D01*
X107253534Y-83456443D01*
X107097009Y-83372778D01*
X107061271Y-83343448D01*
X106959814Y-83260186D01*
X106876552Y-83158729D01*
X106847222Y-83122991D01*
X106763557Y-82966466D01*
X106712037Y-82796627D01*
X106694641Y-82620000D01*
X106712037Y-82443373D01*
X106763557Y-82273534D01*
X106847222Y-82117009D01*
X106876552Y-82081271D01*
X106959814Y-81979814D01*
X107061271Y-81896552D01*
X107097009Y-81867222D01*
X107253534Y-81783557D01*
X107423373Y-81732037D01*
X107489558Y-81725518D01*
X107555740Y-81719000D01*
X107644260Y-81719000D01*
X107710442Y-81725518D01*
X107710442Y-81725518D01*
G37*
G36*
X156110443Y-81625519D02*
G01*
X156176627Y-81632037D01*
X156346466Y-81683557D01*
X156502991Y-81767222D01*
X156522895Y-81783557D01*
X156640186Y-81879814D01*
X156703367Y-81956802D01*
X156752778Y-82017009D01*
X156836443Y-82173534D01*
X156887963Y-82343373D01*
X156905359Y-82520000D01*
X156887963Y-82696627D01*
X156836443Y-82866466D01*
X156752778Y-83022991D01*
X156723448Y-83058729D01*
X156640186Y-83160186D01*
X156538729Y-83243448D01*
X156502991Y-83272778D01*
X156346466Y-83356443D01*
X156176627Y-83407963D01*
X156110443Y-83414481D01*
X156044260Y-83421000D01*
X155955740Y-83421000D01*
X155889557Y-83414481D01*
X155823373Y-83407963D01*
X155653534Y-83356443D01*
X155497009Y-83272778D01*
X155461271Y-83243448D01*
X155359814Y-83160186D01*
X155276552Y-83058729D01*
X155247222Y-83022991D01*
X155163557Y-82866466D01*
X155112037Y-82696627D01*
X155094641Y-82520000D01*
X155112037Y-82343373D01*
X155163557Y-82173534D01*
X155247222Y-82017009D01*
X155296633Y-81956802D01*
X155359814Y-81879814D01*
X155477105Y-81783557D01*
X155497009Y-81767222D01*
X155653534Y-81683557D01*
X155823373Y-81632037D01*
X155889557Y-81625519D01*
X155955740Y-81619000D01*
X156044260Y-81619000D01*
X156110443Y-81625519D01*
X156110443Y-81625519D01*
G37*
G36*
X140140810Y-81659135D02*
G01*
X140197707Y-81670452D01*
X140358494Y-81737052D01*
X140358496Y-81737053D01*
X140503196Y-81833738D01*
X140626262Y-81956804D01*
X140722947Y-82101504D01*
X140722948Y-82101506D01*
X140789548Y-82262293D01*
X140791784Y-82273534D01*
X140823500Y-82432981D01*
X140823500Y-82607019D01*
X140789548Y-82777706D01*
X140722947Y-82938496D01*
X140626262Y-83083196D01*
X140503196Y-83206262D01*
X140358496Y-83302947D01*
X140358495Y-83302948D01*
X140358494Y-83302948D01*
X140197707Y-83369548D01*
X140181463Y-83372779D01*
X140027019Y-83403500D01*
X139852981Y-83403500D01*
X139698537Y-83372779D01*
X139682293Y-83369548D01*
X139521506Y-83302948D01*
X139521505Y-83302948D01*
X139521504Y-83302947D01*
X139376804Y-83206262D01*
X139253738Y-83083196D01*
X139157053Y-82938496D01*
X139090452Y-82777706D01*
X139056500Y-82607019D01*
X139056500Y-82432981D01*
X139088216Y-82273534D01*
X139090452Y-82262293D01*
X139157052Y-82101506D01*
X139157053Y-82101504D01*
X139253738Y-81956804D01*
X139376804Y-81833738D01*
X139521504Y-81737053D01*
X139521506Y-81737052D01*
X139682293Y-81670452D01*
X139739190Y-81659135D01*
X139852981Y-81636500D01*
X140027019Y-81636500D01*
X140140810Y-81659135D01*
X140140810Y-81659135D01*
G37*
G36*
X124900810Y-81659135D02*
G01*
X124957707Y-81670452D01*
X125118494Y-81737052D01*
X125118496Y-81737053D01*
X125263196Y-81833738D01*
X125386262Y-81956804D01*
X125482947Y-82101504D01*
X125482948Y-82101506D01*
X125549548Y-82262293D01*
X125551784Y-82273534D01*
X125583500Y-82432981D01*
X125583500Y-82607019D01*
X125549548Y-82777706D01*
X125482947Y-82938496D01*
X125386262Y-83083196D01*
X125263196Y-83206262D01*
X125118496Y-83302947D01*
X125118495Y-83302948D01*
X125118494Y-83302948D01*
X124957707Y-83369548D01*
X124941463Y-83372779D01*
X124787019Y-83403500D01*
X124612981Y-83403500D01*
X124458537Y-83372779D01*
X124442293Y-83369548D01*
X124281506Y-83302948D01*
X124281505Y-83302948D01*
X124281504Y-83302947D01*
X124136804Y-83206262D01*
X124013738Y-83083196D01*
X123917053Y-82938496D01*
X123850452Y-82777706D01*
X123816500Y-82607019D01*
X123816500Y-82432981D01*
X123848216Y-82273534D01*
X123850452Y-82262293D01*
X123917052Y-82101506D01*
X123917053Y-82101504D01*
X124013738Y-81956804D01*
X124136804Y-81833738D01*
X124281504Y-81737053D01*
X124281506Y-81737052D01*
X124442293Y-81670452D01*
X124499190Y-81659135D01*
X124612981Y-81636500D01*
X124787019Y-81636500D01*
X124900810Y-81659135D01*
X124900810Y-81659135D01*
G37*
G36*
X107710443Y-79185519D02*
G01*
X107776627Y-79192037D01*
X107946466Y-79243557D01*
X108102991Y-79327222D01*
X108138729Y-79356552D01*
X108240186Y-79439814D01*
X108323448Y-79541271D01*
X108352778Y-79577009D01*
X108436443Y-79733534D01*
X108487963Y-79903373D01*
X108505359Y-80080000D01*
X108487963Y-80256627D01*
X108436443Y-80426466D01*
X108352778Y-80582991D01*
X108323448Y-80618729D01*
X108240186Y-80720186D01*
X108138729Y-80803448D01*
X108102991Y-80832778D01*
X107946466Y-80916443D01*
X107776627Y-80967963D01*
X107710442Y-80974482D01*
X107644260Y-80981000D01*
X107555740Y-80981000D01*
X107489558Y-80974482D01*
X107423373Y-80967963D01*
X107253534Y-80916443D01*
X107097009Y-80832778D01*
X107061271Y-80803448D01*
X106959814Y-80720186D01*
X106876552Y-80618729D01*
X106847222Y-80582991D01*
X106763557Y-80426466D01*
X106712037Y-80256627D01*
X106694641Y-80080000D01*
X106712037Y-79903373D01*
X106763557Y-79733534D01*
X106847222Y-79577009D01*
X106876552Y-79541271D01*
X106959814Y-79439814D01*
X107061271Y-79356552D01*
X107097009Y-79327222D01*
X107253534Y-79243557D01*
X107423373Y-79192037D01*
X107489557Y-79185519D01*
X107555740Y-79179000D01*
X107644260Y-79179000D01*
X107710443Y-79185519D01*
X107710443Y-79185519D01*
G37*
G36*
X156110443Y-79085519D02*
G01*
X156176627Y-79092037D01*
X156346466Y-79143557D01*
X156502991Y-79227222D01*
X156522895Y-79243557D01*
X156640186Y-79339814D01*
X156703367Y-79416802D01*
X156752778Y-79477009D01*
X156836443Y-79633534D01*
X156887963Y-79803373D01*
X156905359Y-79980000D01*
X156887963Y-80156627D01*
X156836443Y-80326466D01*
X156752778Y-80482991D01*
X156723448Y-80518729D01*
X156640186Y-80620186D01*
X156538729Y-80703448D01*
X156502991Y-80732778D01*
X156346466Y-80816443D01*
X156176627Y-80867963D01*
X156110442Y-80874482D01*
X156044260Y-80881000D01*
X155955740Y-80881000D01*
X155889558Y-80874482D01*
X155823373Y-80867963D01*
X155653534Y-80816443D01*
X155497009Y-80732778D01*
X155461271Y-80703448D01*
X155359814Y-80620186D01*
X155276552Y-80518729D01*
X155247222Y-80482991D01*
X155163557Y-80326466D01*
X155112037Y-80156627D01*
X155094641Y-79980000D01*
X155112037Y-79803373D01*
X155163557Y-79633534D01*
X155247222Y-79477009D01*
X155296633Y-79416802D01*
X155359814Y-79339814D01*
X155477105Y-79243557D01*
X155497009Y-79227222D01*
X155653534Y-79143557D01*
X155823373Y-79092037D01*
X155889557Y-79085519D01*
X155955740Y-79079000D01*
X156044260Y-79079000D01*
X156110443Y-79085519D01*
X156110443Y-79085519D01*
G37*
G36*
X124900810Y-79119135D02*
G01*
X124957707Y-79130452D01*
X125118494Y-79197052D01*
X125118496Y-79197053D01*
X125263196Y-79293738D01*
X125386262Y-79416804D01*
X125481640Y-79559548D01*
X125482948Y-79561506D01*
X125549548Y-79722293D01*
X125551784Y-79733534D01*
X125583500Y-79892981D01*
X125583500Y-80067019D01*
X125549548Y-80237706D01*
X125482947Y-80398496D01*
X125386262Y-80543196D01*
X125263196Y-80666262D01*
X125118496Y-80762947D01*
X125118495Y-80762948D01*
X125118494Y-80762948D01*
X124957707Y-80829548D01*
X124941463Y-80832779D01*
X124787019Y-80863500D01*
X124612981Y-80863500D01*
X124458537Y-80832779D01*
X124442293Y-80829548D01*
X124281506Y-80762948D01*
X124281505Y-80762948D01*
X124281504Y-80762947D01*
X124136804Y-80666262D01*
X124013738Y-80543196D01*
X123917053Y-80398496D01*
X123850452Y-80237706D01*
X123816500Y-80067019D01*
X123816500Y-79892981D01*
X123848216Y-79733534D01*
X123850452Y-79722293D01*
X123917052Y-79561506D01*
X123918360Y-79559548D01*
X124013738Y-79416804D01*
X124136804Y-79293738D01*
X124281504Y-79197053D01*
X124281506Y-79197052D01*
X124442293Y-79130452D01*
X124499190Y-79119135D01*
X124612981Y-79096500D01*
X124787019Y-79096500D01*
X124900810Y-79119135D01*
X124900810Y-79119135D01*
G37*
G36*
X140140810Y-79119135D02*
G01*
X140197707Y-79130452D01*
X140358494Y-79197052D01*
X140358496Y-79197053D01*
X140503196Y-79293738D01*
X140626262Y-79416804D01*
X140721640Y-79559548D01*
X140722948Y-79561506D01*
X140789548Y-79722293D01*
X140791784Y-79733534D01*
X140823500Y-79892981D01*
X140823500Y-80067019D01*
X140789548Y-80237706D01*
X140722947Y-80398496D01*
X140626262Y-80543196D01*
X140503196Y-80666262D01*
X140358496Y-80762947D01*
X140358495Y-80762948D01*
X140358494Y-80762948D01*
X140197707Y-80829548D01*
X140181463Y-80832779D01*
X140027019Y-80863500D01*
X139852981Y-80863500D01*
X139698537Y-80832779D01*
X139682293Y-80829548D01*
X139521506Y-80762948D01*
X139521505Y-80762948D01*
X139521504Y-80762947D01*
X139376804Y-80666262D01*
X139253738Y-80543196D01*
X139157053Y-80398496D01*
X139090452Y-80237706D01*
X139056500Y-80067019D01*
X139056500Y-79892981D01*
X139088216Y-79733534D01*
X139090452Y-79722293D01*
X139157052Y-79561506D01*
X139158360Y-79559548D01*
X139253738Y-79416804D01*
X139376804Y-79293738D01*
X139521504Y-79197053D01*
X139521506Y-79197052D01*
X139682293Y-79130452D01*
X139739190Y-79119135D01*
X139852981Y-79096500D01*
X140027019Y-79096500D01*
X140140810Y-79119135D01*
X140140810Y-79119135D01*
G37*
G36*
X137150810Y-77849135D02*
G01*
X137207707Y-77860452D01*
X137270510Y-77886466D01*
X137368496Y-77927053D01*
X137513196Y-78023738D01*
X137636262Y-78146804D01*
X137731640Y-78289548D01*
X137732948Y-78291506D01*
X137768130Y-78376442D01*
X137799548Y-78452294D01*
X137833500Y-78622981D01*
X137833500Y-78797019D01*
X137799548Y-78967706D01*
X137732947Y-79128496D01*
X137636262Y-79273196D01*
X137513196Y-79396262D01*
X137368496Y-79492947D01*
X137368495Y-79492948D01*
X137368494Y-79492948D01*
X137207707Y-79559548D01*
X137197873Y-79561504D01*
X137037019Y-79593500D01*
X136862981Y-79593500D01*
X136702127Y-79561504D01*
X136692293Y-79559548D01*
X136531506Y-79492948D01*
X136531505Y-79492948D01*
X136531504Y-79492947D01*
X136386804Y-79396262D01*
X136263738Y-79273196D01*
X136167053Y-79128496D01*
X136100452Y-78967706D01*
X136066500Y-78797019D01*
X136066500Y-78622981D01*
X136100452Y-78452294D01*
X136131871Y-78376442D01*
X136167052Y-78291506D01*
X136168360Y-78289548D01*
X136263738Y-78146804D01*
X136386804Y-78023738D01*
X136531504Y-77927053D01*
X136629490Y-77886466D01*
X136692293Y-77860452D01*
X136749190Y-77849135D01*
X136862981Y-77826500D01*
X137037019Y-77826500D01*
X137150810Y-77849135D01*
X137150810Y-77849135D01*
G37*
G36*
X107710442Y-76645518D02*
G01*
X107776627Y-76652037D01*
X107946466Y-76703557D01*
X108102991Y-76787222D01*
X108138729Y-76816552D01*
X108240186Y-76899814D01*
X108323448Y-77001271D01*
X108352778Y-77037009D01*
X108436443Y-77193534D01*
X108487963Y-77363373D01*
X108505359Y-77540000D01*
X108487963Y-77716627D01*
X108436443Y-77886466D01*
X108352778Y-78042991D01*
X108323448Y-78078729D01*
X108240186Y-78180186D01*
X108138729Y-78263448D01*
X108102991Y-78292778D01*
X107946466Y-78376443D01*
X107776627Y-78427963D01*
X107710442Y-78434482D01*
X107644260Y-78441000D01*
X107555740Y-78441000D01*
X107489558Y-78434482D01*
X107423373Y-78427963D01*
X107253534Y-78376443D01*
X107097009Y-78292778D01*
X107061271Y-78263448D01*
X106959814Y-78180186D01*
X106876552Y-78078729D01*
X106847222Y-78042991D01*
X106763557Y-77886466D01*
X106712037Y-77716627D01*
X106694641Y-77540000D01*
X106712037Y-77363373D01*
X106763557Y-77193534D01*
X106847222Y-77037009D01*
X106876552Y-77001271D01*
X106959814Y-76899814D01*
X107061271Y-76816552D01*
X107097009Y-76787222D01*
X107253534Y-76703557D01*
X107423373Y-76652037D01*
X107489558Y-76645518D01*
X107555740Y-76639000D01*
X107644260Y-76639000D01*
X107710442Y-76645518D01*
X107710442Y-76645518D01*
G37*
G36*
X156110442Y-76545518D02*
G01*
X156176627Y-76552037D01*
X156346466Y-76603557D01*
X156502991Y-76687222D01*
X156522895Y-76703557D01*
X156640186Y-76799814D01*
X156703367Y-76876802D01*
X156752778Y-76937009D01*
X156836443Y-77093534D01*
X156887963Y-77263373D01*
X156905359Y-77440000D01*
X156887963Y-77616627D01*
X156836443Y-77786466D01*
X156752778Y-77942991D01*
X156723448Y-77978729D01*
X156640186Y-78080186D01*
X156538729Y-78163448D01*
X156502991Y-78192778D01*
X156346466Y-78276443D01*
X156176627Y-78327963D01*
X156110442Y-78334482D01*
X156044260Y-78341000D01*
X155955740Y-78341000D01*
X155889558Y-78334482D01*
X155823373Y-78327963D01*
X155653534Y-78276443D01*
X155497009Y-78192778D01*
X155461271Y-78163448D01*
X155359814Y-78080186D01*
X155276552Y-77978729D01*
X155247222Y-77942991D01*
X155163557Y-77786466D01*
X155112037Y-77616627D01*
X155094641Y-77440000D01*
X155112037Y-77263373D01*
X155163557Y-77093534D01*
X155247222Y-76937009D01*
X155296633Y-76876802D01*
X155359814Y-76799814D01*
X155477105Y-76703557D01*
X155497009Y-76687222D01*
X155653534Y-76603557D01*
X155823373Y-76552037D01*
X155889558Y-76545518D01*
X155955740Y-76539000D01*
X156044260Y-76539000D01*
X156110442Y-76545518D01*
X156110442Y-76545518D01*
G37*
G36*
X124900810Y-76579135D02*
G01*
X124957707Y-76590452D01*
X125118494Y-76657052D01*
X125118496Y-76657053D01*
X125263196Y-76753738D01*
X125386262Y-76876804D01*
X125481640Y-77019548D01*
X125482948Y-77021506D01*
X125549548Y-77182293D01*
X125551784Y-77193534D01*
X125583500Y-77352981D01*
X125583500Y-77527019D01*
X125549548Y-77697706D01*
X125482947Y-77858496D01*
X125386262Y-78003196D01*
X125263196Y-78126262D01*
X125118496Y-78222947D01*
X125118495Y-78222948D01*
X125118494Y-78222948D01*
X124957707Y-78289548D01*
X124941463Y-78292779D01*
X124787019Y-78323500D01*
X124612981Y-78323500D01*
X124458537Y-78292779D01*
X124442293Y-78289548D01*
X124281506Y-78222948D01*
X124281505Y-78222948D01*
X124281504Y-78222947D01*
X124136804Y-78126262D01*
X124013738Y-78003196D01*
X123917053Y-77858496D01*
X123850452Y-77697706D01*
X123816500Y-77527019D01*
X123816500Y-77352981D01*
X123848216Y-77193534D01*
X123850452Y-77182293D01*
X123917052Y-77021506D01*
X123918360Y-77019548D01*
X124013738Y-76876804D01*
X124136804Y-76753738D01*
X124281504Y-76657053D01*
X124281506Y-76657052D01*
X124442293Y-76590452D01*
X124499190Y-76579135D01*
X124612981Y-76556500D01*
X124787019Y-76556500D01*
X124900810Y-76579135D01*
X124900810Y-76579135D01*
G37*
G36*
X140140810Y-76579135D02*
G01*
X140197707Y-76590452D01*
X140358494Y-76657052D01*
X140358496Y-76657053D01*
X140503196Y-76753738D01*
X140626262Y-76876804D01*
X140721640Y-77019548D01*
X140722948Y-77021506D01*
X140789548Y-77182293D01*
X140791784Y-77193534D01*
X140823500Y-77352981D01*
X140823500Y-77527019D01*
X140789548Y-77697706D01*
X140722947Y-77858496D01*
X140626262Y-78003196D01*
X140503196Y-78126262D01*
X140358496Y-78222947D01*
X140358495Y-78222948D01*
X140358494Y-78222948D01*
X140197707Y-78289548D01*
X140181463Y-78292779D01*
X140027019Y-78323500D01*
X139852981Y-78323500D01*
X139698537Y-78292779D01*
X139682293Y-78289548D01*
X139521506Y-78222948D01*
X139521505Y-78222948D01*
X139521504Y-78222947D01*
X139376804Y-78126262D01*
X139253738Y-78003196D01*
X139157053Y-77858496D01*
X139090452Y-77697706D01*
X139056500Y-77527019D01*
X139056500Y-77352981D01*
X139088216Y-77193534D01*
X139090452Y-77182293D01*
X139157052Y-77021506D01*
X139158360Y-77019548D01*
X139253738Y-76876804D01*
X139376804Y-76753738D01*
X139521504Y-76657053D01*
X139521506Y-76657052D01*
X139682293Y-76590452D01*
X139739190Y-76579135D01*
X139852981Y-76556500D01*
X140027019Y-76556500D01*
X140140810Y-76579135D01*
X140140810Y-76579135D01*
G37*
G36*
X137150810Y-75309135D02*
G01*
X137207707Y-75320452D01*
X137368494Y-75387052D01*
X137368496Y-75387053D01*
X137513196Y-75483738D01*
X137636262Y-75606804D01*
X137732947Y-75751504D01*
X137799548Y-75912294D01*
X137833500Y-76082981D01*
X137833500Y-76257019D01*
X137799548Y-76427706D01*
X137732947Y-76588496D01*
X137636262Y-76733196D01*
X137513196Y-76856262D01*
X137368496Y-76952947D01*
X137368495Y-76952948D01*
X137368494Y-76952948D01*
X137207707Y-77019548D01*
X137197873Y-77021504D01*
X137037019Y-77053500D01*
X136862981Y-77053500D01*
X136702127Y-77021504D01*
X136692293Y-77019548D01*
X136531506Y-76952948D01*
X136531505Y-76952948D01*
X136531504Y-76952947D01*
X136386804Y-76856262D01*
X136263738Y-76733196D01*
X136167053Y-76588496D01*
X136100452Y-76427706D01*
X136066500Y-76257019D01*
X136066500Y-76082981D01*
X136100452Y-75912294D01*
X136167053Y-75751504D01*
X136263738Y-75606804D01*
X136386804Y-75483738D01*
X136531504Y-75387053D01*
X136531506Y-75387052D01*
X136692293Y-75320452D01*
X136749190Y-75309135D01*
X136862981Y-75286500D01*
X137037019Y-75286500D01*
X137150810Y-75309135D01*
X137150810Y-75309135D01*
G37*
G36*
X108501000Y-75901000D02*
G01*
X106699000Y-75901000D01*
X106699000Y-74099000D01*
X108501000Y-74099000D01*
X108501000Y-75901000D01*
X108501000Y-75901000D01*
G37*
G36*
X156110442Y-74005518D02*
G01*
X156176627Y-74012037D01*
X156346466Y-74063557D01*
X156502991Y-74147222D01*
X156538729Y-74176552D01*
X156640186Y-74259814D01*
X156703367Y-74336802D01*
X156752778Y-74397009D01*
X156836443Y-74553534D01*
X156887963Y-74723373D01*
X156905359Y-74900000D01*
X156887963Y-75076627D01*
X156836443Y-75246466D01*
X156752778Y-75402991D01*
X156723448Y-75438729D01*
X156640186Y-75540186D01*
X156538729Y-75623448D01*
X156502991Y-75652778D01*
X156346466Y-75736443D01*
X156176627Y-75787963D01*
X156110443Y-75794481D01*
X156044260Y-75801000D01*
X155955740Y-75801000D01*
X155889557Y-75794481D01*
X155823373Y-75787963D01*
X155653534Y-75736443D01*
X155497009Y-75652778D01*
X155461271Y-75623448D01*
X155359814Y-75540186D01*
X155276552Y-75438729D01*
X155247222Y-75402991D01*
X155163557Y-75246466D01*
X155112037Y-75076627D01*
X155094641Y-74900000D01*
X155112037Y-74723373D01*
X155163557Y-74553534D01*
X155247222Y-74397009D01*
X155296633Y-74336802D01*
X155359814Y-74259814D01*
X155461271Y-74176552D01*
X155497009Y-74147222D01*
X155653534Y-74063557D01*
X155823373Y-74012037D01*
X155889558Y-74005518D01*
X155955740Y-73999000D01*
X156044260Y-73999000D01*
X156110442Y-74005518D01*
X156110442Y-74005518D01*
G37*
G36*
X140140810Y-74039135D02*
G01*
X140197707Y-74050452D01*
X140358494Y-74117052D01*
X140358496Y-74117053D01*
X140503196Y-74213738D01*
X140626262Y-74336804D01*
X140722947Y-74481504D01*
X140789548Y-74642294D01*
X140823500Y-74812981D01*
X140823500Y-74987019D01*
X140789548Y-75157706D01*
X140722947Y-75318496D01*
X140626262Y-75463196D01*
X140503196Y-75586262D01*
X140358496Y-75682947D01*
X140358495Y-75682948D01*
X140358494Y-75682948D01*
X140197707Y-75749548D01*
X140187873Y-75751504D01*
X140027019Y-75783500D01*
X139852981Y-75783500D01*
X139692127Y-75751504D01*
X139682293Y-75749548D01*
X139521506Y-75682948D01*
X139521505Y-75682948D01*
X139521504Y-75682947D01*
X139376804Y-75586262D01*
X139253738Y-75463196D01*
X139157053Y-75318496D01*
X139090452Y-75157706D01*
X139056500Y-74987019D01*
X139056500Y-74812981D01*
X139090452Y-74642294D01*
X139157053Y-74481504D01*
X139253738Y-74336804D01*
X139376804Y-74213738D01*
X139521504Y-74117053D01*
X139521506Y-74117052D01*
X139682293Y-74050452D01*
X139739190Y-74039135D01*
X139852981Y-74016500D01*
X140027019Y-74016500D01*
X140140810Y-74039135D01*
X140140810Y-74039135D01*
G37*
G36*
X125583500Y-75783500D02*
G01*
X123816500Y-75783500D01*
X123816500Y-74016500D01*
X125583500Y-74016500D01*
X125583500Y-75783500D01*
X125583500Y-75783500D01*
G37*
G36*
X140140810Y-71499135D02*
G01*
X140197707Y-71510452D01*
X140358494Y-71577052D01*
X140358496Y-71577053D01*
X140503196Y-71673738D01*
X140626262Y-71796804D01*
X140722947Y-71941504D01*
X140789548Y-72102294D01*
X140823500Y-72272981D01*
X140823500Y-72447019D01*
X140789548Y-72617706D01*
X140722947Y-72778496D01*
X140626262Y-72923196D01*
X140503196Y-73046262D01*
X140358496Y-73142947D01*
X140358495Y-73142948D01*
X140358494Y-73142948D01*
X140197707Y-73209548D01*
X140140810Y-73220865D01*
X140027019Y-73243500D01*
X139852981Y-73243500D01*
X139739190Y-73220865D01*
X139682293Y-73209548D01*
X139521506Y-73142948D01*
X139521505Y-73142948D01*
X139521504Y-73142947D01*
X139376804Y-73046262D01*
X139253738Y-72923196D01*
X139157053Y-72778496D01*
X139090452Y-72617706D01*
X139056500Y-72447019D01*
X139056500Y-72272981D01*
X139090452Y-72102294D01*
X139157053Y-71941504D01*
X139253738Y-71796804D01*
X139376804Y-71673738D01*
X139521504Y-71577053D01*
X139521506Y-71577052D01*
X139682293Y-71510452D01*
X139739190Y-71499135D01*
X139852981Y-71476500D01*
X140027019Y-71476500D01*
X140140810Y-71499135D01*
X140140810Y-71499135D01*
G37*
G36*
X124900810Y-71499135D02*
G01*
X124957707Y-71510452D01*
X125118494Y-71577052D01*
X125118496Y-71577053D01*
X125263196Y-71673738D01*
X125386262Y-71796804D01*
X125482947Y-71941504D01*
X125549548Y-72102294D01*
X125583500Y-72272981D01*
X125583500Y-72447019D01*
X125549548Y-72617706D01*
X125482947Y-72778496D01*
X125386262Y-72923196D01*
X125263196Y-73046262D01*
X125118496Y-73142947D01*
X125118495Y-73142948D01*
X125118494Y-73142948D01*
X124957707Y-73209548D01*
X124900810Y-73220865D01*
X124787019Y-73243500D01*
X124612981Y-73243500D01*
X124499190Y-73220865D01*
X124442293Y-73209548D01*
X124281506Y-73142948D01*
X124281505Y-73142948D01*
X124281504Y-73142947D01*
X124136804Y-73046262D01*
X124013738Y-72923196D01*
X123917053Y-72778496D01*
X123850452Y-72617706D01*
X123816500Y-72447019D01*
X123816500Y-72272981D01*
X123850452Y-72102294D01*
X123917053Y-71941504D01*
X124013738Y-71796804D01*
X124136804Y-71673738D01*
X124281504Y-71577053D01*
X124281506Y-71577052D01*
X124442293Y-71510452D01*
X124499190Y-71499135D01*
X124612981Y-71476500D01*
X124787019Y-71476500D01*
X124900810Y-71499135D01*
X124900810Y-71499135D01*
G37*
G36*
X140140810Y-68959135D02*
G01*
X140197707Y-68970452D01*
X140358494Y-69037052D01*
X140358496Y-69037053D01*
X140503196Y-69133738D01*
X140626262Y-69256804D01*
X140722947Y-69401504D01*
X140722948Y-69401506D01*
X140789548Y-69562293D01*
X140823500Y-69732983D01*
X140823500Y-69907017D01*
X140789548Y-70077707D01*
X140722948Y-70238494D01*
X140722947Y-70238496D01*
X140626262Y-70383196D01*
X140503196Y-70506262D01*
X140358496Y-70602947D01*
X140358495Y-70602948D01*
X140358494Y-70602948D01*
X140197707Y-70669548D01*
X140140810Y-70680865D01*
X140027019Y-70703500D01*
X139852981Y-70703500D01*
X139739190Y-70680865D01*
X139682293Y-70669548D01*
X139521506Y-70602948D01*
X139521505Y-70602948D01*
X139521504Y-70602947D01*
X139376804Y-70506262D01*
X139253738Y-70383196D01*
X139157053Y-70238496D01*
X139157052Y-70238494D01*
X139090452Y-70077707D01*
X139056500Y-69907017D01*
X139056500Y-69732983D01*
X139090452Y-69562293D01*
X139157052Y-69401506D01*
X139157053Y-69401504D01*
X139253738Y-69256804D01*
X139376804Y-69133738D01*
X139521504Y-69037053D01*
X139521506Y-69037052D01*
X139682293Y-68970452D01*
X139739190Y-68959135D01*
X139852981Y-68936500D01*
X140027019Y-68936500D01*
X140140810Y-68959135D01*
X140140810Y-68959135D01*
G37*
G36*
X124900810Y-68959135D02*
G01*
X124957707Y-68970452D01*
X125118494Y-69037052D01*
X125118496Y-69037053D01*
X125263196Y-69133738D01*
X125386262Y-69256804D01*
X125482947Y-69401504D01*
X125482948Y-69401506D01*
X125549548Y-69562293D01*
X125583500Y-69732983D01*
X125583500Y-69907017D01*
X125549548Y-70077707D01*
X125482948Y-70238494D01*
X125482947Y-70238496D01*
X125386262Y-70383196D01*
X125263196Y-70506262D01*
X125118496Y-70602947D01*
X125118495Y-70602948D01*
X125118494Y-70602948D01*
X124957707Y-70669548D01*
X124900810Y-70680865D01*
X124787019Y-70703500D01*
X124612981Y-70703500D01*
X124499190Y-70680865D01*
X124442293Y-70669548D01*
X124281506Y-70602948D01*
X124281505Y-70602948D01*
X124281504Y-70602947D01*
X124136804Y-70506262D01*
X124013738Y-70383196D01*
X123917053Y-70238496D01*
X123917052Y-70238494D01*
X123850452Y-70077707D01*
X123816500Y-69907017D01*
X123816500Y-69732983D01*
X123850452Y-69562293D01*
X123917052Y-69401506D01*
X123917053Y-69401504D01*
X124013738Y-69256804D01*
X124136804Y-69133738D01*
X124281504Y-69037053D01*
X124281506Y-69037052D01*
X124442293Y-68970452D01*
X124499190Y-68959135D01*
X124612981Y-68936500D01*
X124787019Y-68936500D01*
X124900810Y-68959135D01*
X124900810Y-68959135D01*
G37*
G36*
X108225331Y-66568211D02*
G01*
X108553092Y-66703974D01*
X108848070Y-66901072D01*
X109098928Y-67151930D01*
X109296026Y-67446908D01*
X109431789Y-67774669D01*
X109501000Y-68122616D01*
X109501000Y-68477384D01*
X109431789Y-68825331D01*
X109296026Y-69153092D01*
X109098928Y-69448070D01*
X108848070Y-69698928D01*
X108553092Y-69896026D01*
X108225331Y-70031789D01*
X107877384Y-70101000D01*
X107522616Y-70101000D01*
X107174669Y-70031789D01*
X106846908Y-69896026D01*
X106551930Y-69698928D01*
X106301072Y-69448070D01*
X106103974Y-69153092D01*
X105968211Y-68825331D01*
X105899000Y-68477384D01*
X105899000Y-68122616D01*
X105968211Y-67774669D01*
X106103974Y-67446908D01*
X106301072Y-67151930D01*
X106551930Y-66901072D01*
X106846908Y-66703974D01*
X107174669Y-66568211D01*
X107522616Y-66499000D01*
X107877384Y-66499000D01*
X108225331Y-66568211D01*
X108225331Y-66568211D01*
G37*
G36*
X156525331Y-65268211D02*
G01*
X156853092Y-65403974D01*
X157148070Y-65601072D01*
X157398928Y-65851930D01*
X157596026Y-66146908D01*
X157731789Y-66474669D01*
X157801000Y-66822616D01*
X157801000Y-67177384D01*
X157731789Y-67525331D01*
X157596026Y-67853092D01*
X157398928Y-68148070D01*
X157148070Y-68398928D01*
X156853092Y-68596026D01*
X156525331Y-68731789D01*
X156177384Y-68801000D01*
X155822616Y-68801000D01*
X155474669Y-68731789D01*
X155146908Y-68596026D01*
X154851930Y-68398928D01*
X154601072Y-68148070D01*
X154403974Y-67853092D01*
X154268211Y-67525331D01*
X154199000Y-67177384D01*
X154199000Y-66822616D01*
X154268211Y-66474669D01*
X154403974Y-66146908D01*
X154601072Y-65851930D01*
X154851930Y-65601072D01*
X155146908Y-65403974D01*
X155474669Y-65268211D01*
X155822616Y-65199000D01*
X156177384Y-65199000D01*
X156525331Y-65268211D01*
X156525331Y-65268211D01*
G37*
G36*
X124862966Y-66411607D02*
G01*
X124957707Y-66430452D01*
X125118494Y-66497052D01*
X125118496Y-66497053D01*
X125263196Y-66593738D01*
X125386262Y-66716804D01*
X125482947Y-66861504D01*
X125549548Y-67022294D01*
X125580398Y-67177384D01*
X125583500Y-67192983D01*
X125583500Y-67367017D01*
X125552010Y-67525332D01*
X125549548Y-67537706D01*
X125482947Y-67698496D01*
X125386262Y-67843196D01*
X125263196Y-67966262D01*
X125118496Y-68062947D01*
X125118495Y-68062948D01*
X125118494Y-68062948D01*
X124957707Y-68129548D01*
X124900810Y-68140865D01*
X124787019Y-68163500D01*
X124612981Y-68163500D01*
X124499190Y-68140865D01*
X124442293Y-68129548D01*
X124281506Y-68062948D01*
X124281505Y-68062948D01*
X124281504Y-68062947D01*
X124136804Y-67966262D01*
X124013738Y-67843196D01*
X123917053Y-67698496D01*
X123850452Y-67537706D01*
X123847991Y-67525332D01*
X123816500Y-67367017D01*
X123816500Y-67192983D01*
X123819603Y-67177384D01*
X123850452Y-67022294D01*
X123917053Y-66861504D01*
X124013738Y-66716804D01*
X124136804Y-66593738D01*
X124281504Y-66497053D01*
X124281506Y-66497052D01*
X124442293Y-66430452D01*
X124537034Y-66411607D01*
X124612981Y-66396500D01*
X124787019Y-66396500D01*
X124862966Y-66411607D01*
X124862966Y-66411607D01*
G37*
G36*
X140102966Y-66411607D02*
G01*
X140197707Y-66430452D01*
X140358494Y-66497052D01*
X140358496Y-66497053D01*
X140503196Y-66593738D01*
X140626262Y-66716804D01*
X140722947Y-66861504D01*
X140789548Y-67022294D01*
X140820398Y-67177384D01*
X140823500Y-67192983D01*
X140823500Y-67367017D01*
X140792010Y-67525332D01*
X140789548Y-67537706D01*
X140722947Y-67698496D01*
X140626262Y-67843196D01*
X140503196Y-67966262D01*
X140358496Y-68062947D01*
X140358495Y-68062948D01*
X140358494Y-68062948D01*
X140197707Y-68129548D01*
X140140810Y-68140865D01*
X140027019Y-68163500D01*
X139852981Y-68163500D01*
X139739190Y-68140865D01*
X139682293Y-68129548D01*
X139521506Y-68062948D01*
X139521505Y-68062948D01*
X139521504Y-68062947D01*
X139376804Y-67966262D01*
X139253738Y-67843196D01*
X139157053Y-67698496D01*
X139090452Y-67537706D01*
X139087991Y-67525332D01*
X139056500Y-67367017D01*
X139056500Y-67192983D01*
X139059603Y-67177384D01*
X139090452Y-67022294D01*
X139157053Y-66861504D01*
X139253738Y-66716804D01*
X139376804Y-66593738D01*
X139521504Y-66497053D01*
X139521506Y-66497052D01*
X139682293Y-66430452D01*
X139777034Y-66411607D01*
X139852981Y-66396500D01*
X140027019Y-66396500D01*
X140102966Y-66411607D01*
X140102966Y-66411607D01*
G37*
G36*
X152829591Y-65378085D02*
G01*
X152863569Y-65388393D01*
X152894890Y-65405134D01*
X152922339Y-65427661D01*
X152944866Y-65455110D01*
X152961607Y-65486431D01*
X152971915Y-65520409D01*
X152976000Y-65561890D01*
X152976000Y-66238110D01*
X152971915Y-66279591D01*
X152961607Y-66313569D01*
X152944866Y-66344890D01*
X152922339Y-66372339D01*
X152894890Y-66394866D01*
X152863569Y-66411607D01*
X152829591Y-66421915D01*
X152788110Y-66426000D01*
X152186890Y-66426000D01*
X152145409Y-66421915D01*
X152111431Y-66411607D01*
X152080110Y-66394866D01*
X152052661Y-66372339D01*
X152030134Y-66344890D01*
X152013393Y-66313569D01*
X152003085Y-66279591D01*
X151999000Y-66238110D01*
X151999000Y-65561890D01*
X152003085Y-65520409D01*
X152013393Y-65486431D01*
X152030134Y-65455110D01*
X152052661Y-65427661D01*
X152080110Y-65405134D01*
X152111431Y-65388393D01*
X152145409Y-65378085D01*
X152186890Y-65374000D01*
X152788110Y-65374000D01*
X152829591Y-65378085D01*
X152829591Y-65378085D01*
G37*
G36*
X151254591Y-65378085D02*
G01*
X151288569Y-65388393D01*
X151319890Y-65405134D01*
X151347339Y-65427661D01*
X151369866Y-65455110D01*
X151386607Y-65486431D01*
X151396915Y-65520409D01*
X151401000Y-65561890D01*
X151401000Y-66238110D01*
X151396915Y-66279591D01*
X151386607Y-66313569D01*
X151369866Y-66344890D01*
X151347339Y-66372339D01*
X151319890Y-66394866D01*
X151288569Y-66411607D01*
X151254591Y-66421915D01*
X151213110Y-66426000D01*
X150611890Y-66426000D01*
X150570409Y-66421915D01*
X150536431Y-66411607D01*
X150505110Y-66394866D01*
X150477661Y-66372339D01*
X150455134Y-66344890D01*
X150438393Y-66313569D01*
X150428085Y-66279591D01*
X150424000Y-66238110D01*
X150424000Y-65561890D01*
X150428085Y-65520409D01*
X150438393Y-65486431D01*
X150455134Y-65455110D01*
X150477661Y-65427661D01*
X150505110Y-65405134D01*
X150536431Y-65388393D01*
X150570409Y-65378085D01*
X150611890Y-65374000D01*
X151213110Y-65374000D01*
X151254591Y-65378085D01*
X151254591Y-65378085D01*
G37*
G36*
X126170810Y-63879135D02*
G01*
X126227707Y-63890452D01*
X126388494Y-63957052D01*
X126388496Y-63957053D01*
X126533196Y-64053738D01*
X126656262Y-64176804D01*
X126752947Y-64321504D01*
X126819548Y-64482294D01*
X126853500Y-64652981D01*
X126853500Y-64827019D01*
X126819548Y-64997706D01*
X126752947Y-65158496D01*
X126656262Y-65303196D01*
X126533196Y-65426262D01*
X126388496Y-65522947D01*
X126388495Y-65522948D01*
X126388494Y-65522948D01*
X126227707Y-65589548D01*
X126170810Y-65600865D01*
X126057019Y-65623500D01*
X125882981Y-65623500D01*
X125769190Y-65600865D01*
X125712293Y-65589548D01*
X125551506Y-65522948D01*
X125551505Y-65522948D01*
X125551504Y-65522947D01*
X125406804Y-65426262D01*
X125283738Y-65303196D01*
X125187053Y-65158496D01*
X125120452Y-64997706D01*
X125086500Y-64827019D01*
X125086500Y-64652981D01*
X125120452Y-64482294D01*
X125187053Y-64321504D01*
X125283738Y-64176804D01*
X125406804Y-64053738D01*
X125551504Y-63957053D01*
X125551506Y-63957052D01*
X125712293Y-63890452D01*
X125769190Y-63879135D01*
X125882981Y-63856500D01*
X126057019Y-63856500D01*
X126170810Y-63879135D01*
X126170810Y-63879135D01*
G37*
G36*
X128710810Y-63879135D02*
G01*
X128767707Y-63890452D01*
X128928494Y-63957052D01*
X128928496Y-63957053D01*
X129073196Y-64053738D01*
X129196262Y-64176804D01*
X129292947Y-64321504D01*
X129359548Y-64482294D01*
X129393500Y-64652981D01*
X129393500Y-64827019D01*
X129359548Y-64997706D01*
X129292947Y-65158496D01*
X129196262Y-65303196D01*
X129073196Y-65426262D01*
X128928496Y-65522947D01*
X128928495Y-65522948D01*
X128928494Y-65522948D01*
X128767707Y-65589548D01*
X128710810Y-65600865D01*
X128597019Y-65623500D01*
X128422981Y-65623500D01*
X128309190Y-65600865D01*
X128252293Y-65589548D01*
X128091506Y-65522948D01*
X128091505Y-65522948D01*
X128091504Y-65522947D01*
X127946804Y-65426262D01*
X127823738Y-65303196D01*
X127727053Y-65158496D01*
X127660452Y-64997706D01*
X127626500Y-64827019D01*
X127626500Y-64652981D01*
X127660452Y-64482294D01*
X127727053Y-64321504D01*
X127823738Y-64176804D01*
X127946804Y-64053738D01*
X128091504Y-63957053D01*
X128091506Y-63957052D01*
X128252293Y-63890452D01*
X128309190Y-63879135D01*
X128422981Y-63856500D01*
X128597019Y-63856500D01*
X128710810Y-63879135D01*
X128710810Y-63879135D01*
G37*
G36*
X131250810Y-63879135D02*
G01*
X131307707Y-63890452D01*
X131468494Y-63957052D01*
X131468496Y-63957053D01*
X131613196Y-64053738D01*
X131736262Y-64176804D01*
X131832947Y-64321504D01*
X131899548Y-64482294D01*
X131933500Y-64652981D01*
X131933500Y-64827019D01*
X131899548Y-64997706D01*
X131832947Y-65158496D01*
X131736262Y-65303196D01*
X131613196Y-65426262D01*
X131468496Y-65522947D01*
X131468495Y-65522948D01*
X131468494Y-65522948D01*
X131307707Y-65589548D01*
X131250810Y-65600865D01*
X131137019Y-65623500D01*
X130962981Y-65623500D01*
X130849190Y-65600865D01*
X130792293Y-65589548D01*
X130631506Y-65522948D01*
X130631505Y-65522948D01*
X130631504Y-65522947D01*
X130486804Y-65426262D01*
X130363738Y-65303196D01*
X130267053Y-65158496D01*
X130200452Y-64997706D01*
X130166500Y-64827019D01*
X130166500Y-64652981D01*
X130200452Y-64482294D01*
X130267053Y-64321504D01*
X130363738Y-64176804D01*
X130486804Y-64053738D01*
X130631504Y-63957053D01*
X130631506Y-63957052D01*
X130792293Y-63890452D01*
X130849190Y-63879135D01*
X130962981Y-63856500D01*
X131137019Y-63856500D01*
X131250810Y-63879135D01*
X131250810Y-63879135D01*
G37*
G36*
X133790810Y-63879135D02*
G01*
X133847707Y-63890452D01*
X134008494Y-63957052D01*
X134008496Y-63957053D01*
X134153196Y-64053738D01*
X134276262Y-64176804D01*
X134372947Y-64321504D01*
X134439548Y-64482294D01*
X134473500Y-64652981D01*
X134473500Y-64827019D01*
X134439548Y-64997706D01*
X134372947Y-65158496D01*
X134276262Y-65303196D01*
X134153196Y-65426262D01*
X134008496Y-65522947D01*
X134008495Y-65522948D01*
X134008494Y-65522948D01*
X133847707Y-65589548D01*
X133790810Y-65600865D01*
X133677019Y-65623500D01*
X133502981Y-65623500D01*
X133389190Y-65600865D01*
X133332293Y-65589548D01*
X133171506Y-65522948D01*
X133171505Y-65522948D01*
X133171504Y-65522947D01*
X133026804Y-65426262D01*
X132903738Y-65303196D01*
X132807053Y-65158496D01*
X132740452Y-64997706D01*
X132706500Y-64827019D01*
X132706500Y-64652981D01*
X132740452Y-64482294D01*
X132807053Y-64321504D01*
X132903738Y-64176804D01*
X133026804Y-64053738D01*
X133171504Y-63957053D01*
X133171506Y-63957052D01*
X133332293Y-63890452D01*
X133389190Y-63879135D01*
X133502981Y-63856500D01*
X133677019Y-63856500D01*
X133790810Y-63879135D01*
X133790810Y-63879135D01*
G37*
G36*
X136330810Y-63879135D02*
G01*
X136387707Y-63890452D01*
X136548494Y-63957052D01*
X136548496Y-63957053D01*
X136693196Y-64053738D01*
X136816262Y-64176804D01*
X136912947Y-64321504D01*
X136979548Y-64482294D01*
X137013500Y-64652981D01*
X137013500Y-64827019D01*
X136979548Y-64997706D01*
X136912947Y-65158496D01*
X136816262Y-65303196D01*
X136693196Y-65426262D01*
X136548496Y-65522947D01*
X136548495Y-65522948D01*
X136548494Y-65522948D01*
X136387707Y-65589548D01*
X136330810Y-65600865D01*
X136217019Y-65623500D01*
X136042981Y-65623500D01*
X135929190Y-65600865D01*
X135872293Y-65589548D01*
X135711506Y-65522948D01*
X135711505Y-65522948D01*
X135711504Y-65522947D01*
X135566804Y-65426262D01*
X135443738Y-65303196D01*
X135347053Y-65158496D01*
X135280452Y-64997706D01*
X135246500Y-64827019D01*
X135246500Y-64652981D01*
X135280452Y-64482294D01*
X135347053Y-64321504D01*
X135443738Y-64176804D01*
X135566804Y-64053738D01*
X135711504Y-63957053D01*
X135711506Y-63957052D01*
X135872293Y-63890452D01*
X135929190Y-63879135D01*
X136042981Y-63856500D01*
X136217019Y-63856500D01*
X136330810Y-63879135D01*
X136330810Y-63879135D01*
G37*
G36*
X138870810Y-63879135D02*
G01*
X138927707Y-63890452D01*
X139088494Y-63957052D01*
X139088496Y-63957053D01*
X139233196Y-64053738D01*
X139356262Y-64176804D01*
X139452947Y-64321504D01*
X139519548Y-64482294D01*
X139553500Y-64652981D01*
X139553500Y-64827019D01*
X139519548Y-64997706D01*
X139452947Y-65158496D01*
X139356262Y-65303196D01*
X139233196Y-65426262D01*
X139088496Y-65522947D01*
X139088495Y-65522948D01*
X139088494Y-65522948D01*
X138927707Y-65589548D01*
X138870810Y-65600865D01*
X138757019Y-65623500D01*
X138582981Y-65623500D01*
X138469190Y-65600865D01*
X138412293Y-65589548D01*
X138251506Y-65522948D01*
X138251505Y-65522948D01*
X138251504Y-65522947D01*
X138106804Y-65426262D01*
X137983738Y-65303196D01*
X137887053Y-65158496D01*
X137820452Y-64997706D01*
X137786500Y-64827019D01*
X137786500Y-64652981D01*
X137820452Y-64482294D01*
X137887053Y-64321504D01*
X137983738Y-64176804D01*
X138106804Y-64053738D01*
X138251504Y-63957053D01*
X138251506Y-63957052D01*
X138412293Y-63890452D01*
X138469190Y-63879135D01*
X138582981Y-63856500D01*
X138757019Y-63856500D01*
X138870810Y-63879135D01*
X138870810Y-63879135D01*
G37*
G36*
X113201000Y-63926000D02*
G01*
X112499000Y-63926000D01*
X112499000Y-62574000D01*
X113201000Y-62574000D01*
X113201000Y-63926000D01*
X113201000Y-63926000D01*
G37*
G36*
X115101000Y-63926000D02*
G01*
X114399000Y-63926000D01*
X114399000Y-62574000D01*
X115101000Y-62574000D01*
X115101000Y-63926000D01*
X115101000Y-63926000D01*
G37*
G36*
X111384468Y-62403565D02*
G01*
X111423138Y-62415296D01*
X111458777Y-62434346D01*
X111490017Y-62459983D01*
X111515654Y-62491223D01*
X111534704Y-62526862D01*
X111546435Y-62565532D01*
X111551000Y-62611888D01*
X111551000Y-63263112D01*
X111546435Y-63309468D01*
X111534704Y-63348138D01*
X111515654Y-63383777D01*
X111490017Y-63415017D01*
X111458777Y-63440654D01*
X111423138Y-63459704D01*
X111384468Y-63471435D01*
X111338112Y-63476000D01*
X110261888Y-63476000D01*
X110215532Y-63471435D01*
X110176862Y-63459704D01*
X110141223Y-63440654D01*
X110109983Y-63415017D01*
X110084346Y-63383777D01*
X110065296Y-63348138D01*
X110053565Y-63309468D01*
X110049000Y-63263112D01*
X110049000Y-62611888D01*
X110053565Y-62565532D01*
X110065296Y-62526862D01*
X110084346Y-62491223D01*
X110109983Y-62459983D01*
X110141223Y-62434346D01*
X110176862Y-62415296D01*
X110215532Y-62403565D01*
X110261888Y-62399000D01*
X111338112Y-62399000D01*
X111384468Y-62403565D01*
X111384468Y-62403565D01*
G37*
G36*
X116979591Y-62403085D02*
G01*
X117013569Y-62413393D01*
X117044890Y-62430134D01*
X117072339Y-62452661D01*
X117094866Y-62480110D01*
X117111607Y-62511431D01*
X117121915Y-62545409D01*
X117126000Y-62586890D01*
X117126000Y-63188110D01*
X117121915Y-63229591D01*
X117111607Y-63263569D01*
X117094866Y-63294890D01*
X117072339Y-63322339D01*
X117044890Y-63344866D01*
X117013569Y-63361607D01*
X116979591Y-63371915D01*
X116938110Y-63376000D01*
X116261890Y-63376000D01*
X116220409Y-63371915D01*
X116186431Y-63361607D01*
X116155110Y-63344866D01*
X116127661Y-63322339D01*
X116105134Y-63294890D01*
X116088393Y-63263569D01*
X116078085Y-63229591D01*
X116074000Y-63188110D01*
X116074000Y-62586890D01*
X116078085Y-62545409D01*
X116088393Y-62511431D01*
X116105134Y-62480110D01*
X116127661Y-62452661D01*
X116155110Y-62430134D01*
X116186431Y-62413393D01*
X116220409Y-62403085D01*
X116261890Y-62399000D01*
X116938110Y-62399000D01*
X116979591Y-62403085D01*
X116979591Y-62403085D01*
G37*
G36*
X116979591Y-60828085D02*
G01*
X117013569Y-60838393D01*
X117044890Y-60855134D01*
X117072339Y-60877661D01*
X117094866Y-60905110D01*
X117111607Y-60936431D01*
X117121915Y-60970409D01*
X117126000Y-61011890D01*
X117126000Y-61613110D01*
X117121915Y-61654591D01*
X117111607Y-61688569D01*
X117094866Y-61719890D01*
X117072339Y-61747339D01*
X117044890Y-61769866D01*
X117013569Y-61786607D01*
X116979591Y-61796915D01*
X116938110Y-61801000D01*
X116261890Y-61801000D01*
X116220409Y-61796915D01*
X116186431Y-61786607D01*
X116155110Y-61769866D01*
X116127661Y-61747339D01*
X116105134Y-61719890D01*
X116088393Y-61688569D01*
X116078085Y-61654591D01*
X116074000Y-61613110D01*
X116074000Y-61011890D01*
X116078085Y-60970409D01*
X116088393Y-60936431D01*
X116105134Y-60905110D01*
X116127661Y-60877661D01*
X116155110Y-60855134D01*
X116186431Y-60838393D01*
X116220409Y-60828085D01*
X116261890Y-60824000D01*
X116938110Y-60824000D01*
X116979591Y-60828085D01*
X116979591Y-60828085D01*
G37*
G36*
X111384468Y-60528565D02*
G01*
X111423138Y-60540296D01*
X111458777Y-60559346D01*
X111490017Y-60584983D01*
X111515654Y-60616223D01*
X111534704Y-60651862D01*
X111546435Y-60690532D01*
X111551000Y-60736888D01*
X111551000Y-61388112D01*
X111546435Y-61434468D01*
X111534704Y-61473138D01*
X111515654Y-61508777D01*
X111490017Y-61540017D01*
X111458777Y-61565654D01*
X111423138Y-61584704D01*
X111384468Y-61596435D01*
X111338112Y-61601000D01*
X110261888Y-61601000D01*
X110215532Y-61596435D01*
X110176862Y-61584704D01*
X110141223Y-61565654D01*
X110109983Y-61540017D01*
X110084346Y-61508777D01*
X110065296Y-61473138D01*
X110053565Y-61434468D01*
X110049000Y-61388112D01*
X110049000Y-60736888D01*
X110053565Y-60690532D01*
X110065296Y-60651862D01*
X110084346Y-60616223D01*
X110109983Y-60584983D01*
X110141223Y-60559346D01*
X110176862Y-60540296D01*
X110215532Y-60528565D01*
X110261888Y-60524000D01*
X111338112Y-60524000D01*
X111384468Y-60528565D01*
X111384468Y-60528565D01*
G37*
G36*
X115101000Y-61426000D02*
G01*
X112499000Y-61426000D01*
X112499000Y-60074000D01*
X115101000Y-60074000D01*
X115101000Y-61426000D01*
X115101000Y-61426000D01*
G37*
G36*
X155706564Y-58989389D02*
G01*
X155897833Y-59068615D01*
X155897835Y-59068616D01*
X156069973Y-59183635D01*
X156216365Y-59330027D01*
X156331385Y-59502167D01*
X156410611Y-59693436D01*
X156451000Y-59896484D01*
X156451000Y-60103516D01*
X156410611Y-60306564D01*
X156331385Y-60497833D01*
X156331384Y-60497835D01*
X156216365Y-60669973D01*
X156069973Y-60816365D01*
X155897835Y-60931384D01*
X155897834Y-60931385D01*
X155897833Y-60931385D01*
X155706564Y-61010611D01*
X155503516Y-61051000D01*
X155296484Y-61051000D01*
X155093436Y-61010611D01*
X154902167Y-60931385D01*
X154902166Y-60931385D01*
X154902165Y-60931384D01*
X154730027Y-60816365D01*
X154583635Y-60669973D01*
X154468616Y-60497835D01*
X154468615Y-60497833D01*
X154389389Y-60306564D01*
X154349000Y-60103516D01*
X154349000Y-59896484D01*
X154389389Y-59693436D01*
X154468615Y-59502167D01*
X154583635Y-59330027D01*
X154730027Y-59183635D01*
X154902165Y-59068616D01*
X154902167Y-59068615D01*
X155093436Y-58989389D01*
X155296484Y-58949000D01*
X155503516Y-58949000D01*
X155706564Y-58989389D01*
X155706564Y-58989389D01*
G37*
G36*
X149206564Y-58989389D02*
G01*
X149397833Y-59068615D01*
X149397835Y-59068616D01*
X149569973Y-59183635D01*
X149716365Y-59330027D01*
X149831385Y-59502167D01*
X149910611Y-59693436D01*
X149951000Y-59896484D01*
X149951000Y-60103516D01*
X149910611Y-60306564D01*
X149831385Y-60497833D01*
X149831384Y-60497835D01*
X149716365Y-60669973D01*
X149569973Y-60816365D01*
X149397835Y-60931384D01*
X149397834Y-60931385D01*
X149397833Y-60931385D01*
X149206564Y-61010611D01*
X149003516Y-61051000D01*
X148796484Y-61051000D01*
X148593436Y-61010611D01*
X148402167Y-60931385D01*
X148402166Y-60931385D01*
X148402165Y-60931384D01*
X148230027Y-60816365D01*
X148083635Y-60669973D01*
X147968616Y-60497835D01*
X147968615Y-60497833D01*
X147889389Y-60306564D01*
X147849000Y-60103516D01*
X147849000Y-59896484D01*
X147889389Y-59693436D01*
X147968615Y-59502167D01*
X148083635Y-59330027D01*
X148230027Y-59183635D01*
X148402165Y-59068616D01*
X148402167Y-59068615D01*
X148593436Y-58989389D01*
X148796484Y-58949000D01*
X149003516Y-58949000D01*
X149206564Y-58989389D01*
X149206564Y-58989389D01*
G37*
G36*
X112570443Y-56305519D02*
G01*
X112636627Y-56312037D01*
X112806466Y-56363557D01*
X112962991Y-56447222D01*
X112998729Y-56476552D01*
X113100186Y-56559814D01*
X113183448Y-56661271D01*
X113212778Y-56697009D01*
X113296443Y-56853534D01*
X113347963Y-57023373D01*
X113365359Y-57200000D01*
X113347963Y-57376627D01*
X113296443Y-57546466D01*
X113212778Y-57702991D01*
X113183448Y-57738729D01*
X113100186Y-57840186D01*
X112998729Y-57923448D01*
X112962991Y-57952778D01*
X112806466Y-58036443D01*
X112636627Y-58087963D01*
X112570442Y-58094482D01*
X112504260Y-58101000D01*
X112415740Y-58101000D01*
X112349558Y-58094482D01*
X112283373Y-58087963D01*
X112113534Y-58036443D01*
X111957009Y-57952778D01*
X111921271Y-57923448D01*
X111819814Y-57840186D01*
X111736552Y-57738729D01*
X111707222Y-57702991D01*
X111623557Y-57546466D01*
X111572037Y-57376627D01*
X111554641Y-57200000D01*
X111572037Y-57023373D01*
X111623557Y-56853534D01*
X111707222Y-56697009D01*
X111736552Y-56661271D01*
X111819814Y-56559814D01*
X111921271Y-56476552D01*
X111957009Y-56447222D01*
X112113534Y-56363557D01*
X112283373Y-56312037D01*
X112349557Y-56305519D01*
X112415740Y-56299000D01*
X112504260Y-56299000D01*
X112570443Y-56305519D01*
X112570443Y-56305519D01*
G37*
G36*
X115901000Y-58101000D02*
G01*
X114099000Y-58101000D01*
X114099000Y-56299000D01*
X115901000Y-56299000D01*
X115901000Y-58101000D01*
X115901000Y-58101000D01*
G37*
G36*
X130990443Y-56205519D02*
G01*
X131056627Y-56212037D01*
X131226466Y-56263557D01*
X131382991Y-56347222D01*
X131402895Y-56363557D01*
X131520186Y-56459814D01*
X131595019Y-56551000D01*
X131632778Y-56597009D01*
X131716443Y-56753534D01*
X131767963Y-56923373D01*
X131785359Y-57100000D01*
X131767963Y-57276627D01*
X131716443Y-57446466D01*
X131632778Y-57602991D01*
X131603448Y-57638729D01*
X131520186Y-57740186D01*
X131418729Y-57823448D01*
X131382991Y-57852778D01*
X131226466Y-57936443D01*
X131056627Y-57987963D01*
X130990443Y-57994481D01*
X130924260Y-58001000D01*
X130835740Y-58001000D01*
X130769557Y-57994481D01*
X130703373Y-57987963D01*
X130533534Y-57936443D01*
X130377009Y-57852778D01*
X130341271Y-57823448D01*
X130239814Y-57740186D01*
X130156552Y-57638729D01*
X130127222Y-57602991D01*
X130043557Y-57446466D01*
X129992037Y-57276627D01*
X129974641Y-57100000D01*
X129992037Y-56923373D01*
X130043557Y-56753534D01*
X130127222Y-56597009D01*
X130164981Y-56551000D01*
X130239814Y-56459814D01*
X130357105Y-56363557D01*
X130377009Y-56347222D01*
X130533534Y-56263557D01*
X130703373Y-56212037D01*
X130769557Y-56205519D01*
X130835740Y-56199000D01*
X130924260Y-56199000D01*
X130990443Y-56205519D01*
X130990443Y-56205519D01*
G37*
G36*
X139401000Y-58001000D02*
G01*
X137599000Y-58001000D01*
X137599000Y-56199000D01*
X139401000Y-56199000D01*
X139401000Y-58001000D01*
X139401000Y-58001000D01*
G37*
G36*
X136070443Y-56205519D02*
G01*
X136136627Y-56212037D01*
X136306466Y-56263557D01*
X136462991Y-56347222D01*
X136482895Y-56363557D01*
X136600186Y-56459814D01*
X136675019Y-56551000D01*
X136712778Y-56597009D01*
X136796443Y-56753534D01*
X136847963Y-56923373D01*
X136865359Y-57100000D01*
X136847963Y-57276627D01*
X136796443Y-57446466D01*
X136712778Y-57602991D01*
X136683448Y-57638729D01*
X136600186Y-57740186D01*
X136498729Y-57823448D01*
X136462991Y-57852778D01*
X136306466Y-57936443D01*
X136136627Y-57987963D01*
X136070443Y-57994481D01*
X136004260Y-58001000D01*
X135915740Y-58001000D01*
X135849557Y-57994481D01*
X135783373Y-57987963D01*
X135613534Y-57936443D01*
X135457009Y-57852778D01*
X135421271Y-57823448D01*
X135319814Y-57740186D01*
X135236552Y-57638729D01*
X135207222Y-57602991D01*
X135123557Y-57446466D01*
X135072037Y-57276627D01*
X135054641Y-57100000D01*
X135072037Y-56923373D01*
X135123557Y-56753534D01*
X135207222Y-56597009D01*
X135244981Y-56551000D01*
X135319814Y-56459814D01*
X135437105Y-56363557D01*
X135457009Y-56347222D01*
X135613534Y-56263557D01*
X135783373Y-56212037D01*
X135849557Y-56205519D01*
X135915740Y-56199000D01*
X136004260Y-56199000D01*
X136070443Y-56205519D01*
X136070443Y-56205519D01*
G37*
G36*
X133530443Y-56205519D02*
G01*
X133596627Y-56212037D01*
X133766466Y-56263557D01*
X133922991Y-56347222D01*
X133942895Y-56363557D01*
X134060186Y-56459814D01*
X134135019Y-56551000D01*
X134172778Y-56597009D01*
X134256443Y-56753534D01*
X134307963Y-56923373D01*
X134325359Y-57100000D01*
X134307963Y-57276627D01*
X134256443Y-57446466D01*
X134172778Y-57602991D01*
X134143448Y-57638729D01*
X134060186Y-57740186D01*
X133958729Y-57823448D01*
X133922991Y-57852778D01*
X133766466Y-57936443D01*
X133596627Y-57987963D01*
X133530443Y-57994481D01*
X133464260Y-58001000D01*
X133375740Y-58001000D01*
X133309557Y-57994481D01*
X133243373Y-57987963D01*
X133073534Y-57936443D01*
X132917009Y-57852778D01*
X132881271Y-57823448D01*
X132779814Y-57740186D01*
X132696552Y-57638729D01*
X132667222Y-57602991D01*
X132583557Y-57446466D01*
X132532037Y-57276627D01*
X132514641Y-57100000D01*
X132532037Y-56923373D01*
X132583557Y-56753534D01*
X132667222Y-56597009D01*
X132704981Y-56551000D01*
X132779814Y-56459814D01*
X132897105Y-56363557D01*
X132917009Y-56347222D01*
X133073534Y-56263557D01*
X133243373Y-56212037D01*
X133309557Y-56205519D01*
X133375740Y-56199000D01*
X133464260Y-56199000D01*
X133530443Y-56205519D01*
X133530443Y-56205519D01*
G37*
G36*
X128450443Y-56205519D02*
G01*
X128516627Y-56212037D01*
X128686466Y-56263557D01*
X128842991Y-56347222D01*
X128862895Y-56363557D01*
X128980186Y-56459814D01*
X129055019Y-56551000D01*
X129092778Y-56597009D01*
X129176443Y-56753534D01*
X129227963Y-56923373D01*
X129245359Y-57100000D01*
X129227963Y-57276627D01*
X129176443Y-57446466D01*
X129092778Y-57602991D01*
X129063448Y-57638729D01*
X128980186Y-57740186D01*
X128878729Y-57823448D01*
X128842991Y-57852778D01*
X128686466Y-57936443D01*
X128516627Y-57987963D01*
X128450443Y-57994481D01*
X128384260Y-58001000D01*
X128295740Y-58001000D01*
X128229557Y-57994481D01*
X128163373Y-57987963D01*
X127993534Y-57936443D01*
X127837009Y-57852778D01*
X127801271Y-57823448D01*
X127699814Y-57740186D01*
X127616552Y-57638729D01*
X127587222Y-57602991D01*
X127503557Y-57446466D01*
X127452037Y-57276627D01*
X127434641Y-57100000D01*
X127452037Y-56923373D01*
X127503557Y-56753534D01*
X127587222Y-56597009D01*
X127624981Y-56551000D01*
X127699814Y-56459814D01*
X127817105Y-56363557D01*
X127837009Y-56347222D01*
X127993534Y-56263557D01*
X128163373Y-56212037D01*
X128229557Y-56205519D01*
X128295740Y-56199000D01*
X128384260Y-56199000D01*
X128450443Y-56205519D01*
X128450443Y-56205519D01*
G37*
G36*
X125910443Y-56205519D02*
G01*
X125976627Y-56212037D01*
X126146466Y-56263557D01*
X126302991Y-56347222D01*
X126322895Y-56363557D01*
X126440186Y-56459814D01*
X126515019Y-56551000D01*
X126552778Y-56597009D01*
X126636443Y-56753534D01*
X126687963Y-56923373D01*
X126705359Y-57100000D01*
X126687963Y-57276627D01*
X126636443Y-57446466D01*
X126552778Y-57602991D01*
X126523448Y-57638729D01*
X126440186Y-57740186D01*
X126338729Y-57823448D01*
X126302991Y-57852778D01*
X126146466Y-57936443D01*
X125976627Y-57987963D01*
X125910443Y-57994481D01*
X125844260Y-58001000D01*
X125755740Y-58001000D01*
X125689557Y-57994481D01*
X125623373Y-57987963D01*
X125453534Y-57936443D01*
X125297009Y-57852778D01*
X125261271Y-57823448D01*
X125159814Y-57740186D01*
X125076552Y-57638729D01*
X125047222Y-57602991D01*
X124963557Y-57446466D01*
X124912037Y-57276627D01*
X124894641Y-57100000D01*
X124912037Y-56923373D01*
X124963557Y-56753534D01*
X125047222Y-56597009D01*
X125084981Y-56551000D01*
X125159814Y-56459814D01*
X125277105Y-56363557D01*
X125297009Y-56347222D01*
X125453534Y-56263557D01*
X125623373Y-56212037D01*
X125689557Y-56205519D01*
X125755740Y-56199000D01*
X125844260Y-56199000D01*
X125910443Y-56205519D01*
X125910443Y-56205519D01*
G37*
G36*
X149206564Y-54489389D02*
G01*
X149397833Y-54568615D01*
X149397835Y-54568616D01*
X149569973Y-54683635D01*
X149716365Y-54830027D01*
X149831385Y-55002167D01*
X149910611Y-55193436D01*
X149951000Y-55396484D01*
X149951000Y-55603516D01*
X149910611Y-55806564D01*
X149831385Y-55997833D01*
X149831384Y-55997835D01*
X149716365Y-56169973D01*
X149569973Y-56316365D01*
X149397835Y-56431384D01*
X149397834Y-56431385D01*
X149397833Y-56431385D01*
X149206564Y-56510611D01*
X149003516Y-56551000D01*
X148796484Y-56551000D01*
X148593436Y-56510611D01*
X148402167Y-56431385D01*
X148402166Y-56431385D01*
X148402165Y-56431384D01*
X148230027Y-56316365D01*
X148083635Y-56169973D01*
X147968616Y-55997835D01*
X147968615Y-55997833D01*
X147889389Y-55806564D01*
X147849000Y-55603516D01*
X147849000Y-55396484D01*
X147889389Y-55193436D01*
X147968615Y-55002167D01*
X148083635Y-54830027D01*
X148230027Y-54683635D01*
X148402165Y-54568616D01*
X148402167Y-54568615D01*
X148593436Y-54489389D01*
X148796484Y-54449000D01*
X149003516Y-54449000D01*
X149206564Y-54489389D01*
X149206564Y-54489389D01*
G37*
G36*
X155706564Y-54489389D02*
G01*
X155897833Y-54568615D01*
X155897835Y-54568616D01*
X156069973Y-54683635D01*
X156216365Y-54830027D01*
X156331385Y-55002167D01*
X156410611Y-55193436D01*
X156451000Y-55396484D01*
X156451000Y-55603516D01*
X156410611Y-55806564D01*
X156331385Y-55997833D01*
X156331384Y-55997835D01*
X156216365Y-56169973D01*
X156069973Y-56316365D01*
X155897835Y-56431384D01*
X155897834Y-56431385D01*
X155897833Y-56431385D01*
X155706564Y-56510611D01*
X155503516Y-56551000D01*
X155296484Y-56551000D01*
X155093436Y-56510611D01*
X154902167Y-56431385D01*
X154902166Y-56431385D01*
X154902165Y-56431384D01*
X154730027Y-56316365D01*
X154583635Y-56169973D01*
X154468616Y-55997835D01*
X154468615Y-55997833D01*
X154389389Y-55806564D01*
X154349000Y-55603516D01*
X154349000Y-55396484D01*
X154389389Y-55193436D01*
X154468615Y-55002167D01*
X154583635Y-54830027D01*
X154730027Y-54683635D01*
X154902165Y-54568616D01*
X154902167Y-54568615D01*
X155093436Y-54489389D01*
X155296484Y-54449000D01*
X155503516Y-54449000D01*
X155706564Y-54489389D01*
X155706564Y-54489389D01*
G37*
M02*
