M48
INCH,TZ
T1C0.0157
T2C0.0236
T3C0.0394
T4C0.0433
T5C0.0437
%
G90
G05
T1
X41732Y-21260
X41732Y-21260
X41732Y-22835
X41732Y-24803
X41732Y-25984
X41732Y-27559
X41732Y-28740
X41732Y-30709
X41732Y-32677
X41732Y-34646
X41732Y-36614
X41732Y-38583
X41732Y-40551
X41732Y-42520
X41732Y-44488
X42520Y-45669
X42736Y-32047
X42874Y-33012
X42913Y-33858
X42913Y-35039
X42913Y-36220
X42913Y-37008
X42913Y-38189
X42913Y-38976
X42913Y-40551
X42913Y-41496
X42913Y-43543
X42933Y-34528
X42933Y-35531
X42933Y-36535
X42953Y-29488
X42953Y-37539
X42953Y-38524
X42953Y-39528
X42953Y-42520
X42992Y-31063
X43268Y-31535
X43484Y-34528
X43494Y-32480
X43622Y-25276
X43622Y-30039
X43681Y-35531
X43701Y-21260
X43720Y-33504
X43898Y-26496
X43898Y-29488
X43937Y-36516
X43947Y-34488
X44094Y-44094
X44173Y-27480
X44173Y-35512
X44173Y-37520
X44390Y-38524
X44400Y-36496
X44488Y-45669
X44646Y-37520
X44646Y-39528
X44764Y-25866
X45079Y-28346
X45079Y-29331
X45079Y-31024
X45079Y-32008
X45079Y-33268
X45079Y-34252
X45079Y-35236
X45079Y-36220
X45079Y-37205
X45079Y-39173
X45079Y-41142
X45079Y-43110
X45669Y-21260
X46063Y-44094
X46457Y-45669
X47047Y-22441
X47047Y-23425
X47047Y-25394
X47047Y-28346
X47047Y-29331
X47047Y-31024
X47047Y-32008
X47047Y-33268
X47047Y-34252
X47047Y-35236
X47047Y-36220
X47047Y-37205
X47047Y-39173
X47047Y-43110
X47638Y-21260
X47638Y-21260
X48031Y-22441
X48031Y-23425
X48031Y-44094
X48425Y-45669
X48504Y-26496
X48504Y-27480
X48504Y-30512
X48504Y-31496
X48504Y-32480
X48504Y-33504
X48504Y-35472
X48504Y-36496
X48504Y-37480
X48543Y-34488
X49016Y-39173
X49016Y-40157
X49016Y-43110
X49606Y-21260
X50000Y-23150
X50000Y-24409
X50000Y-44094
X50394Y-45669
X50472Y-38425
X50984Y-23150
X50984Y-24409
X50984Y-27362
X50984Y-29331
X50984Y-31299
X50984Y-33268
X50984Y-35236
X50984Y-37205
X50984Y-43110
X50984Y-47047
X51575Y-21260
X51969Y-23150
X51969Y-24409
X51969Y-44094
X52362Y-45669
X52953Y-27362
X52953Y-29331
X52953Y-31299
X52953Y-33268
X52953Y-35236
X52953Y-43110
X52953Y-47047
X53189Y-36929
X53543Y-21260
X53937Y-24409
X53937Y-44094
X54134Y-38504
X54331Y-30512
X54331Y-45669
X54449Y-29961
X54449Y-30984
X54528Y-29173
X54921Y-43110
X54921Y-47047
X55079Y-41575
X55512Y-21260
X55630Y-31457
X55630Y-32480
X55630Y-33504
X55630Y-34488
X55669Y-28504
X55669Y-29488
X55669Y-35472
X55906Y-22953
X55906Y-24409
X55906Y-39173
X55906Y-44094
X56299Y-45669
X56543Y-30472
X56890Y-22441
X56890Y-25394
X56890Y-27362
X56890Y-32008
X56890Y-33031
X56890Y-34055
X56890Y-35000
X56890Y-43110
X56890Y-47047
X57205Y-36496
X57205Y-42008
X57480Y-21260
X57520Y-30039
X57520Y-36929
X57874Y-39173
X57874Y-44094
X58268Y-35472
X58268Y-42559
X58268Y-45669
X58504Y-34488
X58504Y-43543
X58858Y-25906
X58858Y-27362
X58858Y-38189
X58858Y-39764
X58898Y-32008
X58898Y-33504
X58898Y-37480
X59134Y-32480
X59183Y-36496
X59409Y-26378
X59409Y-29134
X59449Y-21260
X59646Y-35472
X59685Y-31457
X59724Y-26457
X59724Y-27756
X59843Y-44094
X59921Y-28465
X60039Y-26339
X60197Y-30472
X60236Y-41732
X60236Y-45669
X60315Y-25512
X60472Y-29961
X60512Y-30984
X60827Y-32874
X60827Y-33858
X60827Y-35472
X60827Y-37480
X60866Y-30472
X61417Y-21260
X61417Y-21260
X62205Y-22441
X62205Y-24409
X62205Y-25591
X62205Y-27165
X62205Y-28346
X62205Y-30315
X62205Y-32283
X62205Y-34252
X62205Y-36220
X62205Y-38189
X62205Y-40157
X62205Y-42126
X62205Y-44094
X62205Y-45669
T2
X45866Y-23622
X46378Y-24134
X46378Y-40913
X59055Y-43425
X59094Y-41142
X60834Y-43488
T3
X42362Y-29528
X42362Y-30528
X42362Y-31528
X42362Y-32528
X42362Y-33528
X42362Y-34528
X42362Y-35528
X42362Y-36528
X42362Y-37528
X42362Y-38528
X42362Y-39528
X42362Y-40528
X42362Y-41528
X42362Y-42528
X42362Y-43528
X42362Y-44528
X61417Y-29488
X61417Y-30488
X61417Y-31488
X61417Y-32488
X61417Y-33488
X61417Y-34488
X61417Y-35488
X61417Y-36488
X61417Y-37488
X61417Y-38488
X61417Y-39488
X61417Y-40488
X61417Y-41488
X61417Y-42488
X61417Y-43488
X61417Y-44488
X44276Y-22520
X45276Y-22520
X49528Y-22480
X50528Y-22480
X51528Y-22480
X52528Y-22480
X53528Y-22480
X54528Y-22480
T4
X58622Y-21850
X58622Y-23622
X61181Y-21850
X61181Y-23622
T5
X49094Y-26488
X49094Y-27488
X49094Y-28488
X49094Y-29488
X49094Y-30488
X49094Y-31488
X49094Y-32488
X49094Y-33488
X49094Y-34488
X49094Y-35488
X49094Y-36488
X49094Y-37488
X49594Y-25488
X50594Y-25488
X51594Y-25488
X52094Y-37488
X52594Y-25488
X53094Y-37488
X53594Y-25488
X53917Y-29988
X53917Y-30988
X54094Y-37488
X54594Y-25488
X55094Y-26488
X55094Y-27488
X55094Y-28488
X55094Y-29488
X55094Y-30488
X55094Y-31488
X55094Y-32488
X55094Y-33488
X55094Y-34488
X55094Y-35488
X55094Y-36488
X55094Y-37488
T0
M30
